<svg width="299" height="323" viewBox="0 0 299 323" fill="none" xmlns="http://www.w3.org/2000/svg">
<mask id="mask0_1533_5457" style="mask-type:luminance" maskUnits="userSpaceOnUse" x="124" y="71" width="119" height="141">
<path d="M124.799 71.043H242.377V211.585H124.799V71.043Z" fill="white"/>
</mask>
<g mask="url(#mask0_1533_5457)">
<mask id="mask1_1533_5457" style="mask-type:luminance" maskUnits="userSpaceOnUse" x="124" y="71" width="119" height="141">
<path d="M242.377 81.0378V201.533C242.377 204.184 241.325 206.73 239.45 208.6C237.575 210.475 235.034 211.533 232.383 211.533H134.794C132.143 211.533 129.601 210.475 127.726 208.6C125.851 206.73 124.799 204.184 124.799 201.533V81.0378C124.799 78.3867 125.851 75.8451 127.726 73.9701C129.601 72.0951 132.143 71.043 134.794 71.043H232.383C235.034 71.043 237.575 72.0951 239.45 73.9701C241.325 75.8451 242.377 78.3867 242.377 81.0378Z" fill="white"/>
</mask>
<g mask="url(#mask1_1533_5457)">
<mask id="mask2_1533_5457" style="mask-type:luminance" maskUnits="userSpaceOnUse" x="124" y="69" width="120" height="144">
<path d="M243.304 69.8047H124.638V212.471H243.304V69.8047Z" fill="white"/>
</mask>
<g mask="url(#mask2_1533_5457)">
<mask id="mask3_1533_5457" style="mask-type:luminance" maskUnits="userSpaceOnUse" x="124" y="71" width="119" height="141">
<path d="M124.799 71.043H242.377V211.585H124.799V71.043Z" fill="white"/>
</mask>
<g mask="url(#mask3_1533_5457)">
<mask id="mask4_1533_5457" style="mask-type:luminance" maskUnits="userSpaceOnUse" x="124" y="71" width="119" height="141">
<path d="M242.377 81.0378V201.533C242.377 204.184 241.325 206.73 239.45 208.6C237.575 210.475 235.034 211.533 232.383 211.533H134.794C132.143 211.533 129.601 210.475 127.726 208.6C125.851 206.73 124.799 204.184 124.799 201.533V81.0378C124.799 78.3867 125.851 75.8451 127.726 73.9701C129.601 72.0951 132.143 71.043 134.794 71.043H232.383C235.034 71.043 237.575 72.0951 239.45 73.9701C241.325 75.8451 242.377 78.3867 242.377 81.0378Z" fill="white"/>
</mask>
<g mask="url(#mask4_1533_5457)">
<path d="M124.799 71.043H242.377V211.585H124.799V71.043Z" fill="white"/>
</g>
</g>
</g>
</g>
</g>
<mask id="mask5_1533_5457" style="mask-type:luminance" maskUnits="userSpaceOnUse" x="124" y="71" width="119" height="141">
<path d="M124.815 71.043H242.403V211.043H124.815V71.043Z" fill="white"/>
</mask>
<g mask="url(#mask5_1533_5457)">
<mask id="mask6_1533_5457" style="mask-type:luminance" maskUnits="userSpaceOnUse" x="124" y="71" width="119" height="141">
<path d="M242.393 81.0378V201.527C242.393 204.178 241.336 206.72 239.466 208.595C237.591 210.47 235.044 211.527 232.393 211.527H134.81C132.159 211.527 129.617 210.47 127.742 208.595C125.867 206.72 124.815 204.178 124.815 201.527V81.0378C124.815 78.3867 125.867 75.8451 127.742 73.9701C129.617 72.0951 132.159 71.043 134.81 71.043H232.393C235.044 71.043 237.591 72.0951 239.466 73.9701C241.336 75.8451 242.393 78.3867 242.393 81.0378Z" fill="white"/>
</mask>
<g mask="url(#mask6_1533_5457)">
<path d="M242.393 81.0378V201.527C242.393 204.178 241.336 206.72 239.466 208.595C237.591 210.47 235.044 211.527 232.393 211.527H134.81C132.159 211.527 129.617 210.47 127.742 208.595C125.867 206.72 124.815 204.178 124.815 201.527V81.0378C124.815 78.3867 125.867 75.8451 127.742 73.9701C129.617 72.0951 132.159 71.043 134.81 71.043H232.393C235.044 71.043 237.591 72.0951 239.466 73.9701C241.336 75.8451 242.393 78.3867 242.393 81.0378Z" stroke="white" stroke-width="6"/>
</g>
</g>
<mask id="mask7_1533_5457" style="mask-type:luminance" maskUnits="userSpaceOnUse" x="172" y="184" width="23" height="23">
<path d="M172.336 184.062H194.883V206.609H172.336V184.062Z" fill="white"/>
</mask>
<g mask="url(#mask7_1533_5457)">
<mask id="mask8_1533_5457" style="mask-type:luminance" maskUnits="userSpaceOnUse" x="172" y="184" width="23" height="23">
<path d="M183.607 184.062C177.383 184.062 172.336 189.109 172.336 195.333C172.336 201.562 177.383 206.609 183.607 206.609C189.836 206.609 194.883 201.562 194.883 195.333C194.883 189.109 189.836 184.062 183.607 184.062Z" fill="white"/>
</mask>
<g mask="url(#mask8_1533_5457)">
<mask id="mask9_1533_5457" style="mask-type:luminance" maskUnits="userSpaceOnUse" x="171" y="183" width="25" height="25">
<path d="M195.305 183.137H171.305V207.137H195.305V183.137Z" fill="white"/>
</mask>
<g mask="url(#mask9_1533_5457)">
<mask id="mask10_1533_5457" style="mask-type:luminance" maskUnits="userSpaceOnUse" x="172" y="184" width="23" height="23">
<path d="M172.336 184.062H194.883V206.609H172.336V184.062Z" fill="white"/>
</mask>
<g mask="url(#mask10_1533_5457)">
<mask id="mask11_1533_5457" style="mask-type:luminance" maskUnits="userSpaceOnUse" x="172" y="184" width="23" height="23">
<path d="M183.607 184.062C177.383 184.062 172.336 189.109 172.336 195.333C172.336 201.563 177.383 206.609 183.607 206.609C189.836 206.609 194.883 201.563 194.883 195.333C194.883 189.109 189.836 184.062 183.607 184.062Z" fill="white"/>
</mask>
<g mask="url(#mask11_1533_5457)">
<path d="M172.336 184.062H194.883V206.609H172.336V184.062Z" fill="#B23E3E"/>
</g>
</g>
</g>
</g>
</g>
<mask id="mask12_1533_5457" style="mask-type:luminance" maskUnits="userSpaceOnUse" x="172" y="184" width="23" height="23">
<path d="M172.336 184.062H194.867V206.594H172.336V184.062Z" fill="white"/>
</mask>
<g mask="url(#mask12_1533_5457)">
<mask id="mask13_1533_5457" style="mask-type:luminance" maskUnits="userSpaceOnUse" x="172" y="184" width="23" height="23">
<path d="M183.602 184.062C177.378 184.062 172.336 189.109 172.336 195.328C172.336 201.552 177.378 206.594 183.602 206.594C189.826 206.594 194.867 201.552 194.867 195.328C194.867 189.109 189.826 184.062 183.602 184.062Z" fill="white"/>
</mask>
<g mask="url(#mask13_1533_5457)">
<path d="M183.602 184.062C177.378 184.062 172.336 189.109 172.336 195.328C172.336 201.552 177.378 206.594 183.602 206.594C189.826 206.594 194.867 201.552 194.867 195.328C194.867 189.109 189.826 184.062 183.602 184.062Z" stroke="#B23E3E" stroke-width="4"/>
</g>
</g>
<mask id="mask14_1533_5457" style="mask-type:luminance" maskUnits="userSpaceOnUse" x="165" y="149" width="8" height="9">
<path d="M165.294 149.801H172.638V157.296H165.294V149.801Z" fill="white"/>
</mask>
<g mask="url(#mask14_1533_5457)">
<path d="M166.393 154.339V150.578H165.294V154.339C165.294 155.969 166.628 157.302 168.258 157.302H172.018V156.203H168.258C167.232 156.203 166.393 155.365 166.393 154.339Z" fill="black"/>
</g>
<mask id="mask15_1533_5457" style="mask-type:luminance" maskUnits="userSpaceOnUse" x="165" y="120" width="8" height="8">
<path d="M165.294 120.297H172.638V127.135H165.294V120.297Z" fill="white"/>
</mask>
<g mask="url(#mask15_1533_5457)">
<path d="M165.294 123.259V127.02H166.393V123.259C166.393 122.233 167.232 121.395 168.258 121.395H172.018V120.301H168.258C166.628 120.301 165.294 121.629 165.294 123.259Z" fill="black"/>
</g>
<mask id="mask16_1533_5457" style="mask-type:luminance" maskUnits="userSpaceOnUse" x="195" y="149" width="8" height="9">
<path d="M195.305 149.801H202.294V157.296H195.305V149.801Z" fill="white"/>
</mask>
<g mask="url(#mask16_1533_5457)">
<path d="M201.201 154.339C201.201 155.365 200.362 156.203 199.336 156.203H195.576V157.302H199.336C200.966 157.302 202.294 155.969 202.294 154.339V150.578H201.201V154.339Z" fill="black"/>
</g>
<mask id="mask17_1533_5457" style="mask-type:luminance" maskUnits="userSpaceOnUse" x="195" y="120" width="8" height="8">
<path d="M195.305 120.297H202.294V127.135H195.305V120.297Z" fill="white"/>
</mask>
<g mask="url(#mask17_1533_5457)">
<path d="M199.336 120.301H195.576V121.395H199.336C200.362 121.395 201.201 122.233 201.201 123.259V127.02H202.294V123.259C202.294 121.629 200.966 120.301 199.336 120.301Z" fill="black"/>
</g>
<mask id="mask18_1533_5457" style="mask-type:luminance" maskUnits="userSpaceOnUse" x="176" y="190" width="15" height="12">
<path d="M176.789 190.043H190.789V201.043H176.789V190.043Z" fill="white"/>
</mask>
<g mask="url(#mask18_1533_5457)">
<path d="M190.159 191.73H187.252L186.388 190.163C186.341 190.09 186.273 190.043 186.18 190.043H181.028C180.935 190.043 180.867 190.09 180.82 190.163L179.95 191.73H177.049C176.909 191.73 176.815 191.824 176.815 191.965V200.387C176.815 200.527 176.909 200.621 177.049 200.621H190.159C190.299 200.621 190.388 200.527 190.388 200.387V191.965C190.388 191.824 190.299 191.73 190.159 191.73ZM183.601 199.007C182.034 199.007 180.773 197.746 180.773 196.178C180.773 194.605 182.034 193.345 183.601 193.345C185.169 193.345 186.435 194.605 186.435 196.178C186.435 197.746 185.169 199.007 183.601 199.007Z" fill="white"/>
</g>
<path d="M138.02 30.5598C137.113 30.6014 136.316 30.5598 135.624 30.4348C134.941 30.2994 134.363 30.0962 133.895 29.8306C133.436 29.5546 133.082 29.2264 132.832 28.8514C132.593 28.466 132.468 28.0389 132.457 27.5806C132.441 27.2369 132.499 26.9296 132.624 26.6639C132.749 26.4035 132.936 26.1796 133.186 25.9973C133.436 25.8202 133.728 25.6796 134.061 25.5806C134.405 25.4869 134.79 25.4244 135.207 25.3931C135.233 26.0598 135.332 26.6431 135.499 27.1431C135.676 27.6327 135.9 28.0337 136.165 28.3514C136.441 28.6744 136.759 28.9035 137.124 29.0389C137.499 29.1639 137.9 29.2212 138.332 29.2056C138.749 29.1952 139.108 29.1223 139.415 28.9973C139.733 28.8619 140.004 28.6848 140.228 28.4764C140.447 28.2577 140.608 28.0077 140.707 27.7264C140.816 27.4504 140.863 27.1535 140.853 26.8306C140.837 26.5285 140.78 26.2473 140.686 25.9973C140.603 25.7369 140.457 25.4869 140.249 25.2473C140.04 25.0129 139.749 24.7837 139.374 24.5598C139.009 24.3254 138.551 24.0598 137.999 23.7681C137.4 23.4764 136.879 23.1796 136.436 22.8723C135.988 22.5546 135.613 22.216 135.311 21.8514C135.004 21.4764 134.77 21.0598 134.603 20.6014C134.436 20.1431 134.337 19.6327 134.311 19.0598C134.28 18.4087 134.384 17.7994 134.624 17.2264C134.858 16.6587 135.212 16.1639 135.686 15.7473C136.171 15.3306 136.754 14.9973 137.436 14.7473C138.129 14.4973 138.915 14.3619 139.79 14.3306C140.608 14.2889 141.322 14.3202 141.936 14.4139C142.546 14.5129 143.061 14.6639 143.478 14.8723C143.895 15.0806 144.207 15.3306 144.415 15.6223C144.624 15.9139 144.738 16.2264 144.77 16.5598C144.78 17.1587 144.572 17.6379 144.145 17.9973C143.712 18.3619 142.988 18.5598 141.978 18.6014C141.962 18.2681 141.915 17.9296 141.832 17.5806C141.749 17.2369 141.613 16.9139 141.436 16.6223C141.254 16.3306 141.02 16.0962 140.728 15.9139C140.447 15.7369 140.093 15.6535 139.665 15.6639C139.374 15.6796 139.082 15.7421 138.79 15.8514C138.509 15.966 138.259 16.1171 138.04 16.3098C137.816 16.4921 137.634 16.7264 137.499 17.0181C137.374 17.3098 137.316 17.6535 137.332 18.0389C137.343 18.4296 137.421 18.7577 137.561 19.0181C137.697 19.2837 137.895 19.5285 138.145 19.7473C138.395 19.9712 138.707 20.1796 139.082 20.3723C139.468 20.5702 139.915 20.7889 140.415 21.0389C141.551 21.5962 142.4 22.2264 142.957 22.9348C143.509 23.6327 143.811 24.4504 143.853 25.3931C143.895 26.1744 143.78 26.8723 143.52 27.4973C143.254 28.1223 142.874 28.6587 142.374 29.1014C141.874 29.5337 141.254 29.8723 140.52 30.1223C139.78 30.3723 138.947 30.5181 138.02 30.5598Z" fill="white"/>
<path d="M143.949 30.082L144.158 28.9154L144.429 28.8945C144.663 28.8841 144.887 28.8633 145.095 28.832C145.304 28.7904 145.496 28.7227 145.679 28.6237C145.856 28.5143 146.012 28.3685 146.137 28.1862C146.262 28.0091 146.35 27.7799 146.408 27.4987L148.366 15.4987L146.595 15.582C146.262 15.5977 145.97 15.6549 145.72 15.7487C145.481 15.8477 145.283 15.9883 145.116 16.1654C144.949 16.3477 144.809 16.5612 144.699 16.8112C144.585 17.0612 144.481 17.3477 144.387 17.6654L144.116 18.6237L142.658 18.6862L143.47 14.3737L157.158 13.7695L156.574 18.0612L155.095 18.1237C155.095 18.082 155.1 17.9727 155.116 17.7904C155.126 17.6133 155.137 17.4258 155.137 17.2279C155.147 17.0352 155.163 16.8529 155.179 16.6862C155.189 16.5091 155.199 16.4049 155.199 16.3737C155.184 15.9883 155.054 15.7018 154.804 15.5195C154.564 15.3424 154.163 15.2591 153.595 15.2695L151.845 15.3529L149.845 27.3945C149.83 27.4935 149.814 27.5924 149.804 27.6862C149.788 27.7852 149.783 27.8633 149.783 27.9154C149.783 28.0716 149.824 28.1966 149.908 28.2904C150.001 28.3737 150.121 28.4466 150.262 28.4987C150.397 28.5404 150.574 28.5716 150.783 28.582C150.991 28.5977 151.205 28.5977 151.429 28.582H151.72L151.533 29.7487L143.949 30.082Z" fill="white"/>
<path d="M156.997 24.3307L155.997 26.3516C155.872 26.6328 155.773 26.8724 155.705 27.0807C155.648 27.2786 155.627 27.4505 155.642 27.6016C155.653 27.8828 155.767 28.0807 155.976 28.2057C156.184 28.3203 156.502 28.3672 156.934 28.3516L157.372 28.3307L157.163 29.4974L151.434 29.7474L151.642 28.5807L152.101 28.5599C152.299 28.5495 152.471 28.513 152.622 28.4557C152.773 28.4036 152.913 28.3047 153.038 28.1641C153.174 28.0286 153.314 27.8464 153.455 27.6224C153.606 27.388 153.778 27.1016 153.976 26.7682L160.892 13.6016L163.872 13.4766L166.288 26.3516C166.33 26.5599 166.382 26.763 166.455 26.9557C166.523 27.1536 166.611 27.3203 166.726 27.4557C166.835 27.5807 166.965 27.6849 167.122 27.7682C167.288 27.8411 167.481 27.8724 167.705 27.8724L168.101 27.8516L167.913 29.0182L160.663 29.3516L160.872 28.1641L161.372 28.1432C161.84 28.1328 162.21 28.0495 162.476 27.8932C162.752 27.7266 162.882 27.4766 162.872 27.1432C162.856 27.0339 162.84 26.9245 162.83 26.8099C162.814 26.6849 162.799 26.5703 162.788 26.4557L162.351 24.1016L156.997 24.3307ZM161.58 19.0807C161.523 18.763 161.476 18.4661 161.434 18.1849C161.403 17.9089 161.372 17.638 161.33 17.3724C161.288 17.112 161.247 16.8516 161.205 16.6016C161.174 16.3411 161.153 16.0755 161.142 15.8099C161.043 16.0911 160.944 16.3464 160.851 16.5807C160.767 16.8203 160.663 17.0547 160.538 17.2891C160.424 17.513 160.299 17.763 160.163 18.0391C160.038 18.3047 159.882 18.612 159.705 18.9557L157.684 22.9349L162.142 22.7474L161.58 19.0807Z" fill="white"/>
<path d="M171.912 20.7374L173.266 20.6749C173.735 20.6645 174.167 20.5811 174.558 20.4249C174.959 20.2582 175.297 20.0238 175.579 19.7166C175.855 19.4145 176.068 19.0291 176.224 18.5707C176.375 18.1124 176.438 17.5499 176.412 16.8832C176.396 16.3988 176.334 15.9874 176.224 15.6541C176.11 15.3207 175.964 15.0603 175.787 14.8624C175.605 14.6541 175.375 14.5082 175.099 14.4249C174.834 14.3416 174.521 14.3155 174.162 14.3416L173.037 14.3832L171.912 20.7374ZM174.766 12.9874C176.5 12.9197 177.813 13.1697 178.704 13.7374C179.605 14.3103 180.084 15.2113 180.141 16.4457C180.167 17.1957 180.068 17.8363 179.849 18.3624C179.641 18.8936 179.349 19.3416 178.974 19.7166C178.61 20.0811 178.204 20.378 177.745 20.6124C177.297 20.8363 176.855 21.0082 176.412 21.1332L178.12 25.1541C178.287 25.5707 178.443 25.9249 178.599 26.2166C178.766 26.4978 178.933 26.7166 179.099 26.8832C179.266 27.0499 179.443 27.1697 179.641 27.2374C179.834 27.3103 180.058 27.3363 180.308 27.3207H180.391L180.204 28.4874L179.974 28.5082C179.209 28.5395 178.542 28.5395 177.974 28.5082C177.417 28.4666 176.933 28.3624 176.516 28.1957C176.11 28.0186 175.771 27.7738 175.495 27.4666C175.214 27.1488 174.985 26.7322 174.808 26.2166L173.224 21.9457L171.724 22.0082L171.016 26.0916C170.974 26.3572 170.943 26.5603 170.933 26.6957C170.917 26.8363 170.912 26.9353 170.912 26.9874C170.912 27.1436 170.954 27.2686 171.037 27.3624C171.12 27.4457 171.23 27.5186 171.37 27.5707C171.521 27.6124 171.704 27.6436 171.912 27.6541C172.12 27.6697 172.334 27.6697 172.558 27.6541L173.287 27.6332L173.079 28.7999L165.079 29.1541L165.266 27.9874L165.558 27.9666C165.792 27.9561 166.016 27.9353 166.224 27.9041C166.433 27.8624 166.625 27.7947 166.808 27.6957C166.985 27.5863 167.141 27.4405 167.266 27.2582C167.391 27.0811 167.474 26.852 167.516 26.5707L169.287 15.9041C169.37 15.5291 169.412 15.2791 169.412 15.1541C169.396 15.003 169.349 14.878 169.266 14.7791C169.183 14.6853 169.063 14.6124 168.912 14.5707C168.771 14.5186 168.605 14.4822 168.412 14.4666C168.214 14.4561 168 14.4561 167.766 14.4666L167.495 14.4874L167.683 13.2999L174.766 12.9874Z" fill="white"/>
<path d="M179.922 28.4961L180.13 27.3294L180.401 27.3086C180.635 27.2982 180.859 27.2773 181.067 27.2461C181.276 27.2044 181.468 27.1367 181.651 27.0378C181.828 26.9284 181.984 26.7826 182.109 26.6003C182.234 26.4232 182.323 26.194 182.38 25.9128L184.338 13.9128L182.567 13.9961C182.234 14.0117 181.942 14.069 181.692 14.1628C181.453 14.2617 181.255 14.4023 181.088 14.5794C180.922 14.7617 180.781 14.9753 180.672 15.2253C180.557 15.4753 180.453 15.7617 180.359 16.0794L180.088 17.0378L178.63 17.1003L179.442 12.7878L193.13 12.1836L192.547 16.4753L191.067 16.5378C191.067 16.4961 191.073 16.3867 191.088 16.2044C191.099 16.0273 191.109 15.8398 191.109 15.6419C191.119 15.4492 191.135 15.2669 191.151 15.1003C191.161 14.9232 191.172 14.819 191.172 14.7878C191.156 14.4023 191.026 14.1159 190.776 13.9336C190.536 13.7565 190.135 13.6732 189.567 13.6836L187.817 13.7669L185.817 25.8086C185.802 25.9076 185.786 26.0065 185.776 26.1003C185.76 26.1992 185.755 26.2773 185.755 26.3294C185.755 26.4857 185.797 26.6107 185.88 26.7044C185.974 26.7878 186.093 26.8607 186.234 26.9128C186.369 26.9544 186.547 26.9857 186.755 26.9961C186.963 27.0117 187.177 27.0117 187.401 26.9961H187.692L187.505 28.1628L179.922 28.4961Z" fill="white"/>
<path d="M4.6875 23.2708C4.6875 24.3542 4.90104 25.1198 5.33333 25.5625C5.77604 25.9948 6.375 26.2083 7.125 26.2083C7.85938 26.2083 8.44271 25.9948 8.875 25.5625C9.31771 25.1198 9.54167 24.3542 9.54167 23.2708V7.1875C9.54167 6.10417 9.31771 5.34896 8.875 4.91667C8.44271 4.47396 7.85938 4.25 7.125 4.25C6.375 4.25 5.77604 4.47396 5.33333 4.91667C4.90104 5.34896 4.6875 6.10417 4.6875 7.1875V23.2708ZM0 7.47917C0 5.0625 0.609375 3.21875 1.83333 1.9375C3.05208 0.645833 4.81771 0 7.125 0C9.41667 0 11.1719 0.645833 12.3958 1.9375C13.6146 3.21875 14.2292 5.0625 14.2292 7.47917V22.9792C14.2292 25.3854 13.6146 27.2292 12.3958 28.5208C11.1719 29.8125 9.41667 30.4583 7.125 30.4583C4.81771 30.4583 3.05208 29.8125 1.83333 28.5208C0.609375 27.2292 0 25.3854 0 22.9792V7.47917Z" fill="white"/>
<path d="M19.7502 20.4987V23.2695C19.7502 24.3529 19.9637 25.1133 20.396 25.5404C20.8387 25.957 21.4272 26.1654 22.1668 26.1654C22.9168 26.1654 23.5054 25.957 23.9377 25.5404C24.3804 25.1133 24.6043 24.3529 24.6043 23.2695V16.707C24.6043 15.6393 24.3804 14.8841 23.9377 14.4362C23.5054 13.9935 22.9168 13.7695 22.1668 13.7695C21.4272 13.7695 20.8387 13.9935 20.396 14.4362C19.9637 14.8841 19.7502 15.6393 19.7502 16.707V17.6029H15.3335L16.1668 0.332031H28.521V4.58203H20.396L20.0002 11.6862C20.8856 10.2435 22.2502 9.51953 24.0835 9.51953C25.8179 9.51953 27.1147 10.1029 27.9793 11.2695C28.8543 12.4362 29.2918 14.1237 29.2918 16.332V22.9779C29.2918 25.3841 28.6981 27.2279 27.521 28.5195C26.3387 29.8112 24.6043 30.457 22.3127 30.457C20.0054 30.457 18.2606 29.8112 17.0835 28.5195C15.9168 27.2279 15.3335 25.3841 15.3335 22.9779V20.4987H19.7502Z" fill="white"/>
<path d="M55.589 305.164C55.589 303.362 56.0161 301.971 56.8807 300.997C57.7401 300.029 59.0369 299.539 60.7765 299.539C62.4953 299.539 63.7869 300.029 64.6515 300.997C65.5109 301.971 65.9432 303.362 65.9432 305.164V306.039H62.6307V304.956C62.6307 304.138 62.4692 303.57 62.1515 303.247C61.8442 302.914 61.4119 302.747 60.8599 302.747C60.3026 302.747 59.8703 302.914 59.5682 303.247C59.2609 303.57 59.1099 304.138 59.1099 304.956C59.1099 305.721 59.2765 306.393 59.6099 306.977C59.9536 307.56 60.3859 308.117 60.9015 308.643C61.4119 309.174 61.964 309.701 62.5474 310.227C63.1307 310.742 63.6776 311.31 64.1932 311.935C64.7036 312.549 65.1307 313.247 65.464 314.039C65.8078 314.82 65.9849 315.742 65.9849 316.81C65.9849 318.633 65.5369 320.029 64.6515 320.997C63.7609 321.956 62.4536 322.435 60.7349 322.435C59.0109 322.435 57.7036 321.956 56.8182 320.997C55.9276 320.029 55.4849 318.633 55.4849 316.81V315.268H58.8182V317.039C58.8182 317.846 58.9849 318.409 59.3182 318.727C59.6515 319.049 60.089 319.206 60.6307 319.206C61.1828 319.206 61.6307 319.049 61.964 318.727C62.2974 318.409 62.464 317.846 62.464 317.039C62.464 316.279 62.2869 315.602 61.9432 315.018C61.6099 314.424 61.1828 313.867 60.6724 313.352C60.1567 312.826 59.6099 312.305 59.0265 311.789C58.4432 311.263 57.8911 310.695 57.3807 310.081C56.8651 309.456 56.4328 308.747 56.089 307.956C55.7557 307.164 55.589 306.237 55.589 305.164Z" fill="white"/>
<path d="M69.583 299.789H80.458V302.997H76.7913V322.185H73.2705V302.997H69.583V299.789Z" fill="white"/>
<path d="M96.0044 322.185H92.4419L91.8377 318.122H87.5252L86.9211 322.185H83.6919L87.2752 299.789H92.4211L96.0044 322.185ZM87.9836 315.081H91.3586L89.6711 303.768L87.9836 315.081Z" fill="white"/>
<path d="M107.532 322.185C107.491 322.034 107.449 321.893 107.407 321.768C107.366 321.643 107.329 321.487 107.303 321.289C107.272 321.096 107.251 320.852 107.241 320.56C107.225 320.258 107.22 319.883 107.22 319.435V315.914C107.22 314.872 107.038 314.143 106.678 313.727C106.314 313.299 105.73 313.081 104.928 313.081H103.699V322.185H100.178V299.789H105.491C107.324 299.789 108.647 300.221 109.47 301.081C110.288 301.93 110.699 303.221 110.699 304.956V306.706C110.699 309.013 109.933 310.529 108.407 311.247C109.293 311.612 109.907 312.201 110.241 313.018C110.574 313.841 110.741 314.841 110.741 316.018V319.477C110.741 320.018 110.762 320.497 110.803 320.914C110.845 321.331 110.949 321.758 111.116 322.185H107.532ZM103.699 302.997V309.872H105.074C105.741 309.872 106.262 309.706 106.637 309.372C107.012 309.029 107.199 308.404 107.199 307.497V305.31C107.199 304.492 107.053 303.904 106.762 303.539C106.47 303.18 106.017 302.997 105.407 302.997H103.699Z" fill="white"/>
<path d="M114.63 299.789H125.505V302.997H121.838V322.185H118.317V302.997H114.63V299.789Z" fill="white"/>
<path d="M140.482 314.768L136.023 299.789H139.711L142.398 309.997L145.086 299.789H148.44L143.982 314.768V322.185H140.482V314.768Z" fill="white"/>
<path d="M155.616 317.039C155.616 317.846 155.783 318.414 156.116 318.747C156.45 319.081 156.892 319.247 157.45 319.247C158.002 319.247 158.439 319.081 158.762 318.747C159.095 318.414 159.262 317.846 159.262 317.039V304.956C159.262 304.138 159.095 303.57 158.762 303.247C158.439 302.914 158.002 302.747 157.45 302.747C156.892 302.747 156.45 302.914 156.116 303.247C155.783 303.57 155.616 304.138 155.616 304.956V317.039ZM152.116 305.164C152.116 303.362 152.575 301.971 153.491 300.997C154.408 300.029 155.726 299.539 157.45 299.539C159.168 299.539 160.491 300.029 161.408 300.997C162.325 301.971 162.783 303.362 162.783 305.164V316.81C162.783 318.633 162.325 320.029 161.408 320.997C160.491 321.956 159.168 322.435 157.45 322.435C155.726 322.435 154.408 321.956 153.491 320.997C152.575 320.029 152.116 318.633 152.116 316.81V305.164Z" fill="white"/>
<path d="M170.98 299.789V317.06C170.98 317.883 171.137 318.451 171.459 318.768C171.793 319.091 172.236 319.247 172.793 319.247C173.345 319.247 173.793 319.091 174.126 318.768C174.459 318.451 174.626 317.883 174.626 317.06V299.789H177.939V316.852C177.939 318.659 177.491 320.049 176.605 321.018C175.73 321.992 174.423 322.477 172.689 322.477C170.965 322.477 169.657 321.992 168.772 321.018C167.897 320.049 167.459 318.659 167.459 316.852V299.789H170.98Z" fill="white"/>
<path d="M190.241 322.185C190.2 322.034 190.158 321.893 190.116 321.768C190.075 321.643 190.038 321.487 190.012 321.289C189.981 321.096 189.96 320.852 189.95 320.56C189.934 320.258 189.929 319.883 189.929 319.435V315.914C189.929 314.872 189.747 314.143 189.387 313.727C189.023 313.299 188.439 313.081 187.637 313.081H186.408V322.185H182.887V299.789H188.2C190.033 299.789 191.356 300.221 192.179 301.081C192.997 301.93 193.408 303.221 193.408 304.956V306.706C193.408 309.013 192.642 310.529 191.116 311.247C192.002 311.612 192.616 312.201 192.95 313.018C193.283 313.841 193.45 314.841 193.45 316.018V319.477C193.45 320.018 193.471 320.497 193.512 320.914C193.554 321.331 193.658 321.758 193.825 322.185H190.241ZM186.408 302.997V309.872H187.783C188.45 309.872 188.971 309.706 189.346 309.372C189.721 309.029 189.908 308.404 189.908 307.497V305.31C189.908 304.492 189.762 303.904 189.471 303.539C189.179 303.18 188.726 302.997 188.116 302.997H186.408Z" fill="white"/>
<path d="M205.373 305.164C205.373 303.362 205.8 301.971 206.665 300.997C207.524 300.029 208.821 299.539 210.561 299.539C212.279 299.539 213.571 300.029 214.436 300.997C215.295 301.971 215.727 303.362 215.727 305.164V306.039H212.415V304.956C212.415 304.138 212.253 303.57 211.936 303.247C211.628 302.914 211.196 302.747 210.644 302.747C210.087 302.747 209.654 302.914 209.352 303.247C209.045 303.57 208.894 304.138 208.894 304.956C208.894 305.721 209.061 306.393 209.394 306.977C209.738 307.56 210.17 308.117 210.686 308.643C211.196 309.174 211.748 309.701 212.332 310.227C212.915 310.742 213.462 311.31 213.977 311.935C214.488 312.549 214.915 313.247 215.248 314.039C215.592 314.82 215.769 315.742 215.769 316.81C215.769 318.633 215.321 320.029 214.436 320.997C213.545 321.956 212.238 322.435 210.519 322.435C208.795 322.435 207.488 321.956 206.602 320.997C205.712 320.029 205.269 318.633 205.269 316.81V315.268H208.602V317.039C208.602 317.846 208.769 318.409 209.102 318.727C209.436 319.049 209.873 319.206 210.415 319.206C210.967 319.206 211.415 319.049 211.748 318.727C212.082 318.409 212.248 317.846 212.248 317.039C212.248 316.279 212.071 315.602 211.727 315.018C211.394 314.424 210.967 313.867 210.457 313.352C209.941 312.826 209.394 312.305 208.811 311.789C208.227 311.263 207.675 310.695 207.165 310.081C206.649 309.456 206.217 308.747 205.873 307.956C205.54 307.164 205.373 306.237 205.373 305.164Z" fill="white"/>
<path d="M223.847 309.227H228.68V312.435H223.847V318.977H229.93V322.185H220.326V299.789H229.93V302.997H223.847V309.227Z" fill="white"/>
<path d="M234.211 305.164C234.211 303.362 234.638 301.971 235.503 300.997C236.362 300.029 237.659 299.539 239.399 299.539C241.117 299.539 242.409 300.029 243.274 300.997C244.133 301.971 244.565 303.362 244.565 305.164V306.039H241.253V304.956C241.253 304.138 241.091 303.57 240.774 303.247C240.466 302.914 240.034 302.747 239.482 302.747C238.925 302.747 238.492 302.914 238.19 303.247C237.883 303.57 237.732 304.138 237.732 304.956C237.732 305.721 237.899 306.393 238.232 306.977C238.576 307.56 239.008 308.117 239.524 308.643C240.034 309.174 240.586 309.701 241.169 310.227C241.753 310.742 242.3 311.31 242.815 311.935C243.326 312.549 243.753 313.247 244.086 314.039C244.43 314.82 244.607 315.742 244.607 316.81C244.607 318.633 244.159 320.029 243.274 320.997C242.383 321.956 241.076 322.435 239.357 322.435C237.633 322.435 236.326 321.956 235.44 320.997C234.55 320.029 234.107 318.633 234.107 316.81V315.268H237.44V317.039C237.44 317.846 237.607 318.409 237.94 318.727C238.274 319.049 238.711 319.206 239.253 319.206C239.805 319.206 240.253 319.049 240.586 318.727C240.919 318.409 241.086 317.846 241.086 317.039C241.086 316.279 240.909 315.602 240.565 315.018C240.232 314.424 239.805 313.867 239.294 313.352C238.779 312.826 238.232 312.305 237.649 311.789C237.065 311.263 236.513 310.695 236.003 310.081C235.487 309.456 235.055 308.747 234.711 307.956C234.378 307.164 234.211 306.237 234.211 305.164Z" fill="white"/>
<path d="M248.726 305.164C248.726 303.362 249.153 301.971 250.017 300.997C250.877 300.029 252.174 299.539 253.913 299.539C255.632 299.539 256.924 300.029 257.788 300.997C258.648 301.971 259.08 303.362 259.08 305.164V306.039H255.767V304.956C255.767 304.138 255.606 303.57 255.288 303.247C254.981 302.914 254.549 302.747 253.997 302.747C253.439 302.747 253.007 302.914 252.705 303.247C252.398 303.57 252.247 304.138 252.247 304.956C252.247 305.721 252.413 306.393 252.747 306.977C253.09 307.56 253.523 308.117 254.038 308.643C254.549 309.174 255.101 309.701 255.684 310.227C256.267 310.742 256.814 311.31 257.33 311.935C257.84 312.549 258.267 313.247 258.601 314.039C258.944 314.82 259.122 315.742 259.122 316.81C259.122 318.633 258.674 320.029 257.788 320.997C256.898 321.956 255.59 322.435 253.872 322.435C252.148 322.435 250.84 321.956 249.955 320.997C249.064 320.029 248.622 318.633 248.622 316.81V315.268H251.955V317.039C251.955 317.846 252.122 318.409 252.455 318.727C252.788 319.049 253.226 319.206 253.767 319.206C254.319 319.206 254.767 319.049 255.101 318.727C255.434 318.409 255.601 317.846 255.601 317.039C255.601 316.279 255.424 315.602 255.08 315.018C254.747 314.424 254.319 313.867 253.809 313.352C253.293 312.826 252.747 312.305 252.163 311.789C251.58 311.263 251.028 310.695 250.517 310.081C250.002 309.456 249.569 308.747 249.226 307.956C248.892 307.164 248.726 306.237 248.726 305.164Z" fill="white"/>
<path d="M263.678 299.789H267.199V322.185H263.678V299.789Z" fill="white"/>
<path d="M275.54 317.039C275.54 317.846 275.707 318.414 276.04 318.747C276.373 319.081 276.816 319.247 277.373 319.247C277.925 319.247 278.363 319.081 278.686 318.747C279.019 318.414 279.186 317.846 279.186 317.039V304.956C279.186 304.138 279.019 303.57 278.686 303.247C278.363 302.914 277.925 302.747 277.373 302.747C276.816 302.747 276.373 302.914 276.04 303.247C275.707 303.57 275.54 304.138 275.54 304.956V317.039ZM272.04 305.164C272.04 303.362 272.498 301.971 273.415 300.997C274.332 300.029 275.649 299.539 277.373 299.539C279.092 299.539 280.415 300.029 281.332 300.997C282.248 301.971 282.707 303.362 282.707 305.164V316.81C282.707 318.633 282.248 320.029 281.332 320.997C280.415 321.956 279.092 322.435 277.373 322.435C275.649 322.435 274.332 321.956 273.415 320.997C272.498 320.029 272.04 318.633 272.04 316.81V305.164Z" fill="white"/>
<path d="M290.674 305.977V322.185H287.508V299.789H291.924L295.529 313.206V299.789H298.674V322.185H295.049L290.674 305.977Z" fill="white"/>
<path d="M172.167 45.3107L173.084 45.269C173.751 45.243 174.303 45.118 174.751 44.894C175.209 44.6753 175.569 44.3732 175.834 43.9982C176.095 43.6232 176.282 43.1857 176.397 42.6857C176.506 42.1753 176.548 41.6232 176.522 41.0398C176.49 40.4982 176.407 40.0398 176.272 39.6648C176.131 39.2794 175.944 38.9721 175.709 38.7482C175.485 38.5138 175.214 38.3471 174.897 38.2482C174.589 38.1544 174.251 38.1128 173.876 38.1232L173.397 38.144L172.167 45.3107ZM171.313 50.2273C171.298 50.3107 171.282 50.4096 171.272 50.519C171.256 50.618 171.251 50.6961 171.251 50.7482C171.251 50.9044 171.292 51.0294 171.376 51.1232C171.459 51.2065 171.569 51.2794 171.709 51.3315C171.86 51.3732 172.042 51.4044 172.251 51.4148C172.459 51.4305 172.673 51.4305 172.897 51.4148L173.626 51.394L173.417 52.5607L165.417 52.9148L165.605 51.7482L165.897 51.7273C166.131 51.7169 166.355 51.6961 166.563 51.6648C166.772 51.6232 166.964 51.5555 167.147 51.4565C167.324 51.3471 167.48 51.2013 167.605 51.019C167.73 50.8419 167.813 50.6128 167.855 50.3315L169.626 39.6648C169.709 39.2898 169.751 39.0398 169.751 38.9148C169.735 38.7638 169.688 38.6388 169.605 38.5398C169.522 38.4461 169.402 38.3732 169.251 38.3315C169.11 38.2794 168.944 38.243 168.751 38.2273C168.553 38.2169 168.339 38.2169 168.105 38.2273L167.834 38.2482L168.022 37.0607L174.334 36.7898C175.194 36.7482 175.97 36.8107 176.667 36.9773C177.36 37.1336 177.949 37.3836 178.438 37.7273C178.938 38.0607 179.334 38.493 179.626 39.019C179.917 39.5346 180.074 40.1388 180.105 40.8315C180.115 41.2065 180.095 41.6023 180.042 42.019C180.001 42.4253 179.886 42.8315 179.709 43.2482C179.542 43.6648 179.303 44.0607 179.001 44.4357C178.694 44.8107 178.298 45.1544 177.813 45.4565C177.324 45.7482 176.74 45.993 176.063 46.1857C175.381 46.368 174.563 46.4773 173.605 46.519L171.938 46.6023L171.313 50.2273Z" fill="white"/>
<path d="M185.69 52.0312L185.877 50.8438H186.169C186.403 50.8333 186.627 50.8021 186.836 50.7604C187.055 50.7188 187.258 50.651 187.44 50.5521C187.617 50.4427 187.773 50.2969 187.898 50.1146C188.023 49.9375 188.107 49.6979 188.148 49.4062L188.982 44.3438L183.252 44.5938L182.398 49.7396C182.383 49.8229 182.367 49.9219 182.357 50.0312C182.341 50.1302 182.336 50.2083 182.336 50.2604C182.336 50.4167 182.377 50.5417 182.461 50.6354C182.544 50.7188 182.653 50.7917 182.794 50.8438C182.945 50.8854 183.127 50.9167 183.336 50.9271C183.544 50.9427 183.758 50.9427 183.982 50.9271H184.273L184.065 52.0938L176.502 52.4271L176.69 51.2604L176.982 51.2396C177.216 51.2292 177.44 51.2083 177.648 51.1771C177.857 51.1354 178.049 51.0677 178.232 50.9688C178.409 50.8594 178.565 50.7135 178.69 50.5312C178.815 50.3542 178.898 50.125 178.94 49.8438L180.711 39.1771C180.794 38.8021 180.836 38.5521 180.836 38.4271C180.82 38.276 180.773 38.151 180.69 38.0521C180.607 37.9583 180.487 37.8854 180.336 37.8438C180.195 37.7917 180.028 37.7552 179.836 37.7396C179.638 37.7292 179.424 37.7292 179.19 37.7396L178.919 37.7604L179.107 36.5729L186.711 36.2396L186.502 37.4271H186.232C185.982 37.4427 185.742 37.4688 185.523 37.5104C185.299 37.5521 185.096 37.6302 184.919 37.7396C184.737 37.8385 184.575 37.9792 184.44 38.1562C184.315 38.3385 184.232 38.5833 184.19 38.8854L183.482 43.2188L189.211 42.9688L189.94 38.6771C189.982 38.526 190.002 38.3958 190.002 38.2812C190.013 38.1562 190.023 38.0677 190.023 38.0104C190.008 37.8594 189.961 37.7396 189.877 37.6562C189.805 37.5625 189.695 37.4896 189.544 37.4479C189.388 37.3958 189.216 37.3594 189.023 37.3438C188.825 37.3333 188.612 37.3333 188.377 37.3438H188.107L188.294 36.1771L195.898 35.8438L195.69 37.0104L195.419 37.0312C195.18 37.0312 194.95 37.0625 194.732 37.1146C194.508 37.1562 194.305 37.2292 194.127 37.3229C193.945 37.4219 193.794 37.5677 193.669 37.7604C193.544 37.9427 193.45 38.1771 193.398 38.4688L191.607 49.3438C191.591 49.4271 191.575 49.5208 191.565 49.6146C191.549 49.7135 191.544 49.7917 191.544 49.8438C191.544 50 191.586 50.125 191.669 50.2188C191.752 50.3177 191.862 50.3958 192.002 50.4479C192.138 50.4896 192.305 50.5208 192.502 50.5312C192.711 50.5312 192.93 50.5312 193.169 50.5312L193.461 50.5104L193.252 51.6979L185.69 52.0312Z" fill="white"/>
<path d="M192.659 45.8482C192.618 45.1398 192.664 44.4003 192.805 43.619C192.94 42.843 193.17 42.0773 193.493 41.3273C193.81 40.5669 194.211 39.8273 194.701 39.119C195.201 38.4107 195.784 37.7857 196.451 37.244C197.118 36.7023 197.873 36.2648 198.722 35.9315C199.581 35.5982 200.524 35.4055 201.555 35.3482C202.357 35.3221 203.138 35.4107 203.888 35.619C204.638 35.8169 205.295 36.1503 205.868 36.619C206.451 37.0773 206.92 37.6815 207.284 38.4315C207.659 39.1711 207.868 40.0565 207.909 41.0982C207.935 41.7805 207.878 42.5096 207.743 43.2857C207.602 44.0513 207.378 44.8221 207.076 45.5982C206.769 46.3638 206.373 47.1086 205.888 47.8273C205.414 48.5357 204.847 49.1711 204.18 49.7232C203.513 50.2648 202.753 50.718 201.909 51.0773C201.06 51.4419 200.107 51.6399 199.055 51.6815C198.19 51.7232 197.378 51.6346 196.618 51.4107C195.852 51.1763 195.185 50.8169 194.618 50.3273C194.045 49.8273 193.586 49.2023 193.243 48.4523C192.894 47.7023 192.701 46.8378 192.659 45.8482ZM196.263 46.2023C196.289 46.9263 196.388 47.5513 196.555 48.0773C196.732 48.593 196.961 49.0096 197.243 49.3273C197.534 49.6503 197.868 49.8794 198.243 50.0148C198.618 50.1555 199.003 50.218 199.409 50.2023C200.019 50.1763 200.565 50.0044 201.055 49.6815C201.555 49.3638 201.982 48.9523 202.347 48.4523C202.706 47.9523 203.019 47.3794 203.284 46.7232C203.545 46.0721 203.753 45.4055 203.909 44.7232C204.076 44.0305 204.185 43.343 204.243 42.6607C204.31 41.9836 204.331 41.3482 204.305 40.7648C204.274 40.0565 204.17 39.4523 203.993 38.9523C203.826 38.4419 203.602 38.0253 203.326 37.7023C203.045 37.369 202.722 37.1346 202.347 36.994C201.972 36.843 201.576 36.7753 201.159 36.7857C200.56 36.8169 200.019 36.9888 199.534 37.3065C199.045 37.6294 198.618 38.0461 198.243 38.5565C197.868 39.0565 197.545 39.6346 197.284 40.2857C197.019 40.9263 196.805 41.593 196.638 42.2857C196.482 42.968 196.373 43.6503 196.305 44.3273C196.248 45.0096 196.232 45.6346 196.263 46.2023Z" fill="white"/>
<path d="M207.725 51.0469L207.934 49.8802L208.204 49.8594C208.439 49.849 208.663 49.8281 208.871 49.7969C209.079 49.7552 209.272 49.6875 209.454 49.5885C209.632 49.4792 209.788 49.3333 209.913 49.151C210.038 48.974 210.126 48.7448 210.184 48.4635L212.142 36.4635L210.371 36.5469C210.038 36.5625 209.746 36.6198 209.496 36.7135C209.257 36.8125 209.059 36.9531 208.892 37.1302C208.725 37.3125 208.585 37.526 208.475 37.776C208.361 38.026 208.257 38.3125 208.163 38.6302L207.892 39.5885L206.434 39.651L207.246 35.3385L220.934 34.7344L220.35 39.026L218.871 39.0885C218.871 39.0469 218.876 38.9375 218.892 38.7552C218.902 38.5781 218.913 38.3906 218.913 38.1927C218.923 38 218.939 37.8177 218.954 37.651C218.965 37.474 218.975 37.3698 218.975 37.3385C218.96 36.9531 218.829 36.6667 218.579 36.4844C218.34 36.3073 217.939 36.224 217.371 36.2344L215.621 36.3177L213.621 48.3594C213.605 48.4583 213.59 48.5573 213.579 48.651C213.564 48.75 213.559 48.8281 213.559 48.8802C213.559 49.0365 213.6 49.1615 213.684 49.2552C213.777 49.3385 213.897 49.4115 214.038 49.4635C214.173 49.5052 214.35 49.5365 214.559 49.5469C214.767 49.5625 214.98 49.5625 215.204 49.5469H215.496L215.309 50.7135L207.725 51.0469Z" fill="white"/>
<path d="M217.438 44.7583C217.397 44.05 217.444 43.3104 217.584 42.5292C217.72 41.7531 217.949 40.9875 218.272 40.2375C218.59 39.4771 218.991 38.7375 219.48 38.0292C219.98 37.3208 220.563 36.6958 221.23 36.1542C221.897 35.6125 222.652 35.175 223.501 34.8417C224.36 34.5083 225.303 34.3156 226.334 34.2583C227.136 34.2323 227.918 34.3208 228.668 34.5292C229.418 34.7271 230.074 35.0604 230.647 35.5292C231.23 35.9875 231.699 36.5917 232.063 37.3417C232.438 38.0813 232.647 38.9667 232.688 40.0083C232.715 40.6906 232.657 41.4198 232.522 42.1958C232.381 42.9615 232.157 43.7323 231.855 44.5083C231.548 45.274 231.152 46.0188 230.668 46.7375C230.194 47.4458 229.626 48.0813 228.959 48.6333C228.293 49.175 227.532 49.6281 226.688 49.9875C225.84 50.3521 224.886 50.55 223.834 50.5917C222.97 50.6333 222.157 50.5448 221.397 50.3208C220.631 50.0865 219.965 49.7271 219.397 49.2375C218.824 48.7375 218.366 48.1125 218.022 47.3625C217.673 46.6125 217.48 45.7479 217.438 44.7583ZM221.043 45.1125C221.069 45.8365 221.168 46.4615 221.334 46.9875C221.511 47.5031 221.741 47.9198 222.022 48.2375C222.313 48.5604 222.647 48.7896 223.022 48.925C223.397 49.0656 223.782 49.1281 224.188 49.1125C224.798 49.0865 225.345 48.9146 225.834 48.5917C226.334 48.274 226.761 47.8625 227.126 47.3625C227.485 46.8625 227.798 46.2896 228.063 45.6333C228.324 44.9823 228.532 44.3156 228.688 43.6333C228.855 42.9406 228.965 42.2531 229.022 41.5708C229.09 40.8938 229.11 40.2583 229.084 39.675C229.053 38.9667 228.949 38.3625 228.772 37.8625C228.605 37.3521 228.381 36.9354 228.105 36.6125C227.824 36.2792 227.501 36.0448 227.126 35.9042C226.751 35.7531 226.355 35.6854 225.938 35.6958C225.34 35.7271 224.798 35.899 224.313 36.2167C223.824 36.5396 223.397 36.9563 223.022 37.4667C222.647 37.9667 222.324 38.5448 222.063 39.1958C221.798 39.8365 221.584 40.5031 221.418 41.1958C221.261 41.8781 221.152 42.5604 221.084 43.2375C221.027 43.9198 221.011 44.5448 221.043 45.1125Z" fill="white"/>
</svg>
