<svg width="287" height="302" viewBox="0 0 287 302" fill="none" xmlns="http://www.w3.org/2000/svg">
<path d="M271.581 218.595L285.467 216.538C286.769 216.345 287.149 214.658 286.06 213.918L259.388 195.918C258.774 195.507 257.956 195.981 258.008 196.715L260.3 228.809C260.394 230.121 262.055 230.637 262.873 229.606L271.581 218.595Z" fill="white"/>
<mask id="mask0_1533_4074" style="mask-type:luminance" maskUnits="userSpaceOnUse" x="267" y="215" width="15" height="18">
<path d="M267.201 215.238H281.868V232.04H267.201V215.238Z" fill="white"/>
</mask>
<g mask="url(#mask0_1533_4074)">
<path d="M268.222 220.344L274.764 216.562L281.316 227.896C281.493 228.203 281.389 228.599 281.081 228.781L275.654 231.917C275.342 232.094 274.946 231.99 274.769 231.677L268.217 220.349L268.222 220.344Z" fill="white"/>
</g>
<mask id="mask1_1533_4074" style="mask-type:luminance" maskUnits="userSpaceOnUse" x="261" y="182" width="7" height="10">
<path d="M261.867 182.039H267.201V191.237H261.867V182.039Z" fill="white"/>
</mask>
<g mask="url(#mask1_1533_4074)">
<path d="M265.742 182.179C265.013 182.044 264.31 182.528 264.175 183.257L263.06 189.278C262.925 190.007 263.404 190.71 264.133 190.846C264.216 190.861 264.3 190.866 264.383 190.866C265.018 190.866 265.581 190.413 265.701 189.767L266.815 183.747C266.951 183.017 266.471 182.314 265.742 182.179Z" fill="white"/>
</g>
<path d="M278.461 190.44C278.039 189.831 277.205 189.675 276.591 190.097L271.544 193.565C270.935 193.987 270.778 194.821 271.2 195.435C271.461 195.81 271.883 196.019 272.31 196.019C272.57 196.019 272.836 195.94 273.07 195.779L278.117 192.31C278.726 191.888 278.883 191.055 278.461 190.44Z" fill="white"/>
<path d="M252.774 185.679C252.358 185.069 251.519 184.913 250.91 185.335C250.295 185.752 250.144 186.59 250.561 187.2L254.03 192.246C254.29 192.627 254.712 192.83 255.139 192.83C255.405 192.83 255.665 192.752 255.899 192.595C256.509 192.174 256.665 191.335 256.243 190.726L252.774 185.679Z" fill="white"/>
<mask id="mask2_1533_4074" style="mask-type:luminance" maskUnits="userSpaceOnUse" x="242" y="196" width="11" height="6">
<path d="M242.482 196.57H252.535V201.904H242.482V196.57Z" fill="white"/>
</mask>
<g mask="url(#mask2_1533_4074)">
<path d="M249.993 200.757C250.628 200.757 251.191 200.304 251.31 199.658C251.446 198.929 250.962 198.226 250.232 198.091L244.212 196.976C243.482 196.841 242.779 197.32 242.644 198.049C242.508 198.778 242.993 199.481 243.722 199.617L249.743 200.731C249.826 200.747 249.909 200.757 249.988 200.757H249.993Z" fill="white"/>
</g>
<path d="M251.19 207.547L246.148 211.016C245.534 211.438 245.383 212.276 245.799 212.886C246.06 213.266 246.482 213.469 246.909 213.469C247.169 213.469 247.435 213.391 247.669 213.23L252.716 209.761C253.325 209.344 253.482 208.506 253.06 207.896C252.638 207.282 251.804 207.131 251.19 207.547Z" fill="white"/>
<mask id="mask3_1533_4074" style="mask-type:luminance" maskUnits="userSpaceOnUse" x="107" y="26" width="137" height="178">
<path d="M107.555 26.1328H243.534V203.133H107.555V26.1328Z" fill="white"/>
</mask>
<g mask="url(#mask3_1533_4074)">
<mask id="mask4_1533_4074" style="mask-type:luminance" maskUnits="userSpaceOnUse" x="107" y="26" width="137" height="177">
<path d="M243.357 44.1328V184.992C243.357 194.935 235.299 202.992 225.362 202.992H125.555C115.612 202.992 107.555 194.935 107.555 184.992V44.1328C107.555 34.1901 115.612 26.1328 125.555 26.1328H225.362C235.299 26.1328 243.357 34.1901 243.357 44.1328Z" fill="white"/>
</mask>
<g mask="url(#mask4_1533_4074)">
<path d="M243.357 44.1328V184.992C243.357 194.935 235.299 202.992 225.362 202.992H125.555C115.612 202.992 107.555 194.935 107.555 184.992V44.1328C107.555 34.1901 115.612 26.1328 125.555 26.1328H225.362C235.299 26.1328 243.357 34.1901 243.357 44.1328Z" stroke="white" stroke-width="4"/>
</g>
</g>
<mask id="mask5_1533_4074" style="mask-type:luminance" maskUnits="userSpaceOnUse" x="116" y="34" width="119" height="98">
<path d="M116.648 34.8867H234.539V131.616H116.648V34.8867Z" fill="white"/>
</mask>
<g mask="url(#mask5_1533_4074)">
<mask id="mask6_1533_4074" style="mask-type:luminance" maskUnits="userSpaceOnUse" x="116" y="34" width="119" height="98">
<path d="M234.232 48.8815V117.621C234.232 121.335 232.753 124.892 230.133 127.517C227.508 130.142 223.945 131.616 220.232 131.616H130.643C126.935 131.616 123.372 130.142 120.747 127.517C118.122 124.892 116.648 121.335 116.648 117.621V48.8815C116.648 45.168 118.122 41.6107 120.747 38.9857C123.372 36.3607 126.935 34.8867 130.643 34.8867H220.232C223.945 34.8867 227.508 36.3607 230.133 38.9857C232.753 41.6107 234.232 45.168 234.232 48.8815Z" fill="white"/>
</mask>
<g mask="url(#mask6_1533_4074)">
<mask id="mask7_1533_4074" style="mask-type:luminance" maskUnits="userSpaceOnUse" x="116" y="33" width="120" height="100">
<path d="M235.2 33.9023H116.534V132.569H235.2V33.9023Z" fill="white"/>
</mask>
<g mask="url(#mask7_1533_4074)">
<mask id="mask8_1533_4074" style="mask-type:luminance" maskUnits="userSpaceOnUse" x="116" y="34" width="119" height="98">
<path d="M116.648 34.8867H234.242V131.616H116.648V34.8867Z" fill="white"/>
</mask>
<g mask="url(#mask8_1533_4074)">
<mask id="mask9_1533_4074" style="mask-type:luminance" maskUnits="userSpaceOnUse" x="116" y="34" width="119" height="98">
<path d="M234.232 48.8815V117.621C234.232 121.335 232.753 124.892 230.133 127.517C227.508 130.142 223.945 131.616 220.232 131.616H130.643C126.935 131.616 123.372 130.142 120.747 127.517C118.122 124.892 116.648 121.335 116.648 117.621V48.8815C116.648 45.168 118.122 41.6107 120.747 38.9857C123.372 36.3607 126.935 34.8867 130.643 34.8867H220.232C223.945 34.8867 227.508 36.3607 230.133 38.9857C232.753 41.6107 234.232 45.168 234.232 48.8815Z" fill="white"/>
</mask>
<g mask="url(#mask9_1533_4074)">
<path d="M116.648 34.8867H234.159V131.616H116.648V34.8867Z" fill="white"/>
</g>
</g>
</g>
</g>
</g>
<mask id="mask10_1533_4074" style="mask-type:luminance" maskUnits="userSpaceOnUse" x="116" y="34" width="119" height="98">
<path d="M116.67 34.8867H234.248V131.887H116.67V34.8867Z" fill="white"/>
</mask>
<g mask="url(#mask10_1533_4074)">
<mask id="mask11_1533_4074" style="mask-type:luminance" maskUnits="userSpaceOnUse" x="116" y="34" width="119" height="98">
<path d="M234.238 48.8815V117.611C234.238 121.324 232.764 124.882 230.139 127.507C227.514 130.132 223.956 131.605 220.243 131.605H130.665C126.951 131.605 123.394 130.132 120.769 127.507C118.144 124.882 116.67 121.324 116.67 117.611V48.8815C116.67 45.168 118.144 41.6107 120.769 38.9857C123.394 36.3607 126.951 34.8867 130.665 34.8867H220.243C223.956 34.8867 227.514 36.3607 230.139 38.9857C232.764 41.6107 234.238 45.168 234.238 48.8815Z" fill="white"/>
</mask>
<g mask="url(#mask11_1533_4074)">
<path d="M234.238 48.8815V117.611C234.238 121.324 232.764 124.882 230.139 127.507C227.514 130.132 223.956 131.605 220.243 131.605H130.665C126.951 131.605 123.394 130.132 120.769 127.507C118.144 124.882 116.67 121.324 116.67 117.611V48.8815C116.67 45.168 118.144 41.6107 120.769 38.9857C123.394 36.3607 126.951 34.8867 130.665 34.8867H220.243C223.956 34.8867 227.514 36.3607 230.139 38.9857C232.764 41.6107 234.238 45.168 234.238 48.8815Z" stroke="white" stroke-width="10"/>
</g>
</g>
<mask id="mask12_1533_4074" style="mask-type:luminance" maskUnits="userSpaceOnUse" x="116" y="168" width="119" height="27">
<path d="M116.686 168.395H234.232V194.108H116.686V168.395Z" fill="white"/>
</mask>
<g mask="url(#mask12_1533_4074)">
<mask id="mask13_1533_4074" style="mask-type:luminance" maskUnits="userSpaceOnUse" x="116" y="168" width="119" height="26">
<path d="M234.222 176.389V185.962C234.222 188.082 233.378 190.118 231.878 191.613C230.378 193.113 228.347 193.957 226.227 193.957H124.68C122.561 193.957 120.529 193.113 119.029 191.613C117.529 190.118 116.686 188.082 116.686 185.962V176.389C116.686 174.27 117.529 172.233 119.029 170.738C120.529 169.238 122.561 168.395 124.68 168.395H226.227C228.347 168.395 230.378 169.238 231.878 170.738C233.378 172.233 234.222 174.27 234.222 176.389Z" fill="white"/>
</mask>
<g mask="url(#mask13_1533_4074)">
<path d="M234.222 176.389V185.962C234.222 188.082 233.378 190.118 231.878 191.613C230.378 193.113 228.347 193.957 226.227 193.957H124.68C122.561 193.957 120.529 193.113 119.029 191.613C117.529 190.118 116.686 188.082 116.686 185.962V176.389C116.686 174.27 117.529 172.233 119.029 170.738C120.529 169.238 122.561 168.395 124.68 168.395H226.227C228.347 168.395 230.378 169.238 231.878 170.738C233.378 172.233 234.222 174.27 234.222 176.389Z" stroke="white" stroke-width="4"/>
</g>
</g>
<mask id="mask14_1533_4074" style="mask-type:luminance" maskUnits="userSpaceOnUse" x="116" y="139" width="92" height="18">
<path d="M207.202 139.238H116.535V156.572H207.202V139.238Z" fill="white"/>
</mask>
<g mask="url(#mask14_1533_4074)">
<path d="M121.522 150.999C121.506 150.931 121.486 150.868 121.459 150.811C121.444 150.759 121.428 150.686 121.418 150.603C121.402 150.509 121.387 150.389 121.376 150.249C121.376 150.113 121.376 149.936 121.376 149.728V148.124C121.376 147.639 121.293 147.301 121.126 147.103C120.959 146.91 120.694 146.811 120.334 146.811H119.772V150.999H118.147V140.707H120.584C121.428 140.707 122.043 140.91 122.418 141.311C122.793 141.702 122.98 142.29 122.98 143.082V143.895C122.98 144.952 122.626 145.645 121.918 145.978C122.334 146.145 122.616 146.415 122.772 146.79C122.923 147.165 123.001 147.624 123.001 148.165V149.749C123.001 149.999 123.006 150.223 123.022 150.415C123.048 150.613 123.095 150.806 123.168 150.999H121.522ZM119.772 142.186V145.353H120.397C120.699 145.353 120.939 145.28 121.105 145.124C121.282 144.957 121.376 144.665 121.376 144.249V143.249C121.376 142.874 121.303 142.603 121.168 142.436C121.043 142.27 120.834 142.186 120.543 142.186H119.772Z" fill="white"/>
<path d="M125.971 145.04H128.18V146.52H125.971V149.52H128.763V150.999H124.346V140.707H128.763V142.186H125.971V145.04Z" fill="white"/>
<path d="M129.608 140.707H134.608V142.186H132.92V150.999H131.295V142.186H129.608V140.707Z" fill="white"/>
<path d="M139.002 150.999C138.987 150.931 138.966 150.868 138.94 150.811C138.924 150.759 138.909 150.686 138.898 150.603C138.883 150.509 138.867 150.389 138.857 150.249C138.857 150.113 138.857 149.936 138.857 149.728V148.124C138.857 147.639 138.773 147.301 138.607 147.103C138.44 146.91 138.174 146.811 137.815 146.811H137.252V150.999H135.627V140.707H138.065C138.909 140.707 139.523 140.91 139.898 141.311C140.273 141.702 140.461 142.29 140.461 143.082V143.895C140.461 144.952 140.107 145.645 139.398 145.978C139.815 146.145 140.096 146.415 140.252 146.79C140.403 147.165 140.482 147.624 140.482 148.165V149.749C140.482 149.999 140.487 150.223 140.502 150.415C140.528 150.613 140.575 150.806 140.648 150.999H139.002ZM137.252 142.186V145.353H137.877C138.18 145.353 138.419 145.28 138.586 145.124C138.763 144.957 138.857 144.665 138.857 144.249V143.249C138.857 142.874 138.784 142.603 138.648 142.436C138.523 142.27 138.315 142.186 138.023 142.186H137.252Z" fill="white"/>
<path d="M143.306 148.622C143.306 148.997 143.379 149.263 143.535 149.414C143.686 149.57 143.894 149.643 144.16 149.643C144.41 149.643 144.608 149.57 144.764 149.414C144.915 149.263 144.993 148.997 144.993 148.622V143.081C144.993 142.706 144.915 142.445 144.764 142.289C144.608 142.138 144.41 142.06 144.16 142.06C143.894 142.06 143.686 142.138 143.535 142.289C143.379 142.445 143.306 142.706 143.306 143.081V148.622ZM141.702 143.185C141.702 142.352 141.91 141.716 142.327 141.268C142.743 140.826 143.353 140.602 144.16 140.602C144.952 140.602 145.556 140.826 145.972 141.268C146.389 141.716 146.597 142.352 146.597 143.185V148.539C146.597 149.362 146.389 149.997 145.972 150.456C145.556 150.904 144.952 151.122 144.16 151.122C143.353 151.122 142.743 150.904 142.327 150.456C141.91 149.997 141.702 149.362 141.702 148.539V143.185Z" fill="white"/>
<path d="M150.312 140.707C151.13 140.707 151.734 140.931 152.125 141.374C152.526 141.806 152.729 142.431 152.729 143.249V144.603C152.729 145.436 152.526 146.072 152.125 146.499C151.734 146.931 151.13 147.145 150.312 147.145H149.562V150.999H147.938V140.707H150.312ZM149.562 142.186V145.665H150.312C150.573 145.665 150.771 145.598 150.896 145.457C151.031 145.322 151.104 145.072 151.104 144.707V143.165C151.104 142.79 151.031 142.535 150.896 142.395C150.771 142.259 150.573 142.186 150.312 142.186H149.562Z" fill="white"/>
<path d="M156.145 140.707C156.962 140.707 157.566 140.931 157.957 141.374C158.358 141.806 158.561 142.431 158.561 143.249V144.603C158.561 145.436 158.358 146.072 157.957 146.499C157.566 146.931 156.962 147.145 156.145 147.145H155.395V150.999H153.77V140.707H156.145ZM155.395 142.186V145.665H156.145C156.405 145.665 156.603 145.598 156.728 145.457C156.863 145.322 156.936 145.072 156.936 144.707V143.165C156.936 142.79 156.863 142.535 156.728 142.395C156.603 142.259 156.405 142.186 156.145 142.186H155.395Z" fill="white"/>
<path d="M159.601 140.707H161.226V150.999H159.601V140.707Z" fill="white"/>
<path d="M164.311 145.04H166.519V146.52H164.311V149.52H167.103V150.999H162.686V140.707H167.103V142.186H164.311V145.04Z" fill="white"/>
<path d="M168.177 143.185C168.177 142.352 168.37 141.716 168.76 141.268C169.161 140.826 169.765 140.602 170.573 140.602C171.364 140.602 171.953 140.826 172.344 141.268C172.745 141.716 172.948 142.352 172.948 143.185V143.581H171.406V143.081C171.406 142.706 171.333 142.445 171.198 142.289C171.057 142.138 170.864 142.06 170.614 142.06C170.349 142.06 170.146 142.138 170.01 142.289C169.87 142.445 169.802 142.706 169.802 143.081C169.802 143.43 169.875 143.742 170.031 144.018C170.182 144.284 170.375 144.539 170.614 144.789C170.849 145.029 171.099 145.263 171.364 145.497C171.64 145.737 171.896 145.997 172.135 146.289C172.37 146.57 172.562 146.888 172.719 147.247C172.87 147.612 172.948 148.039 172.948 148.539C172.948 149.362 172.745 149.997 172.344 150.456C171.937 150.904 171.344 151.122 170.552 151.122C169.76 151.122 169.156 150.904 168.739 150.456C168.333 149.997 168.135 149.362 168.135 148.539V147.831H169.677V148.622C169.677 148.997 169.745 149.263 169.885 149.414C170.036 149.555 170.245 149.622 170.51 149.622C170.76 149.622 170.958 149.555 171.114 149.414C171.265 149.263 171.344 148.997 171.344 148.622C171.344 148.279 171.26 147.971 171.094 147.706C170.937 147.43 170.745 147.174 170.51 146.935C170.286 146.701 170.036 146.466 169.76 146.227C169.495 145.977 169.245 145.716 169.01 145.435C168.771 145.143 168.573 144.82 168.406 144.456C168.25 144.096 168.177 143.674 168.177 143.185Z" fill="white"/>
<path d="M179.119 140.707C179.936 140.707 180.541 140.931 180.931 141.374C181.332 141.806 181.535 142.431 181.535 143.249V144.603C181.535 145.436 181.332 146.072 180.931 146.499C180.541 146.931 179.936 147.145 179.119 147.145H178.369V150.999H176.744V140.707H179.119ZM178.369 142.186V145.665H179.119C179.379 145.665 179.577 145.598 179.702 145.457C179.837 145.322 179.91 145.072 179.91 144.707V143.165C179.91 142.79 179.837 142.535 179.702 142.395C179.577 142.259 179.379 142.186 179.119 142.186H178.369Z" fill="white"/>
<path d="M184.201 150.999H182.576V140.707H184.201V145.124H186.034V140.707H187.68V150.999H186.034V146.582H184.201V150.999Z" fill="white"/>
<path d="M190.621 148.622C190.621 148.997 190.694 149.263 190.85 149.414C191.001 149.57 191.21 149.643 191.475 149.643C191.725 149.643 191.923 149.57 192.08 149.414C192.231 149.263 192.309 148.997 192.309 148.622V143.081C192.309 142.706 192.231 142.445 192.08 142.289C191.923 142.138 191.725 142.06 191.475 142.06C191.21 142.06 191.001 142.138 190.85 142.289C190.694 142.445 190.621 142.706 190.621 143.081V148.622ZM189.017 143.185C189.017 142.352 189.225 141.716 189.642 141.268C190.059 140.826 190.668 140.602 191.475 140.602C192.267 140.602 192.871 140.826 193.288 141.268C193.705 141.716 193.913 142.352 193.913 143.185V148.539C193.913 149.362 193.705 149.997 193.288 150.456C192.871 150.904 192.267 151.122 191.475 151.122C190.668 151.122 190.059 150.904 189.642 150.456C189.225 149.997 189.017 149.362 189.017 148.539V143.185Z" fill="white"/>
<path d="M194.815 140.707H199.815V142.186H198.128V150.999H196.503V142.186H194.815V140.707Z" fill="white"/>
<path d="M202.314 148.622C202.314 148.997 202.387 149.263 202.543 149.414C202.694 149.57 202.903 149.643 203.168 149.643C203.418 149.643 203.616 149.57 203.772 149.414C203.924 149.263 204.002 148.997 204.002 148.622V143.081C204.002 142.706 203.924 142.445 203.772 142.289C203.616 142.138 203.418 142.06 203.168 142.06C202.903 142.06 202.694 142.138 202.543 142.289C202.387 142.445 202.314 142.706 202.314 143.081V148.622ZM200.71 143.185C200.71 142.352 200.918 141.716 201.335 141.268C201.752 140.826 202.361 140.602 203.168 140.602C203.96 140.602 204.564 140.826 204.981 141.268C205.397 141.716 205.606 142.352 205.606 143.185V148.539C205.606 149.362 205.397 149.997 204.981 150.456C204.564 150.904 203.96 151.122 203.168 151.122C202.361 151.122 201.752 150.904 201.335 150.456C200.918 149.997 200.71 149.362 200.71 148.539V143.185Z" fill="white"/>
</g>
<mask id="mask15_1533_4074" style="mask-type:luminance" maskUnits="userSpaceOnUse" x="155" y="173" width="42" height="15">
<path d="M196.535 173.902H155.201V187.236H196.535V173.902Z" fill="white"/>
</mask>
<g mask="url(#mask15_1533_4074)">
<path d="M156.323 182.322V176.738H157.448V182.322H156.323ZM157.448 183.447V182.322H160.802V183.447H157.448ZM157.448 176.738V175.613H160.802V176.738H157.448ZM160.802 182.322V181.217H161.907V182.322H160.802ZM160.802 177.842V176.738H161.907V177.842H160.802Z" fill="white"/>
<path d="M163.039 183.447V175.613H164.164V178.967H167.518V175.613H168.622V183.447H167.518V180.092H164.164V183.447H163.039Z" fill="white"/>
<path d="M174.233 182.322V183.447H170.879V182.322H174.233ZM169.754 182.322V176.738H170.879V182.322H169.754ZM170.879 176.738V175.613H174.233V176.738H170.879ZM174.233 182.322V176.738H175.337V182.322H174.233Z" fill="white"/>
<path d="M180.948 182.322V183.447H177.594V182.322H180.948ZM176.469 182.322V176.738H177.594V182.322H176.469ZM177.594 176.738V175.613H180.948V176.738H177.594ZM180.948 182.322V176.738H182.053V182.322H180.948Z" fill="white"/>
<path d="M184.31 176.738V178.967H183.185V176.738H184.31ZM183.185 182.322V181.217H184.31V182.322H183.185ZM184.31 183.447V182.322H187.664V183.447H184.31ZM184.31 180.092V178.967H187.664V180.092H184.31ZM184.31 176.738V175.613H187.664V176.738H184.31ZM187.664 182.322V180.092H188.768V182.322H187.664ZM187.664 177.842V176.738H188.768V177.842H187.664Z" fill="white"/>
<mask id="mask16_1533_4074" style="mask-type:luminance" maskUnits="userSpaceOnUse" x="189" y="175" width="8" height="10">
<path d="M189.868 175.234H196.483V184.568H189.868V175.234Z" fill="white"/>
</mask>
<g mask="url(#mask16_1533_4074)">
<path d="M189.9 183.447V175.613H195.483V176.738H191.025V178.967H194.379V180.092H191.025V182.322H195.483V183.447H189.9Z" fill="white"/>
</g>
</g>
<path d="M4.91667 24.4375C4.91667 25.5625 5.14583 26.3646 5.60417 26.8333C6.07292 27.2917 6.69792 27.5208 7.47917 27.5208C8.23958 27.5208 8.85417 27.2917 9.3125 26.8333C9.78125 26.3646 10.0208 25.5625 10.0208 24.4375V7.54167C10.0208 6.41667 9.78125 5.625 9.3125 5.16667C8.85417 4.69792 8.23958 4.45833 7.47917 4.45833C6.69792 4.45833 6.07292 4.69792 5.60417 5.16667C5.14583 5.625 4.91667 6.41667 4.91667 7.54167V24.4375ZM0 7.85417C0 5.32813 0.635416 3.39063 1.91667 2.04167C3.20833 0.682292 5.0625 0 7.47917 0C9.88021 0 11.7188 0.682292 13 2.04167C14.2917 3.39063 14.9375 5.32813 14.9375 7.85417V24.125C14.9375 26.6563 14.2917 28.599 13 29.9583C11.7188 31.3073 9.88021 31.9792 7.47917 31.9792C5.0625 31.9792 3.20833 31.3073 1.91667 29.9583C0.635416 28.599 0 26.6563 0 24.125V7.85417Z" fill="white"/>
<path d="M21.6777 4.29297C22.6204 4.29297 23.3965 4.1888 24.0111 3.98047C24.6204 3.77214 25.1204 3.49089 25.5111 3.1263C25.8965 2.76693 26.209 2.35026 26.4486 1.8763C26.6829 1.40755 26.8913 0.897135 27.0736 0.355469H30.3861V31.6263H25.4694V7.77214H21.6777V4.29297Z" fill="white"/>
<path d="M91.944 292.839V295.818C91.944 297.641 91.4961 299.036 90.6107 300.005C89.7357 300.964 88.4284 301.443 86.694 301.443C84.9701 301.443 83.6628 300.964 82.7773 300.005C81.9023 299.036 81.4648 297.641 81.4648 295.818V284.172C81.4648 282.37 81.9023 280.979 82.7773 280.005C83.6628 279.036 84.9701 278.547 86.694 278.547C88.4284 278.547 89.7357 279.036 90.6107 280.005C91.4961 280.979 91.944 282.37 91.944 284.172V286.359H88.6107V283.964C88.6107 283.146 88.444 282.578 88.1107 282.255C87.7878 281.922 87.3503 281.755 86.7982 281.755C86.2409 281.755 85.7982 281.922 85.4648 282.255C85.1315 282.578 84.9648 283.146 84.9648 283.964V296.047C84.9648 296.854 85.1315 297.417 85.4648 297.734C85.7982 298.057 86.2409 298.214 86.7982 298.214C87.3503 298.214 87.7878 298.057 88.1107 297.734C88.444 297.417 88.6107 296.854 88.6107 296.047V292.839H91.944Z" fill="white"/>
<path d="M100.156 301.193H96.6348V278.797H100.156V288.401H104.156V278.797H107.739V301.193H104.156V291.589H100.156V301.193Z" fill="white"/>
<path d="M116.072 296.047C116.072 296.854 116.239 297.422 116.572 297.755C116.906 298.089 117.348 298.255 117.906 298.255C118.458 298.255 118.895 298.089 119.218 297.755C119.551 297.422 119.718 296.854 119.718 296.047V283.964C119.718 283.146 119.551 282.578 119.218 282.255C118.895 281.922 118.458 281.755 117.906 281.755C117.348 281.755 116.906 281.922 116.572 282.255C116.239 282.578 116.072 283.146 116.072 283.964V296.047ZM112.572 284.172C112.572 282.37 113.031 280.979 113.947 280.005C114.864 279.036 116.182 278.547 117.906 278.547C119.624 278.547 120.947 279.036 121.864 280.005C122.781 280.979 123.239 282.37 123.239 284.172V295.818C123.239 297.641 122.781 299.036 121.864 300.005C120.947 300.964 119.624 301.443 117.906 301.443C116.182 301.443 114.864 300.964 113.947 300.005C113.031 299.036 112.572 297.641 112.572 295.818V284.172Z" fill="white"/>
<path d="M131.291 296.047C131.291 296.854 131.458 297.422 131.791 297.755C132.124 298.089 132.567 298.255 133.124 298.255C133.676 298.255 134.114 298.089 134.437 297.755C134.77 297.422 134.937 296.854 134.937 296.047V283.964C134.937 283.146 134.77 282.578 134.437 282.255C134.114 281.922 133.676 281.755 133.124 281.755C132.567 281.755 132.124 281.922 131.791 282.255C131.458 282.578 131.291 283.146 131.291 283.964V296.047ZM127.791 284.172C127.791 282.37 128.249 280.979 129.166 280.005C130.083 279.036 131.4 278.547 133.124 278.547C134.843 278.547 136.166 279.036 137.083 280.005C137.999 280.979 138.458 282.37 138.458 284.172V295.818C138.458 297.641 137.999 299.036 137.083 300.005C136.166 300.964 134.843 301.443 133.124 301.443C131.4 301.443 130.083 300.964 129.166 300.005C128.249 299.036 127.791 297.641 127.791 295.818V284.172Z" fill="white"/>
<path d="M142.842 284.172C142.842 282.37 143.27 280.979 144.134 280.005C144.993 279.036 146.29 278.547 148.03 278.547C149.749 278.547 151.04 279.036 151.905 280.005C152.764 280.979 153.197 282.37 153.197 284.172V285.047H149.884V283.964C149.884 283.146 149.723 282.578 149.405 282.255C149.098 281.922 148.665 281.755 148.113 281.755C147.556 281.755 147.124 281.922 146.822 282.255C146.514 282.578 146.363 283.146 146.363 283.964C146.363 284.729 146.53 285.401 146.863 285.984C147.207 286.568 147.639 287.125 148.155 287.651C148.665 288.182 149.217 288.708 149.801 289.234C150.384 289.75 150.931 290.318 151.447 290.943C151.957 291.557 152.384 292.255 152.717 293.047C153.061 293.828 153.238 294.75 153.238 295.818C153.238 297.641 152.79 299.036 151.905 300.005C151.014 300.964 149.707 301.443 147.988 301.443C146.264 301.443 144.957 300.964 144.072 300.005C143.181 299.036 142.738 297.641 142.738 295.818V294.276H146.072V296.047C146.072 296.854 146.238 297.417 146.572 297.734C146.905 298.057 147.342 298.214 147.884 298.214C148.436 298.214 148.884 298.057 149.217 297.734C149.551 297.417 149.717 296.854 149.717 296.047C149.717 295.286 149.54 294.609 149.197 294.026C148.863 293.432 148.436 292.875 147.926 292.359C147.41 291.833 146.863 291.313 146.28 290.797C145.697 290.271 145.145 289.703 144.634 289.089C144.118 288.464 143.686 287.755 143.342 286.964C143.009 286.172 142.842 285.245 142.842 284.172Z" fill="white"/>
<path d="M161.316 288.234H166.149V291.443H161.316V297.984H167.399V301.193H157.795V278.797H167.399V282.005H161.316V288.234Z" fill="white"/>
<path d="M184.818 278.797C186.579 278.797 187.891 279.271 188.756 280.214C189.631 281.161 190.068 282.536 190.068 284.339V287.255C190.068 289.063 189.631 290.438 188.756 291.38C187.891 292.313 186.579 292.776 184.818 292.776H183.152V301.193H179.631V278.797H184.818ZM183.152 282.005V289.589H184.818C185.37 289.589 185.798 289.443 186.089 289.151C186.391 288.849 186.548 288.286 186.548 287.464V284.109C186.548 283.307 186.391 282.755 186.089 282.464C185.798 282.161 185.37 282.005 184.818 282.005H183.152Z" fill="white"/>
<path d="M201.596 301.193C201.555 301.042 201.513 300.901 201.471 300.776C201.43 300.651 201.393 300.495 201.367 300.297C201.336 300.104 201.315 299.859 201.305 299.568C201.289 299.266 201.284 298.891 201.284 298.443V294.922C201.284 293.88 201.102 293.151 200.742 292.734C200.378 292.307 199.794 292.089 198.992 292.089H197.763V301.193H194.242V278.797H199.555C201.388 278.797 202.711 279.229 203.534 280.089C204.352 280.938 204.763 282.229 204.763 283.964V285.714C204.763 288.021 203.997 289.536 202.471 290.255C203.357 290.62 203.971 291.208 204.305 292.026C204.638 292.849 204.805 293.849 204.805 295.026V298.484C204.805 299.026 204.826 299.505 204.867 299.922C204.909 300.339 205.013 300.766 205.18 301.193H201.596ZM197.763 282.005V288.88H199.138C199.805 288.88 200.326 288.714 200.701 288.38C201.076 288.036 201.263 287.411 201.263 286.505V284.318C201.263 283.5 201.117 282.911 200.826 282.547C200.534 282.188 200.081 282.005 199.471 282.005H197.763Z" fill="white"/>
<path d="M212.881 296.047C212.881 296.854 213.048 297.422 213.381 297.755C213.714 298.089 214.157 298.255 214.714 298.255C215.266 298.255 215.704 298.089 216.027 297.755C216.36 297.422 216.527 296.854 216.527 296.047V283.964C216.527 283.146 216.36 282.578 216.027 282.255C215.704 281.922 215.266 281.755 214.714 281.755C214.157 281.755 213.714 281.922 213.381 282.255C213.048 282.578 212.881 283.146 212.881 283.964V296.047ZM209.381 284.172C209.381 282.37 209.839 280.979 210.756 280.005C211.673 279.036 212.99 278.547 214.714 278.547C216.433 278.547 217.756 279.036 218.673 280.005C219.589 280.979 220.048 282.37 220.048 284.172V295.818C220.048 297.641 219.589 299.036 218.673 300.005C217.756 300.964 216.433 301.443 214.714 301.443C212.99 301.443 211.673 300.964 210.756 300.005C209.839 299.036 209.381 297.641 209.381 295.818V284.172Z" fill="white"/>
<path d="M224.869 278.797H230.432C232.208 278.797 233.525 279.271 234.39 280.214C235.249 281.161 235.682 282.536 235.682 284.339V295.651C235.682 297.474 235.249 298.854 234.39 299.797C233.525 300.729 232.208 301.193 230.432 301.193H224.869V278.797ZM228.39 282.005V297.984H230.369C230.921 297.984 231.359 297.828 231.682 297.505C231.999 297.188 232.161 296.625 232.161 295.818V284.172C232.161 283.37 231.999 282.807 231.682 282.484C231.359 282.167 230.921 282.005 230.369 282.005H228.39Z" fill="white"/>
<path d="M243.847 278.797V296.068C243.847 296.891 244.003 297.458 244.326 297.776C244.66 298.099 245.102 298.255 245.66 298.255C246.212 298.255 246.66 298.099 246.993 297.776C247.326 297.458 247.493 296.891 247.493 296.068V278.797H250.805V295.859C250.805 297.667 250.357 299.057 249.472 300.026C248.597 301 247.29 301.484 245.555 301.484C243.831 301.484 242.524 301 241.639 300.026C240.764 299.057 240.326 297.667 240.326 295.859V278.797H243.847Z" fill="white"/>
<path d="M265.962 292.839V295.818C265.962 297.641 265.514 299.036 264.628 300.005C263.753 300.964 262.446 301.443 260.712 301.443C258.988 301.443 257.68 300.964 256.795 300.005C255.92 299.036 255.482 297.641 255.482 295.818V284.172C255.482 282.37 255.92 280.979 256.795 280.005C257.68 279.036 258.988 278.547 260.712 278.547C262.446 278.547 263.753 279.036 264.628 280.005C265.514 280.979 265.962 282.37 265.962 284.172V286.359H262.628V283.964C262.628 283.146 262.462 282.578 262.128 282.255C261.805 281.922 261.368 281.755 260.816 281.755C260.258 281.755 259.816 281.922 259.482 282.255C259.149 282.578 258.982 283.146 258.982 283.964V296.047C258.982 296.854 259.149 297.417 259.482 297.734C259.816 298.057 260.258 298.214 260.816 298.214C261.368 298.214 261.805 298.057 262.128 297.734C262.462 297.417 262.628 296.854 262.628 296.047V292.839H265.962Z" fill="white"/>
<path d="M269.693 278.797H280.568V282.005H276.902V301.193H273.381V282.005H269.693V278.797Z" fill="white"/>
</svg>
