<svg width="500" height="202" viewBox="0 0 500 202" fill="none" xmlns="http://www.w3.org/2000/svg">
<path d="M110.809 72.9488C111.797 68.1534 112.291 65.4043 112.291 64.7012C112.291 63.9732 111.987 63.3079 111.379 62.7053L110.202 61.9145C109.063 61.111 108.493 60.5462 108.493 60.2198C108.493 59.2406 111.847 58.751 118.556 58.751L120.456 58.7134C123.823 58.7134 125.506 59.203 125.506 60.1821C125.506 60.6089 124.62 61.2115 122.848 61.9897C121.076 62.7429 120.013 63.5715 119.658 64.4754C119.304 65.3791 117.873 72.1705 115.367 84.8493C112.86 97.5026 111.607 104.332 111.607 105.337C111.607 106.315 111.911 107.043 112.519 107.521L113.924 108.199C115.569 108.851 116.393 109.278 116.393 109.478C116.393 110.533 115.228 111.06 112.898 111.06L109.139 110.985L105.455 111.023C101.075 111.023 98.8843 110.621 98.8843 109.817C98.8843 109.416 99.6445 108.688 101.163 107.634C102.707 106.554 103.644 105.675 103.973 104.997C104.328 104.319 104.999 101.595 105.986 96.825C106.974 92.0293 107.468 89.3308 107.468 88.7282C107.468 87.0963 106.682 86.1548 105.113 85.9037L103.328 85.8661L93.8333 85.9037C86.6179 85.9037 82.6176 86.3808 81.8327 87.3348C81.3263 87.9374 80.5541 90.7493 79.5161 95.7709C78.5033 100.767 77.997 103.767 77.997 104.771C77.997 105.775 78.4527 106.617 79.3642 107.294C81.0098 108.524 81.8327 109.378 81.8327 109.855C81.8327 110.684 78.9971 111.098 73.3258 111.098L69.604 111.136L67.7051 111.173H65.8442L64.4771 110.759C64.4771 109.704 65.3884 108.839 67.2114 108.161C69.0596 107.458 70.2622 106.265 70.8193 104.583C71.4016 102.876 72.5535 97.5403 74.2752 88.5776C76.0221 79.5895 77.1615 73.7647 77.6932 71.1034C78.2502 68.417 78.5667 66.8354 78.6426 66.3583L78.8705 64.6636C78.8705 63.6091 78.4527 62.8308 77.6172 62.3287L76.1361 61.7261C74.5917 61.1236 73.8195 60.5838 73.8195 60.1067C73.8195 59.1778 74.4904 58.7134 75.8322 58.7134H77.6552L79.592 58.7887H83.3897C88.6813 58.7887 91.3271 59.228 91.3271 60.1067C91.3271 60.5587 90.5169 61.2868 88.8965 62.291C87.3015 63.2702 86.352 64.1238 86.0482 64.8519L85.5925 66.5842C85.4658 67.0864 85.0101 69.1828 84.2253 72.8734C83.4404 76.539 83.048 78.7107 83.048 79.3885C83.048 81.0205 83.7696 81.9745 85.2127 82.2507L86.9596 82.3637L96.4158 82.3261C103.859 82.3261 107.872 81.962 108.455 81.2339C109.037 80.4807 109.822 77.719 110.809 72.9488ZM158.768 80.1418V78.8237C158.768 76.4386 158.413 74.1163 157.704 71.8566C155.628 65.1029 151.412 61.7136 145.057 61.6885C139.411 61.6885 134.398 64.3623 130.019 69.71C127.968 72.1956 126.296 75.2962 125.006 79.012C123.74 82.7026 123.106 86.1172 123.106 89.2554V91.2137C123.106 96.084 124.334 100.164 126.791 103.453C128.006 105.085 129.449 106.315 131.119 107.144C132.791 107.973 134.487 108.387 136.208 108.387H137.538C143.006 108.387 147.881 105.574 152.159 99.9505C154.185 97.2896 155.793 94.1761 156.982 90.6112C158.172 87.0461 158.768 83.5563 158.768 80.1418ZM145.399 58.1484H146.235C149.019 58.1484 151.717 58.7134 154.324 59.8431C159.59 62.1278 163.185 66.2704 165.109 72.2709C165.819 74.4802 166.173 76.9407 166.173 79.6522V81.3092C166.173 84.9999 165.35 88.7659 163.705 92.6069C160.388 100.366 155.337 105.888 148.552 109.177C144.653 111.06 140.931 112.002 137.386 112.002H135.677C129.93 112.002 125.056 109.868 121.056 105.6C119.385 103.843 118.081 101.595 117.144 98.8588C116.207 96.1217 115.739 93.335 115.739 90.4982V89.6697C115.739 85.7782 116.498 81.8867 118.018 77.9952C119.562 74.1037 121.651 70.7143 124.284 67.827C126.943 64.9147 130.094 62.5798 133.74 60.8223C137.411 59.0397 141.298 58.1484 145.399 58.1484ZM222.486 65.8687C222.486 63.9104 223.182 62.3538 224.575 61.1989C225.993 60.0189 227.626 59.4289 229.474 59.4289C231.322 59.4289 232.537 59.5293 233.119 59.7302C234.056 60.0566 234.525 60.7596 234.525 61.8392C234.525 62.0149 234.044 62.7304 233.081 63.9858C229.486 68.7058 224.955 75.8486 219.486 85.4141C214.017 94.9547 210.536 100.829 209.042 103.039C206.637 106.554 204.345 108.311 202.168 108.311C199.966 108.311 198.522 106.328 197.839 102.361C197.535 100.603 197.219 96.5743 196.889 90.2723C196.585 83.9454 196.382 80.4054 196.281 79.6522L195.978 78.1458C195.598 78.1458 193.13 81.8742 188.572 89.3308C184.04 96.7874 180.736 101.959 178.66 104.846C176.584 107.709 174.748 109.14 173.153 109.14C171.583 109.14 170.558 108.135 170.077 106.127L169.849 104.093C169.798 103.39 169.608 98.4943 169.28 89.4061C168.976 80.2924 168.697 74.656 168.444 72.4969C168.216 70.3126 167.76 68.2539 167.077 66.3206C166.419 64.3623 166.09 63.2325 166.09 62.9312V61.8392C166.09 61.2868 166.456 60.7344 167.191 60.1821C167.925 59.6047 169.293 59.3159 171.293 59.3159C173.293 59.3159 175.014 59.6925 176.457 60.4457C177.9 61.1989 178.622 62.1781 178.622 63.3832C178.622 64.5632 178.179 66.2202 177.293 68.3543C176.431 70.4883 176.002 73.0115 176.002 75.9239C176.002 81.598 176.179 86.7197 176.533 91.2891C176.761 94.3523 177.406 95.8839 178.47 95.8839C179.761 95.8839 180.913 95.3311 181.926 94.2266C182.964 93.0972 185.281 89.4563 188.876 83.3052C190.369 80.7193 191.534 78.0579 192.369 75.3214C193.206 72.5847 193.623 70.5511 193.623 69.2204L193.585 67.4504L192.788 64.4C192.788 63.0443 193.699 61.9145 195.522 61.0106C197.37 60.0817 199.156 59.6172 200.877 59.6172C204.017 59.6172 205.586 60.8098 205.586 63.1949L205.169 64.4376C204.738 65.7934 204.408 67.0487 204.181 68.2036C203.953 69.3585 203.839 71.1411 203.839 73.5513C203.839 84.1965 204.257 91.3016 205.093 94.8665C205.345 95.9711 205.89 96.5238 206.725 96.5238C208.042 96.5238 212.624 89.1676 220.473 74.4552C221.815 71.9445 222.486 69.0823 222.486 65.8687Z" fill="#CFAA37"/>
<path d="M317.806 93.997C317.806 92.8172 317.287 91.9385 316.249 91.3609C314.274 90.2563 313.287 89.4026 313.287 88.8C313.287 87.8963 317.756 87.4443 326.693 87.4443C329.098 87.4443 330.301 87.8209 330.301 88.5741C330.301 88.8503 329.58 89.4529 328.136 90.3818C326.693 91.3107 325.756 92.4903 325.326 93.9217C325.199 94.3487 324.693 97.0601 323.806 102.056C322.946 107.053 322.085 111.471 321.224 115.313C320.389 119.129 319.971 122.481 319.971 125.368C319.971 128.255 321.022 130.715 323.123 132.749C325.25 134.758 327.997 135.761 331.364 135.761C337.972 135.761 342.808 132.888 345.871 127.138C347.138 124.752 348.631 119.556 350.353 111.546C352.075 103.512 352.935 98.6045 352.935 96.8214C352.935 95.0392 352.593 93.6206 351.91 92.5656C350.189 89.9048 349.328 88.5616 349.328 88.5364C349.328 87.6577 351.809 87.2184 356.771 87.2184C361.733 87.2184 364.215 87.7079 364.215 88.6871C364.215 89.4653 363.418 90.2939 361.822 91.1726C360.227 92.0514 359.126 93.2561 358.518 94.7876C358.341 95.2403 357.455 99.1692 355.86 106.575C354.29 113.982 353.011 119.493 352.024 123.108C351.062 126.698 349.884 129.447 348.492 131.356C344.34 137.029 337.985 139.867 329.428 139.867C324.819 139.867 320.971 138.636 317.882 136.176C314.793 133.691 313.249 130.402 313.249 126.309V124.765C313.249 122.782 313.604 119.58 314.312 115.162C315.046 110.743 315.655 106.977 316.135 103.864C316.617 100.725 317.009 98.4162 317.313 96.9343C317.642 95.4285 317.806 94.4488 317.806 93.997ZM389.31 90.5701V91.6998C389.31 94.5121 388.83 96.8471 387.867 98.7046C387.513 99.4079 387.082 99.7586 386.576 99.7586C385.817 99.7586 385.044 98.8303 384.259 96.9719C383.5 95.0897 382.424 93.4948 381.031 92.1891C379.664 90.8839 377.689 90.2311 375.106 90.2311H375.031C372.423 90.2311 370.334 90.7835 368.765 91.888C366.384 93.5453 365.194 95.692 365.194 98.3281C365.194 100.964 366.372 103.374 368.727 105.559C369.334 106.136 371.549 107.63 375.372 110.04C379.195 112.451 381.93 114.66 383.576 116.668C385.221 118.677 386.044 121.037 386.044 123.748C386.044 128.795 384.284 132.787 380.766 135.724C377.246 138.636 372.904 140.093 367.739 140.093H366.41C363.018 140.093 358.65 139.277 353.307 137.645C352.042 137.268 351.408 136.264 351.408 134.632V133.464C351.408 130.602 351.915 128.255 352.928 126.423C353.282 125.77 353.649 125.443 354.03 125.443C354.966 125.443 355.852 126.623 356.688 128.983C357.523 131.343 358.878 133.189 360.751 134.519C362.65 135.825 365.118 136.478 368.156 136.478C371.195 136.478 373.79 135.649 375.943 133.992C378.119 132.335 379.208 130.201 379.208 127.59C379.208 124.978 378.512 122.882 377.119 121.3C375.753 119.719 373.195 117.748 369.448 115.388C365.726 113.028 363.005 110.818 361.283 108.76C359.587 106.701 358.739 104.366 358.739 101.755C358.739 97.1602 360.32 93.4828 363.485 90.7207C366.65 87.959 370.511 86.5781 375.068 86.5781H376.36C377.373 86.5781 379.056 86.8794 381.411 87.482C383.766 88.0845 384.956 88.3858 384.981 88.3858L386.044 88.2352L387.069 88.0469C388.563 88.0469 389.31 88.8879 389.31 90.5701ZM425.913 91.7752V93.2818C425.913 95.692 425.406 96.8967 424.393 96.8967C424.217 96.8967 423.723 96.2695 422.913 95.0144C422.128 93.7335 420.735 92.7171 418.735 91.9633C416.76 91.1852 413.406 90.7961 408.671 90.7961C405.987 90.7961 403.987 91.7124 402.67 93.5453C402.038 94.4488 401.215 96.4578 400.202 99.5704C399.215 102.684 398.721 104.504 398.721 105.032C398.721 106.663 399 107.793 399.556 108.421C400.696 109.702 402.253 110.342 404.228 110.342C406.228 110.342 407.886 109.965 409.203 109.211C411.633 107.806 413.102 107.103 413.608 107.103C414.925 107.103 415.583 108.446 415.583 111.132C415.583 113.819 415.216 115.815 414.481 117.121C413.773 118.4 413.051 119.04 412.317 119.04C411.582 119.04 411 118.765 410.57 118.212C409.152 116.38 408.368 115.426 408.216 115.35C407.127 114.722 405.519 114.409 403.393 114.409C399.848 114.409 397.531 115.476 396.443 117.61C396.012 118.489 395.506 120.447 394.923 123.484C394.341 126.523 394.05 129.146 394.05 131.356C394.05 133.539 394.733 134.896 396.101 135.423C397.063 135.799 399.481 135.988 403.355 135.988C407.254 135.988 410.62 135.423 413.456 134.293C414.925 133.716 416.519 132.698 418.242 131.243C419.989 129.761 420.976 129.021 421.204 129.021C421.456 129.021 421.583 129.385 421.583 130.113C421.583 130.841 421.204 132.134 420.444 133.992C419.71 135.825 418.874 137.218 417.938 138.172C417.026 139.126 415.292 139.603 412.735 139.603L411.102 139.565L397.506 139.528C386.897 139.528 381.416 139.49 381.061 139.415C380.074 139.189 379.581 138.762 379.581 138.134C379.581 137.682 380.251 137.206 381.593 136.704C382.935 136.201 383.72 135.85 383.948 135.649C384.707 135.021 385.391 133.703 385.999 131.695L386.455 130.075C386.631 129.422 386.986 127.791 387.518 125.179L388.847 118.664C389.606 114.773 390.568 110.09 391.733 104.617C392.898 99.1186 393.481 95.2898 393.481 93.1312C393.481 92.3278 392.86 91.5241 391.619 90.7207C390.379 89.9173 389.758 89.139 389.758 88.3858C389.758 87.6327 394.075 87.256 402.708 87.256L416.305 87.143L419.684 87.1053L421.318 87.0677C423.191 87.0677 424.419 87.4694 425.002 88.2728C425.609 89.0512 425.913 90.2186 425.913 91.7752Z" fill="#CFAA37"/>
<path d="M270.889 78.273V78.8783C270.889 81.1379 270.719 82.6308 270.376 83.3571C270.051 84.0834 269.766 84.4465 269.522 84.4465C269.115 84.4465 268.716 83.9381 268.326 82.9213C267.935 81.9045 267.284 81.1621 266.372 80.694C265.477 80.2259 263.777 79.992 261.269 79.992C260.375 79.992 259.707 80.1614 259.268 80.5004C258.829 80.8231 258.47 81.38 258.193 82.1708C257.933 82.9616 257.103 87.0289 255.704 94.3723C254.32 101.7 253.629 105.767 253.629 106.574C253.629 107.366 253.783 107.93 254.093 108.269C254.402 108.592 254.939 108.906 255.704 109.213C256.469 109.504 256.851 109.851 256.851 110.254C256.851 110.803 254.54 111.078 249.918 111.078L246.572 111.125L245.719 111.15C244.693 111.15 244.18 110.932 244.18 110.497C244.18 110.06 244.546 109.681 245.279 109.359C246.76 108.697 247.631 108.237 247.891 107.979C248.168 107.704 248.444 107.099 248.721 106.163C249.014 105.227 249.893 101.07 251.357 93.6947C252.822 86.3188 253.555 82.1708 253.555 81.2509C253.555 80.3309 252.489 79.8709 250.356 79.8709C248.225 79.8709 246.662 80.1291 245.669 80.6456C244.693 81.1621 243.863 82.0417 243.179 83.2845C242.495 84.5111 241.853 85.1244 241.25 85.1244C240.86 85.1244 240.665 84.5999 240.665 83.5507C240.665 82.4856 241.031 81.0088 241.763 79.1203C242.089 78.265 242.504 77.7404 243.008 77.5468C243.171 77.4822 247.793 77.4499 256.875 77.4499L266.909 77.4741L269.986 77.353C270.588 77.353 270.889 77.6597 270.889 78.273ZM288.013 91.2011V90.3537C288.013 88.8205 287.785 87.3275 287.33 85.8749C285.994 81.5333 283.285 79.3544 279.2 79.3382C275.57 79.3382 272.347 81.0571 269.531 84.495C268.213 86.0928 267.139 88.0861 266.309 90.4748C265.495 92.8472 265.088 95.0426 265.088 97.0599V98.3187C265.088 101.45 265.878 104.073 267.456 106.187C268.238 107.236 269.166 108.027 270.24 108.559C271.314 109.093 272.405 109.359 273.511 109.359H274.366C277.881 109.359 281.015 107.551 283.765 103.935C285.067 102.225 286.101 100.223 286.866 97.9312C287.631 95.6394 288.013 93.3963 288.013 91.2011ZM279.419 77.0625H279.956C281.747 77.0625 283.481 77.4256 285.156 78.152C288.542 79.6207 290.853 82.2838 292.09 86.1412C292.546 87.5615 292.774 89.1433 292.774 90.8864V91.952C292.774 94.3246 292.244 96.7449 291.187 99.2148C289.055 104.201 285.807 107.753 281.445 109.867C278.939 111.078 276.546 111.683 274.268 111.683H273.169C269.475 111.683 266.342 110.311 263.769 107.567C262.695 106.437 261.857 104.993 261.256 103.234C260.653 101.474 260.352 99.6822 260.352 97.8587V97.3261C260.352 94.8241 260.84 92.323 261.817 89.8211C262.809 87.3194 264.153 85.1406 265.845 83.2845C267.554 81.4122 269.581 79.9113 271.924 78.7814C274.284 77.6355 276.782 77.0625 279.419 77.0625Z" fill="#CFAA37"/>
</svg>
