<svg width="227" height="102" viewBox="0 0 227 102" fill="none" xmlns="http://www.w3.org/2000/svg">
<g filter="url(#filter0_dd_1369_3394)">
<rect x="11" y="11" width="205" height="80" rx="40" fill="#E9C140"/>
<path d="M45.3327 52.1654V49.832H46.4993V48.6654H47.666V47.4987H49.9993V46.332H52.3327V45.1654H53.4993V43.9987H55.8327V42.832H58.166V41.6654H59.3327V40.4987H61.666V39.332H63.9993V38.1654H67.4993V39.332H68.666V62.6654H67.4993V63.832H63.9993V62.6654H61.666V61.4987H59.3327V60.332H58.166V59.1654H55.8327V57.9987H53.4993V56.832H52.3327V55.6654H49.9993V54.4987H47.666V53.332H46.4993V52.1654H45.3327Z" fill="#1C1B1F"/>
<path d="M104.453 60.0938V51.3672H95.7266V60.0938H104.453ZM104.453 48.4609V42.6406H95.7266V48.4609H104.453ZM89.9062 63V39.7344H107.359V42.6406H110.266V48.4609H107.359V51.3672H110.266V60.0938H107.359V63H89.9062ZM128.532 51.3672V45.5469H125.618V42.6406H122.712V45.5469H119.805V51.3672H128.532ZM113.985 63V45.5469H116.891V42.6406H119.805V39.7344H128.532V42.6406H131.438V45.5469H134.344V63H128.532V54.2734H119.805V63H113.985ZM143.884 63V60.0938H140.97V57.1875H138.064V45.5469H140.97V42.6406H143.884V39.7344H155.517V42.6406H158.423V45.5469H152.611V42.6406H146.79V45.5469H143.884V57.1875H146.79V60.0938H152.611V57.1875H158.423V60.0938H155.517V63H143.884ZM162.143 63V39.7344H167.963V48.4609H170.869V45.5469H173.775V42.6406H176.689V39.7344H182.502V42.6406H179.596V45.5469H176.689V48.4609H173.775V51.3672H176.689V54.2734H179.596V57.1875H182.502V63H176.689V57.1875H173.775V54.2734H170.869V51.3672H167.963V63H162.143Z" fill="#1C1B1F"/>
</g>
<defs>
<filter id="filter0_dd_1369_3394" x="0" y="0" width="227" height="102" filterUnits="userSpaceOnUse" color-interpolation-filters="sRGB">
<feFlood flood-opacity="0" result="BackgroundImageFix"/>
<feColorMatrix in="SourceAlpha" type="matrix" values="0 0 0 0 0 0 0 0 0 0 0 0 0 0 0 0 0 0 127 0" result="hardAlpha"/>
<feOffset/>
<feGaussianBlur stdDeviation="2"/>
<feComposite in2="hardAlpha" operator="out"/>
<feColorMatrix type="matrix" values="0 0 0 0 0.376471 0 0 0 0 0.376471 0 0 0 0 0.376471 0 0 0 0.08 0"/>
<feBlend mode="normal" in2="BackgroundImageFix" result="effect1_dropShadow_1369_3394"/>
<feColorMatrix in="SourceAlpha" type="matrix" values="0 0 0 0 0 0 0 0 0 0 0 0 0 0 0 0 0 0 127 0" result="hardAlpha"/>
<feMorphology radius="3" operator="dilate" in="SourceAlpha" result="effect2_dropShadow_1369_3394"/>
<feOffset/>
<feGaussianBlur stdDeviation="4"/>
<feComposite in2="hardAlpha" operator="out"/>
<feColorMatrix type="matrix" values="0 0 0 0 0.376471 0 0 0 0 0.376471 0 0 0 0 0.376471 0 0 0 0.04 0"/>
<feBlend mode="normal" in2="effect1_dropShadow_1369_3394" result="effect2_dropShadow_1369_3394"/>
<feBlend mode="normal" in="SourceGraphic" in2="effect2_dropShadow_1369_3394" result="shape"/>
</filter>
</defs>
</svg>
