<svg width="303" height="345" viewBox="0 0 303 345" fill="none" xmlns="http://www.w3.org/2000/svg">
<mask id="mask0_1533_4076" style="mask-type:luminance" maskUnits="userSpaceOnUse" x="95" y="69" width="192" height="106">
<path d="M95.9609 69.0664H286.628V174.4H95.9609V69.0664Z" fill="white"/>
</mask>
<g mask="url(#mask0_1533_4076)">
<mask id="mask1_1533_4076" style="mask-type:luminance" maskUnits="userSpaceOnUse" x="96" y="69" width="190" height="105">
<path d="M108.383 69.5977L285.341 96.5299L273.607 173.645L96.6436 146.707L108.383 69.5977Z" fill="white"/>
</mask>
<g mask="url(#mask1_1533_4076)">
<mask id="mask2_1533_4076" style="mask-type:luminance" maskUnits="userSpaceOnUse" x="96" y="69" width="190" height="105">
<path d="M108.383 69.5977L285.341 96.5299L273.607 173.645L96.6436 146.707L108.383 69.5977Z" fill="white"/>
</mask>
<g mask="url(#mask2_1533_4076)">
<path d="M272.097 169.669C272.138 169.393 272.232 169.133 272.378 168.888C272.524 168.648 272.706 168.445 272.935 168.273C273.159 168.107 273.409 167.992 273.685 167.924C273.956 167.857 274.232 167.841 274.513 167.883L274.758 166.279C274.492 166.221 274.253 166.112 274.029 165.961C273.81 165.81 273.623 165.622 273.472 165.398C273.32 165.18 273.216 164.935 273.159 164.674C273.097 164.414 273.086 164.148 273.128 163.883C273.169 163.617 273.258 163.367 273.388 163.138C273.524 162.904 273.695 162.706 273.909 162.539C274.117 162.372 274.352 162.247 274.607 162.169C274.862 162.091 275.128 162.06 275.393 162.081L275.638 160.466C275.378 160.404 275.138 160.299 274.914 160.148C274.695 159.992 274.508 159.81 274.357 159.586C274.206 159.362 274.102 159.122 274.039 158.862C273.982 158.596 273.972 158.336 274.013 158.07C274.055 157.805 274.143 157.555 274.274 157.32C274.409 157.091 274.581 156.888 274.794 156.721C275.003 156.555 275.237 156.435 275.492 156.352C275.748 156.273 276.013 156.247 276.279 156.268L276.524 154.648C276.263 154.586 276.024 154.482 275.8 154.331C275.581 154.18 275.393 153.992 275.242 153.768C275.091 153.549 274.987 153.305 274.925 153.044C274.867 152.784 274.857 152.518 274.899 152.253C274.94 151.987 275.029 151.737 275.159 151.508C275.294 151.273 275.466 151.076 275.68 150.909C275.888 150.742 276.123 150.617 276.378 150.539C276.633 150.461 276.899 150.43 277.164 150.451L277.409 148.857C277.143 148.799 276.904 148.69 276.68 148.539C276.461 148.388 276.274 148.201 276.123 147.977C275.972 147.758 275.867 147.513 275.81 147.253C275.748 146.992 275.737 146.727 275.779 146.461C275.82 146.195 275.909 145.945 276.044 145.716C276.175 145.482 276.347 145.284 276.56 145.117C276.768 144.951 277.003 144.826 277.258 144.747C277.518 144.669 277.779 144.638 278.044 144.659L278.451 141.982C278.024 141.898 277.602 141.773 277.195 141.612C276.789 141.445 276.404 141.247 276.034 141.008C275.664 140.768 275.326 140.497 275.008 140.19C274.69 139.888 274.404 139.555 274.154 139.195C273.899 138.836 273.685 138.456 273.503 138.06C273.326 137.659 273.185 137.242 273.086 136.815C272.982 136.388 272.925 135.956 272.909 135.518C272.888 135.081 272.914 134.643 272.982 134.211C273.044 133.773 273.154 133.352 273.3 132.94C273.445 132.523 273.633 132.128 273.857 131.753C274.076 131.372 274.336 131.018 274.628 130.69C274.919 130.362 275.237 130.065 275.586 129.799C275.93 129.529 276.305 129.299 276.695 129.102C277.086 128.904 277.492 128.747 277.919 128.628C278.341 128.508 278.768 128.435 279.206 128.398C279.643 128.362 280.081 128.367 280.518 128.414L280.919 125.763C280.659 125.701 280.419 125.596 280.195 125.445C279.977 125.294 279.789 125.107 279.638 124.883C279.487 124.664 279.383 124.419 279.32 124.159C279.263 123.898 279.253 123.633 279.294 123.367C279.336 123.102 279.425 122.852 279.555 122.622C279.69 122.388 279.862 122.19 280.076 122.023C280.284 121.857 280.518 121.732 280.774 121.654C281.029 121.576 281.294 121.544 281.56 121.565L281.805 119.951C281.544 119.888 281.305 119.784 281.081 119.633C280.862 119.477 280.675 119.294 280.524 119.07C280.373 118.846 280.268 118.607 280.206 118.346C280.149 118.081 280.138 117.82 280.18 117.555C280.222 117.289 280.305 117.039 280.44 116.805C280.576 116.576 280.748 116.372 280.961 116.206C281.169 116.039 281.404 115.919 281.659 115.836C281.914 115.758 282.18 115.732 282.445 115.753L282.69 114.133C282.43 114.07 282.19 113.966 281.966 113.815C281.748 113.664 281.56 113.477 281.409 113.253C281.258 113.034 281.154 112.789 281.091 112.529C281.034 112.268 281.024 112.003 281.065 111.737C281.107 111.471 281.19 111.221 281.326 110.992C281.461 110.758 281.633 110.56 281.847 110.393C282.055 110.227 282.289 110.102 282.544 110.023C282.8 109.945 283.065 109.914 283.331 109.935L283.576 108.32C283.315 108.258 283.076 108.154 282.852 108.003C282.633 107.846 282.445 107.664 282.294 107.44C282.143 107.216 282.039 106.977 281.977 106.716C281.919 106.451 281.909 106.19 281.951 105.924C281.992 105.659 282.076 105.409 282.211 105.174C282.347 104.945 282.518 104.742 282.727 104.576C282.94 104.409 283.175 104.289 283.43 104.206C283.685 104.128 283.951 104.102 284.216 104.122L284.466 102.477C284.206 102.419 283.961 102.315 283.742 102.159C283.518 102.008 283.331 101.82 283.18 101.602C283.029 101.378 282.925 101.138 282.867 100.872C282.805 100.612 282.8 100.352 282.836 100.086C282.878 99.8203 282.966 99.5703 283.102 99.3359C283.237 99.1068 283.409 98.9036 283.617 98.737C283.826 98.5703 284.06 98.4453 284.32 98.3672C284.576 98.2891 284.836 98.263 285.107 98.2786L285.373 96.5339L155.831 76.8203C155.815 76.9141 155.8 77.0182 155.789 77.1172C155.722 77.5599 155.612 77.9974 155.456 78.4245C155.305 78.8464 155.112 79.2526 154.878 79.6432C154.649 80.0286 154.378 80.3932 154.076 80.7266C153.774 81.0599 153.44 81.362 153.076 81.6328C152.711 81.9036 152.326 82.1328 151.919 82.3255C151.508 82.5182 151.086 82.6745 150.649 82.7839C150.211 82.8932 149.768 82.9609 149.315 82.9818C148.862 83.0078 148.414 82.987 147.966 82.9193C147.518 82.8568 147.076 82.7474 146.643 82.5964C146.216 82.4401 145.805 82.2474 145.414 82.013C145.024 81.7786 144.659 81.5078 144.32 81.2057C143.982 80.8984 143.675 80.5599 143.404 80.1953C143.133 79.8307 142.899 79.4401 142.706 79.0286C142.508 78.612 142.357 78.1849 142.248 77.7422C142.138 77.2995 142.07 76.8516 142.05 76.3932C142.029 75.9401 142.055 75.487 142.123 75.0339C142.133 74.9349 142.149 74.8359 142.169 74.737L108.623 69.6328L108.352 71.4036C108.628 71.4453 108.888 71.5391 109.133 71.6849C109.373 71.8359 109.576 72.0182 109.742 72.2474C109.909 72.4766 110.024 72.7266 110.091 72.9974C110.159 73.2734 110.169 73.5495 110.123 73.8255C110.081 74.1016 109.982 74.3568 109.836 74.5964C109.69 74.8359 109.503 75.0339 109.279 75.2005C109.055 75.362 108.805 75.4766 108.534 75.5443C108.263 75.6068 107.992 75.6224 107.716 75.5807L107.466 77.2214C107.748 77.263 108.003 77.3568 108.248 77.5026C108.487 77.6484 108.69 77.8359 108.857 78.0651C109.024 78.2891 109.138 78.5391 109.206 78.8151C109.274 79.0911 109.284 79.3672 109.237 79.6432C109.195 79.9193 109.102 80.1797 108.956 80.4193C108.81 80.6589 108.628 80.862 108.399 81.0286C108.175 81.1953 107.925 81.3151 107.654 81.3828C107.378 81.4453 107.107 81.4609 106.826 81.4193L106.581 83.0339C106.857 83.0755 107.112 83.1693 107.352 83.3099C107.586 83.4557 107.789 83.638 107.956 83.8568C108.123 84.0807 108.242 84.3255 108.31 84.5964C108.383 84.862 108.399 85.138 108.362 85.4089C108.326 85.6953 108.237 85.9557 108.091 86.2057C107.951 86.4505 107.763 86.6589 107.534 86.8307C107.31 87.0026 107.055 87.1224 106.779 87.1901C106.503 87.263 106.227 87.2734 105.94 87.2318L105.695 88.8516C105.972 88.8932 106.232 88.987 106.472 89.1328C106.711 89.2786 106.914 89.4609 107.081 89.6901C107.248 89.9141 107.367 90.1641 107.435 90.4349C107.503 90.7109 107.513 90.9818 107.472 91.263C107.43 91.5391 107.336 91.7995 107.19 92.0443C107.05 92.2839 106.862 92.487 106.633 92.6589C106.409 92.8255 106.159 92.9401 105.883 93.0078C105.612 93.0755 105.336 93.0911 105.055 93.0495L104.81 94.6641C105.091 94.7057 105.347 94.7995 105.586 94.9453C105.826 95.0911 106.034 95.2786 106.195 95.5026C106.362 95.7318 106.482 95.9766 106.55 96.2526C106.617 96.5234 106.628 96.7995 106.586 97.0755C106.544 97.3568 106.451 97.6172 106.305 97.8568C106.164 98.1016 105.977 98.3047 105.753 98.4714C105.524 98.638 105.274 98.7578 105.003 98.8255C104.727 98.8932 104.451 98.9036 104.175 98.862L103.768 101.513C104.216 101.581 104.649 101.695 105.07 101.846C105.492 101.997 105.899 102.195 106.284 102.424C106.669 102.659 107.029 102.924 107.362 103.232C107.695 103.534 107.992 103.867 108.258 104.232C108.529 104.591 108.758 104.977 108.945 105.383C109.138 105.794 109.289 106.216 109.393 106.654C109.503 107.091 109.565 107.534 109.586 107.982C109.607 108.435 109.581 108.878 109.513 109.326C109.445 109.768 109.336 110.206 109.185 110.628C109.029 111.049 108.836 111.456 108.607 111.841C108.373 112.227 108.102 112.586 107.8 112.919C107.498 113.253 107.164 113.555 106.8 113.82C106.44 114.086 106.055 114.315 105.643 114.508C105.237 114.701 104.815 114.852 104.378 114.956C103.94 115.065 103.498 115.133 103.044 115.154C102.597 115.174 102.149 115.148 101.706 115.086L101.3 117.737C101.581 117.779 101.836 117.872 102.081 118.018C102.32 118.164 102.524 118.352 102.69 118.581C102.857 118.805 102.972 119.055 103.039 119.331C103.107 119.607 103.117 119.883 103.07 120.159C103.034 120.44 102.94 120.701 102.8 120.945C102.654 121.185 102.466 121.393 102.242 121.56C102.013 121.732 101.763 121.852 101.487 121.919C101.216 121.987 100.935 121.997 100.659 121.956L100.409 123.576C100.685 123.617 100.945 123.711 101.185 123.852C101.419 123.997 101.623 124.18 101.789 124.404C101.956 124.628 102.076 124.872 102.143 125.143C102.211 125.414 102.227 125.685 102.19 125.961C102.149 126.242 102.055 126.503 101.909 126.742C101.768 126.987 101.581 127.19 101.357 127.357C101.128 127.523 100.878 127.643 100.607 127.711C100.331 127.779 100.055 127.789 99.7788 127.747L99.5288 129.367C99.8101 129.409 100.07 129.503 100.31 129.648C100.55 129.794 100.753 129.982 100.919 130.211C101.086 130.435 101.201 130.685 101.268 130.961C101.336 131.237 101.347 131.513 101.305 131.789C101.258 132.065 101.164 132.326 101.024 132.565C100.878 132.805 100.69 133.008 100.466 133.174C100.237 133.341 99.9871 133.461 99.7163 133.529C99.4455 133.591 99.1694 133.607 98.8934 133.565L98.6434 135.18C98.9246 135.221 99.1798 135.315 99.4194 135.461C99.6642 135.607 99.8674 135.794 100.034 136.018C100.201 136.247 100.315 136.492 100.383 136.768C100.451 137.039 100.461 137.315 100.419 137.591C100.378 137.872 100.284 138.133 100.143 138.372C99.9976 138.617 99.8101 138.82 99.5861 138.987C99.3569 139.154 99.1069 139.273 98.8361 139.341C98.5601 139.409 98.284 139.419 98.008 139.378L97.7632 140.982C98.0392 141.029 98.2996 141.122 98.5392 141.263C98.7788 141.409 98.9819 141.596 99.1486 141.82C99.3153 142.049 99.4298 142.299 99.4976 142.57C99.5653 142.841 99.5809 143.117 99.534 143.393C99.4976 143.674 99.4038 143.935 99.258 144.174C99.1121 144.419 98.9298 144.622 98.7007 144.789C98.4767 144.961 98.2267 145.076 97.9507 145.143C97.6798 145.211 97.4038 145.227 97.1226 145.18L96.8569 146.93L130.43 152.039C130.435 151.935 130.451 151.831 130.477 151.732C130.544 151.284 130.654 150.841 130.81 150.414C130.966 149.987 131.159 149.581 131.393 149.195C131.628 148.805 131.899 148.44 132.206 148.107C132.513 147.773 132.847 147.471 133.211 147.201C133.581 146.93 133.966 146.701 134.378 146.508C134.789 146.315 135.216 146.164 135.659 146.055C136.097 145.945 136.544 145.883 136.998 145.862C137.451 145.841 137.904 145.867 138.352 145.935C138.805 146.003 139.242 146.112 139.669 146.268C140.097 146.424 140.503 146.617 140.893 146.852C141.279 147.086 141.643 147.357 141.977 147.664C142.31 147.971 142.612 148.305 142.883 148.669C143.154 149.039 143.383 149.424 143.576 149.836C143.768 150.247 143.919 150.674 144.029 151.117C144.138 151.555 144.201 152.003 144.222 152.456C144.242 152.909 144.216 153.362 144.149 153.81C144.133 153.919 144.117 154.013 144.102 154.122L273.607 173.831L273.878 172.044C273.602 172.003 273.347 171.914 273.107 171.768C272.873 171.628 272.669 171.445 272.503 171.221C272.336 171.003 272.216 170.758 272.149 170.487C272.076 170.216 272.06 169.945 272.097 169.669ZM147.102 88.6068C147.451 88.6536 147.732 88.8203 147.945 89.1068C148.154 89.388 148.237 89.7005 148.185 90.0495C148.133 90.4036 147.966 90.6797 147.685 90.8932C147.399 91.1016 147.086 91.1797 146.737 91.1276C146.388 91.0755 146.107 90.9089 145.899 90.6276C145.685 90.3411 145.607 90.0234 145.664 89.6745C145.711 89.3307 145.878 89.0495 146.159 88.8411C146.44 88.6328 146.758 88.5547 147.102 88.6068ZM146.419 93.0755C146.768 93.1276 147.05 93.2995 147.258 93.5807C147.466 93.8672 147.544 94.1797 147.492 94.5286C147.44 94.8776 147.268 95.1536 146.987 95.3672C146.701 95.5755 146.388 95.6536 146.039 95.5964C145.69 95.5443 145.414 95.3776 145.201 95.0911C144.992 94.8099 144.914 94.4922 144.972 94.1484C144.992 93.9766 145.05 93.8203 145.138 93.6745C145.222 93.5286 145.336 93.4089 145.472 93.3047C145.607 93.2057 145.758 93.138 145.925 93.0964C146.086 93.0547 146.253 93.0495 146.419 93.0755ZM145.742 97.5495C145.914 97.5651 146.07 97.612 146.222 97.6953C146.373 97.7734 146.503 97.8828 146.612 98.013C146.722 98.1484 146.8 98.2943 146.847 98.4609C146.893 98.6224 146.909 98.7891 146.888 98.9609C146.867 99.1328 146.815 99.2891 146.732 99.4401C146.649 99.5911 146.539 99.7161 146.409 99.8203C146.274 99.9297 146.123 100.003 145.956 100.049C145.789 100.091 145.623 100.107 145.456 100.081C145.284 100.06 145.128 100.008 144.977 99.9193C144.831 99.8307 144.706 99.7214 144.602 99.5859C144.498 99.4453 144.425 99.2943 144.383 99.1328C144.341 98.9661 144.336 98.7995 144.362 98.6276C144.409 98.2943 144.565 98.0182 144.831 97.8099C145.102 97.6016 145.404 97.513 145.742 97.5495ZM145.06 102.018C145.232 102.034 145.393 102.086 145.544 102.164C145.695 102.247 145.82 102.352 145.93 102.487C146.039 102.617 146.117 102.768 146.164 102.93C146.211 103.096 146.227 103.263 146.206 103.435C146.19 103.602 146.138 103.763 146.055 103.914C145.972 104.06 145.862 104.19 145.727 104.294C145.591 104.398 145.44 104.477 145.279 104.518C145.112 104.565 144.945 104.576 144.774 104.555C144.607 104.529 144.445 104.477 144.3 104.388C144.149 104.305 144.024 104.19 143.919 104.055C143.82 103.919 143.748 103.768 143.706 103.602C143.664 103.435 143.654 103.268 143.68 103.102C143.727 102.763 143.883 102.492 144.154 102.279C144.419 102.07 144.722 101.987 145.06 102.018ZM144.383 106.492C144.55 106.508 144.711 106.555 144.862 106.638C145.013 106.716 145.143 106.826 145.253 106.961C145.357 107.091 145.435 107.242 145.487 107.404C145.534 107.57 145.544 107.737 145.529 107.909C145.508 108.081 145.456 108.237 145.373 108.388C145.284 108.539 145.175 108.664 145.039 108.768C144.904 108.872 144.753 108.951 144.591 108.992C144.425 109.039 144.258 109.049 144.086 109.023C143.914 109.003 143.758 108.945 143.612 108.857C143.461 108.768 143.336 108.659 143.237 108.518C143.133 108.383 143.06 108.232 143.024 108.065C142.982 107.898 142.977 107.727 143.003 107.56C143.055 107.216 143.227 106.94 143.508 106.732C143.789 106.529 144.107 106.451 144.451 106.503L144.383 106.492ZM143.701 110.961C143.873 110.977 144.034 111.029 144.185 111.107C144.336 111.19 144.461 111.294 144.57 111.43C144.68 111.565 144.758 111.711 144.805 111.878C144.852 112.039 144.867 112.211 144.847 112.378C144.826 112.549 144.774 112.711 144.69 112.857C144.607 113.008 144.498 113.133 144.362 113.242C144.227 113.346 144.076 113.419 143.909 113.466C143.742 113.508 143.576 113.518 143.404 113.497C143.237 113.471 143.076 113.414 142.93 113.331C142.784 113.242 142.659 113.128 142.555 112.992C142.451 112.852 142.383 112.701 142.341 112.534C142.3 112.367 142.294 112.201 142.32 112.029C142.347 111.862 142.404 111.706 142.492 111.56C142.581 111.414 142.695 111.289 142.836 111.19C142.977 111.091 143.128 111.023 143.294 110.987C143.461 110.951 143.628 110.945 143.794 110.977L143.701 110.961ZM143.018 115.435C143.336 115.513 143.586 115.69 143.768 115.966C143.951 116.237 144.018 116.539 143.966 116.862C143.919 117.185 143.763 117.451 143.513 117.659C143.258 117.867 142.966 117.961 142.638 117.945C142.456 117.935 142.289 117.888 142.128 117.805C141.966 117.727 141.831 117.612 141.716 117.477C141.602 117.336 141.524 117.18 141.477 117.003C141.43 116.831 141.419 116.654 141.445 116.477C141.472 116.299 141.534 116.138 141.633 115.982C141.727 115.831 141.852 115.706 142.003 115.607C142.149 115.508 142.315 115.445 142.492 115.414C142.669 115.383 142.847 115.388 143.018 115.435ZM142.341 119.904C142.508 119.93 142.669 119.987 142.815 120.076C142.961 120.164 143.086 120.279 143.185 120.414C143.289 120.555 143.357 120.706 143.399 120.872C143.435 121.039 143.445 121.206 143.414 121.378C143.388 121.544 143.326 121.701 143.237 121.846C143.143 121.992 143.029 122.112 142.888 122.211C142.748 122.31 142.591 122.378 142.425 122.414C142.258 122.451 142.091 122.451 141.919 122.419C141.753 122.388 141.597 122.326 141.456 122.232C141.31 122.138 141.19 122.018 141.097 121.878C141.003 121.732 140.935 121.576 140.904 121.409C140.873 121.242 140.873 121.07 140.909 120.904C140.94 120.732 141.008 120.57 141.112 120.424C141.211 120.279 141.336 120.159 141.487 120.07C141.638 119.977 141.8 119.919 141.977 119.893C142.149 119.867 142.326 119.883 142.492 119.93L142.341 119.904ZM141.659 124.378C141.977 124.456 142.227 124.633 142.409 124.909C142.591 125.18 142.654 125.482 142.607 125.805C142.555 126.128 142.404 126.393 142.149 126.602C141.893 126.81 141.602 126.904 141.279 126.888C141.097 126.878 140.925 126.831 140.768 126.747C140.607 126.669 140.472 126.555 140.357 126.419C140.242 126.279 140.164 126.122 140.117 125.945C140.065 125.773 140.06 125.596 140.086 125.419C140.112 125.242 140.175 125.081 140.268 124.924C140.367 124.773 140.492 124.648 140.638 124.549C140.789 124.451 140.956 124.388 141.133 124.357C141.31 124.326 141.482 124.331 141.659 124.378ZM140.977 128.846C141.149 128.862 141.31 128.914 141.461 128.992C141.612 129.076 141.742 129.18 141.847 129.315C141.956 129.451 142.034 129.596 142.081 129.763C142.128 129.924 142.143 130.096 142.123 130.263C142.107 130.435 142.055 130.596 141.966 130.742C141.883 130.893 141.774 131.018 141.638 131.128C141.503 131.232 141.352 131.305 141.185 131.352C141.018 131.393 140.852 131.404 140.685 131.383C140.513 131.357 140.357 131.299 140.206 131.216C140.06 131.128 139.935 131.013 139.831 130.878C139.732 130.737 139.659 130.586 139.617 130.419C139.581 130.253 139.57 130.086 139.597 129.914C139.628 129.737 139.69 129.57 139.789 129.419C139.888 129.268 140.013 129.143 140.164 129.044C140.315 128.945 140.482 128.878 140.659 128.852C140.841 128.826 141.018 128.831 141.19 128.883L140.977 128.846ZM140.3 133.31C140.649 133.362 140.925 133.529 141.133 133.81C141.341 134.096 141.419 134.414 141.367 134.758C141.315 135.107 141.149 135.388 140.862 135.596C140.581 135.805 140.263 135.883 139.914 135.831C139.565 135.773 139.289 135.607 139.081 135.326C138.873 135.039 138.794 134.727 138.847 134.378C138.873 134.185 138.94 134.008 139.044 133.846C139.149 133.685 139.284 133.555 139.451 133.451C139.617 133.352 139.794 133.294 139.987 133.273C140.18 133.253 140.367 133.279 140.55 133.346L140.3 133.31ZM139.237 140.299C138.888 140.247 138.607 140.081 138.399 139.794C138.19 139.513 138.112 139.195 138.164 138.846C138.222 138.497 138.388 138.221 138.669 138.013C138.956 137.805 139.268 137.727 139.617 137.779C139.966 137.831 140.248 138.003 140.456 138.284C140.664 138.565 140.742 138.883 140.685 139.232C140.649 139.534 140.513 139.789 140.294 139.997C140.076 140.206 139.81 140.32 139.508 140.341L139.237 140.299Z" fill="white"/>
</g>
</g>
</g>
<path d="M4.91667 24.4375C4.91667 25.5625 5.14583 26.3646 5.60417 26.8333C6.07292 27.2917 6.69792 27.5208 7.47917 27.5208C8.23958 27.5208 8.85417 27.2917 9.3125 26.8333C9.78125 26.3646 10.0208 25.5625 10.0208 24.4375V7.54167C10.0208 6.41667 9.78125 5.625 9.3125 5.16667C8.85417 4.69792 8.23958 4.45833 7.47917 4.45833C6.69792 4.45833 6.07292 4.69792 5.60417 5.16667C5.14583 5.625 4.91667 6.41667 4.91667 7.54167V24.4375ZM0 7.85417C0 5.32813 0.635416 3.39063 1.91667 2.04167C3.20833 0.682292 5.0625 0 7.47917 0C9.88021 0 11.7188 0.682292 13 2.04167C14.2917 3.39063 14.9375 5.32813 14.9375 7.85417V24.125C14.9375 26.6563 14.2917 28.599 13 29.9583C11.7188 31.3073 9.88021 31.9792 7.47917 31.9792C5.0625 31.9792 3.20833 31.3073 1.91667 29.9583C0.635416 28.599 0 26.6563 0 24.125V7.85417Z" fill="white"/>
<path d="M28.0964 8.04167C28.0964 6.64063 27.8672 5.69792 27.4089 5.20833C26.9505 4.70833 26.3307 4.45833 25.5547 4.45833C24.7734 4.45833 24.1589 4.69792 23.7005 5.16667C23.2422 5.625 23.013 6.41667 23.013 7.54167V9.5625H18.3672V7.85417C18.3672 5.32813 18.9818 3.39063 20.2214 2.04167C21.4557 0.682292 23.2839 0 25.7005 0C28.1016 0 29.9193 0.682292 31.1589 2.04167C32.3932 3.39063 33.013 5.32813 33.013 7.85417V8.66667C33.013 12 31.8672 14.1458 29.5755 15.1042C30.8255 15.6354 31.7057 16.4583 32.2214 17.5833C32.7474 18.6979 33.013 20.0573 33.013 21.6667V24.125C33.013 26.6563 32.3932 28.599 31.1589 29.9583C29.9193 31.3073 28.1016 31.9792 25.7005 31.9792C23.2839 31.9792 21.4557 31.3073 20.2214 29.9583C18.9818 28.599 18.3672 26.6563 18.3672 24.125V21.5208H23.013V24.4375C23.013 25.5625 23.2422 26.3646 23.7005 26.8333C24.1589 27.2917 24.7734 27.5208 25.5547 27.5208C26.3307 27.5208 26.9505 27.2865 27.4089 26.8125C27.8672 26.3281 28.0964 25.3854 28.0964 23.9792V21.5208C28.0964 20.0625 27.8359 19.0417 27.3255 18.4583C26.8255 17.8646 26.013 17.5625 24.888 17.5625H23.2422V13.0833H25.1589C26.0755 13.0833 26.7891 12.849 27.3047 12.375C27.8307 11.9063 28.0964 11.0417 28.0964 9.79167V8.04167Z" fill="white"/>
<path d="M54.9134 287.73H59.7467V290.939H54.9134V297.48H60.9967V300.689H51.3926V278.293H60.9967V281.501H54.9134V287.73Z" fill="white"/>
<path d="M68.862 284.48V300.689H65.6953V278.293H70.112L73.7161 291.71V278.293H76.862V300.689H73.237L68.862 284.48Z" fill="white"/>
<path d="M80.9668 278.293H91.8418V281.501H88.1751V300.689H84.6543V281.501H80.9668V278.293Z" fill="white"/>
<path d="M99.513 287.73H104.346V290.939H99.513V297.48H105.596V300.689H95.9922V278.293H105.596V281.501H99.513V287.73Z" fill="white"/>
<path d="M117.669 300.689C117.627 300.538 117.585 300.397 117.544 300.272C117.502 300.147 117.465 299.991 117.439 299.793C117.408 299.6 117.387 299.355 117.377 299.064C117.361 298.762 117.356 298.387 117.356 297.939V294.418C117.356 293.376 117.174 292.647 116.814 292.23C116.45 291.803 115.867 291.585 115.064 291.585H113.835V300.689H110.314V278.293H115.627C117.46 278.293 118.783 278.725 119.606 279.585C120.424 280.434 120.835 281.725 120.835 283.46V285.21C120.835 287.517 120.07 289.033 118.544 289.751C119.429 290.116 120.044 290.704 120.377 291.522C120.71 292.345 120.877 293.345 120.877 294.522V297.98C120.877 298.522 120.898 299.001 120.939 299.418C120.981 299.835 121.085 300.262 121.252 300.689H117.669ZM113.835 281.501V288.376H115.21C115.877 288.376 116.398 288.21 116.773 287.876C117.148 287.533 117.335 286.908 117.335 286.001V283.814C117.335 282.996 117.189 282.408 116.898 282.043C116.606 281.684 116.153 281.501 115.544 281.501H113.835Z" fill="white"/>
<path d="M138.551 296.564L141.239 278.293H144.468L141.01 300.689H135.781L132.322 278.293H135.864L138.551 296.564Z" fill="white"/>
<path d="M151.877 295.543C151.877 296.35 152.044 296.918 152.377 297.251C152.71 297.585 153.153 297.751 153.71 297.751C154.262 297.751 154.7 297.585 155.023 297.251C155.356 296.918 155.523 296.35 155.523 295.543V283.46C155.523 282.642 155.356 282.074 155.023 281.751C154.7 281.418 154.262 281.251 153.71 281.251C153.153 281.251 152.71 281.418 152.377 281.751C152.044 282.074 151.877 282.642 151.877 283.46V295.543ZM148.377 283.668C148.377 281.866 148.835 280.475 149.752 279.501C150.669 278.533 151.986 278.043 153.71 278.043C155.429 278.043 156.752 278.533 157.669 279.501C158.585 280.475 159.044 281.866 159.044 283.668V295.314C159.044 297.137 158.585 298.533 157.669 299.501C156.752 300.46 155.429 300.939 153.71 300.939C151.986 300.939 150.669 300.46 149.752 299.501C148.835 298.533 148.377 297.137 148.377 295.314V283.668Z" fill="white"/>
<path d="M167.242 278.293V295.564C167.242 296.387 167.398 296.954 167.721 297.272C168.054 297.595 168.497 297.751 169.054 297.751C169.606 297.751 170.054 297.595 170.387 297.272C170.721 296.954 170.887 296.387 170.887 295.564V278.293H174.2V295.355C174.2 297.163 173.752 298.553 172.867 299.522C171.992 300.496 170.684 300.98 168.95 300.98C167.226 300.98 165.919 300.496 165.033 299.522C164.158 298.553 163.721 297.163 163.721 295.355V278.293H167.242Z" fill="white"/>
<path d="M189.356 292.335V295.314C189.356 297.137 188.908 298.533 188.023 299.501C187.148 300.46 185.84 300.939 184.106 300.939C182.382 300.939 181.075 300.46 180.189 299.501C179.314 298.533 178.877 297.137 178.877 295.314V283.668C178.877 281.866 179.314 280.475 180.189 279.501C181.075 278.533 182.382 278.043 184.106 278.043C185.84 278.043 187.148 278.533 188.023 279.501C188.908 280.475 189.356 281.866 189.356 283.668V285.855H186.023V283.46C186.023 282.642 185.856 282.074 185.523 281.751C185.2 281.418 184.762 281.251 184.21 281.251C183.653 281.251 183.21 281.418 182.877 281.751C182.544 282.074 182.377 282.642 182.377 283.46V295.543C182.377 296.35 182.544 296.913 182.877 297.23C183.21 297.553 183.653 297.71 184.21 297.71C184.762 297.71 185.2 297.553 185.523 297.23C185.856 296.913 186.023 296.35 186.023 295.543V292.335H189.356Z" fill="white"/>
<path d="M197.568 300.689H194.047V278.293H197.568V287.897H201.568V278.293H205.151V300.689H201.568V291.085H197.568V300.689Z" fill="white"/>
<path d="M213.777 287.73H218.61V290.939H213.777V297.48H219.86V300.689H210.256V278.293H219.86V281.501H213.777V287.73Z" fill="white"/>
<path d="M231.932 300.689C231.891 300.538 231.849 300.397 231.807 300.272C231.766 300.147 231.729 299.991 231.703 299.793C231.672 299.6 231.651 299.355 231.641 299.064C231.625 298.762 231.62 298.387 231.62 297.939V294.418C231.62 293.376 231.438 292.647 231.078 292.23C230.714 291.803 230.13 291.585 229.328 291.585H228.099V300.689H224.578V278.293H229.891C231.724 278.293 233.047 278.725 233.87 279.585C234.688 280.434 235.099 281.725 235.099 283.46V285.21C235.099 287.517 234.333 289.033 232.807 289.751C233.693 290.116 234.307 290.704 234.641 291.522C234.974 292.345 235.141 293.345 235.141 294.522V297.98C235.141 298.522 235.161 299.001 235.203 299.418C235.245 299.835 235.349 300.262 235.516 300.689H231.932ZM228.099 281.501V288.376H229.474C230.141 288.376 230.661 288.21 231.036 287.876C231.411 287.533 231.599 286.908 231.599 286.001V283.814C231.599 282.996 231.453 282.408 231.161 282.043C230.87 281.684 230.417 281.501 229.807 281.501H228.099Z" fill="white"/>
<path d="M257.71 292.335V295.314C257.71 297.137 257.262 298.533 256.376 299.501C255.501 300.46 254.194 300.939 252.46 300.939C250.736 300.939 249.428 300.46 248.543 299.501C247.668 298.533 247.23 297.137 247.23 295.314V283.668C247.23 281.866 247.668 280.475 248.543 279.501C249.428 278.533 250.736 278.043 252.46 278.043C254.194 278.043 255.501 278.533 256.376 279.501C257.262 280.475 257.71 281.866 257.71 283.668V285.855H254.376V283.46C254.376 282.642 254.21 282.074 253.876 281.751C253.553 281.418 253.116 281.251 252.564 281.251C252.007 281.251 251.564 281.418 251.23 281.751C250.897 282.074 250.73 282.642 250.73 283.46V295.543C250.73 296.35 250.897 296.913 251.23 297.23C251.564 297.553 252.007 297.71 252.564 297.71C253.116 297.71 253.553 297.553 253.876 297.23C254.21 296.913 254.376 296.35 254.376 295.543V292.335H257.71Z" fill="white"/>
<path d="M265.629 295.543C265.629 296.35 265.796 296.918 266.129 297.251C266.462 297.585 266.905 297.751 267.462 297.751C268.014 297.751 268.452 297.585 268.775 297.251C269.108 296.918 269.275 296.35 269.275 295.543V283.46C269.275 282.642 269.108 282.074 268.775 281.751C268.452 281.418 268.014 281.251 267.462 281.251C266.905 281.251 266.462 281.418 266.129 281.751C265.796 282.074 265.629 282.642 265.629 283.46V295.543ZM262.129 283.668C262.129 281.866 262.587 280.475 263.504 279.501C264.421 278.533 265.738 278.043 267.462 278.043C269.181 278.043 270.504 278.533 271.421 279.501C272.337 280.475 272.796 281.866 272.796 283.668V295.314C272.796 297.137 272.337 298.533 271.421 299.501C270.504 300.46 269.181 300.939 267.462 300.939C265.738 300.939 264.421 300.46 263.504 299.501C262.587 298.533 262.129 297.137 262.129 295.314V283.668Z" fill="white"/>
<path d="M277.619 278.293H283.182C284.958 278.293 286.275 278.767 287.14 279.71C287.999 280.658 288.432 282.033 288.432 283.835V295.147C288.432 296.97 287.999 298.35 287.14 299.293C286.275 300.225 284.958 300.689 283.182 300.689H277.619V278.293ZM281.14 281.501V297.48H283.119C283.671 297.48 284.109 297.324 284.432 297.001C284.749 296.684 284.911 296.121 284.911 295.314V283.668C284.911 282.866 284.749 282.303 284.432 281.98C284.109 281.663 283.671 281.501 283.119 281.501H281.14Z" fill="white"/>
<path d="M296.742 287.73H301.575V290.939H296.742V297.48H302.825V300.689H293.221V278.293H302.825V281.501H296.742V287.73Z" fill="white"/>
<path d="M81.1836 322.293H92.0586V325.501H88.3919V344.689H84.8711V325.501H81.1836V322.293Z" fill="white"/>
<path d="M99.4395 339.543C99.4395 340.35 99.6061 340.918 99.9395 341.251C100.273 341.585 100.715 341.751 101.273 341.751C101.825 341.751 102.262 341.585 102.585 341.251C102.919 340.918 103.085 340.35 103.085 339.543V327.46C103.085 326.642 102.919 326.074 102.585 325.751C102.262 325.418 101.825 325.251 101.273 325.251C100.715 325.251 100.273 325.418 99.9395 325.751C99.6061 326.074 99.4395 326.642 99.4395 327.46V339.543ZM95.9395 327.668C95.9395 325.866 96.3978 324.475 97.3145 323.501C98.2311 322.533 99.5488 322.043 101.273 322.043C102.992 322.043 104.314 322.533 105.231 323.501C106.148 324.475 106.606 325.866 106.606 327.668V339.314C106.606 341.137 106.148 342.533 105.231 343.501C104.314 344.46 102.992 344.939 101.273 344.939C99.5488 344.939 98.2311 344.46 97.3145 343.501C96.3978 342.533 95.9395 341.137 95.9395 339.314V327.668Z" fill="white"/>
<path d="M124.232 332.21H129.149V339.314C129.149 341.137 128.701 342.533 127.816 343.501C126.941 344.46 125.633 344.939 123.899 344.939C122.175 344.939 120.868 344.46 119.982 343.501C119.107 342.533 118.67 341.137 118.67 339.314V327.668C118.67 325.866 119.107 324.475 119.982 323.501C120.868 322.533 122.175 322.043 123.899 322.043C125.633 322.043 126.941 322.533 127.816 323.501C128.701 324.475 129.149 325.866 129.149 327.668V329.855H125.816V327.46C125.816 326.642 125.649 326.074 125.316 325.751C124.993 325.418 124.555 325.251 124.003 325.251C123.446 325.251 123.003 325.418 122.67 325.751C122.337 326.074 122.17 326.642 122.17 327.46V339.543C122.17 340.35 122.337 340.913 122.67 341.23C123.003 341.553 123.446 341.71 124.003 341.71C124.555 341.71 124.993 341.553 125.316 341.23C125.649 340.913 125.816 340.35 125.816 339.543V335.418H124.232V332.21Z" fill="white"/>
<path d="M137.488 331.73H142.321V334.939H137.488V341.48H143.571V344.689H133.967V322.293H143.571V325.501H137.488V331.73Z" fill="white"/>
<path d="M147.332 322.293H158.207V325.501H154.54V344.689H151.02V325.501H147.332V322.293Z" fill="white"/>
<path d="M169.871 322.293H175.434C177.21 322.293 178.527 322.767 179.392 323.71C180.251 324.658 180.684 326.033 180.684 327.835V339.147C180.684 340.97 180.251 342.35 179.392 343.293C178.527 344.225 177.21 344.689 175.434 344.689H169.871V322.293ZM173.392 325.501V341.48H175.371C175.923 341.48 176.361 341.324 176.684 341.001C177.001 340.684 177.163 340.121 177.163 339.314V327.668C177.163 326.866 177.001 326.303 176.684 325.98C176.361 325.663 175.923 325.501 175.371 325.501H173.392Z" fill="white"/>
<path d="M185.473 322.293H188.993V344.689H185.473V322.293Z" fill="white"/>
<path d="M193.669 327.668C193.669 325.866 194.096 324.475 194.96 323.501C195.82 322.533 197.117 322.043 198.856 322.043C200.575 322.043 201.867 322.533 202.731 323.501C203.59 324.475 204.023 325.866 204.023 327.668V328.543H200.71V327.46C200.71 326.642 200.549 326.074 200.231 325.751C199.924 325.418 199.492 325.251 198.939 325.251C198.382 325.251 197.95 325.418 197.648 325.751C197.34 326.074 197.189 326.642 197.189 327.46C197.189 328.225 197.356 328.897 197.689 329.48C198.033 330.064 198.465 330.621 198.981 331.147C199.492 331.678 200.044 332.204 200.627 332.73C201.21 333.246 201.757 333.814 202.273 334.439C202.783 335.053 203.21 335.751 203.544 336.543C203.887 337.324 204.064 338.246 204.064 339.314C204.064 341.137 203.617 342.533 202.731 343.501C201.84 344.46 200.533 344.939 198.814 344.939C197.09 344.939 195.783 344.46 194.898 343.501C194.007 342.533 193.564 341.137 193.564 339.314V337.772H196.898V339.543C196.898 340.35 197.064 340.913 197.398 341.23C197.731 341.553 198.169 341.71 198.71 341.71C199.262 341.71 199.71 341.553 200.044 341.23C200.377 340.913 200.544 340.35 200.544 339.543C200.544 338.783 200.367 338.105 200.023 337.522C199.689 336.928 199.262 336.371 198.752 335.855C198.236 335.329 197.689 334.809 197.106 334.293C196.523 333.767 195.971 333.199 195.46 332.585C194.945 331.96 194.512 331.251 194.169 330.46C193.835 329.668 193.669 328.741 193.669 327.668Z" fill="white"/>
<path d="M218.829 336.335V339.314C218.829 341.137 218.381 342.533 217.495 343.501C216.62 344.46 215.313 344.939 213.579 344.939C211.855 344.939 210.548 344.46 209.662 343.501C208.787 342.533 208.35 341.137 208.35 339.314V327.668C208.35 325.866 208.787 324.475 209.662 323.501C210.548 322.533 211.855 322.043 213.579 322.043C215.313 322.043 216.62 322.533 217.495 323.501C218.381 324.475 218.829 325.866 218.829 327.668V329.855H215.495V327.46C215.495 326.642 215.329 326.074 214.995 325.751C214.673 325.418 214.235 325.251 213.683 325.251C213.126 325.251 212.683 325.418 212.35 325.751C212.016 326.074 211.85 326.642 211.85 327.46V339.543C211.85 340.35 212.016 340.913 212.35 341.23C212.683 341.553 213.126 341.71 213.683 341.71C214.235 341.71 214.673 341.553 214.995 341.23C215.329 340.913 215.495 340.35 215.495 339.543V336.335H218.829Z" fill="white"/>
<path d="M226.748 339.543C226.748 340.35 226.915 340.918 227.248 341.251C227.581 341.585 228.024 341.751 228.581 341.751C229.133 341.751 229.571 341.585 229.894 341.251C230.227 340.918 230.394 340.35 230.394 339.543V327.46C230.394 326.642 230.227 326.074 229.894 325.751C229.571 325.418 229.133 325.251 228.581 325.251C228.024 325.251 227.581 325.418 227.248 325.751C226.915 326.074 226.748 326.642 226.748 327.46V339.543ZM223.248 327.668C223.248 325.866 223.706 324.475 224.623 323.501C225.54 322.533 226.857 322.043 228.581 322.043C230.3 322.043 231.623 322.533 232.54 323.501C233.456 324.475 233.915 325.866 233.915 327.668V339.314C233.915 341.137 233.456 342.533 232.54 343.501C231.623 344.46 230.3 344.939 228.581 344.939C226.857 344.939 225.54 344.46 224.623 343.501C223.706 342.533 223.248 341.137 223.248 339.314V327.668Z" fill="white"/>
<path d="M242.113 322.293V339.564C242.113 340.387 242.269 340.954 242.592 341.272C242.925 341.595 243.368 341.751 243.925 341.751C244.477 341.751 244.925 341.595 245.258 341.272C245.592 340.954 245.758 340.387 245.758 339.564V322.293H249.071V339.355C249.071 341.163 248.623 342.553 247.738 343.522C246.863 344.496 245.555 344.98 243.821 344.98C242.097 344.98 240.79 344.496 239.904 343.522C239.029 342.553 238.592 341.163 238.592 339.355V322.293H242.113Z" fill="white"/>
<path d="M257.165 328.48V344.689H253.998V322.293H258.415L262.019 335.71V322.293H265.165V344.689H261.54L257.165 328.48Z" fill="white"/>
<path d="M269.27 322.293H280.145V325.501H276.478V344.689H272.957V325.501H269.27V322.293Z" fill="white"/>
</svg>
