<svg width="282" height="304" viewBox="0 0 282 304" fill="none" xmlns="http://www.w3.org/2000/svg">
<mask id="mask0_1533_4073" style="mask-type:luminance" maskUnits="userSpaceOnUse" x="110" y="63" width="139" height="133">
<path d="M248.247 63.7344H110.914V195.734H248.247V63.7344Z" fill="white"/>
</mask>
<g mask="url(#mask0_1533_4073)">
<mask id="mask1_1533_4073" style="mask-type:luminance" maskUnits="userSpaceOnUse" x="111" y="64" width="137" height="131">
<path d="M111.701 64.1875H247.919V194.797H111.701V64.1875Z" fill="white"/>
</mask>
<g mask="url(#mask1_1533_4073)">
<mask id="mask2_1533_4073" style="mask-type:luminance" maskUnits="userSpaceOnUse" x="111" y="64" width="137" height="131">
<path d="M119.701 64.1875H239.503C243.919 64.1875 247.503 67.7708 247.503 72.1875V186.797C247.503 191.214 243.919 194.797 239.503 194.797H119.701C115.284 194.797 111.701 191.214 111.701 186.797V72.1875C111.701 67.7708 115.284 64.1875 119.701 64.1875Z" fill="white"/>
</mask>
<g mask="url(#mask2_1533_4073)">
<mask id="mask3_1533_4073" style="mask-type:luminance" maskUnits="userSpaceOnUse" x="110" y="63" width="139" height="133">
<path d="M248.247 63.7344H110.914V195.734H248.247V63.7344Z" fill="white"/>
</mask>
<g mask="url(#mask3_1533_4073)">
<mask id="mask4_1533_4073" style="mask-type:luminance" maskUnits="userSpaceOnUse" x="111" y="64" width="137" height="131">
<path d="M111.701 64.1875H247.768V194.797H111.701V64.1875Z" fill="white"/>
</mask>
<g mask="url(#mask4_1533_4073)">
<mask id="mask5_1533_4073" style="mask-type:luminance" maskUnits="userSpaceOnUse" x="111" y="64" width="137" height="131">
<path d="M119.701 64.1875H239.503C243.919 64.1875 247.503 67.7708 247.503 72.1875V186.797C247.503 191.214 243.919 194.797 239.503 194.797H119.701C115.284 194.797 111.701 191.214 111.701 186.797V72.1875C111.701 67.7708 115.284 64.1875 119.701 64.1875Z" fill="white"/>
</mask>
<g mask="url(#mask5_1533_4073)">
<path d="M111.701 64.1875H247.414V194.797H111.701V64.1875Z" fill="white"/>
</g>
</g>
</g>
</g>
</g>
<mask id="mask6_1533_4073" style="mask-type:luminance" maskUnits="userSpaceOnUse" x="133" y="83" width="93" height="92">
<path d="M133.154 83.043H225.029V174.923H133.154V83.043Z" fill="white"/>
</mask>
<g mask="url(#mask6_1533_4073)">
<path d="M143.472 144.96V155.277H133.154V144.96H143.472ZM133.154 175.918H143.472V165.6H133.154V175.918ZM143.472 155.277V165.6H153.789V155.277H143.472ZM164.112 124.319H153.789V134.642H143.472V144.96H164.112V124.319ZM133.154 124.319V134.642H143.472V124.319H133.154ZM164.112 165.6H153.789V175.918H179.591V165.6H174.43V155.277H164.112V165.6ZM184.748 88.2044H174.43V98.5221H184.748V88.2044ZM174.43 124.319H184.748V108.84H174.43V124.319ZM138.31 114.001C137.628 114.001 136.972 113.871 136.336 113.611C135.706 113.345 135.149 112.975 134.664 112.491C134.18 112.007 133.805 111.449 133.544 110.819C133.284 110.184 133.154 109.527 133.154 108.84V88.2044C133.154 87.5169 133.284 86.8607 133.544 86.2305C133.805 85.5951 134.18 85.0378 134.664 84.5534C135.149 84.069 135.706 83.6992 136.336 83.4336C136.972 83.1732 137.628 83.043 138.31 83.043H158.951C159.633 83.043 160.294 83.1732 160.925 83.4336C161.555 83.6992 162.117 84.069 162.597 84.5534C163.081 85.0378 163.456 85.5951 163.716 86.2305C163.982 86.8607 164.112 87.5169 164.112 88.2044V108.84C164.112 109.527 163.982 110.184 163.716 110.819C163.456 111.449 163.081 112.007 162.597 112.491C162.117 112.975 161.555 113.345 160.925 113.611C160.294 113.871 159.633 114.001 158.951 114.001H138.31ZM143.472 103.684H153.789V93.3607H143.472V103.684ZM226.029 88.2044V129.48H215.706V114.001H200.227C199.544 114.001 198.888 113.871 198.253 113.611C197.623 113.345 197.065 112.975 196.581 112.491C196.097 112.007 195.722 111.449 195.461 110.819C195.201 110.184 195.07 109.527 195.07 108.84V88.2044C195.07 87.5169 195.201 86.8607 195.461 86.2305C195.722 85.5951 196.097 85.0378 196.581 84.5534C197.065 84.069 197.623 83.6992 198.253 83.4336C198.888 83.1732 199.544 83.043 200.227 83.043H220.867C221.55 83.043 222.211 83.1732 222.841 83.4336C223.477 83.6992 224.034 84.069 224.518 84.5534C224.998 85.0378 225.373 85.5951 225.633 86.2305C225.899 86.8607 226.029 87.5169 226.029 88.2044ZM215.706 93.3607H205.388V103.684H215.706V93.3607ZM226.029 150.121V170.762C226.029 171.444 225.899 172.1 225.633 172.736C225.373 173.366 224.998 173.923 224.518 174.408C224.034 174.892 223.477 175.267 222.841 175.527C222.211 175.788 221.55 175.918 220.867 175.918H200.227C199.544 175.918 198.888 175.788 198.253 175.527C197.623 175.267 197.065 174.892 196.581 174.408C196.097 173.923 195.722 173.366 195.461 172.736C195.201 172.1 195.07 171.444 195.07 170.762V155.277H174.43V134.642H184.748V144.96H189.909V124.319H200.227V144.96H220.867C221.55 144.96 222.211 145.09 222.841 145.355C223.477 145.616 224.034 145.986 224.518 146.47C224.998 146.954 225.373 147.512 225.633 148.147C225.899 148.777 226.029 149.434 226.029 150.121ZM215.706 155.277H205.388V165.6H215.706V155.277Z" fill="#1A1A1A"/>
</g>
</g>
<path d="M163.098 29.4727C163.098 27.9622 163.478 26.8008 164.243 25.9935C165.004 25.1914 166.103 24.7852 167.535 24.7852C168.978 24.7852 170.082 25.1914 170.848 25.9935C171.608 26.8008 171.993 27.9622 171.993 29.4727V39.181C171.993 40.2227 171.806 41.0924 171.431 41.7852C171.499 41.9674 171.587 42.0872 171.702 42.1393C171.827 42.181 172.014 42.2018 172.264 42.2018H172.535V44.806H172.139C171.473 44.806 170.931 44.6914 170.514 44.4727C170.098 44.2487 169.79 43.9362 169.598 43.5352C169.29 43.6341 168.973 43.707 168.639 43.7643C168.306 43.832 167.936 43.8685 167.535 43.8685C166.103 43.8685 165.004 43.4674 164.243 42.6602C163.478 41.8581 163.098 40.6966 163.098 39.181V29.4727ZM166.014 39.3685C166.014 40.0508 166.15 40.5299 166.431 40.806C166.707 41.0716 167.077 41.2018 167.535 41.2018C168.004 41.2018 168.374 41.0716 168.639 40.806C168.915 40.5299 169.056 40.0508 169.056 39.3685V29.2852C169.056 28.6081 168.915 28.1341 168.639 27.8685C168.374 27.5924 168.004 27.4518 167.535 27.4518C167.077 27.4518 166.707 27.5924 166.431 27.8685C166.15 28.1341 166.014 28.6081 166.014 29.2852V39.3685Z" fill="white"/>
<path d="M180.296 43.6589C180.255 43.5339 180.213 43.4245 180.171 43.3255C180.14 43.2161 180.114 43.0859 180.088 42.9297C180.057 42.763 180.036 42.5547 180.025 42.3047C180.025 42.0547 180.025 41.7422 180.025 41.3672V38.4297C180.025 37.5547 179.869 36.9453 179.567 36.5964C179.26 36.237 178.775 36.0547 178.109 36.0547H177.088V43.6589H174.15V24.9922H178.588C180.114 24.9922 181.218 25.3464 181.9 26.0547C182.577 26.763 182.921 27.8411 182.921 29.2839V30.7422C182.921 32.6745 182.281 33.9401 181.005 34.5339C181.755 34.8411 182.265 35.3411 182.546 36.0339C182.822 36.7161 182.963 37.5443 182.963 38.513V41.388C182.963 41.8464 182.973 42.2526 183.005 42.5964C183.046 42.9453 183.135 43.2995 183.275 43.6589H180.296ZM177.088 27.6589V33.388H178.234C178.786 33.388 179.218 33.2526 179.525 32.9714C179.843 32.6797 180.005 32.1589 180.005 31.4089V29.5755C180.005 28.9089 179.88 28.4245 179.63 28.1172C179.39 27.8151 179.015 27.6589 178.505 27.6589H177.088Z" fill="white"/>
<path d="M185.133 24.9922H188.07V43.6589H185.133V24.9922Z" fill="white"/>
<path d="M190.089 29.4727C190.089 27.9622 190.449 26.8008 191.173 25.9935C191.891 25.1914 192.975 24.7852 194.423 24.7852C195.85 24.7852 196.928 25.1914 197.652 25.9935C198.37 26.8008 198.735 27.9622 198.735 29.4727V30.2018H195.964V29.2852C195.964 28.6081 195.829 28.1341 195.568 27.8685C195.318 27.5924 194.954 27.4518 194.485 27.4518C194.027 27.4518 193.662 27.5924 193.402 27.8685C193.152 28.1341 193.027 28.6081 193.027 29.2852C193.027 29.9258 193.162 30.4935 193.443 30.9935C193.735 31.4831 194.089 31.9414 194.506 32.3685C194.933 32.8008 195.391 33.2383 195.881 33.681C196.381 34.1133 196.839 34.5872 197.256 35.0977C197.683 35.6133 198.037 36.2018 198.318 36.8685C198.61 37.5247 198.756 38.2956 198.756 39.181C198.756 40.6966 198.386 41.8581 197.652 42.6602C196.912 43.4674 195.824 43.8685 194.381 43.8685C192.949 43.8685 191.86 43.4674 191.11 42.6602C190.37 41.8581 190.006 40.6966 190.006 39.181V37.9102H192.798V39.3685C192.798 40.0508 192.928 40.5247 193.193 40.7852C193.469 41.0508 193.844 41.181 194.318 41.181C194.777 41.181 195.136 41.0508 195.402 40.7852C195.678 40.5247 195.818 40.0508 195.818 39.3685C195.818 38.7331 195.678 38.1706 195.402 37.681C195.12 37.181 194.766 36.7174 194.339 36.2852C193.907 35.8581 193.449 35.4258 192.964 34.9935C192.475 34.5508 192.016 34.0716 191.589 33.556C191.157 33.0456 190.798 32.4622 190.506 31.806C190.225 31.1393 190.089 30.3633 190.089 29.4727Z" fill="white"/>
<path d="M4.91667 24.4375C4.91667 25.5625 5.14583 26.3646 5.60417 26.8333C6.07292 27.2917 6.69792 27.5208 7.47917 27.5208C8.23958 27.5208 8.85417 27.2917 9.3125 26.8333C9.78125 26.3646 10.0208 25.5625 10.0208 24.4375V7.54167C10.0208 6.41667 9.78125 5.625 9.3125 5.16667C8.85417 4.69792 8.23958 4.45833 7.47917 4.45833C6.69792 4.45833 6.07292 4.69792 5.60417 5.16667C5.14583 5.625 4.91667 6.41667 4.91667 7.54167V24.4375ZM0 7.85417C0 5.32813 0.635416 3.39063 1.91667 2.04167C3.20833 0.682292 5.0625 0 7.47917 0C9.88021 0 11.7188 0.682292 13 2.04167C14.2917 3.39063 14.9375 5.32813 14.9375 7.85417V24.125C14.9375 26.6563 14.2917 28.599 13 29.9583C11.7188 31.3073 9.88021 31.9792 7.47917 31.9792C5.0625 31.9792 3.20833 31.3073 1.91667 29.9583C0.635416 28.599 0 26.6563 0 24.125V7.85417Z" fill="white"/>
<path d="M28.3659 8.04167C28.3659 6.64063 28.1367 5.69792 27.6784 5.20833C27.2201 4.70833 26.6003 4.45833 25.8242 4.45833C25.043 4.45833 24.4284 4.69792 23.9701 5.16667C23.5117 5.625 23.2826 6.41667 23.2826 7.54167V10.8958H18.6367V7.85417C18.6367 5.32813 19.2513 3.39063 20.4909 2.04167C21.7253 0.682292 23.543 0 25.9492 0C28.3659 0 30.1888 0.682292 31.4284 2.04167C32.6628 3.39063 33.2826 5.32813 33.2826 7.85417C33.2826 9.5625 33.0169 11.1042 32.4909 12.4792C31.9753 13.8438 31.3294 15.0938 30.5534 16.2292C29.7721 17.3542 28.9388 18.3906 28.0534 19.3333C27.1628 20.2656 26.3555 21.1563 25.6367 22C24.9284 22.849 24.3659 23.6875 23.9492 24.5208C23.5326 25.3542 23.3971 26.2396 23.5534 27.1667H32.8451V31.625H18.6367V27.7917C18.6367 26.2656 18.8711 24.9271 19.3451 23.7708C19.8138 22.6042 20.4128 21.5417 21.1367 20.5833C21.8711 19.6146 22.6576 18.7031 23.4909 17.8542C24.3242 16.9948 25.1055 16.0938 25.8451 15.1458C26.5794 14.1875 27.1836 13.1458 27.6576 12.0208C28.1263 10.8854 28.3659 9.55729 28.3659 8.04167Z" fill="white"/>
<path d="M72.9225 284.668C72.9225 282.866 73.3496 281.475 74.2142 280.501C75.0736 279.533 76.3704 279.043 78.11 279.043C79.8288 279.043 81.1204 279.533 81.985 280.501C82.8444 281.475 83.2767 282.866 83.2767 284.668V285.543H79.9642V284.46C79.9642 283.642 79.8027 283.074 79.485 282.751C79.1777 282.418 78.7454 282.251 78.1934 282.251C77.6361 282.251 77.2038 282.418 76.9017 282.751C76.5944 283.074 76.4434 283.642 76.4434 284.46C76.4434 285.225 76.61 285.897 76.9434 286.48C77.2871 287.064 77.7194 287.621 78.235 288.147C78.7454 288.678 79.2975 289.204 79.8809 289.73C80.4642 290.246 81.0111 290.814 81.5267 291.439C82.0371 292.053 82.4642 292.751 82.7975 293.543C83.1413 294.324 83.3184 295.246 83.3184 296.314C83.3184 298.137 82.8704 299.533 81.985 300.501C81.0944 301.46 79.7871 301.939 78.0684 301.939C76.3444 301.939 75.0371 301.46 74.1517 300.501C73.2611 299.533 72.8184 298.137 72.8184 296.314V294.772H76.1517V296.543C76.1517 297.35 76.3184 297.913 76.6517 298.23C76.985 298.553 77.4225 298.71 77.9642 298.71C78.5163 298.71 78.9642 298.553 79.2975 298.23C79.6309 297.913 79.7975 297.35 79.7975 296.543C79.7975 295.783 79.6204 295.105 79.2767 294.522C78.9434 293.928 78.5163 293.371 78.0059 292.855C77.4902 292.329 76.9434 291.809 76.36 291.293C75.7767 290.767 75.2246 290.199 74.7142 289.585C74.1986 288.96 73.7663 288.251 73.4225 287.46C73.0892 286.668 72.9225 285.741 72.9225 284.668Z" fill="white"/>
<path d="M98.0846 293.335V296.314C98.0846 298.137 97.6367 299.533 96.7513 300.501C95.8763 301.46 94.569 301.939 92.8346 301.939C91.1107 301.939 89.8034 301.46 88.918 300.501C88.043 299.533 87.6055 298.137 87.6055 296.314V284.668C87.6055 282.866 88.043 281.475 88.918 280.501C89.8034 279.533 91.1107 279.043 92.8346 279.043C94.569 279.043 95.8763 279.533 96.7513 280.501C97.6367 281.475 98.0846 282.866 98.0846 284.668V286.855H94.7513V284.46C94.7513 283.642 94.5846 283.074 94.2513 282.751C93.9284 282.418 93.4909 282.251 92.9388 282.251C92.3815 282.251 91.9388 282.418 91.6055 282.751C91.2721 283.074 91.1055 283.642 91.1055 284.46V296.543C91.1055 297.35 91.2721 297.913 91.6055 298.23C91.9388 298.553 92.3815 298.71 92.9388 298.71C93.4909 298.71 93.9284 298.553 94.2513 298.23C94.5846 297.913 94.7513 297.35 94.7513 296.543V293.335H98.0846Z" fill="white"/>
<path d="M114.17 301.689H110.607L110.003 297.626H105.691L105.087 301.689H101.857L105.441 279.293H110.587L114.17 301.689ZM106.149 294.585H109.524L107.837 283.272L106.149 294.585Z" fill="white"/>
<path d="M121.489 285.48V301.689H118.322V279.293H122.739L126.343 292.71V279.293H129.489V301.689H125.864L121.489 285.48Z" fill="white"/>
<path d="M141.795 284.668C141.795 282.866 142.253 281.475 143.17 280.501C144.087 279.533 145.404 279.043 147.128 279.043C148.847 279.043 150.17 279.533 151.087 280.501C152.003 281.475 152.462 282.866 152.462 284.668V296.314C152.462 297.579 152.238 298.626 151.795 299.46C151.878 299.668 151.988 299.803 152.128 299.855C152.264 299.913 152.488 299.939 152.795 299.939H153.107V303.064H152.628C151.837 303.064 151.191 302.928 150.691 302.668C150.191 302.402 149.821 302.022 149.587 301.522C149.222 301.663 148.842 301.762 148.441 301.835C148.035 301.902 147.597 301.939 147.128 301.939C145.404 301.939 144.087 301.46 143.17 300.501C142.253 299.533 141.795 298.137 141.795 296.314V284.668ZM145.295 296.543C145.295 297.35 145.462 297.918 145.795 298.251C146.128 298.585 146.571 298.751 147.128 298.751C147.68 298.751 148.118 298.585 148.441 298.251C148.774 297.918 148.941 297.35 148.941 296.543V284.46C148.941 283.642 148.774 283.074 148.441 282.751C148.118 282.418 147.68 282.251 147.128 282.251C146.571 282.251 146.128 282.418 145.795 282.751C145.462 283.074 145.295 283.642 145.295 284.46V296.543Z" fill="white"/>
<path d="M164.639 301.689C164.598 301.538 164.556 301.397 164.514 301.272C164.473 301.147 164.436 300.991 164.41 300.793C164.379 300.6 164.358 300.355 164.348 300.064C164.332 299.762 164.327 299.387 164.327 298.939V295.418C164.327 294.376 164.145 293.647 163.785 293.23C163.421 292.803 162.837 292.585 162.035 292.585H160.806V301.689H157.285V279.293H162.598C164.431 279.293 165.754 279.725 166.577 280.585C167.395 281.434 167.806 282.725 167.806 284.46V286.21C167.806 288.517 167.04 290.033 165.514 290.751C166.4 291.116 167.014 291.704 167.348 292.522C167.681 293.345 167.848 294.345 167.848 295.522V298.98C167.848 299.522 167.868 300.001 167.91 300.418C167.952 300.835 168.056 301.262 168.223 301.689H164.639ZM160.806 282.501V289.376H162.181C162.848 289.376 163.368 289.21 163.743 288.876C164.118 288.533 164.306 287.908 164.306 287.001V284.814C164.306 283.996 164.16 283.408 163.868 283.043C163.577 282.684 163.124 282.501 162.514 282.501H160.806Z" fill="white"/>
<path d="M172.695 279.293H176.216V301.689H172.695V279.293Z" fill="white"/>
<path d="M180.889 284.668C180.889 282.866 181.316 281.475 182.181 280.501C183.04 279.533 184.337 279.043 186.077 279.043C187.796 279.043 189.087 279.533 189.952 280.501C190.811 281.475 191.243 282.866 191.243 284.668V285.543H187.931V284.46C187.931 283.642 187.77 283.074 187.452 282.751C187.145 282.418 186.712 282.251 186.16 282.251C185.603 282.251 185.171 282.418 184.868 282.751C184.561 283.074 184.41 283.642 184.41 284.46C184.41 285.225 184.577 285.897 184.91 286.48C185.254 287.064 185.686 287.621 186.202 288.147C186.712 288.678 187.264 289.204 187.848 289.73C188.431 290.246 188.978 290.814 189.493 291.439C190.004 292.053 190.431 292.751 190.764 293.543C191.108 294.324 191.285 295.246 191.285 296.314C191.285 298.137 190.837 299.533 189.952 300.501C189.061 301.46 187.754 301.939 186.035 301.939C184.311 301.939 183.004 301.46 182.118 300.501C181.228 299.533 180.785 298.137 180.785 296.314V294.772H184.118V296.543C184.118 297.35 184.285 297.913 184.618 298.23C184.952 298.553 185.389 298.71 185.931 298.71C186.483 298.71 186.931 298.553 187.264 298.23C187.598 297.913 187.764 297.35 187.764 296.543C187.764 295.783 187.587 295.105 187.243 294.522C186.91 293.928 186.483 293.371 185.973 292.855C185.457 292.329 184.91 291.809 184.327 291.293C183.743 290.767 183.191 290.199 182.681 289.585C182.165 288.96 181.733 288.251 181.389 287.46C181.056 286.668 180.889 285.741 180.889 284.668Z" fill="white"/>
<path d="M202.396 279.293H213.271V282.501H209.605V301.689H206.084V282.501H202.396V279.293Z" fill="white"/>
<path d="M220.652 296.543C220.652 297.35 220.819 297.918 221.152 298.251C221.486 298.585 221.928 298.751 222.486 298.751C223.038 298.751 223.475 298.585 223.798 298.251C224.132 297.918 224.298 297.35 224.298 296.543V284.46C224.298 283.642 224.132 283.074 223.798 282.751C223.475 282.418 223.038 282.251 222.486 282.251C221.928 282.251 221.486 282.418 221.152 282.751C220.819 283.074 220.652 283.642 220.652 284.46V296.543ZM217.152 284.668C217.152 282.866 217.611 281.475 218.527 280.501C219.444 279.533 220.762 279.043 222.486 279.043C224.204 279.043 225.527 279.533 226.444 280.501C227.361 281.475 227.819 282.866 227.819 284.668V296.314C227.819 298.137 227.361 299.533 226.444 300.501C225.527 301.46 224.204 301.939 222.486 301.939C220.762 301.939 219.444 301.46 218.527 300.501C217.611 299.533 217.152 298.137 217.152 296.314V284.668Z" fill="white"/>
<path d="M245.342 279.293C247.102 279.293 248.415 279.767 249.279 280.71C250.154 281.658 250.592 283.033 250.592 284.835V287.751C250.592 289.559 250.154 290.934 249.279 291.876C248.415 292.809 247.102 293.272 245.342 293.272H243.675V301.689H240.154V279.293H245.342ZM243.675 282.501V290.085H245.342C245.894 290.085 246.321 289.939 246.613 289.647C246.915 289.345 247.071 288.783 247.071 287.96V284.605C247.071 283.803 246.915 283.251 246.613 282.96C246.321 282.658 245.894 282.501 245.342 282.501H243.675Z" fill="white"/>
<path d="M266.16 301.689H262.598L261.993 297.626H257.681L257.077 301.689H253.848L257.431 279.293H262.577L266.16 301.689ZM258.139 294.585H261.514L259.827 283.272L258.139 294.585Z" fill="white"/>
<path d="M273.648 294.272L269.189 279.293H272.877L275.564 289.501L278.252 279.293H281.606L277.148 294.272V301.689H273.648V294.272Z" fill="white"/>
</svg>
