<svg width="318" height="305" viewBox="0 0 318 305" fill="none" xmlns="http://www.w3.org/2000/svg">
<mask id="mask0_1533_4562" style="mask-type:luminance" maskUnits="userSpaceOnUse" x="115" y="59" width="131" height="126">
<path d="M115.465 59.6836H245.465V184.684H115.465V59.6836Z" fill="white"/>
</mask>
<g mask="url(#mask0_1533_4562)">
<path d="M242.205 161.466L225.918 179.648L191.986 178.456L136.33 184.758L115.611 150.544V73.737L142.986 59.6953L194.34 64.8203L239.293 69.4453L245.757 105.539L242.205 154.69V161.466Z" fill="white"/>
</g>
<path d="M137.949 108.609C137.512 107.812 138.262 107.697 138.314 107.26C138.403 106.562 138.34 105.848 138.34 105.041C138.002 104.958 137.668 104.926 137.366 104.801C137.205 104.734 137.101 104.525 137.007 104.364C136.991 104.338 137.158 104.13 137.246 104.13C137.887 104.14 138.423 104.067 138.356 103.202C138.314 102.729 138.272 102.234 138.377 101.775C138.439 101.468 138.741 101.208 139.08 100.734C138.59 100.395 138.028 100.005 137.413 99.5775C138.46 98.8848 138.423 98.0775 138.314 97.2441C138.121 97.1347 137.934 96.9889 137.726 96.9264C137.007 96.7233 136.908 96.64 137.272 96.2545C137.767 95.7285 137.606 95.1608 137.611 94.5983C137.611 94.4212 137.413 94.1973 137.246 94.0566C136.116 93.1087 136.111 93.1087 136.866 92.3118C137.111 92.0514 137.371 91.8014 137.632 91.541C137.632 89.8795 137.621 88.2129 137.647 86.541C137.653 86.2129 137.689 85.7493 137.892 85.5931C138.736 84.9889 137.767 84.7285 137.699 84.3066C137.96 84.0462 138.215 83.791 138.434 83.5723C138.84 83.0775 139.356 83.3118 139.798 83.3118C145.163 83.291 150.538 83.3587 155.903 83.265C157.351 83.2389 158.96 83.9473 160.298 82.6191C160.538 82.3743 161.215 82.5827 161.689 82.5827C165.752 82.5827 169.809 82.5775 173.861 82.5879C174.882 82.5983 175.939 82.3743 176.824 83.265C177.043 83.4889 177.939 83.4525 178.158 83.2025C179.043 82.2025 180.147 82.6347 181.153 82.6087C182.038 82.5879 183.017 82.2285 183.793 83.1556C184.054 83.4733 184.382 82.3275 184.741 82.791C185.168 83.3379 185.897 83.0827 186.231 83.5358C186.476 83.8639 186.533 84.3327 186.772 85.0254C186.934 84.4212 187.038 84.1035 187.09 83.7858C187.153 83.4525 187.158 83.1087 187.184 82.791C187.918 82.5306 188.574 82.3691 189.194 82.8848C189.345 83.0098 189.668 83.1973 189.673 83.1816C190.377 82.1973 191.413 82.6243 192.304 82.5983C193.861 82.5514 193.861 82.5879 196.111 84.0358C196.257 83.6191 196.392 83.2181 196.522 82.8223C196.611 82.7441 196.71 82.5827 196.778 82.5879C197.897 82.7754 199.132 82.067 200.168 83.0723C200.371 83.2702 200.809 83.2285 201.142 83.291C201.699 83.39 202.33 83.0566 202.84 83.6087C202.611 83.8639 202.397 84.1139 202.173 84.3639C202.486 84.791 202.918 84.8743 203.345 84.5775C203.689 84.3431 203.809 83.9368 204.392 84.4004C205.21 85.0462 205.335 84.9212 205.736 83.8535C205.814 83.6504 205.97 83.4785 206.116 83.2598C206.642 84.14 206.465 85.041 206.335 85.9316C205.642 86.3431 204.929 86.1087 204.236 86.1504C203.522 86.1868 202.798 86.2077 202.09 86.1348C201.793 86.1035 201.543 85.7493 201.236 85.6295C200.929 85.5045 200.543 85.3848 200.241 85.4681C199.606 85.6348 199.012 86.0566 198.382 86.1191C197.861 86.1764 197.606 85.3691 196.892 85.416C196.241 85.4525 195.757 85.6087 195.387 86.1348C194.976 85.9473 194.861 85.3379 194.059 85.8743C193.205 86.442 192.205 87.015 190.918 86.9368C188.074 86.7702 185.21 86.8795 182.418 86.8795C181.83 86.3275 182.199 85.6868 182.059 85.1452C182.022 85.0202 181.772 84.9212 181.595 84.8639C181.548 84.8535 181.371 85.0202 181.371 85.1087C181.366 85.5723 181.46 86.0827 180.783 86.166C180.33 86.2285 179.642 86.1035 179.455 86.3535C178.918 87.0775 177.798 86.7077 177.434 87.5879C177.179 87.3535 176.918 87.1243 176.663 86.89C175.83 86.89 174.996 86.8795 174.163 86.89C173.246 86.9004 172.267 86.6973 171.59 87.6035C170.877 87.6035 170.142 87.5045 169.449 87.6295C168.621 87.7858 168.366 86.8535 167.59 86.8379C167.116 86.8223 166.653 86.317 166.022 85.9368C165.528 86.5931 165.111 87.1712 164.757 87.6348C164.173 87.317 163.798 86.942 163.403 86.916C162.09 86.8379 160.783 86.89 159.47 86.89C159.095 87.3639 158.877 87.6139 158.158 87.1035C157.465 86.6087 156.449 86.791 155.538 87.2181C154.153 87.8639 153.783 87.7493 151.663 86.9733C151.392 86.8743 151.022 87.015 150.705 87.0827C150.606 87.1035 150.528 87.2441 150.449 87.3223C149.627 88.1712 149.236 87.2806 148.72 86.9004C148.22 87.3639 147.731 88.1816 147.012 87.2806C146.345 86.4525 145.038 87.4212 144.548 86.2858C144.293 86.4681 144.064 86.7545 143.788 86.7962C142.991 86.9108 142.184 86.9264 141.21 86.9941C141.21 87.8847 141.127 88.7025 141.236 89.4993C141.34 90.1816 140.517 90.4525 140.658 90.9316C140.772 91.3223 141.252 91.5775 141.226 92.1295C141.179 93.0827 141.199 94.0358 141.22 94.9941C141.226 95.3327 141.189 95.8327 141.387 95.9733C142.121 96.5097 141.845 97.2441 141.939 97.916C142.038 98.6035 141.465 98.9473 141.293 99.4368C141.085 100.02 141.007 100.775 141.673 101.39C142.127 101.796 142.012 101.926 141.647 102.577C141.543 102.755 141.272 103.041 141.293 103.062C142.528 104.26 141.731 105.765 141.908 107.109C142.054 108.229 141.71 109.4 142.595 110.426C142.845 110.729 142.809 111.541 142.252 112.02C141.59 112.588 142.538 112.671 142.642 113.296C142.642 115.406 142.647 117.791 142.632 120.171C142.627 120.999 142.512 121.827 143.34 122.4C143.449 122.473 143.439 123.005 143.335 123.072C142.366 123.635 142.976 124.13 143.345 124.661C143.403 124.739 143.356 124.89 143.356 125.01C143.356 127.281 143.366 129.546 143.34 131.817C143.335 132.13 143.205 132.51 143.002 132.734C142.512 133.275 142.517 133.702 143.007 134.239C143.215 134.463 143.179 134.9 143.366 135.145C143.788 135.697 144.309 136.192 143.356 136.708C143.356 138.025 143.356 139.333 143.356 140.807C143.356 140.859 143.392 140.713 143.34 140.661C143.288 140.609 143.106 140.609 143.038 140.65C142.809 140.822 142.512 141.025 142.939 141.275C143.002 141.307 143.215 141.072 143.356 140.801C143.809 140.562 144.054 140.838 144.054 141.208C144.08 143.359 144.069 145.505 144.069 147.65C144.069 148.364 143.908 149.13 144.101 149.786C144.429 150.874 144.965 151.859 144.809 153.083C144.673 154.135 144.783 155.223 144.783 156.301C144.783 157.494 144.778 158.692 144.788 159.88C144.788 160.093 144.897 160.307 145.002 160.692C145.408 160.692 145.866 160.697 146.309 160.697C150.611 160.697 154.908 160.734 159.199 160.682C160.559 160.666 162.017 161.124 163.226 160.01C163.335 159.911 163.882 160.15 164.116 160.354C164.517 160.708 164.929 160.874 165.335 160.541C165.705 160.239 166.002 159.911 166.543 159.973C167.017 160.025 167.512 159.916 167.976 159.994C169.429 160.239 171.069 159.275 172.345 160.666C173.486 159.359 175.007 160.025 176.335 160.01C182.184 159.932 188.033 159.979 193.887 159.979C194.574 159.109 195.377 158.942 196.335 159.551C197.517 160.291 198.741 160.166 199.955 159.63C200.158 159.546 200.314 159.317 200.522 159.27C201.074 159.13 201.319 159.65 201.705 159.864C202.08 160.072 202.267 158.963 202.673 159.489C203.153 160.119 204.033 159.781 204.46 160.458C204.642 160.739 204.783 160.65 205.002 160.057C205.288 159.275 205.757 158.952 206.132 159.369C206.705 160.01 207.356 160.067 208.048 159.952C209.08 159.781 209.616 160.801 210.543 160.911C210.736 160.942 210.845 161.687 210.981 162.088C211.486 161.942 211.59 161.281 212.173 161.4C212.252 161.598 212.298 161.942 212.413 161.968C212.84 162.067 212.913 161.749 212.887 161.4C213.127 161.4 213.366 161.4 213.601 161.4C213.517 161.843 213.788 162.046 214.147 162.109C214.486 162.161 214.856 162.072 215.199 162.13C215.564 162.182 215.835 162.395 215.752 162.838C215.293 162.723 215.163 163.156 214.882 163.338C214.694 163.447 214.429 163.588 214.262 163.536C213.741 163.348 213.262 162.89 212.757 162.89C212.257 162.89 211.783 163.4 211.257 163.531C210.46 163.723 210.262 163.505 209.689 162.088C208.939 162.838 208.22 163.551 207.423 164.343C207.236 163.833 207.09 163.411 206.882 162.838C205.897 162.838 204.835 162.807 203.783 162.848C203.465 162.864 203.137 163.031 202.851 163.182C201.871 163.729 200.856 163.833 199.955 163.135C199.272 162.614 199.272 163.432 198.903 163.505C198.673 163.296 198.418 163.067 198.252 162.921C197.819 163.14 197.439 163.421 197.017 163.531C196.038 163.791 194.866 163.041 194.012 164.088C193.981 164.13 193.694 163.968 193.528 163.911C193.22 163.791 192.918 163.635 192.601 163.557C192.371 163.505 191.991 163.447 191.903 163.562C191.257 164.458 190.205 164.109 189.392 164.463C189.189 164.551 189.054 164.791 188.877 164.963C188.366 164.484 187.861 164.01 187.413 163.583C186.793 163.437 186.517 163.916 186.116 164.077C185.632 164.27 184.97 164.286 184.46 164.124C184.069 163.999 183.569 163.255 183.314 163.588C182.512 164.65 180.918 163.755 180.267 164.973C180.017 164.744 179.762 164.525 179.522 164.312C179.272 164.531 179.028 164.744 178.798 164.937C178.429 164.781 178.314 164.015 177.72 164.624C177.512 164.838 177.127 164.911 176.804 164.984C176.158 165.14 175.668 164.838 175.288 164.333C174.824 164.598 174.517 165.119 173.814 165.025C173.319 164.958 172.96 164.854 172.574 164.525C172.106 164.135 171.944 164.104 171.397 164.593C170.866 165.067 170.324 165.02 169.762 164.979C169.069 164.932 168.569 163.557 167.715 164.65C167.173 165.338 166.257 164.624 165.783 165.166C164.976 166.093 164.481 165.604 163.746 165.036C163.22 164.624 162.741 165.327 162.418 165.593C161.949 165.374 161.559 165.036 161.153 165.031C160.788 165.025 160.439 165.505 160.064 165.541C159.809 165.557 159.528 165.051 159.236 165.02C158.679 164.958 158.048 164.807 157.621 165.406C157.252 165.926 157.106 165.364 156.861 165.244C156.663 165.145 156.449 165.072 156.252 164.994C156.173 164.791 156.127 164.452 156.012 164.426C155.585 164.322 155.512 164.645 155.538 164.994C154.861 165.119 154.022 164.63 153.528 165.26C153.101 165.807 152.397 165.499 152.028 165.984C151.491 166.687 150.736 166.494 150.101 166.322C149.715 166.213 149.502 165.666 148.934 165.692C147.642 165.76 146.324 165.65 145.059 165.854C144.601 165.926 143.996 166.833 143.642 166.255C143.205 165.541 142.507 164.822 142.627 163.838C142.72 163.077 142.382 162.697 141.632 162.848C140.731 163.036 140.392 162.333 139.627 161.666C140.231 161.312 140.809 160.973 141.319 160.682C140.918 160.01 140.595 159.666 140.496 159.265C140.382 158.817 140.465 158.317 140.476 157.843C140.486 157.494 140.449 157.15 139.991 157.255C139.788 157.301 139.647 157.567 139.403 157.817C139.095 157.51 138.746 157.229 138.481 156.89C138.085 156.395 138.309 155.947 139.028 155.671C139.752 155.4 139.991 154.916 139.616 154.463C139.387 154.192 139.147 153.911 138.856 153.708C138.272 153.312 138.293 152.744 138.314 152.14C138.319 151.796 138.356 151.463 138.783 151.499C138.882 151.51 138.955 151.874 139.043 152.083C139.127 152.281 139.21 152.489 139.288 152.697C139.449 152.593 139.752 152.463 139.736 152.411C139.554 151.729 140.189 151.432 140.403 150.947C139.689 150.593 139.923 149.687 139.387 149.229C139.324 149.171 139.153 149.223 139.043 149.223C139.127 148.791 138.877 148.327 139.262 147.911C140.137 146.973 139.897 146.088 139.048 145.26C138.986 145.197 139.043 145.031 139.043 144.916C139.241 144.833 139.517 144.807 139.637 144.65C139.757 144.489 139.757 144.218 139.757 143.999C139.767 143.182 139.762 142.364 139.762 141.692C139.231 141.14 138.72 141.432 138.288 141.327C138.08 141.275 137.887 141.145 137.689 141.051C137.814 140.906 137.929 140.739 138.08 140.635C138.163 140.577 138.314 140.635 138.429 140.619C138.877 140.577 139.46 140.812 139.705 140.291C140.017 139.624 139.47 139.223 139.033 138.838C139.496 138.327 140.278 137.916 139.46 137.104C139.324 136.963 139.116 136.635 139.142 136.619C140.226 135.666 139.601 134.406 139.736 133.291C139.757 133.13 139.507 132.937 139.387 132.77C139.142 132.989 138.897 133.208 138.647 133.432C138.288 133.067 137.949 132.729 137.606 132.39C137.606 131.921 137.595 131.447 137.621 130.973C137.627 130.885 137.793 130.713 137.845 130.734C138.022 130.786 138.262 130.874 138.309 131.005C138.423 131.307 138.439 131.645 138.522 132.104C138.882 131.781 139.137 131.588 139.356 131.348C139.481 131.208 139.548 131.015 139.647 130.848C138.569 130.38 139.47 129.062 138.673 128.489C138.408 128.718 138.168 128.916 137.798 129.234C137.72 128.775 137.627 128.452 137.621 128.124C137.601 127.234 137.611 127.234 138.84 126.89C139.283 126.39 138.981 125.775 139.043 125.208C139.09 124.739 139.054 124.26 139.054 123.812C138.814 123.546 138.59 123.291 138.387 123.072C138.496 122.687 139.324 122.614 138.72 121.994C138.507 121.775 138.449 121.4 138.335 121.093C138.199 120.734 138.012 120.499 137.58 120.562C137.147 120.619 136.939 120.359 136.908 119.968C136.851 119.4 137.132 119.218 137.699 119.098C138.413 118.942 138.58 118.333 138.121 117.859C137.72 117.442 137.246 117.093 136.793 116.713C138.012 115.666 137.903 114.057 138.934 113.104C138.97 113.072 138.606 112.609 138.387 112.296C138.83 112.088 139.304 111.864 139.778 111.64C138.955 110.807 138.262 109.89 137.054 109.567C136.653 109.479 136.955 108.775 137.949 108.609C138.163 108.676 138.069 108.525 137.929 108.411C137.861 108.359 137.679 108.359 137.627 108.411C137.574 108.463 137.574 108.65 137.627 108.713C137.741 108.843 137.892 108.952 138.048 109.036C138.074 109.057 138.194 108.906 137.949 108.609ZM195.804 160.734C195.689 160.734 195.554 160.692 195.476 160.739C195.293 160.838 195.022 160.968 194.996 161.119C194.887 161.781 195.444 161.426 195.642 161.421C195.882 161.416 196.116 161.171 196.351 161.031C196.168 160.932 195.991 160.833 194.976 161.775C194.976 161.666 195.017 161.52 194.96 161.468C194.908 161.416 194.731 161.416 194.663 161.463C194.429 161.63 194.132 161.833 194.559 162.083C194.621 162.114 194.835 161.874 195.804 160.734ZM191.048 84.7441C190.814 84.7441 190.564 84.692 190.356 84.765C190.22 84.817 190.137 85.0514 190.08 85.2181C190.069 85.2754 190.231 85.4473 190.314 85.4525C190.783 85.4785 191.252 85.4941 191.71 85.442C191.819 85.4264 191.923 85.1608 191.976 84.9837C191.991 84.9316 191.84 84.765 191.746 84.7545C191.517 84.7285 191.283 84.7441 191.048 84.7441ZM160.564 163.234C160.642 163.317 160.715 163.463 160.809 163.468C161.127 163.505 161.533 163.609 161.726 163.458C161.923 163.296 161.96 162.874 161.981 162.562C161.986 162.473 161.601 162.255 161.559 162.286C161.199 162.577 160.882 162.916 160.564 163.234ZM202.163 161.109C202.059 160.999 201.986 160.854 201.892 160.848C201.58 160.817 201.163 160.718 200.976 160.874C200.778 161.041 200.752 161.463 200.731 161.775C200.72 161.854 201.111 162.072 201.158 162.036C201.517 161.755 201.84 161.426 202.163 161.109ZM207.064 162.213C207.377 162.088 207.58 162.015 207.767 161.916C207.793 161.9 207.793 161.739 207.746 161.682C207.481 161.322 206.715 161.322 206.595 161.708C206.559 161.822 206.918 162.062 207.064 162.213ZM156.616 84.0306C156.538 84.1139 156.377 84.2077 156.392 84.265C156.429 84.4316 156.538 84.5879 156.616 84.7441C156.699 84.666 156.861 84.5723 156.845 84.515C156.804 84.3431 156.699 84.192 156.616 84.0306ZM177.512 84.1295C177.361 84.2129 177.205 84.2962 177.054 84.3848C177.132 84.4681 177.226 84.6243 177.283 84.6139C177.455 84.5723 177.606 84.4681 177.767 84.3848C177.684 84.3118 177.606 84.2337 177.512 84.1295ZM163.887 162.27C163.736 162.348 163.58 162.437 163.429 162.52C163.507 162.604 163.601 162.76 163.663 162.749C163.83 162.708 163.981 162.604 164.142 162.52C164.069 162.442 163.986 162.364 163.887 162.27ZM169.423 162.27C169.33 162.364 169.246 162.442 169.168 162.52C169.33 162.604 169.481 162.708 169.647 162.749C169.71 162.76 169.804 162.604 169.882 162.52C169.731 162.437 169.569 162.348 169.423 162.27ZM188.418 162.421C188.324 162.327 188.246 162.249 188.168 162.166C188.085 162.327 187.981 162.484 187.939 162.65C187.923 162.708 188.085 162.801 188.168 162.885C188.252 162.723 188.335 162.567 188.418 162.421ZM165.324 162.984C165.168 163.062 165.017 163.15 164.861 163.234C164.944 163.317 165.038 163.479 165.095 163.463C165.262 163.421 165.418 163.317 165.574 163.234C165.502 163.161 165.423 163.083 165.324 162.984Z" fill="black"/>
<path d="M175.616 138.508C176.063 137.232 177.397 136.732 178.027 135.566C178.881 135.566 179.673 135.566 180.454 135.566C180.47 134.623 179.423 134.482 179.329 133.717C179.699 133.284 180.204 133.576 181.152 133.857C182.053 134.191 182.272 134.191 182.485 134.139C182.579 134.118 182.725 133.93 182.72 133.915C182.61 133.764 182.485 133.529 182.339 133.508C181.892 133.456 181.428 133.534 180.985 133.477C180.636 133.43 180.517 133.498 180.647 133.831C180.688 133.93 180.782 134.045 180.876 134.071C181.188 134.149 181.511 134.196 181.162 133.857C180.647 132.894 180.647 132.3 180.647 131.654C181.652 130.92 182.256 129.685 183.522 129.191C183.501 129.685 183.741 129.925 184.787 129.566C184.214 130.18 184.214 130.18 184.475 131.217C185.1 130.899 185.73 130.571 186.371 130.243C186.011 129.883 185.678 129.55 184.787 129.555C184.256 129.404 184.011 129.165 183.522 129.185C183.626 128.675 183.173 127.816 184.089 127.779C185.142 127.743 185.23 126.613 186.136 126.446C186.261 126.56 186.517 126.779 186.772 127.008C187.517 126.253 187.017 125.758 186.397 125.31C187.079 124.217 188.506 123.727 188.626 122.274C189.433 121.649 189.907 120.639 191.11 120.456C191.714 120.363 192.251 119.826 192.819 119.493C192.652 119.321 192.48 119.149 192.313 118.982C192.267 118.894 192.157 118.764 192.178 118.738C192.98 117.769 193.949 117.008 194.532 115.774C195.069 114.659 196.241 113.795 197.267 112.977C197.86 112.493 199.053 112.467 199.147 111.665C199.241 110.878 199.975 110.566 200.017 109.852C200.027 109.644 200.1 109.373 200.246 109.243C200.97 108.628 201.485 107.894 201.756 106.993C203.246 107.092 203.11 105.665 203.511 104.909C203.86 104.258 204.194 103.623 204.808 103.415C205.782 103.087 206.371 102.644 206.532 101.56C206.584 101.18 207.162 100.878 207.496 100.54C207.751 100.764 208.006 100.988 208.277 101.232C208.506 100.758 208.725 100.284 208.959 99.8C209.1 99.9355 209.173 100.04 209.272 100.107C209.433 100.217 209.605 100.31 209.782 100.409C209.866 100.212 209.98 100.014 210.032 99.8C210.168 99.2167 209.506 99.1021 209.366 98.6646C210.079 98.0136 210.949 98.4407 211.746 98.3678C212.459 98.3105 213.199 98.248 213.886 98.3938C214.287 98.4823 214.897 98.998 214.881 99.2948C214.834 100.607 215.886 101.56 215.829 102.894C215.787 103.758 215.36 104.201 214.834 104.639C214.506 104.904 213.751 104.925 213.688 105.18C213.563 105.644 213.36 105.993 213.157 106.404C212.803 107.133 212.579 107.935 211.845 108.357C210.751 108.988 210.741 110.337 209.85 111.139C209.011 111.889 207.97 112.534 207.751 113.852C207.683 114.238 207.116 114.529 206.777 114.873C206.272 115.378 205.647 115.821 205.287 116.404C204.876 117.076 204.694 117.863 204.006 118.389C203.438 118.816 202.767 119.295 202.517 119.909C201.824 121.628 200.308 122.587 199.194 123.915C198.772 124.415 198.595 125.373 198.126 125.503C197.496 125.685 197.09 125.988 196.699 126.399C196.23 126.894 195.506 127.248 195.678 128.123C195.204 128.441 195.006 129.107 194.319 129.17C193.522 129.243 193.147 129.837 192.845 130.467C192.511 131.159 192.324 131.951 191.892 132.566C191.418 133.243 190.767 133.81 190.136 134.352C189.235 135.118 187.704 135.243 187.652 136.852C186.964 137.764 185.683 138.227 185.621 139.597C184.61 140.613 183.678 141.738 182.543 142.592C181.918 143.066 182.491 144.482 181.142 144.217C180.537 144.863 180.407 145.826 179.6 146.378C178.923 146.847 178.402 147.534 177.813 148.128C177.22 148.722 176.631 149.31 176.037 149.904C175.803 149.915 175.569 149.962 175.345 149.951C174.074 149.878 173.933 149.623 174.548 148.529C174.636 148.368 174.699 148.196 174.777 148.019C174.454 147.962 174.095 147.79 173.813 147.873C173.506 147.967 173.298 148.42 173.006 148.488C172.73 148.55 172.11 148.269 172.116 148.196C172.23 147.305 171.491 146.988 171.063 146.462C170.35 145.576 169.199 145.04 168.98 143.722C168.938 143.488 168.048 143.482 167.85 143.18C167.631 142.837 167.959 142.06 167.714 141.842C166.636 140.873 167.433 138.951 165.798 138.274C165.511 138.154 165.543 137.399 165.251 137.113C164.668 136.545 165.313 136.404 165.48 136.071C165.829 135.373 165.563 135.076 164.334 134.826C164.152 133.863 163.886 132.93 164.589 131.925C165.209 131.04 165.006 130.732 163.97 130.607C163.735 130.576 163.485 130.633 163.251 130.592C162.767 130.514 162.407 129.831 162.777 129.524C163.819 128.665 163.339 127.587 163.386 126.592C162.746 126.092 161.642 126.357 161.475 124.691C161.485 124.649 162.084 124.993 162.407 124.79C162.563 124.691 162.657 124.425 162.714 124.217C162.813 123.81 162.584 123.555 162.22 123.435C162.006 123.368 161.772 123.363 161.522 123.331C161.152 122.685 161.152 122.04 161.522 121.389C161.657 121.154 162.241 120.998 161.704 120.633C161.089 120.206 161.397 119.284 160.714 118.863C160.569 118.769 160.548 118.097 160.709 117.956C161.569 117.201 161.376 116.628 160.631 115.92C160.298 115.607 160.657 114.842 161.069 114.831C161.772 114.81 162.48 114.826 163.126 114.826C163.501 115.633 164.022 116.31 164.089 117.04C164.162 117.795 164.376 118.363 164.86 118.889C164.412 119.935 165.345 120.613 165.631 121.446C165.834 122.066 166.491 122.534 166.996 123.133C166.996 123.982 166.996 124.935 166.996 126.066C167.36 126.389 167.86 126.732 168.225 127.185C168.496 127.514 168.574 127.988 168.761 128.394C168.808 128.498 168.938 128.555 169.006 128.654C169.548 129.472 168.845 130.441 169.459 131.347C169.933 132.04 170.662 132.816 170.563 133.722C170.47 134.571 171.324 134.899 171.303 135.576C171.282 136.326 171.662 136.847 171.949 137.472C172.256 138.144 172.058 138.988 172.772 139.665C173.386 140.238 174.168 140.451 174.761 140.93C175.496 141.524 175.876 141.378 176.553 140.863C177.058 140.477 177.871 140.451 178.241 139.805C178.392 139.529 178.537 139.107 178.438 138.857C178.241 138.368 177.912 138.665 177.72 138.93C177.511 139.212 177.366 139.269 177.204 139.008C176.819 138.373 176.204 138.503 175.616 138.508ZM211.938 106.139C212.017 106.06 212.095 105.977 212.183 105.894C212.105 105.81 212.037 105.685 211.938 105.659C211.73 105.592 211.496 105.514 211.298 105.55C211.095 105.592 210.928 105.774 210.751 105.894C210.928 106.014 211.095 106.191 211.298 106.232C211.496 106.274 211.725 106.175 211.938 106.139ZM174.287 143.269C174.381 143.363 174.459 143.441 174.543 143.524C174.621 143.363 174.73 143.206 174.767 143.04C174.782 142.982 174.621 142.889 174.543 142.805C174.454 142.962 174.366 143.123 174.287 143.269ZM188.168 130.623C188.084 130.706 187.923 130.8 187.938 130.857C187.98 131.024 188.084 131.18 188.168 131.342C188.246 131.258 188.407 131.165 188.392 131.107C188.355 130.93 188.246 130.784 188.168 130.623ZM195.074 117.258C195.157 117.415 195.241 117.566 195.329 117.722C195.407 117.644 195.569 117.55 195.553 117.488C195.517 117.321 195.407 117.17 195.329 117.008C195.256 117.081 195.173 117.159 195.074 117.258Z" fill="black"/>
<path d="M212.184 161.447C212.324 160.697 212.038 160.113 211.496 159.603C212.277 159.103 213.033 158.962 213.694 159.743C213.928 160.02 213.991 160.025 214.22 159.79C214.449 159.566 214.783 159.337 215.079 159.316C215.908 159.249 216.746 159.296 217.559 159.296C217.746 159.483 217.918 159.655 218.178 159.915C218.48 159.723 218.788 159.431 219.147 159.311C219.678 159.134 219.97 159.608 220.34 159.868C220.428 159.931 220.809 159.41 221.085 159.379C221.783 159.306 222.496 159.348 223.314 159.348C223.507 159.743 223.741 160.233 223.975 160.728C224.225 160.728 224.46 160.733 224.699 160.728C225.71 160.691 225.887 160.41 225.829 159.473C225.798 158.915 225.34 158.681 225.21 158.29C225.027 157.754 225.199 157.108 225.064 156.551C224.934 156.025 224.574 155.566 224.387 155.046C224.329 154.884 224.522 154.639 224.574 154.426C224.642 154.165 225.408 154.077 224.814 153.676C224.173 153.243 224.46 152.379 223.855 151.889C223.585 151.665 224.678 150.874 223.725 150.421C223.855 150.27 223.954 150.04 224.105 149.999C224.579 149.868 225.496 150.139 224.626 149.139C224.199 148.645 224.225 147.868 223.668 147.379C223.413 147.16 223.788 146.556 224.288 146.405C224.694 146.296 225.246 146.426 224.746 145.681C224.121 144.743 224.095 143.712 224.767 142.796C225.074 142.379 224.949 142.207 224.616 142.108C224.142 141.967 223.178 142.197 224.121 141.264C224.543 140.853 224.194 140.056 224.876 139.78C224.949 139.743 225.027 139.546 225.022 139.546C223.579 138.53 225.027 136.759 224.007 135.665C223.699 135.332 223.772 135.186 224.022 134.884C224.215 134.645 224.215 134.249 224.376 133.962C224.548 133.665 224.809 133.415 225.043 133.134C224.579 132.65 224.105 132.15 223.512 131.52C224.033 130.561 224.465 129.546 224.392 128.337C224.293 126.806 224.428 125.259 224.454 123.723C225.116 123.29 225.017 122.895 224.439 122.447C223.439 121.676 223.319 120.764 224.116 119.754C224.246 119.582 224.376 119.332 224.345 119.145C224.126 117.811 224.97 116.28 223.647 115.139C223.647 114.431 223.647 113.723 223.647 112.915C224.001 112.842 224.387 112.858 224.626 112.676C224.855 112.509 225.137 111.983 225.048 111.874C223.819 110.29 224.647 108.462 224.215 106.592C224.767 106.202 225.35 105.785 226.132 105.228C225.397 104.973 224.996 104.837 224.574 104.691C224.22 103.91 224.168 103.212 224.85 102.483C225.1 102.207 224.954 101.592 225.095 101.165C225.277 100.598 223.954 100.478 224.72 99.8164C225.277 99.3372 225.043 98.7279 225.074 98.1706C225.095 97.7174 225.887 97.6758 225.616 97.1133C225.47 96.8164 225.257 96.5456 225.09 96.2591C224.866 95.8737 224.663 95.4883 224.439 95.0716C224.975 94.5404 225.569 93.9466 226.147 93.3633C226.408 93.5977 226.642 93.8841 226.939 94.0508C227.22 94.2122 227.845 94.3268 227.845 94.3424C227.658 95.181 228.668 95.4727 228.668 96.181C228.678 99.8789 228.673 103.582 228.673 107.28C227.897 107.801 228.366 108.202 228.585 108.863C228.84 109.624 229.069 110.728 228.132 111.493C227.96 111.634 227.923 112.223 228.074 112.421C228.934 113.603 228.975 114.712 228.053 115.879C227.996 115.947 228.413 116.374 228.668 116.707C228.668 130.467 228.658 144.311 228.684 158.155C228.684 158.837 228.434 159.264 227.949 159.639C228.184 159.9 228.413 160.145 228.611 160.363C228.408 160.645 228.033 160.931 228.059 161.165C228.23 162.665 227.413 163.488 226.137 162.749C225.288 162.254 224.876 161.978 224.074 162.728C223.751 163.03 222.996 162.853 222.319 162.91C222.257 162.176 222.251 161.608 222.142 161.051C222.116 160.91 221.783 160.77 221.585 160.743C221.376 160.728 221.163 160.853 220.949 160.91C221.001 161.077 221.012 161.301 221.121 161.405C221.423 161.686 221.512 161.947 221.095 162.139C220.902 162.233 220.553 162.072 220.408 162.191C219.949 162.566 219.548 163.02 219.085 163.483C218.09 163.483 217.048 163.493 216.012 163.457C215.918 163.447 215.845 163.077 215.757 162.868C215.954 162.79 216.303 162.743 216.329 162.624C216.439 162.186 216.47 161.717 216.465 161.275C216.449 160.785 215.762 160.4 215.444 160.743C214.908 161.322 214.345 161.54 213.605 161.441C213.527 161.238 213.48 160.9 213.366 160.874C212.939 160.77 212.866 161.092 212.892 161.441C212.658 161.447 212.418 161.447 212.184 161.447ZM218.632 161.645C218.632 160.91 218.314 160.634 217.751 160.733C217.392 160.801 217.158 160.988 217.189 161.431C217.23 161.973 217.533 162.285 218.079 162.134C218.335 162.072 218.512 161.759 218.632 161.645Z" fill="black"/>
<path d="M138.724 144.949C138.271 144.673 138.266 144.262 138.402 143.819C138.428 143.725 138.599 143.579 138.62 143.595C138.771 143.694 139.001 143.814 139.027 143.954C139.089 144.272 139.047 144.616 139.032 144.949C139.032 144.959 138.808 144.996 138.724 144.949Z" fill="black"/>
<path d="M175.617 138.83C175.476 138.94 175.262 139.174 175.205 139.143C174.768 138.888 175.07 138.69 175.304 138.523C175.377 138.466 175.549 138.476 175.601 138.528C175.658 138.575 175.617 138.721 175.617 138.83Z" fill="black"/>
<path d="M224.627 159.91C224.533 159.816 224.455 159.738 224.377 159.655C224.533 159.577 224.689 159.472 224.856 159.431C224.913 159.415 225.007 159.577 225.09 159.655C224.934 159.738 224.773 159.821 224.627 159.91Z" fill="black"/>
<path d="M137.975 134.926C138.054 135.087 138.163 135.238 138.199 135.405C138.215 135.467 138.054 135.561 137.975 135.639C137.892 135.478 137.788 135.327 137.746 135.16C137.741 135.098 137.902 135.004 137.975 134.926Z" fill="black"/>
<path d="M137.511 112.447C137.418 112.54 137.34 112.624 137.256 112.702C137.178 112.54 137.074 112.389 137.032 112.223C137.017 112.16 137.178 112.066 137.256 111.988C137.345 112.139 137.433 112.296 137.511 112.447Z" fill="black"/>
<path d="M137.006 106.712C137.084 106.561 137.173 106.405 137.256 106.254C137.339 106.332 137.501 106.426 137.485 106.488C137.443 106.655 137.339 106.806 137.256 106.967C137.178 106.889 137.1 106.806 137.006 106.712Z" fill="black"/>
<path d="M156.257 165.027C156.283 165.376 156.21 165.694 155.783 165.595C155.663 165.569 155.621 165.23 155.543 165.027C155.783 165.027 156.017 165.027 156.257 165.027Z" fill="black"/>
<path d="M139.054 149.574C138.914 149.689 138.7 149.923 138.643 149.887C138.205 149.637 138.507 149.434 138.742 149.267C138.815 149.215 138.986 149.22 139.044 149.272C139.096 149.319 139.054 149.47 139.054 149.574Z" fill="black"/>
<path d="M4.91667 24.4375C4.91667 25.5625 5.14583 26.3646 5.60417 26.8333C6.07292 27.2917 6.69792 27.5208 7.47917 27.5208C8.23958 27.5208 8.85417 27.2917 9.3125 26.8333C9.78125 26.3646 10.0208 25.5625 10.0208 24.4375V7.54167C10.0208 6.41667 9.78125 5.625 9.3125 5.16667C8.85417 4.69792 8.23958 4.45833 7.47917 4.45833C6.69792 4.45833 6.07292 4.69792 5.60417 5.16667C5.14583 5.625 4.91667 6.41667 4.91667 7.54167V24.4375ZM0 7.85417C0 5.32813 0.635416 3.39063 1.91667 2.04167C3.20833 0.682292 5.0625 0 7.47917 0C9.88021 0 11.7188 0.682292 13 2.04167C14.2917 3.39063 14.9375 5.32813 14.9375 7.85417V24.125C14.9375 26.6563 14.2917 28.599 13 29.9583C11.7188 31.3073 9.88021 31.9792 7.47917 31.9792C5.0625 31.9792 3.20833 31.3073 1.91667 29.9583C0.635416 28.599 0 26.6563 0 24.125V7.85417Z" fill="white"/>
<path d="M17.4688 21.4766L26.4062 0.351562H31.7604V21.4766H34.0938V25.9557H31.7604V31.6224H26.8438V25.9557H17.4688V21.4766ZM26.8438 21.4766V9.91406L21.9896 21.4766H26.8438Z" fill="white"/>
<path d="M50.375 281.566C52.1354 281.566 53.4479 282.04 54.3125 282.983C55.1875 283.931 55.625 285.306 55.625 287.108V290.025C55.625 291.832 55.1875 293.207 54.3125 294.15C53.4479 295.082 52.1354 295.546 50.375 295.546H48.7083V303.962H45.1875V281.566H50.375ZM48.7083 284.775V292.358H50.375C50.9271 292.358 51.3542 292.212 51.6458 291.921C51.9479 291.618 52.1042 291.056 52.1042 290.233V286.879C52.1042 286.077 51.9479 285.525 51.6458 285.233C51.3542 284.931 50.9271 284.775 50.375 284.775H48.7083Z" fill="white"/>
<path d="M71.1934 303.962H67.6309L67.0267 299.9H62.7142L62.11 303.962H58.8809L62.4642 281.566H67.61L71.1934 303.962ZM63.1725 296.858H66.5475L64.86 285.546L63.1725 296.858Z" fill="white"/>
<path d="M78.681 296.546L74.2227 281.566H77.9102L80.5977 291.775L83.2852 281.566H86.6393L82.181 296.546V303.962H78.681V296.546Z" fill="white"/>
<path d="M98.0436 297.462L100.439 281.566H105.335V303.962H102.002V287.9L99.5853 303.962H96.252L93.627 288.129V303.962H90.5645V281.566H95.4603L98.0436 297.462Z" fill="white"/>
<path d="M113.96 291.004H118.794V294.212H113.96V300.754H120.044V303.962H110.439V281.566H120.044V284.775H113.96V291.004Z" fill="white"/>
<path d="M127.909 287.754V303.962H124.742V281.566H129.159L132.763 294.983V281.566H135.909V303.962H132.284L127.909 287.754Z" fill="white"/>
<path d="M140.014 281.566H150.889V284.775H147.222V303.962H143.701V284.775H140.014V281.566Z" fill="white"/>
<path d="M162.116 286.941C162.116 285.139 162.543 283.749 163.408 282.775C164.267 281.806 165.564 281.316 167.303 281.316C169.022 281.316 170.314 281.806 171.178 282.775C172.038 283.749 172.47 285.139 172.47 286.941V287.816H169.158V286.733C169.158 285.915 168.996 285.348 168.678 285.025C168.371 284.691 167.939 284.525 167.387 284.525C166.829 284.525 166.397 284.691 166.095 285.025C165.788 285.348 165.637 285.915 165.637 286.733C165.637 287.499 165.803 288.171 166.137 288.754C166.48 289.337 166.913 289.895 167.428 290.421C167.939 290.952 168.491 291.478 169.074 292.004C169.658 292.52 170.204 293.087 170.72 293.712C171.23 294.327 171.658 295.025 171.991 295.816C172.335 296.598 172.512 297.52 172.512 298.587C172.512 300.41 172.064 301.806 171.178 302.775C170.288 303.733 168.98 304.212 167.262 304.212C165.538 304.212 164.23 303.733 163.345 302.775C162.454 301.806 162.012 300.41 162.012 298.587V297.046H165.345V298.816C165.345 299.624 165.512 300.186 165.845 300.504C166.178 300.827 166.616 300.983 167.158 300.983C167.71 300.983 168.158 300.827 168.491 300.504C168.824 300.186 168.991 299.624 168.991 298.816C168.991 298.056 168.814 297.379 168.47 296.796C168.137 296.202 167.71 295.645 167.199 295.129C166.684 294.603 166.137 294.082 165.553 293.566C164.97 293.04 164.418 292.473 163.908 291.858C163.392 291.233 162.96 290.525 162.616 289.733C162.283 288.941 162.116 288.014 162.116 286.941Z" fill="white"/>
<path d="M180.443 281.566V298.837C180.443 299.66 180.599 300.228 180.922 300.546C181.255 300.868 181.698 301.025 182.255 301.025C182.807 301.025 183.255 300.868 183.589 300.546C183.922 300.228 184.089 299.66 184.089 298.837V281.566H187.401V298.629C187.401 300.436 186.953 301.827 186.068 302.796C185.193 303.77 183.885 304.254 182.151 304.254C180.427 304.254 179.12 303.77 178.234 302.796C177.359 301.827 176.922 300.436 176.922 298.629V281.566H180.443Z" fill="white"/>
<path d="M202.557 295.608V298.587C202.557 300.41 202.109 301.806 201.224 302.775C200.349 303.733 199.042 304.212 197.307 304.212C195.583 304.212 194.276 303.733 193.391 302.775C192.516 301.806 192.078 300.41 192.078 298.587V286.941C192.078 285.139 192.516 283.749 193.391 282.775C194.276 281.806 195.583 281.316 197.307 281.316C199.042 281.316 200.349 281.806 201.224 282.775C202.109 283.749 202.557 285.139 202.557 286.941V289.129H199.224V286.733C199.224 285.915 199.057 285.348 198.724 285.025C198.401 284.691 197.964 284.525 197.411 284.525C196.854 284.525 196.411 284.691 196.078 285.025C195.745 285.348 195.578 285.915 195.578 286.733V298.816C195.578 299.624 195.745 300.186 196.078 300.504C196.411 300.827 196.854 300.983 197.411 300.983C197.964 300.983 198.401 300.827 198.724 300.504C199.057 300.186 199.224 299.624 199.224 298.816V295.608H202.557Z" fill="white"/>
<path d="M217.456 295.608V298.587C217.456 300.41 217.008 301.806 216.122 302.775C215.247 303.733 213.94 304.212 212.206 304.212C210.482 304.212 209.174 303.733 208.289 302.775C207.414 301.806 206.977 300.41 206.977 298.587V286.941C206.977 285.139 207.414 283.749 208.289 282.775C209.174 281.806 210.482 281.316 212.206 281.316C213.94 281.316 215.247 281.806 216.122 282.775C217.008 283.749 217.456 285.139 217.456 286.941V289.129H214.122V286.733C214.122 285.915 213.956 285.348 213.622 285.025C213.299 284.691 212.862 284.525 212.31 284.525C211.753 284.525 211.31 284.691 210.977 285.025C210.643 285.348 210.477 285.915 210.477 286.733V298.816C210.477 299.624 210.643 300.186 210.977 300.504C211.31 300.827 211.753 300.983 212.31 300.983C212.862 300.983 213.299 300.827 213.622 300.504C213.956 300.186 214.122 299.624 214.122 298.816V295.608H217.456Z" fill="white"/>
<path d="M225.667 291.004H230.501V294.212H225.667V300.754H231.751V303.962H222.146V281.566H231.751V284.775H225.667V291.004Z" fill="white"/>
<path d="M236.032 286.941C236.032 285.139 236.459 283.749 237.324 282.775C238.183 281.806 239.48 281.316 241.219 281.316C242.938 281.316 244.23 281.806 245.094 282.775C245.954 283.749 246.386 285.139 246.386 286.941V287.816H243.074V286.733C243.074 285.915 242.912 285.348 242.594 285.025C242.287 284.691 241.855 284.525 241.303 284.525C240.745 284.525 240.313 284.691 240.011 285.025C239.704 285.348 239.553 285.915 239.553 286.733C239.553 287.499 239.719 288.171 240.053 288.754C240.396 289.337 240.829 289.895 241.344 290.421C241.855 290.952 242.407 291.478 242.99 292.004C243.574 292.52 244.12 293.087 244.636 293.712C245.146 294.327 245.574 295.025 245.907 295.816C246.251 296.598 246.428 297.52 246.428 298.587C246.428 300.41 245.98 301.806 245.094 302.775C244.204 303.733 242.896 304.212 241.178 304.212C239.454 304.212 238.146 303.733 237.261 302.775C236.37 301.806 235.928 300.41 235.928 298.587V297.046H239.261V298.816C239.261 299.624 239.428 300.186 239.761 300.504C240.094 300.827 240.532 300.983 241.074 300.983C241.626 300.983 242.074 300.827 242.407 300.504C242.74 300.186 242.907 299.624 242.907 298.816C242.907 298.056 242.73 297.379 242.386 296.796C242.053 296.202 241.626 295.645 241.115 295.129C240.6 294.603 240.053 294.082 239.469 293.566C238.886 293.04 238.334 292.473 237.824 291.858C237.308 291.233 236.876 290.525 236.532 289.733C236.199 288.941 236.032 288.014 236.032 286.941Z" fill="white"/>
<path d="M250.546 286.941C250.546 285.139 250.973 283.749 251.837 282.775C252.697 281.806 253.993 281.316 255.733 281.316C257.452 281.316 258.743 281.806 259.608 282.775C260.467 283.749 260.9 285.139 260.9 286.941V287.816H257.587V286.733C257.587 285.915 257.426 285.348 257.108 285.025C256.801 284.691 256.368 284.525 255.816 284.525C255.259 284.525 254.827 284.691 254.525 285.025C254.217 285.348 254.066 285.915 254.066 286.733C254.066 287.499 254.233 288.171 254.566 288.754C254.91 289.337 255.342 289.895 255.858 290.421C256.368 290.952 256.921 291.478 257.504 292.004C258.087 292.52 258.634 293.087 259.15 293.712C259.66 294.327 260.087 295.025 260.421 295.816C260.764 296.598 260.941 297.52 260.941 298.587C260.941 300.41 260.493 301.806 259.608 302.775C258.717 303.733 257.41 304.212 255.691 304.212C253.967 304.212 252.66 303.733 251.775 302.775C250.884 301.806 250.441 300.41 250.441 298.587V297.046H253.775V298.816C253.775 299.624 253.941 300.186 254.275 300.504C254.608 300.827 255.046 300.983 255.587 300.983C256.139 300.983 256.587 300.827 256.921 300.504C257.254 300.186 257.421 299.624 257.421 298.816C257.421 298.056 257.243 297.379 256.9 296.796C256.566 296.202 256.139 295.645 255.629 295.129C255.113 294.603 254.566 294.082 253.983 293.566C253.4 293.04 252.848 292.473 252.337 291.858C251.822 291.233 251.389 290.525 251.046 289.733C250.712 288.941 250.546 288.014 250.546 286.941Z" fill="white"/>
<path d="M269.019 291.525H273.561V294.712H269.019V303.962H265.498V281.566H274.811V284.775H269.019V291.525Z" fill="white"/>
<path d="M282.429 281.566V298.837C282.429 299.66 282.585 300.228 282.908 300.546C283.242 300.868 283.684 301.025 284.242 301.025C284.794 301.025 285.242 300.868 285.575 300.546C285.908 300.228 286.075 299.66 286.075 298.837V281.566H289.387V298.629C289.387 300.436 288.939 301.827 288.054 302.796C287.179 303.77 285.872 304.254 284.137 304.254C282.413 304.254 281.106 303.77 280.221 302.796C279.346 301.827 278.908 300.436 278.908 298.629V281.566H282.429Z" fill="white"/>
<path d="M294.336 281.566H297.857V300.754H303.648V303.962H294.336V281.566Z" fill="white"/>
<path d="M307.797 281.566H311.318V300.754H317.109V303.962H307.797V281.566Z" fill="white"/>
</svg>
