<svg width="36" height="36" viewBox="0 0 36 36" fill="none" xmlns="http://www.w3.org/2000/svg">
<path d="M3.00781 14.25V6C3.00781 5.17158 3.67939 4.5 4.50781 4.5H31.5078C32.3363 4.5 33.0078 5.17158 33.0078 6V14.25C30.9368 14.25 29.2578 15.929 29.2578 18.0001C29.2578 20.0711 30.9368 21.7501 33.0078 21.7501V30.0001C33.0078 30.8284 32.3363 31.5001 31.5078 31.5001H4.50781C3.67939 31.5001 3.00781 30.8284 3.00781 30.0001V21.7501C5.07888 21.7501 6.75781 20.0711 6.75781 18.0001C6.75781 15.929 5.07888 14.25 3.00781 14.25ZM13.5078 13.5V16.5001H22.5078V13.5H13.5078ZM13.5078 19.5001V22.5001H22.5078V19.5001H13.5078Z" fill="#FCF8EF"/>
</svg>
