<svg width="202" height="107" viewBox="0 0 202 107" fill="none" xmlns="http://www.w3.org/2000/svg">
<g opacity="0.6">
<g opacity="0.6">
<path d="M76.7917 33.764L83.7083 27.6807L102.729 44.4099L114.833 33.764L125.208 42.889V15.2083H76.7917V33.764ZM73.3333 9.125H128.667C130.577 9.125 132.125 10.4868 132.125 12.1667V60.8333C132.125 62.5132 130.577 63.875 128.667 63.875H73.3333C71.4234 63.875 69.875 62.5132 69.875 60.8333V12.1667C69.875 10.4868 71.4234 9.125 73.3333 9.125ZM113.104 30.4167C110.239 30.4167 107.917 28.374 107.917 25.8542C107.917 23.3344 110.239 21.2917 113.104 21.2917C115.969 21.2917 118.292 23.3344 118.292 25.8542C118.292 28.374 115.969 30.4167 113.104 30.4167Z" fill="#B23E3E"/>
</g>
<path d="M38.2805 91.3636V103H36.4055L30.9226 95.0739H30.826V103H28.718V91.3636H30.6044L36.0817 99.2955H36.1839V91.3636H38.2805ZM44.2933 103.17C43.4411 103.17 42.7024 102.983 42.0774 102.608C41.4524 102.233 40.9676 101.708 40.6229 101.034C40.282 100.36 40.1115 99.572 40.1115 98.6705C40.1115 97.7689 40.282 96.9792 40.6229 96.3011C40.9676 95.6231 41.4524 95.0966 42.0774 94.7216C42.7024 94.3466 43.4411 94.1591 44.2933 94.1591C45.1456 94.1591 45.8842 94.3466 46.5092 94.7216C47.1342 95.0966 47.6172 95.6231 47.9581 96.3011C48.3028 96.9792 48.4751 97.7689 48.4751 98.6705C48.4751 99.572 48.3028 100.36 47.9581 101.034C47.6172 101.708 47.1342 102.233 46.5092 102.608C45.8842 102.983 45.1456 103.17 44.2933 103.17ZM44.3047 101.523C44.7668 101.523 45.1532 101.396 45.4638 101.142C45.7744 100.884 46.0054 100.54 46.157 100.108C46.3123 99.6761 46.3899 99.1951 46.3899 98.6648C46.3899 98.1307 46.3123 97.6477 46.157 97.2159C46.0054 96.7803 45.7744 96.4337 45.4638 96.1761C45.1532 95.9186 44.7668 95.7898 44.3047 95.7898C43.8312 95.7898 43.4373 95.9186 43.1229 96.1761C42.8123 96.4337 42.5793 96.7803 42.424 97.2159C42.2725 97.6477 42.1967 98.1307 42.1967 98.6648C42.1967 99.1951 42.2725 99.6761 42.424 100.108C42.5793 100.54 42.8123 100.884 43.1229 101.142C43.4373 101.396 43.8312 101.523 44.3047 101.523ZM56.3885 91.3636V103H54.2805V91.3636H56.3885ZM58.5803 103V94.2727H60.5462V95.7557H60.6484C60.8303 95.2557 61.1314 94.8655 61.5518 94.5852C61.9723 94.3011 62.4742 94.1591 63.0575 94.1591C63.6484 94.1591 64.1465 94.303 64.5518 94.5909C64.9609 94.875 65.2488 95.2633 65.4155 95.7557H65.5064C65.6996 95.2708 66.0253 94.8845 66.4837 94.5966C66.9458 94.3049 67.4931 94.1591 68.1257 94.1591C68.9287 94.1591 69.584 94.4129 70.0916 94.9205C70.5992 95.428 70.853 96.1686 70.853 97.142V103H68.7905V97.4602C68.7905 96.9186 68.6465 96.5227 68.3587 96.2727C68.0708 96.0189 67.7185 95.892 67.3018 95.892C66.8056 95.892 66.4174 96.0473 66.1371 96.358C65.8606 96.6648 65.7223 97.0644 65.7223 97.5568V103H63.7053V97.375C63.7053 96.9242 63.5689 96.5644 63.2962 96.2955C63.0272 96.0265 62.675 95.892 62.2393 95.892C61.9439 95.892 61.675 95.9678 61.4325 96.1193C61.1901 96.267 60.9969 96.4773 60.853 96.75C60.709 97.0189 60.6371 97.3333 60.6371 97.6932V103H58.5803ZM75.451 103.176C74.898 103.176 74.3999 103.078 73.9567 102.881C73.5173 102.68 73.1688 102.384 72.9112 101.994C72.6574 101.604 72.5305 101.123 72.5305 100.551C72.5305 100.059 72.6214 99.6515 72.8033 99.3295C72.9851 99.0076 73.2332 98.75 73.5476 98.5568C73.862 98.3636 74.2161 98.2178 74.6101 98.1193C75.0078 98.017 75.4188 97.9432 75.843 97.8977C76.3544 97.8447 76.7692 97.7973 77.0874 97.7557C77.4055 97.7102 77.6366 97.642 77.7805 97.5511C77.9283 97.4564 78.0021 97.3106 78.0021 97.1136V97.0795C78.0021 96.6515 77.8752 96.3201 77.6214 96.0852C77.3677 95.8504 77.0021 95.733 76.5249 95.733C76.0211 95.733 75.6214 95.8428 75.326 96.0625C75.0343 96.2822 74.8374 96.5417 74.7351 96.8409L72.8146 96.5682C72.9661 96.0379 73.2161 95.5947 73.5646 95.2386C73.9131 94.8788 74.3393 94.6098 74.843 94.4318C75.3468 94.25 75.9036 94.1591 76.5135 94.1591C76.9339 94.1591 77.3525 94.2083 77.7692 94.3068C78.1858 94.4053 78.5665 94.5682 78.9112 94.7955C79.2559 95.0189 79.5324 95.3239 79.7408 95.7102C79.9529 96.0966 80.0589 96.5795 80.0589 97.1591V103H78.0817V101.801H78.0135C77.8885 102.044 77.7124 102.271 77.4851 102.483C77.2616 102.691 76.9794 102.86 76.6385 102.989C76.3014 103.114 75.9055 103.176 75.451 103.176ZM75.9851 101.665C76.398 101.665 76.7559 101.583 77.0589 101.42C77.362 101.254 77.5949 101.034 77.7578 100.761C77.9245 100.489 78.0078 100.191 78.0078 99.8693V98.8409C77.9434 98.8939 77.8336 98.9432 77.6783 98.9886C77.5268 99.0341 77.3563 99.0739 77.1669 99.108C76.9775 99.142 76.79 99.1723 76.6044 99.1989C76.4188 99.2254 76.2578 99.2481 76.1214 99.267C75.8146 99.3087 75.54 99.3769 75.2976 99.4716C75.0552 99.5663 74.8639 99.6989 74.7237 99.8693C74.5836 100.036 74.5135 100.252 74.5135 100.517C74.5135 100.896 74.6518 101.182 74.9283 101.375C75.2048 101.568 75.5571 101.665 75.9851 101.665ZM85.9226 106.455C85.1839 106.455 84.5495 106.354 84.0192 106.153C83.4889 105.956 83.0627 105.691 82.7408 105.358C82.4188 105.025 82.1953 104.655 82.0703 104.25L83.9226 103.801C84.0059 103.972 84.1271 104.14 84.2862 104.307C84.4453 104.477 84.6593 104.617 84.9283 104.727C85.201 104.841 85.5438 104.898 85.9567 104.898C86.54 104.898 87.023 104.756 87.4055 104.472C87.7881 104.191 87.9794 103.729 87.9794 103.085V101.432H87.8771C87.7711 101.644 87.6158 101.862 87.4112 102.085C87.2105 102.309 86.9434 102.496 86.6101 102.648C86.2805 102.799 85.8658 102.875 85.3658 102.875C84.6953 102.875 84.0874 102.718 83.5419 102.403C83.0002 102.085 82.5684 101.612 82.2464 100.983C81.9283 100.35 81.7692 99.5587 81.7692 98.608C81.7692 97.6496 81.9283 96.8409 82.2464 96.1818C82.5684 95.5189 83.0021 95.017 83.5476 94.6761C84.093 94.3314 84.701 94.1591 85.3714 94.1591C85.8828 94.1591 86.3033 94.2462 86.6328 94.4205C86.9661 94.5909 87.2313 94.7973 87.4283 95.0398C87.6252 95.2784 87.7749 95.5038 87.8771 95.7159H87.9908V94.2727H90.0192V103.142C90.0192 103.888 89.8411 104.506 89.4851 104.994C89.129 105.483 88.6423 105.848 88.0249 106.091C87.4074 106.333 86.7067 106.455 85.9226 106.455ZM85.9396 101.261C86.3752 101.261 86.7464 101.155 87.0533 100.943C87.3601 100.731 87.593 100.426 87.7521 100.028C87.9112 99.6307 87.9908 99.1534 87.9908 98.5966C87.9908 98.0473 87.9112 97.5663 87.7521 97.1534C87.5968 96.7405 87.3658 96.4205 87.0589 96.1932C86.7559 95.9621 86.3828 95.8466 85.9396 95.8466C85.4813 95.8466 85.0987 95.9659 84.7919 96.2045C84.4851 96.4432 84.254 96.7708 84.0987 97.1875C83.9434 97.6004 83.8658 98.0701 83.8658 98.5966C83.8658 99.1307 83.9434 99.5985 84.0987 100C84.2578 100.398 84.4908 100.708 84.7976 100.932C85.1082 101.152 85.4889 101.261 85.9396 101.261ZM95.9908 103.17C95.1158 103.17 94.3601 102.989 93.7237 102.625C93.0911 102.258 92.6044 101.739 92.2635 101.068C91.9226 100.394 91.7521 99.6004 91.7521 98.6875C91.7521 97.7898 91.9226 97.0019 92.2635 96.3239C92.6082 95.642 93.0893 95.1117 93.7067 94.733C94.3241 94.3504 95.0495 94.1591 95.8828 94.1591C96.4207 94.1591 96.9283 94.2462 97.4055 94.4205C97.8866 94.5909 98.3108 94.8561 98.6783 95.2159C99.0495 95.5758 99.3411 96.0341 99.5533 96.5909C99.7654 97.1439 99.8714 97.803 99.8714 98.5682V99.1989H92.718V97.8125H97.8999C97.8961 97.4186 97.8108 97.0682 97.6442 96.7614C97.4775 96.4508 97.2446 96.2064 96.9453 96.0284C96.6499 95.8504 96.3052 95.7614 95.9112 95.7614C95.4908 95.7614 95.1214 95.8636 94.8033 96.0682C94.4851 96.2689 94.237 96.5341 94.0589 96.8636C93.8847 97.1894 93.7957 97.5473 93.7919 97.9375V99.1477C93.7919 99.6553 93.8847 100.091 94.0703 100.455C94.2559 100.814 94.5154 101.091 94.8487 101.284C95.1821 101.473 95.5722 101.568 96.0192 101.568C96.3184 101.568 96.5893 101.527 96.8317 101.443C97.0741 101.356 97.2843 101.229 97.4624 101.062C97.6404 100.896 97.7749 100.689 97.8658 100.443L99.7862 100.659C99.665 101.167 99.4339 101.61 99.093 101.989C98.7559 102.364 98.3241 102.655 97.7976 102.864C97.2711 103.068 96.6688 103.17 95.9908 103.17ZM107.165 103H104.915L109.012 91.3636H111.614L115.717 103H113.467L110.359 93.75H110.268L107.165 103ZM107.239 98.4375H113.376V100.131H107.239V98.4375ZM123.86 94.2727L120.752 103H118.479L115.371 94.2727H117.565L119.57 100.756H119.661L121.673 94.2727H123.86ZM127.545 103.176C126.992 103.176 126.494 103.078 126.05 102.881C125.611 102.68 125.263 102.384 125.005 101.994C124.751 101.604 124.624 101.123 124.624 100.551C124.624 100.059 124.715 99.6515 124.897 99.3295C125.079 99.0076 125.327 98.75 125.641 98.5568C125.956 98.3636 126.31 98.2178 126.704 98.1193C127.102 98.017 127.513 97.9432 127.937 97.8977C128.448 97.8447 128.863 97.7973 129.181 97.7557C129.499 97.7102 129.73 97.642 129.874 97.5511C130.022 97.4564 130.096 97.3106 130.096 97.1136V97.0795C130.096 96.6515 129.969 96.3201 129.715 96.0852C129.461 95.8504 129.096 95.733 128.619 95.733C128.115 95.733 127.715 95.8428 127.42 96.0625C127.128 96.2822 126.931 96.5417 126.829 96.8409L124.908 96.5682C125.06 96.0379 125.31 95.5947 125.658 95.2386C126.007 94.8788 126.433 94.6098 126.937 94.4318C127.441 94.25 127.997 94.1591 128.607 94.1591C129.028 94.1591 129.446 94.2083 129.863 94.3068C130.28 94.4053 130.66 94.5682 131.005 94.7955C131.35 95.0189 131.626 95.3239 131.835 95.7102C132.047 96.0966 132.153 96.5795 132.153 97.1591V103H130.175V101.801H130.107C129.982 102.044 129.806 102.271 129.579 102.483C129.355 102.691 129.073 102.86 128.732 102.989C128.395 103.114 127.999 103.176 127.545 103.176ZM128.079 101.665C128.492 101.665 128.85 101.583 129.153 101.42C129.456 101.254 129.689 101.034 129.852 100.761C130.018 100.489 130.102 100.191 130.102 99.8693V98.8409C130.037 98.8939 129.927 98.9432 129.772 98.9886C129.621 99.0341 129.45 99.0739 129.261 99.108C129.071 99.142 128.884 99.1723 128.698 99.1989C128.513 99.2254 128.352 99.2481 128.215 99.267C127.908 99.3087 127.634 99.3769 127.391 99.4716C127.149 99.5663 126.958 99.6989 126.817 99.8693C126.677 100.036 126.607 100.252 126.607 100.517C126.607 100.896 126.746 101.182 127.022 101.375C127.299 101.568 127.651 101.665 128.079 101.665ZM134.221 103V94.2727H136.278V103H134.221ZM135.255 93.0341C134.929 93.0341 134.649 92.9261 134.414 92.7102C134.179 92.4905 134.062 92.2273 134.062 91.9205C134.062 91.6098 134.179 91.3466 134.414 91.1307C134.649 90.911 134.929 90.8011 135.255 90.8011C135.585 90.8011 135.865 90.911 136.096 91.1307C136.331 91.3466 136.448 91.6098 136.448 91.9205C136.448 92.2273 136.331 92.4905 136.096 92.7102C135.865 92.9261 135.585 93.0341 135.255 93.0341ZM140.45 91.3636V103H138.393V91.3636H140.45ZM145.076 103.176C144.523 103.176 144.025 103.078 143.582 102.881C143.142 102.68 142.794 102.384 142.536 101.994C142.282 101.604 142.156 101.123 142.156 100.551C142.156 100.059 142.246 99.6515 142.428 99.3295C142.61 99.0076 142.858 98.75 143.173 98.5568C143.487 98.3636 143.841 98.2178 144.235 98.1193C144.633 98.017 145.044 97.9432 145.468 97.8977C145.979 97.8447 146.394 97.7973 146.712 97.7557C147.031 97.7102 147.262 97.642 147.406 97.5511C147.553 97.4564 147.627 97.3106 147.627 97.1136V97.0795C147.627 96.6515 147.5 96.3201 147.246 96.0852C146.993 95.8504 146.627 95.733 146.15 95.733C145.646 95.733 145.246 95.8428 144.951 96.0625C144.659 96.2822 144.462 96.5417 144.36 96.8409L142.44 96.5682C142.591 96.0379 142.841 95.5947 143.19 95.2386C143.538 94.8788 143.964 94.6098 144.468 94.4318C144.972 94.25 145.529 94.1591 146.138 94.1591C146.559 94.1591 146.978 94.2083 147.394 94.3068C147.811 94.4053 148.192 94.5682 148.536 94.7955C148.881 95.0189 149.157 95.3239 149.366 95.7102C149.578 96.0966 149.684 96.5795 149.684 97.1591V103H147.707V101.801H147.638C147.513 102.044 147.337 102.271 147.11 102.483C146.887 102.691 146.604 102.86 146.263 102.989C145.926 103.114 145.531 103.176 145.076 103.176ZM145.61 101.665C146.023 101.665 146.381 101.583 146.684 101.42C146.987 101.254 147.22 101.034 147.383 100.761C147.549 100.489 147.633 100.191 147.633 99.8693V98.8409C147.568 98.8939 147.459 98.9432 147.303 98.9886C147.152 99.0341 146.981 99.0739 146.792 99.108C146.603 99.142 146.415 99.1723 146.229 99.1989C146.044 99.2254 145.883 99.2481 145.746 99.267C145.44 99.3087 145.165 99.3769 144.923 99.4716C144.68 99.5663 144.489 99.6989 144.349 99.8693C144.209 100.036 144.138 100.252 144.138 100.517C144.138 100.896 144.277 101.182 144.553 101.375C144.83 101.568 145.182 101.665 145.61 101.665ZM151.843 103V91.3636H153.9V95.7159H153.985C154.091 95.5038 154.241 95.2784 154.434 95.0398C154.627 94.7973 154.888 94.5909 155.218 94.4205C155.548 94.2462 155.968 94.1591 156.479 94.1591C157.154 94.1591 157.762 94.3314 158.303 94.6761C158.849 95.017 159.281 95.5227 159.599 96.1932C159.921 96.8598 160.082 97.678 160.082 98.6477C160.082 99.6061 159.924 100.42 159.61 101.091C159.296 101.761 158.868 102.273 158.326 102.625C157.784 102.977 157.171 103.153 156.485 103.153C155.985 103.153 155.57 103.07 155.241 102.903C154.911 102.737 154.646 102.536 154.445 102.301C154.248 102.062 154.095 101.837 153.985 101.625H153.866V103H151.843ZM153.86 98.6364C153.86 99.2008 153.94 99.6951 154.099 100.119C154.262 100.544 154.495 100.875 154.798 101.114C155.104 101.348 155.476 101.466 155.911 101.466C156.366 101.466 156.746 101.345 157.053 101.102C157.36 100.856 157.591 100.521 157.746 100.097C157.906 99.6686 157.985 99.1818 157.985 98.6364C157.985 98.0947 157.907 97.6136 157.752 97.1932C157.597 96.7727 157.366 96.4432 157.059 96.2045C156.752 95.9659 156.37 95.8466 155.911 95.8466C155.472 95.8466 155.099 95.9621 154.792 96.1932C154.485 96.4242 154.252 96.7481 154.093 97.1648C153.938 97.5814 153.86 98.072 153.86 98.6364ZM163.887 91.3636V103H161.83V91.3636H163.887ZM169.866 103.17C168.991 103.17 168.235 102.989 167.599 102.625C166.966 102.258 166.479 101.739 166.138 101.068C165.798 100.394 165.627 99.6004 165.627 98.6875C165.627 97.7898 165.798 97.0019 166.138 96.3239C166.483 95.642 166.964 95.1117 167.582 94.733C168.199 94.3504 168.924 94.1591 169.758 94.1591C170.296 94.1591 170.803 94.2462 171.281 94.4205C171.762 94.5909 172.186 94.8561 172.553 95.2159C172.924 95.5758 173.216 96.0341 173.428 96.5909C173.64 97.1439 173.746 97.803 173.746 98.5682V99.1989H166.593V97.8125H171.775C171.771 97.4186 171.686 97.0682 171.519 96.7614C171.353 96.4508 171.12 96.2064 170.82 96.0284C170.525 95.8504 170.18 95.7614 169.786 95.7614C169.366 95.7614 168.996 95.8636 168.678 96.0682C168.36 96.2689 168.112 96.5341 167.934 96.8636C167.76 97.1894 167.671 97.5473 167.667 97.9375V99.1477C167.667 99.6553 167.76 100.091 167.945 100.455C168.131 100.814 168.39 101.091 168.724 101.284C169.057 101.473 169.447 101.568 169.894 101.568C170.193 101.568 170.464 101.527 170.707 101.443C170.949 101.356 171.159 101.229 171.337 101.062C171.515 100.896 171.65 100.689 171.741 100.443L173.661 100.659C173.54 101.167 173.309 101.61 172.968 101.989C172.631 102.364 172.199 102.655 171.673 102.864C171.146 103.068 170.544 103.17 169.866 103.17Z" fill="#3E3327"/>
</g>
</svg>
