<svg width="55" height="50" viewBox="0 0 55 50" fill="none" xmlns="http://www.w3.org/2000/svg">
<path d="M46.7835 17.8203L46.167 19.2345C45.716 20.2698 44.284 20.2698 43.8327 19.2345L43.2165 17.8203C42.1178 15.2987 40.1387 13.291 37.6693 12.1927L35.77 11.3481C34.7433 10.8913 34.7433 9.39703 35.77 8.9403L37.563 8.14285C40.096 7.01628 42.1105 4.93433 43.1903 2.32708L43.8232 0.798827C44.2645 -0.266276 45.7355 -0.266276 46.1765 0.798827L46.8095 2.32708C47.8895 4.93433 49.904 7.01628 52.437 8.14285L54.2298 8.9403C55.2568 9.39703 55.2568 10.8913 54.2298 11.3481L52.3307 12.1927C49.8613 13.291 47.8822 15.2987 46.7835 17.8203ZM50 47.5V24.1465C48.436 24.6993 46.7533 25 45 25C42.6883 25 40.4985 24.477 38.543 23.543C39.477 25.4985 40 27.6883 40 30C40 38.2843 33.2842 45 25 45C16.7157 45 10 38.2843 10 30C10 21.7157 16.7157 15 25 15C27.3118 15 29.5015 15.523 31.457 16.4571C30.523 14.5014 30 12.3118 30 10C30 8.24683 30.3008 6.5639 30.8535 5H17.5L12.5 10H2.5C1.1193 10 0 11.1193 0 12.5V47.5C0 48.8807 1.1193 50 2.5 50H47.5C48.8807 50 50 48.8807 50 47.5ZM25 40C19.4771 40 15 35.5228 15 30C15 24.4773 19.4771 20 25 20C30.5228 20 35 24.4773 35 30C35 35.5228 30.5228 40 25 40Z" fill="#B23E3E"/>
</svg>
