<svg width="400" height="163" viewBox="0 0 400 163" fill="none" xmlns="http://www.w3.org/2000/svg">
<path d="M89.3983 38.2133C90.6917 38.1184 92.385 38.2277 94.4798 38.5413C96.5739 38.8549 98.1731 39.0626 99.2776 39.1644C100.402 39.2647 101.08 39.3673 101.311 39.4723C101.961 39.7497 102.349 40.747 102.475 42.4644C102.697 45.4952 102.427 47.4956 101.666 48.4656L101.203 48.8042C100.577 48.8501 99.8065 48.0332 98.8909 46.3533C96.8028 42.525 93.4554 40.7799 88.8502 41.1177C86.4257 41.2956 83.9813 42.2976 81.5154 44.1239C79.8968 45.3193 78.3671 47.0262 76.9254 49.2445C75.5039 51.4614 74.4611 53.9959 73.7969 56.8479C73.1313 59.6797 72.8881 62.318 73.0674 64.7628C73.4096 69.4302 74.7324 72.9287 77.0357 75.2582C79.3591 77.5862 82.3894 78.6131 86.1265 78.3389C89.3183 78.1048 92.6679 76.2851 96.1754 72.879C97.6917 71.4068 98.5613 70.6625 98.7835 70.6462C99.4902 70.5943 99.8724 70.9523 99.9287 71.72C99.9835 72.4676 99.5776 73.7164 98.7102 75.4657C97.8435 77.2157 97.0509 78.31 96.3317 78.7487C95.6124 79.1873 93.9391 79.777 91.3124 80.5179C88.6865 81.2596 86.7976 81.6723 85.6457 81.7567L84.6161 81.8323C79.8687 82.1806 75.8428 80.8714 72.5382 77.904C69.254 74.9352 67.4362 71.0568 67.0851 66.2682C66.5576 59.0752 68.4834 52.657 72.8625 47.0136C74.8304 44.4925 77.2602 42.4555 80.1524 40.9027C83.0642 39.3484 86.1465 38.4519 89.3983 38.2133ZM130.769 47.0312C131.274 43.1143 131.506 40.8729 131.464 40.3072C131.421 39.7213 131.139 39.2036 130.619 38.7542L129.633 38.1867C128.677 37.6069 128.189 37.1856 128.169 36.9229C128.112 36.1349 130.759 35.5445 136.112 35.1519L137.625 35.0104C140.312 34.8133 141.684 35.1087 141.742 35.8967C141.767 36.2402 141.095 36.777 139.727 37.5071C138.358 38.217 137.558 38.946 137.329 39.6941C137.099 40.4423 136.359 45.9914 135.107 56.3416C133.854 66.6716 133.258 72.2407 133.317 73.0489C133.375 73.8372 133.66 74.4055 134.172 74.7537L135.334 75.2167C136.685 75.6457 137.367 75.9414 137.379 76.1029C137.441 76.9512 136.543 77.4439 134.684 77.5802L131.681 77.7395L128.743 77.9855C125.249 78.2419 123.478 78.047 123.43 77.4002C123.406 77.0772 123.969 76.4467 125.12 75.5087C126.288 74.5499 126.984 73.7875 127.206 73.223C127.449 72.6567 127.824 70.4252 128.329 66.5285C128.835 62.6115 129.069 60.4106 129.034 59.9256C128.938 58.6123 128.255 57.9006 126.989 57.7904L125.562 57.8646L117.989 58.4506C112.232 58.873 109.069 59.491 108.498 60.3048C108.13 60.8193 107.68 63.1275 107.148 67.2292C106.635 71.3093 106.408 73.7534 106.467 74.5618C106.526 75.3701 106.94 76.0199 107.707 76.5119C109.092 77.4061 109.8 78.0448 109.828 78.4286C109.877 79.0954 107.638 79.5948 103.114 79.9267L100.146 80.1749L98.6339 80.3164L97.1487 80.4253L96.0339 80.1719C95.9717 79.3236 96.6472 78.5731 98.062 77.9203C99.4954 77.2468 100.384 76.2162 100.729 74.83C101.093 73.4223 101.698 69.0612 102.542 61.7473C103.406 54.4116 103.971 49.6575 104.238 47.4846C104.524 45.29 104.683 43.9986 104.715 43.6102L104.798 42.2331C104.735 41.3845 104.356 40.7826 103.66 40.4274L102.442 40.0292C101.175 39.6347 100.526 39.2455 100.498 38.8615C100.444 38.1139 100.952 37.7009 102.022 37.6224L103.476 37.5157L105.026 37.4629L108.056 37.2406C112.278 36.9309 114.415 37.1296 114.467 37.8368C114.494 38.2005 113.89 38.8338 112.657 39.7368C111.442 40.6182 110.735 41.3608 110.535 41.9645L110.274 43.3853C110.202 43.7968 109.963 45.5106 109.554 48.5267C109.144 51.5226 108.959 53.2932 108.999 53.8388C109.095 55.1521 109.727 55.8777 110.895 56.0154L112.296 56.0041L119.838 55.4202C125.778 54.9846 128.958 54.4567 129.379 53.8367C129.799 53.1965 130.263 50.928 130.769 47.0312ZM169.457 50.0128L169.379 48.952C169.238 47.0326 168.818 45.1844 168.12 43.4074C166.064 38.0938 162.501 35.6129 157.429 35.9646C152.925 36.2952 149.083 38.7404 145.903 43.3005C144.415 45.4207 143.264 48.0139 142.453 51.0798C141.661 54.124 141.358 56.909 141.543 59.4346L141.658 61.0106C141.946 64.9303 143.166 68.1417 145.32 70.6448C146.386 71.887 147.609 72.7926 148.992 73.3615C150.374 73.9305 151.752 74.1647 153.125 74.0639L154.186 73.9861C158.549 73.666 162.272 71.1177 165.354 66.3413C166.812 64.081 167.912 61.4815 168.651 58.5427C169.389 55.604 169.658 52.7607 169.457 50.0128ZM157.493 33.0958L158.16 33.0469C160.382 32.8838 162.566 33.1806 164.714 33.9372C169.05 35.4676 172.164 38.5909 174.052 43.3073C174.749 45.0439 175.177 47.0032 175.337 49.1854L175.435 50.5188C175.652 53.489 175.218 56.5679 174.132 59.7556C171.944 66.1931 168.239 70.9338 163.02 73.9779C160.02 75.7213 157.106 76.6971 154.278 76.9045L152.915 77.0046C148.329 77.3409 144.315 75.9088 140.871 72.708C139.434 71.3915 138.261 69.6595 137.352 67.512C136.444 65.3644 135.905 63.1491 135.738 60.8659L135.689 60.1992C135.459 57.0674 135.835 53.8912 136.818 50.6705C137.821 47.4484 139.287 44.5984 141.218 42.1207C143.166 39.6213 145.544 37.5577 148.349 35.93C151.172 34.2806 154.221 33.3358 157.493 33.0958ZM204.993 47.4058L204.915 46.345C204.775 44.4255 204.355 42.5773 203.656 40.8003C201.601 35.4868 198.038 33.0058 192.966 33.3576C188.461 33.6881 184.619 36.1333 181.441 40.6933C179.951 42.8137 178.801 45.4068 177.989 48.4727C177.198 51.5169 176.894 54.3018 177.079 56.8275L177.195 58.4034C177.482 62.3232 178.703 65.5347 180.856 68.0378C181.922 69.2799 183.146 70.1855 184.528 70.7545C185.91 71.3234 187.288 71.5575 188.662 71.4567L189.722 71.3789C194.086 71.0588 197.808 68.5106 200.89 63.7342C202.349 61.4739 203.448 58.8744 204.187 55.9357C204.926 52.997 205.195 50.1536 204.993 47.4058ZM193.029 30.4887L193.696 30.4398C195.918 30.2768 198.103 30.5736 200.25 31.3301C204.587 32.8605 207.7 35.9839 209.589 40.7002C210.285 42.4368 210.713 44.3961 210.873 46.5782L210.971 47.9118C211.189 50.8819 210.755 53.9608 209.668 57.1485C207.48 63.586 203.775 68.3267 198.556 71.3708C195.556 73.1143 192.643 74.0898 189.815 74.2973L188.451 74.3973C183.866 74.7337 179.851 73.3015 176.407 70.1009C174.97 68.7844 173.798 67.0524 172.889 64.9048C171.98 62.7574 171.441 60.542 171.274 58.2589L171.225 57.5921C170.995 54.4603 171.372 51.2841 172.354 48.0635C173.357 44.8413 174.824 41.9913 176.754 39.5137C178.703 37.0143 181.08 34.9507 183.885 33.3229C186.709 31.6735 189.758 30.7287 193.029 30.4887ZM233.526 30.7171L233.593 31.6263C233.759 33.8893 233.513 35.7965 232.855 37.348C232.614 37.9344 232.291 38.2425 231.887 38.2721C231.281 38.3166 230.61 37.6142 229.875 36.165C229.157 34.6941 228.204 33.4741 227.017 32.5049C225.849 31.5343 224.235 31.1246 222.174 31.2757L222.113 31.2802C220.033 31.4328 218.399 31.9996 217.212 32.9805C215.411 34.4533 214.588 36.2505 214.743 38.372C214.899 40.4935 215.981 42.3643 217.988 43.9843C218.507 44.4135 220.363 45.486 223.555 47.2019C226.748 48.9177 229.06 50.5357 230.491 52.0558C231.923 53.5759 232.718 55.427 232.878 57.6091C233.176 61.6703 232.008 64.9859 229.374 67.5559C226.738 70.1057 223.359 71.5317 219.238 71.834L218.178 71.9118C215.471 72.1104 211.938 71.7094 207.58 70.7088C206.547 70.4797 205.983 69.7086 205.886 68.3953L205.818 67.4558C205.649 65.1524 205.915 63.2336 206.615 61.6994C206.858 61.1533 207.132 60.8691 207.435 60.8469C208.183 60.7921 208.959 61.6898 209.765 63.5402C210.571 65.3906 211.761 66.7963 213.334 67.7575C214.926 68.697 216.934 69.0779 219.358 68.9C221.782 68.7222 223.804 67.9035 225.423 66.444C227.063 64.9831 227.805 63.2019 227.651 61.1006C227.497 58.9993 226.818 57.3529 225.613 56.1615C224.429 54.9687 222.273 53.5323 219.144 51.8523C216.035 50.1709 213.733 48.5522 212.238 46.9961C210.764 45.4386 209.949 43.6092 209.795 41.5079C209.524 37.8104 210.569 34.7577 212.931 32.3499C215.293 29.9422 218.292 28.6049 221.928 28.3381L222.958 28.2625C223.766 28.2033 225.127 28.3471 227.042 28.6943C228.956 29.0414 229.923 29.2141 229.943 29.2127L230.783 29.0292L231.59 28.8177C232.781 28.7302 233.427 29.3634 233.526 30.7171ZM262.801 29.5444L262.89 30.7567C263.032 32.6964 262.7 33.6959 261.892 33.7552C261.75 33.7656 261.319 33.2894 260.598 32.3265C259.897 31.342 258.726 30.6052 257.086 30.1161C255.464 29.6053 252.764 29.4886 248.987 29.7657C246.846 29.9228 245.304 30.7773 244.362 32.3294C243.91 33.0938 243.372 34.7584 242.748 37.323C242.143 39.8863 241.858 41.38 241.889 41.8043C241.985 43.1176 242.274 44.0105 242.755 44.4831C243.74 45.4468 245.02 45.8709 246.595 45.7553C248.191 45.6382 249.492 45.2381 250.498 44.5549C252.354 43.2811 253.484 42.6295 253.889 42.5998C254.939 42.5227 255.544 43.5652 255.702 45.7271C255.861 47.8891 255.685 49.5168 255.176 50.6105C254.686 51.6824 254.149 52.2399 253.563 52.2829C252.977 52.3258 252.496 52.1377 252.12 51.7184C250.881 50.3264 250.198 49.6046 250.072 49.5528C249.166 49.1114 247.866 48.9529 246.169 49.0774C243.341 49.2849 241.555 50.2792 240.812 52.0604C240.521 52.7928 240.232 54.3984 239.947 56.8772C239.662 59.3561 239.584 61.4846 239.715 63.2626C239.844 65.0204 240.469 66.0715 241.591 66.4158C242.381 66.6626 244.321 66.6726 247.412 66.4458C250.523 66.2176 253.176 65.5659 255.372 64.4907C256.509 63.94 257.722 63.0283 259.009 61.7557C260.316 60.4613 261.06 59.8075 261.242 59.7941C261.444 59.7793 261.566 60.0649 261.609 60.6508C261.652 61.2368 261.426 62.2996 260.929 63.8392C260.452 65.3571 259.867 66.5274 259.176 67.3501C258.505 68.1711 257.149 68.6566 255.109 68.8063L253.804 68.8715L242.955 69.637C234.49 70.258 230.115 70.5485 229.828 70.5086C229.026 70.3846 228.607 70.07 228.57 69.5649C228.544 69.2012 229.051 68.778 230.092 68.2954C231.133 67.8128 231.738 67.4839 231.908 67.3089C232.478 66.7594 232.945 65.6586 233.311 64.0066L233.579 62.6768C233.682 62.141 233.869 60.8069 234.138 58.6745L234.815 53.3536C235.191 50.1774 235.682 46.3528 236.289 41.8799C236.893 37.3869 237.132 34.2715 237.004 32.5339C236.957 31.8873 236.415 31.2771 235.378 30.7032C234.341 30.1292 233.8 29.5392 233.755 28.933C233.711 28.3269 237.132 27.7712 244.021 27.2658L254.862 26.3791L257.556 26.1509L258.857 26.025C260.352 25.9153 261.355 26.1667 261.867 26.7792C262.398 27.37 262.709 28.2917 262.801 29.5444Z" fill="#E9C140"/>
<path d="M167.893 116.653C169.015 107.308 169.528 101.978 169.432 100.665C169.334 99.3318 169.018 98.4813 168.484 98.1145L167.788 97.7693L166.945 97.4959C166.358 97.2343 166.051 96.932 166.026 96.5882C165.967 95.7799 171.552 94.9642 182.784 94.1403L188.387 93.6987L192.75 93.3786C193.438 93.3282 193.985 93.4601 194.394 93.7758C194.822 94.0692 195.081 94.8219 195.17 96.0348L195.312 97.9745C195.497 100.5 195.074 101.801 194.044 101.876C193.862 101.889 193.418 101.241 192.713 99.932C192.007 98.6028 190.886 97.7204 189.351 97.284C187.815 96.8283 185.027 96.7483 180.987 97.0446C179.875 97.1261 178.885 97.4729 178.016 98.0849C177.146 98.6769 176.351 99.8831 175.631 101.703C174.467 104.653 173.998 107.683 174.227 110.795C174.281 111.543 174.788 112.227 175.748 112.847C176.706 113.447 177.901 113.694 179.336 113.589C180.79 113.482 182.032 113.097 183.059 112.433C183.389 112.225 183.906 111.792 184.609 111.131C185.312 110.469 185.976 110.116 186.602 110.07C187.43 110.009 187.899 110.717 188.007 112.191C188.367 117.101 187.608 119.625 185.729 119.763C185.284 119.796 184.459 119.196 183.252 117.964C182.505 117.206 181.314 116.888 179.678 117.008C178.042 117.128 176.372 117.626 174.67 118.502C174.142 118.784 173.735 119.18 173.447 119.689C173.158 120.177 172.884 121.701 172.624 124.259C172.385 126.816 172.325 128.902 172.444 130.518C172.561 132.115 172.775 133.247 173.089 133.914C173.401 134.582 173.875 135.076 174.507 135.395C175.138 135.693 175.464 135.975 175.483 136.237C175.526 136.823 173.153 137.292 168.366 137.643L166.184 137.803C163.134 138.027 161.584 137.805 161.535 137.139C161.518 136.896 162.327 136.156 163.962 134.919C165.003 134.152 165.676 133.087 165.982 131.724C166.152 131.001 166.79 125.977 167.893 116.653ZM206.324 94.9419L205.112 95.0309C203.011 95.185 201.772 95.7429 201.396 96.7053C201.041 97.6655 200.756 99.3318 200.544 101.704C200.351 104.054 200.11 106.306 199.821 108.461C199.532 110.614 199.405 111.924 199.439 112.389C199.484 112.995 200.203 113.247 201.597 113.145L202.778 113.058L203.049 113.008C206.927 112.723 209.942 111.598 212.092 109.632C214.264 107.665 215.228 105.035 214.987 101.741L214.934 101.44C214.784 99.4 213.934 97.7663 212.381 96.5393C210.828 95.2924 208.809 94.7597 206.324 94.9419ZM186.85 135.129C186.839 134.987 187.183 134.688 187.881 134.231L188.639 133.779C189.538 133.286 190.053 132.974 190.185 132.843C190.946 132.137 191.455 131.043 191.712 129.562C192.406 125.733 193.158 119.787 193.968 111.724C194.798 103.659 195.166 98.9806 195.071 97.687C195.025 97.0609 194.477 96.5119 193.427 96.0407C192.375 95.5487 191.834 95.0909 191.803 94.6663C191.744 93.8587 195.32 93.1897 202.532 92.6607L204.62 92.4769C209.832 92.0946 213.679 92.6347 216.163 94.098C218.665 95.5399 220.024 97.7359 220.241 100.685C220.601 105.595 218.635 109.67 214.344 112.91C212.458 114.329 211.543 115.431 211.601 116.219C211.614 116.401 212.56 118.353 214.437 122.075C216.314 125.797 217.655 128.156 218.459 129.153C219.264 130.151 220.387 130.8 221.831 131.101C223.275 131.401 224.012 131.753 224.041 132.157C224.071 132.561 223.706 132.984 222.946 133.425C222.185 133.847 220.734 134.136 218.592 134.293C216.472 134.449 214.783 133.852 213.526 132.502C212.288 131.13 211.044 128.713 209.795 125.25C208.565 121.764 207.425 119.37 206.375 118.066C205.343 116.739 203.716 116.158 201.495 116.321C200.323 116.407 199.527 117.044 199.106 118.233C197.826 121.821 197.332 125.605 197.624 129.585C197.699 130.616 198.19 131.494 199.096 132.219C200.001 132.925 200.474 133.561 200.515 134.126C200.57 134.874 198.295 135.417 193.689 135.755L189.481 136.125C187.785 136.249 186.907 135.917 186.85 135.129ZM234.6 114.623L239.69 114.25L239.93 114.202L241.956 113.992C242.116 113.96 242.277 113.938 242.438 113.926C243.953 113.815 244.684 113.386 244.629 112.639L244.611 112.396L244.563 112.155L244.387 111.011L244.246 110.32C244.181 110 244.144 109.759 244.132 109.597L243.987 108.877C243.891 108.396 243.837 108.075 243.825 107.914C243.489 103.327 242.699 99.8912 241.455 97.6055C241.267 97.2536 241.152 97.0795 241.112 97.0824L241.021 97.0891C240.819 97.1039 240.491 97.6151 240.037 98.6235C239.601 99.6104 239.061 100.696 238.418 101.881C234.266 109.519 232.212 113.631 232.255 114.217L232.268 114.398C232.287 114.661 233.064 114.736 234.6 114.623ZM226.952 124.173C225.859 126.711 225.335 128.284 225.379 128.89C225.422 129.476 225.682 130.107 226.158 130.783C226.654 131.458 226.904 131.815 226.907 131.856C226.957 132.542 226.655 132.991 226.001 133.202C225.127 133.468 223.548 133.686 221.265 133.854L217.569 134.125C216.195 134.226 215.48 133.892 215.424 133.124C215.381 132.539 216.034 131.891 217.384 131.183C218.732 130.474 219.754 129.587 220.448 128.52C221.161 127.452 222.597 124.869 224.753 120.769C226.91 116.671 228.473 113.753 229.443 112.015C230.411 110.259 231.734 107.673 233.413 104.259C235.09 100.825 237.128 97.1713 239.524 93.2986C240.796 91.2552 242.018 90.1905 243.19 90.1045C243.897 90.0527 244.484 90.3038 244.951 90.8588C246.196 92.3317 247.03 93.9973 247.45 95.8555C247.567 96.3549 247.721 97.481 247.911 99.2348C248.099 100.968 248.252 102.226 248.37 103.01L249.64 110.351C251.275 119.9 252.217 125.133 252.467 126.05C252.737 126.964 253.444 127.755 254.59 128.423C255.756 129.089 256.353 129.614 256.381 129.997C256.439 130.786 254.235 131.344 249.772 131.671C245.327 131.997 243.087 131.907 243.05 131.402C243.012 130.897 243.26 130.391 243.792 129.885L244.336 129.419L244.885 129.013C245.364 128.612 245.699 128.201 245.892 127.781C246.104 127.359 246.152 126.35 246.035 124.754C245.711 120.329 245.151 117.82 244.356 117.229C243.927 116.915 241.571 116.915 237.289 117.229C233.007 117.543 230.387 118.254 229.433 119.36C228.872 120.011 228.045 121.615 226.952 124.173ZM293.429 128.468C290.964 128.649 289.698 128.275 289.63 127.345L291.427 124.44C292.03 123.238 292.473 121.672 292.758 119.742C294.638 107.151 295.458 99.24 295.221 96.0074C295.183 95.4821 294.982 95.2324 294.618 95.2591C294.275 95.2842 291.698 99.8816 286.887 109.051C282.075 118.22 279.395 123.211 278.846 124.023C277.821 125.561 276.713 126.373 275.521 126.46C274.855 126.509 273.036 121.788 270.065 112.296C267.095 102.804 265.387 98.0745 264.943 98.1071C264.296 98.1545 263.722 100.573 263.221 105.364C262.717 110.134 262.187 114.113 261.628 117.303C261.07 120.492 260.907 123.663 261.138 126.815L261.424 127.8L262.089 129.396C262.15 130.225 261.331 130.701 259.635 130.826C256.968 131.021 255.115 130.964 254.078 130.655L253.187 130.14C253.135 129.433 253.677 128.51 254.812 127.37C255.967 126.229 256.838 124.134 257.427 121.084C259.827 108.659 260.817 99.5874 260.398 93.8698C260.352 93.243 260.097 92.5407 259.634 91.762C259.189 90.9618 258.948 90.309 258.911 89.8045C258.862 89.1377 260.252 88.7005 263.08 88.4931C264.372 88.3982 265.492 88.5598 266.436 88.9776C267.399 89.3748 268.356 90.5128 269.307 92.3932C270.255 94.2536 271.459 97.5173 272.918 102.184C274.396 106.828 275.39 109.985 275.898 111.655C276.406 113.324 276.792 114.565 277.054 115.378L277.633 117.043L278.278 117.94C278.722 117.907 281.387 113.253 286.271 103.977C291.154 94.6804 294.226 89.3466 295.486 87.9744C296.764 86.58 298.667 85.791 301.192 85.6057C303.737 85.419 305.035 85.6687 305.085 86.3555L304.437 87.0735L303.312 87.9485C302.248 88.9406 301.55 90.2209 301.218 91.7894C300.887 93.3571 300.172 99.9505 299.074 111.569L298.165 120.777L298.136 122.455C298.198 123.304 298.692 124.09 299.619 124.815L301.657 126.432C301.727 127.382 298.984 128.061 293.429 128.468ZM333.084 86.892L333.172 88.1041C333.315 90.0438 332.982 91.0433 332.174 91.1026C332.032 91.1129 331.601 90.6365 330.881 89.6741C330.179 88.6894 329.008 87.9522 327.368 87.4632C325.747 86.9527 323.047 86.8357 319.27 87.1128C317.128 87.2698 315.587 88.1248 314.644 89.6763C314.192 90.4409 313.655 92.1057 313.03 94.67C312.426 97.2336 312.14 98.7272 312.171 99.1518C312.267 100.465 312.556 101.358 313.038 101.83C314.022 102.794 315.302 103.218 316.878 103.102C318.473 102.985 319.775 102.585 320.781 101.902C322.637 100.628 323.767 99.9764 324.171 99.9468C325.221 99.8697 325.826 100.912 325.984 103.074C326.143 105.236 325.967 106.864 325.459 107.957C324.969 109.03 324.431 109.587 323.845 109.63C323.259 109.673 322.778 109.485 322.402 109.066C321.163 107.674 320.481 106.952 320.355 106.9C319.449 106.459 318.148 106.3 316.451 106.425C313.623 106.632 311.838 107.626 311.095 109.407C310.804 110.14 310.515 111.746 310.23 114.225C309.944 116.703 309.867 118.832 309.997 120.61C310.126 122.367 310.752 123.419 311.873 123.763C312.664 124.01 314.604 124.02 317.694 123.793C320.805 123.565 323.458 122.913 325.654 121.838C326.792 121.287 328.004 120.376 329.292 119.103C330.598 117.809 331.343 117.155 331.524 117.142C331.727 117.127 331.849 117.412 331.892 117.998C331.935 118.584 331.708 119.647 331.212 121.186C330.734 122.705 330.149 123.874 329.458 124.698C328.787 125.519 327.432 126.004 325.392 126.153L324.087 126.219L313.237 126.984C304.773 127.606 300.397 127.896 300.11 127.856C299.309 127.732 298.889 127.417 298.852 126.912C298.826 126.548 299.333 126.125 300.374 125.643C301.415 125.16 302.021 124.831 302.19 124.656C302.76 124.106 303.227 123.006 303.593 121.354L303.861 120.024C303.964 119.488 304.151 118.155 304.421 116.022L305.097 110.701C305.473 107.525 305.965 103.7 306.571 99.2274C307.175 94.7345 307.415 91.619 307.287 89.8815C307.239 89.2347 306.697 88.6242 305.66 88.0507C304.623 87.4765 304.082 86.8868 304.038 86.2807C303.993 85.6739 307.415 85.1182 314.304 84.6129L325.144 83.7261L327.838 83.4979L329.139 83.3726C330.634 83.263 331.638 83.5142 332.15 84.1269C332.681 84.7174 332.992 85.6391 333.084 86.892Z" fill="#E9C140"/>
</svg>
