<svg width="112" height="40" viewBox="0 0 112 40" fill="none" xmlns="http://www.w3.org/2000/svg">
<path d="M9.33333 29.332H22.6667C23.4 29.332 24 29.932 24 30.6654C24 31.3987 23.4 31.9987 22.6667 31.9987H9.33333C8.6 31.9987 8 31.3987 8 30.6654C8 29.932 8.6 29.332 9.33333 29.332Z" fill="#2C2C2C"/>
<path d="M47.2 31C46.595 31 46.0773 30.731 45.6468 30.1929C45.2163 29.6548 45.0007 29.0072 45 28.25V11.75C45 10.9937 45.2156 10.3466 45.6468 9.8085C46.078 9.27042 46.5957 9.00092 47.2 9H64.8C65.405 9 65.9231 9.2695 66.3543 9.8085C66.7855 10.3475 67.0007 10.9947 67 11.75V28.25C67 29.0062 66.7848 29.6539 66.3543 30.1929C65.9238 30.7319 65.4057 31.0009 64.8 31H47.2ZM47.2 28.25H64.8V11.75H47.2V28.25Z" fill="#2C2C2C"/>
<path d="M96 17.7779L103.778 10L106 12.2222L98.2222 20.0001L106 27.7778L103.778 30L96 22.2223L88.2222 30L86 27.7778L93.7778 20.0001L86 12.2222L88.2222 10L96 17.7779Z" fill="#2C2C2C"/>
</svg>
