<svg width="425" height="45" viewBox="0 0 425 45" fill="none" xmlns="http://www.w3.org/2000/svg">
<path d="M24.3603 4.09465H23.2665C20.6415 4.09465 19.0375 4.78207 18.4544 6.15692C18.0654 7.09431 17.3525 10.1877 16.3157 15.4371L13.7146 28.4669L13.4805 29.4981L13.278 30.4979C12.1532 36.0598 11.5895 38.9241 11.587 39.0907L11.58 39.5594C11.5651 40.5593 13.0368 41.0593 15.9951 41.0593H17.0264C22.5472 41.0593 27.1298 39.0178 30.7742 34.9349C32.6809 32.8102 34.1664 30.3001 35.2305 27.4045C36.2946 24.509 36.8458 21.7802 36.8842 19.218L36.9 18.1556L36.8767 17.6244C36.9409 13.3332 35.7417 9.93774 33.279 7.43802C32.3555 6.50063 31.0861 5.70905 29.4708 5.06329C27.8763 4.41753 26.1728 4.09465 24.3603 4.09465ZM0.0244377 43.2778C0.0306666 42.8611 1.00146 42.0279 2.93681 40.778C4.09355 40.049 4.96764 38.7158 5.55911 36.7785C6.17141 34.8412 7.19997 30.1438 8.6448 22.6863C10.1108 15.208 10.8663 9.95858 10.9115 6.93808C10.9274 5.8757 10.6155 5.1362 9.97593 4.71958C8.63453 3.86551 7.96648 3.26141 7.97177 2.90728C7.99233 1.53243 12.9609 0.845011 22.8776 0.845011H24.5339C24.5964 0.845011 24.6693 0.845011 24.7526 0.845011C27.5859 0.845011 30.2569 1.25122 32.7656 2.06362C40.2503 4.48002 43.9251 10.2085 43.7899 19.2492C43.7429 22.3947 43.0291 25.5506 41.6484 28.7169C40.2674 31.904 38.4139 34.6433 36.088 36.9347C31.0979 41.8508 24.5819 44.3089 16.5403 44.3089H10.884L10.072 44.2777H6.88449L2.29214 44.1839C0.771306 44.1839 0.0154057 43.8819 0.0244377 43.2778ZM65.7353 4.09465C64.4228 4.09465 63.5593 4.71958 63.1447 5.96944C61.2018 11.9063 60.2026 16.7287 60.1472 20.4366L60.1434 20.6865C60.1354 21.2281 60.8188 21.499 62.1938 21.499H63.6313C69.0688 21.499 72.8156 19.6242 74.8716 15.8746C75.5996 14.5622 75.9746 13.1665 75.9967 11.6875L76.014 10.5314C76.0436 8.55248 75.2965 6.96933 73.7725 5.78196C72.2486 4.59459 70.2367 4.00091 67.7367 4.00091H67.1429C66.5795 4.0634 66.1103 4.09465 65.7353 4.09465ZM83.0664 42.5591C83.0477 43.809 81.1113 44.4339 77.2571 44.4339H76.2884C74.2467 44.4339 72.545 43.2986 71.1831 41.028C70.411 39.7157 69.5289 37.4034 68.5368 34.0913C67.5658 30.7583 66.755 28.5502 66.1046 27.467C65.1895 25.9672 63.607 25.2173 61.357 25.2173C60.1695 25.2173 59.2901 26.2068 58.7188 28.1857C57.7296 31.6437 57.2135 34.81 57.1706 37.6846C57.1575 38.5595 57.4863 39.5594 58.157 40.6843C58.8276 41.8092 59.161 42.507 59.1569 42.7778C59.1426 43.736 55.8646 44.2152 49.3229 44.2152C46.8021 44.2152 45.3969 44.1423 45.1074 43.9964C44.818 43.8506 44.6776 43.4861 44.6863 42.9028C44.6922 42.507 45.3245 42.0175 46.5832 41.4342C47.8631 40.8301 48.6727 40.3302 49.0119 39.9344C49.3515 39.5178 49.6312 38.9241 49.8511 38.1533C50.0709 37.3826 50.4391 35.7474 50.9556 33.2476L52.0351 27.9357C52.1703 27.2483 52.3162 26.5505 52.4726 25.8422L54.2233 17.4369C55.3453 12.0625 55.9211 8.38583 55.9507 6.40689C55.9653 5.42783 55.4982 4.62584 54.5492 4.00091C53.6213 3.35515 53.1622 2.70939 53.1719 2.06362C53.1837 1.27205 56.5855 0.876258 63.3771 0.876258L66.5651 0.845011H68.7214C75.2214 0.845011 79.413 2.65731 81.2963 6.2819C82.0052 7.63592 82.3437 9.38572 82.3116 11.5313C82.2795 13.6769 81.6139 15.6975 80.3147 17.5931C79.0367 19.4679 77.3665 21.0927 75.3043 22.4676C73.2421 23.8424 72.2068 24.8111 72.1984 25.3735C72.1884 26.0401 72.9174 28.144 74.3853 31.6853C75.8531 35.2266 76.9234 37.4972 77.5959 38.4971C78.2688 39.4761 79.0917 40.1739 80.0646 40.5906C82.0727 41.4446 83.0733 42.1008 83.0664 42.5591ZM106.132 25.6547H108.6L108.851 25.6235L113.228 25.4673C113.395 25.4464 113.552 25.436 113.697 25.436C114.156 25.436 114.389 25.186 114.396 24.6861L114.399 24.4674C114.363 24.1341 114.345 23.9049 114.347 23.7799C114.402 20.0929 113.774 15.458 112.461 9.87525C112.344 9.35448 112.244 9.09409 112.161 9.09409H112.067C111.775 9.09409 111.254 9.83359 110.502 11.3126C109.751 12.7708 109.173 13.8227 108.768 14.4685L107.39 16.7182L107.231 16.937L106.845 17.6244L106.686 17.8431L105.916 19.1867C105.125 20.5407 104.345 21.8322 103.577 23.0613C102.809 24.2695 102.423 24.9569 102.421 25.1235L102.419 25.2798C102.415 25.5298 103.652 25.6547 106.132 25.6547ZM94.796 39.7469C94.7907 40.101 94.9709 40.5906 95.3365 41.2155C95.7022 41.8404 95.8813 42.4029 95.8738 42.9028C95.8601 43.8194 93.6345 44.2777 89.197 44.2777L87.2903 44.3089C84.8944 44.3089 83.701 44.0069 83.7101 43.4028L83.7189 42.8091C83.728 42.205 84.5083 41.5696 86.0599 40.903C87.6119 40.2156 88.7604 39.3407 89.5054 38.2783C90.9962 36.1119 92.4892 33.7892 93.9846 31.3104C95.5011 28.8106 96.601 27.0088 97.2842 25.9047L98.8519 23.4675C99.535 22.3634 100.175 21.3427 100.773 20.4053C101.37 19.4471 102.77 17.0828 104.972 13.3124C107.175 9.54196 109.063 6.56312 110.637 4.37587C112.212 2.16778 113.708 1.06374 115.124 1.06374C117.312 1.06374 118.689 4.42794 119.255 11.1564C119.363 12.2812 119.423 13.1353 119.435 13.7186C119.468 14.281 119.928 18.3951 120.813 26.0609C121.72 33.7059 122.261 37.9138 122.437 38.6845C122.613 39.4553 123.268 40.1948 124.404 40.903C125.539 41.6113 126.102 42.2466 126.094 42.8091C126.082 43.6006 125.408 44.0693 124.073 44.2152C123.864 44.236 121.791 44.2464 117.854 44.2464C113.937 44.2464 111.984 43.861 111.996 43.0903C112.001 42.7778 112.362 42.2779 113.081 41.5905C113.821 40.8822 114.331 40.1844 114.612 39.4969C114.914 38.7887 115.085 37.1222 115.124 34.4975C115.164 31.8728 114.896 30.3001 114.32 29.7793C113.765 29.2585 111.415 28.9981 107.269 28.9981C103.144 28.9981 100.618 29.3314 99.6917 29.998C98.7862 30.6438 97.7428 32.154 96.5615 34.5287C95.4013 36.8826 94.8128 38.622 94.796 39.7469ZM157.881 0.595039H159.131C164.111 0.595039 167.905 1.1054 170.515 2.12612C171.633 2.56357 172.174 4.01132 172.137 6.46938C172.115 7.92755 171.765 9.1045 171.084 10.0002C170.405 10.8751 169.784 11.3126 169.221 11.3126C168.659 11.3126 167.847 10.5731 166.786 9.09409C164.541 5.94861 161.523 4.37587 157.731 4.37587C152.877 4.37587 148.73 6.53188 145.291 10.8439C143.783 12.7395 142.551 15.0413 141.594 17.7494C140.636 20.4574 140.139 23.1029 140.1 25.686C139.989 33.1018 142.376 37.8825 147.261 40.0281C148.647 40.6322 150.205 40.9343 151.934 40.9343C154.705 40.9343 156.778 40.2469 158.153 38.872C159.887 37.1222 160.781 34.4767 160.834 30.9354C160.849 29.9355 160.48 28.8523 159.726 27.6858C158.973 26.4984 158.599 25.7381 158.604 25.4048C158.615 24.6757 160.152 24.3111 163.214 24.3111C166.298 24.3111 168.411 24.4049 169.554 24.5924C170.718 24.7798 171.294 25.2381 171.283 25.9672C171.28 26.1963 170.961 26.5921 170.328 27.1546C169.716 27.6962 169.259 28.2586 168.959 28.8419C168.679 29.4251 168.106 31.5187 167.24 35.1224C166.374 38.7262 165.603 40.8197 164.927 41.403C164.273 41.9654 163.005 42.4549 161.124 42.8716C155.334 44.1423 151.419 44.7776 149.377 44.7776C147.335 44.7776 145.165 44.3193 142.866 43.4028C138.642 41.7154 135.718 38.6637 134.097 34.2475C133.297 32.0394 132.92 29.3939 132.966 26.3109C133.012 23.2071 133.716 19.9887 135.079 16.6557C136.441 13.302 138.37 10.396 140.865 7.93797C143.36 5.47991 146.096 3.64678 149.073 2.43858C152.07 1.20955 155.006 0.595039 157.881 0.595039ZM210.214 11.7813C210.194 13.0936 210.663 14.4789 211.621 15.9371C211.967 16.4578 212.224 16.7182 212.39 16.7182L212.547 16.687H212.703C214.057 16.687 215.531 15.6871 217.123 13.6873C218.716 11.6667 219.521 10.0523 219.539 8.84412L219.607 8.46916L219.65 7.688L219.653 7.50052C219.671 6.29232 219.352 5.31326 218.697 4.56335C218.062 3.81343 217.287 3.43847 216.37 3.43847H215.433C214.224 3.43847 213.059 4.05299 211.936 5.28201C210.835 6.51104 210.274 7.79215 210.254 9.12534L210.146 10.0315L210.133 10.9064C210.19 11.2813 210.217 11.573 210.214 11.7813ZM207.375 40.7156H208.156C209.761 40.7156 211.496 40.2885 213.363 39.4344C215.23 38.5595 216.17 37.7055 216.183 36.8722L216.185 36.6848C216.19 36.414 215.865 35.8411 215.211 34.9662L213.1 31.9353C213.06 31.8728 212.948 31.6957 212.764 31.4041C212.582 31.0916 212.439 30.8729 212.337 30.7479L210.505 27.8732L210.383 27.6545C208.715 24.9881 207.651 23.655 207.193 23.655H207.005C205.859 23.655 204.393 24.9257 202.605 27.467C201.392 29.1752 200.771 30.9562 200.743 32.8102L200.728 33.8726C200.7 35.6849 201.302 37.2784 202.531 38.6533C203.781 40.0281 205.396 40.7156 207.375 40.7156ZM229.59 40.9655C230.478 41.4863 230.921 41.8092 230.92 41.9342C230.918 42.0383 230.802 42.1321 230.572 42.2154C228.288 43.0695 226.032 43.4965 223.802 43.4965C222.99 43.4965 221.921 43.2257 220.596 42.6841C219.292 42.1216 218.369 41.8404 217.827 41.8404C217.285 41.8404 215.883 42.257 213.621 43.0903C211.379 43.9235 209.238 44.3401 207.196 44.3401H205.134C199.363 44.3401 195.64 42.507 193.966 38.8408C193.401 37.5909 193.129 36.289 193.149 34.9349C193.188 32.3519 193.815 30.1438 195.029 28.3107C196.244 26.4776 197.768 24.8632 199.602 23.4675C202.615 21.1761 204.127 19.6658 204.138 18.9367C204.149 18.2077 204.028 17.2911 203.773 16.187C203.54 15.0622 203.436 13.6457 203.462 11.9375C203.509 8.75038 204.686 6.02152 206.99 3.75094C208.259 2.50108 209.679 1.56368 211.251 0.938751C212.844 0.31382 214.276 0.00135539 215.546 0.00135539H216.671C218.921 0.00135539 220.724 0.657532 222.08 1.96989C223.435 3.28224 224.097 4.99038 224.065 7.09431C224.034 9.17741 222.916 11.5001 220.711 14.0623C218.527 16.6037 217.423 18.718 217.398 20.4053C217.372 22.0926 217.897 23.9049 218.973 25.8422C220.048 27.7795 221.085 28.7481 222.085 28.7481C222.294 28.7481 222.907 28.1545 223.925 26.9671C224.963 25.7797 225.492 24.5611 225.51 23.3112C225.516 22.9363 225.49 22.5717 225.433 22.2176L225.287 21.5614C225.129 20.9573 225.051 20.572 225.054 20.4053C225.064 19.6971 225.426 19.218 226.138 18.968C227.374 18.5305 230.054 18.3118 234.179 18.3118C235.054 18.3118 235.487 18.6139 235.478 19.218C235.469 19.8221 235.083 20.572 234.319 21.4677C233.577 22.3634 232.981 23.1967 232.532 23.9674C232.104 24.7173 231.497 25.5818 230.712 26.5609C229.948 27.5191 229.522 28.0815 229.437 28.2482C227.589 31.9769 226.658 34.3517 226.643 35.3724C226.617 37.0805 226.982 38.4346 227.738 39.4344C228.106 39.9344 228.723 40.4447 229.59 40.9655ZM277.985 4.09465H276.892C274.267 4.09465 272.662 4.78207 272.079 6.15692C271.69 7.09431 270.977 10.1877 269.941 15.4371L267.34 28.4669L267.105 29.4981L266.903 30.4979C265.778 36.0598 265.215 38.9241 265.212 39.0907L265.205 39.5594C265.19 40.5593 266.662 41.0593 269.62 41.0593H270.651C276.172 41.0593 280.755 39.0178 284.399 34.9349C286.306 32.8102 287.791 30.3001 288.855 27.4045C289.92 24.509 290.471 21.7802 290.509 19.218L290.525 18.1556L290.502 17.6244C290.566 13.3332 289.367 9.93774 286.904 7.43802C285.981 6.50063 284.711 5.70905 283.096 5.06329C281.501 4.41753 279.798 4.09465 277.985 4.09465ZM253.649 43.2778C253.656 42.8611 254.626 42.0279 256.562 40.778C257.719 40.049 258.593 38.7158 259.184 36.7785C259.796 34.8412 260.825 30.1438 262.27 22.6863C263.736 15.208 264.491 9.95858 264.536 6.93808C264.552 5.8757 264.241 5.1362 263.601 4.71958C262.26 3.86551 261.591 3.26141 261.597 2.90728C261.617 1.53243 266.586 0.845011 276.503 0.845011H278.159C278.221 0.845011 278.294 0.845011 278.378 0.845011C281.211 0.845011 283.882 1.25122 286.391 2.06362C293.875 4.48002 297.55 10.2085 297.415 19.2492C297.368 22.3947 296.654 25.5506 295.273 28.7169C293.892 31.904 292.039 34.6433 289.713 36.9347C284.723 41.8508 278.207 44.3089 270.165 44.3089H264.509L263.697 44.2777H260.509L255.917 44.1839C254.396 44.1839 253.64 43.8819 253.649 43.2778ZM319.36 4.09465C318.048 4.09465 317.184 4.71958 316.77 5.96944C314.827 11.9063 313.828 16.7287 313.772 20.4366L313.768 20.6865C313.76 21.2281 314.444 21.499 315.819 21.499H317.256C322.694 21.499 326.441 19.6242 328.497 15.8746C329.225 14.5622 329.6 13.1665 329.622 11.6875L329.639 10.5314C329.669 8.55248 328.921 6.96933 327.398 5.78196C325.874 4.59459 323.862 4.00091 321.362 4.00091H320.768C320.204 4.0634 319.735 4.09465 319.36 4.09465ZM336.691 42.5591C336.673 43.809 334.736 44.4339 330.882 44.4339H329.913C327.872 44.4339 326.17 43.2986 324.808 41.028C324.036 39.7157 323.154 37.4034 322.162 34.0913C321.191 30.7583 320.38 28.5502 319.73 27.467C318.814 25.9672 317.232 25.2173 314.982 25.2173C313.794 25.2173 312.915 26.2068 312.344 28.1857C311.355 31.6437 310.839 34.81 310.796 37.6846C310.782 38.5595 311.111 39.5594 311.782 40.6843C312.453 41.8092 312.786 42.507 312.782 42.7778C312.768 43.736 309.49 44.2152 302.948 44.2152C300.427 44.2152 299.022 44.1423 298.732 43.9964C298.443 43.8506 298.303 43.4861 298.311 42.9028C298.317 42.507 298.95 42.0175 300.208 41.4342C301.488 40.8301 302.298 40.3302 302.637 39.9344C302.976 39.5178 303.256 38.9241 303.476 38.1533C303.696 37.3826 304.064 35.7474 304.581 33.2476L305.66 27.9357C305.795 27.2483 305.941 26.5505 306.098 25.8422L307.848 17.4369C308.97 12.0625 309.546 8.38583 309.576 6.40689C309.59 5.42783 309.123 4.62584 308.174 4.00091C307.246 3.35515 306.787 2.70939 306.797 2.06362C306.809 1.27205 310.21 0.876258 317.002 0.876258L320.19 0.845011H322.346C328.846 0.845011 333.038 2.65731 334.921 6.2819C335.63 7.63592 335.969 9.38572 335.937 11.5313C335.904 13.6769 335.239 15.6975 333.94 17.5931C332.662 19.4679 330.992 21.0927 328.929 22.4676C326.867 23.8424 325.832 24.8111 325.823 25.3735C325.813 26.0401 326.542 28.144 328.01 31.6853C329.478 35.2266 330.548 37.4972 331.221 38.4971C331.894 39.4761 332.717 40.1739 333.69 40.5906C335.698 41.4446 336.698 42.1008 336.691 42.5591ZM359.145 41.4655H360.739C362.885 41.4655 364.989 40.7468 367.052 39.3095C369.116 37.8721 370.914 36.039 372.447 33.8101C374.001 31.5812 375.195 29.0606 376.029 26.2484C376.863 23.4154 377.299 20.749 377.336 18.2493L377.344 17.7181C377.376 15.6142 377.113 13.6665 376.556 11.875C374.907 6.52146 371.666 3.84468 366.833 3.84468H366.27C363.916 3.84468 361.74 4.50085 359.741 5.81321C355.575 8.5629 352.565 12.677 350.713 18.1556C349.71 21.1344 349.186 24.0924 349.142 27.0296L349.166 27.5608C349.107 31.4562 349.996 34.7371 351.831 37.4034C352.749 38.7366 353.869 39.7469 355.192 40.4343C356.515 41.1218 357.833 41.4655 359.145 41.4655ZM367.072 0.40756H367.79C372.686 0.40756 376.713 2.1157 379.87 5.53199C381.182 6.96933 382.238 8.79204 383.038 11.0001C383.839 13.2082 384.22 15.5517 384.183 18.0306L384.173 18.718C384.128 21.6968 383.477 24.8319 382.22 28.1232C380.962 31.4145 379.158 34.3413 376.807 36.9035C374.456 39.4657 371.75 41.4551 368.687 42.8716C365.624 44.2672 362.541 44.9651 359.437 44.9651H358.718C356.322 44.9651 354.131 44.5276 352.144 43.6527C347.942 41.8196 345.091 38.8408 343.59 34.7162C342.71 32.279 342.288 29.8209 342.325 27.342L342.336 26.6234C342.381 23.6237 343.01 20.5303 344.225 17.3432C345.439 14.1352 347.201 11.2293 349.511 8.62539C351.842 6.02152 354.57 4.00091 357.696 2.56357C360.821 1.12623 363.947 0.40756 367.072 0.40756ZM409.488 3.90717H407.613C405.759 3.90717 404.595 4.43836 404.12 5.50074C403.647 6.54229 403.216 8.16711 402.829 10.3752C402.463 12.5625 402 14.958 401.44 17.5619C400.881 20.1449 400.599 21.5823 400.594 21.8739L400.591 22.1239C400.583 22.6238 401.35 22.8738 402.892 22.8738H404.767C408.517 22.8738 411.488 22.0093 413.681 20.2803C416.421 18.1139 417.817 15.3226 417.868 11.9063L417.874 11.5626C417.908 9.22949 417.186 7.37553 415.707 6.00068C414.228 4.60501 412.155 3.90717 409.488 3.90717ZM385.493 43.309C385.494 43.2465 386.592 42.2258 388.788 40.2469C389.823 39.3095 390.703 37.5909 391.428 35.0912C392.153 32.5706 393.12 27.842 394.328 20.9053C395.556 13.9685 396.193 8.97952 396.239 5.93819C396.246 5.45908 395.722 4.97997 394.667 4.50085C393.632 4.02174 393.119 3.48013 393.128 2.87603C393.141 2.06362 393.815 1.54285 395.152 1.31371C398.41 0.772103 402.539 0.501299 407.539 0.501299H409.226C416.685 0.501299 421.413 2.66772 423.411 7.00057C424.036 8.35459 424.334 10.0627 424.303 12.125C424.272 14.1664 423.701 16.1662 422.588 18.1243C420.298 22.2072 416.468 24.7486 411.099 25.7485C409.657 26.0193 407.083 26.1547 403.374 26.1547C401.458 26.1547 400.179 26.6546 399.539 27.6545C398.302 29.5918 397.647 32.9664 397.575 37.7784C397.559 38.8824 398.158 39.9448 399.371 40.9655C400.607 41.9654 401.22 42.7153 401.213 43.2153C401.199 44.111 399.943 44.5589 397.443 44.5589H395.755L388.821 44.3401C386.592 44.3401 385.482 43.9964 385.493 43.309Z" fill="#B23E3E"/>
</svg>
