<svg width="80" height="80" viewBox="0 0 80 80" fill="none" xmlns="http://www.w3.org/2000/svg">
<path d="M10 50H14C15.1046 50 16 49.1046 16 48L16 32C16 30.8954 15.1046 30 14 30H10C8.89543 30 8 30.8954 8 32L8 48C8 49.1046 8.89543 50 10 50Z" fill="#303030"/>
<path d="M64 50H54V30H64V50ZM51 50H41V30L51 30V50ZM38 50L28 50V30H38V50Z" fill="#303030"/>
<path fill-rule="evenodd" clip-rule="evenodd" d="M24 58H68C69.5913 58 71.1174 57.3679 72.2426 56.2426C73.3679 55.1174 74 53.5913 74 52V28C74 26.4087 73.3679 24.8826 72.2426 23.7574C71.1174 22.6321 69.5913 22 68 22L24 22C22.4087 22 20.8826 22.6321 19.7574 23.7574C18.6321 24.8826 18 26.4087 18 28L18 52C18 53.5913 18.6321 55.1174 19.7574 56.2426C20.8826 57.3679 22.4087 58 24 58ZM70 52C70 52.5304 69.7893 53.0391 69.4142 53.4142C69.0391 53.7893 68.5304 54 68 54L24 54C23.4696 54 22.9609 53.7893 22.5858 53.4142C22.2107 53.0391 22 52.5304 22 52L22 28C22 27.4696 22.2107 26.9609 22.5858 26.5858C22.9609 26.2107 23.4696 26 24 26L68 26C68.5304 26 69.0391 26.2107 69.4142 26.5858C69.7893 26.9609 70 27.4696 70 28V52Z" fill="#303030"/>
</svg>
