<svg width="480" height="195" viewBox="0 0 480 195" fill="none" xmlns="http://www.w3.org/2000/svg">
<path d="M101.168 46.7048C102.72 46.5913 104.752 46.7221 107.266 47.0972C109.779 47.4723 111.698 47.7208 113.023 47.8426C114.372 47.9626 115.186 48.0854 115.463 48.211C116.243 48.5427 116.708 49.7359 116.86 51.7904C117.126 55.4162 116.803 57.8093 115.889 58.9697L115.333 59.3748C114.582 59.4297 113.658 58.4524 112.559 56.4429C110.053 51.863 106.036 49.7752 100.51 50.1794C97.6009 50.3921 94.6676 51.5909 91.7085 53.7758C89.7662 55.2058 87.9306 57.2478 86.2006 59.9016C84.4947 62.5538 83.2433 65.5858 82.4463 68.9977C81.6476 72.3855 81.3558 75.5417 81.5709 78.4664C81.9815 84.0501 83.5689 88.2354 86.3328 91.0228C89.1209 93.8077 92.7574 95.0362 97.2418 94.7083C101.072 94.4282 105.092 92.2504 109.3 88.1761C111.12 86.4147 112.164 85.5243 112.43 85.5048C113.278 85.4427 113.737 85.871 113.804 86.7896C113.87 87.6839 113.383 89.1773 112.342 91.2709C111.302 93.3636 110.351 94.6728 109.488 95.1975C108.625 95.7223 106.617 96.4287 103.465 97.3151C100.314 98.2014 98.0471 98.6951 96.6649 98.7962L95.4294 98.8866C89.7325 99.3032 84.9014 97.737 80.9359 94.1871C76.9948 90.6363 74.8134 85.996 74.3921 80.2674C73.7591 71.6623 76.0701 63.9841 81.325 57.2327C83.6865 54.2167 86.6023 51.7798 90.0729 49.9221C93.5671 48.0627 97.2658 46.9902 101.168 46.7048ZM150.812 57.2538C151.419 52.5679 151.697 49.8865 151.647 49.2097C151.596 48.5088 151.257 47.8895 150.633 47.3519L149.45 46.6729C148.302 45.9793 147.716 45.4753 147.693 45.1611C147.624 44.2183 150.801 43.5121 157.225 43.0423L159.04 42.8731C162.264 42.6372 163.911 42.9907 163.98 43.9334C164.011 44.3443 163.204 44.9864 161.563 45.8599C159.919 46.7092 158.96 47.5813 158.684 48.4762C158.409 49.3713 157.521 56.0099 156.019 68.392C154.515 80.75 153.799 87.4124 153.87 88.3793C153.94 89.3218 154.282 90.0017 154.897 90.4183L156.291 90.9722C157.912 91.4854 158.731 91.8391 158.745 92.0323C158.82 93.0481 157.741 93.6366 155.511 93.7997L151.907 93.9912L148.382 94.2846C144.188 94.5913 142.063 94.3581 142.006 93.5852C141.978 93.1979 142.653 92.4436 144.034 91.3223C145.436 90.1745 146.27 89.2633 146.538 88.5875C146.828 87.91 147.278 85.2405 147.885 80.5787C148.492 75.8928 148.773 73.2598 148.731 72.6796C148.615 71.1086 147.796 70.257 146.276 70.1252L144.564 70.214L135.477 70.9151C128.568 71.4204 124.772 72.1597 124.088 73.1332C123.646 73.7488 123.106 76.5101 122.468 81.4171C121.852 86.2982 121.58 89.2217 121.651 90.1887C121.722 91.1557 122.218 91.9339 123.139 92.5225C124.801 93.5914 125.65 94.3555 125.684 94.8155C125.742 95.6124 123.056 96.2098 117.627 96.6077L114.066 96.9038L112.251 97.0731L110.468 97.2034L109.131 96.9002C109.056 95.8853 109.867 94.9875 111.564 94.2075C113.284 93.4009 114.351 92.1688 114.765 90.5104C115.202 88.8255 115.927 83.6088 116.94 74.8589C117.977 66.0831 118.655 60.3956 118.975 57.7962C119.318 55.1708 119.509 53.6258 119.548 53.1613L119.647 51.5137C119.572 50.4985 119.117 49.7785 118.282 49.3535L116.82 48.8771C115.3 48.4052 114.522 47.9395 114.488 47.4802C114.422 46.5859 115.032 46.0917 116.316 45.9978L118.061 45.8702L119.922 45.807L123.557 45.5411C128.624 45.1705 131.188 45.4083 131.251 46.2543C131.283 46.6894 130.558 47.4471 129.078 48.5275C127.62 49.5818 126.772 50.4701 126.532 51.1924L126.219 52.8921C126.132 53.3844 125.845 55.4346 125.355 59.0428C124.863 62.6269 124.641 64.7452 124.689 65.3978C124.804 66.969 125.563 67.837 126.964 68.0018L128.645 67.9882L137.696 67.2897C144.823 66.7686 148.639 66.137 149.145 65.3953C149.649 64.6294 150.205 61.9156 150.812 57.2538ZM197.238 60.8207L197.145 59.5517C196.976 57.2554 196.472 55.0444 195.634 52.9186C193.167 46.5618 188.892 43.5938 182.805 44.0146C177.4 44.41 172.789 47.3353 168.974 52.7906C167.188 55.3272 165.807 58.4294 164.834 62.0972C163.883 65.7391 163.519 69.0707 163.741 72.0922L163.88 73.9775C164.225 78.6669 165.689 82.5087 168.274 85.5032C169.553 86.9893 171.021 88.0726 172.68 88.7537C174.339 89.4335 175.992 89.7136 177.64 89.5931L178.913 89.5C184.148 89.1171 188.616 86.0689 192.315 80.3548C194.065 77.6508 195.384 74.541 196.271 71.0252C197.157 67.5096 197.48 64.1081 197.238 60.8207ZM182.882 40.5825L183.682 40.5241C186.348 40.3291 188.97 40.684 191.547 41.5892C196.75 43.42 200.486 47.1565 202.753 52.7989C203.588 54.8763 204.102 57.2203 204.294 59.8308L204.412 61.4261C204.673 64.9794 204.152 68.6627 202.848 72.4762C200.222 80.1775 195.777 85.8489 189.514 89.4902C185.914 91.5767 182.417 92.7432 179.023 92.9914L177.388 93.111C171.884 93.5134 167.068 91.8001 162.935 87.9715C161.211 86.3965 159.804 84.3244 158.713 81.7553C157.622 79.1862 156.976 76.5359 156.775 73.8045L156.716 73.0069C156.441 69.2603 156.892 65.4606 158.071 61.6075C159.275 57.7528 161.035 54.3433 163.351 51.3793C165.69 48.3892 168.542 45.9205 171.908 43.9732C175.297 41.9999 178.955 40.8697 182.882 40.5825ZM239.882 57.7019L239.788 56.4329C239.62 54.1366 239.117 51.9255 238.277 49.7997C235.812 43.4429 231.535 40.4749 225.449 40.8958C220.044 41.2911 215.433 44.2165 211.619 49.6717C209.831 52.2083 208.451 55.3105 207.477 58.9783C206.527 62.6201 206.163 65.9518 206.385 68.9732L206.524 70.8586C206.868 75.5479 208.333 79.3899 210.917 82.3843C212.196 83.8704 213.665 84.9537 215.324 85.6344C216.982 86.315 218.636 86.5951 220.284 86.4746L221.556 86.3814C226.793 85.9985 231.26 82.95 234.958 77.2359C236.709 74.532 238.028 71.4221 238.915 67.9064C239.802 64.3907 240.124 60.9892 239.882 57.7019ZM225.525 37.4636L226.325 37.4051C228.992 37.2101 231.613 37.5652 234.19 38.4703C239.395 40.3011 243.13 44.0377 245.397 49.6799C246.232 51.7574 246.746 54.1014 246.938 56.7119L247.055 58.3073C247.316 61.8605 246.796 65.5438 245.492 69.3573C242.866 77.0585 238.42 82.73 232.157 86.3717C228.557 88.4575 225.061 89.625 221.668 89.8731L220.031 89.9928C214.529 90.3952 209.711 88.6819 205.579 84.8526C203.854 83.2775 202.447 81.2055 201.356 78.6364C200.266 76.0673 199.62 73.4171 199.419 70.6857L199.36 69.888C199.084 66.1414 199.536 62.3416 200.715 58.4887C201.918 54.6339 203.678 51.2245 205.995 48.2604C208.333 45.2704 211.186 42.8017 214.552 40.8543C217.941 38.8811 221.599 37.7509 225.525 37.4636ZM274.122 37.7369L274.202 38.8246C274.401 41.5318 274.106 43.8135 273.316 45.6696C273.027 46.3712 272.639 46.7398 272.155 46.7752C271.428 46.8284 270.622 45.9881 269.74 44.2543C268.878 42.4947 267.735 41.0351 266.31 39.8757C264.908 38.7145 262.972 38.2244 260.499 38.4052L260.426 38.4105C257.93 38.5931 255.969 39.2712 254.544 40.4446C252.383 42.2066 251.396 44.3566 251.582 46.8946C251.769 49.4326 253.067 51.6707 255.476 53.6087C256.099 54.1221 258.325 55.4052 262.156 57.4579C265.988 59.5107 268.762 61.4463 270.479 63.2649C272.197 65.0833 273.152 67.2978 273.344 69.9083C273.701 74.7668 272.3 78.7333 269.139 81.8079C265.975 84.8582 261.921 86.5642 256.976 86.9259L255.703 87.019C252.455 87.2565 248.216 86.7767 242.986 85.5797C241.747 85.3057 241.069 84.3832 240.954 82.812L240.871 81.6881C240.668 78.9325 240.988 76.637 241.828 74.8016C242.12 74.1483 242.449 73.8083 242.812 73.7817C243.709 73.7162 244.641 74.7902 245.608 77.0038C246.575 79.2175 248.003 80.8992 249.891 82.0491C251.801 83.173 254.211 83.6286 257.12 83.4159C260.028 83.2032 262.455 82.2237 264.397 80.4778C266.365 78.73 267.256 76.5991 267.071 74.0853C266.886 71.5714 266.071 69.6018 264.626 68.1766C263.205 66.7495 260.618 65.0311 256.862 63.0214C253.132 61.0099 250.37 59.0733 248.576 57.2118C246.806 55.3486 245.828 53.16 245.644 50.6461C245.318 46.2227 246.572 42.5708 249.407 39.6903C252.242 36.8098 255.841 35.21 260.204 34.8909L261.44 34.8004C262.41 34.7295 264.043 34.9018 266.34 35.3169C268.637 35.7322 269.797 35.9389 269.822 35.9371L270.829 35.7177L271.798 35.4646C273.228 35.36 274.003 36.1174 274.122 37.7369ZM309.252 36.334L309.358 37.7844C309.529 40.1048 309.13 41.3005 308.16 41.3714C307.99 41.3838 307.473 40.8142 306.608 39.6622C305.766 38.4845 304.361 37.603 302.393 37.0179C300.447 36.4069 297.207 36.2672 292.675 36.5987C290.105 36.7866 288.255 37.8089 287.124 39.6657C286.582 40.5802 285.937 42.5716 285.188 45.6397C284.462 48.7062 284.119 50.4932 284.156 51.0008C284.272 52.5719 284.619 53.6401 285.196 54.2054C286.378 55.3584 287.914 55.8657 289.804 55.7274C291.719 55.5874 293.28 55.1086 294.488 54.2913C296.715 52.7676 298.071 51.9879 298.556 51.9525C299.817 51.8603 300.542 53.1073 300.732 55.6937C300.923 58.28 300.712 60.2274 300.101 61.5357C299.514 62.8181 298.868 63.485 298.165 63.5364C297.462 63.5879 296.885 63.3627 296.434 62.8611C294.947 61.1958 294.128 60.3323 293.977 60.2705C292.89 59.7424 291.329 59.5528 289.292 59.7018C285.899 59.95 283.756 61.1395 282.865 63.2703C282.516 64.1464 282.169 66.0673 281.827 69.0328C281.484 71.9983 281.391 74.5446 281.548 76.6717C281.702 78.7746 282.453 80.032 283.799 80.4439C284.748 80.7392 287.076 80.7511 290.784 80.4798C294.517 80.2068 297.701 79.4272 300.336 78.1409C301.701 77.4821 303.156 76.3915 304.701 74.869C306.269 73.3205 307.162 72.5383 307.38 72.5223C307.623 72.5046 307.77 72.8463 307.821 73.5472C307.873 74.2481 307.601 75.5196 307.005 77.3615C306.432 79.1775 305.731 80.5775 304.901 81.5616C304.096 82.5439 302.469 83.1246 300.021 83.3037L298.455 83.3818L285.436 84.2976C275.278 85.0404 270.028 85.3881 269.684 85.3403C268.722 85.1919 268.219 84.8156 268.174 84.2113C268.142 83.7762 268.751 83.2699 270 82.6925C271.25 82.1152 271.976 81.7218 272.18 81.5124C272.863 80.855 273.424 79.5381 273.863 77.5618L274.185 75.9709C274.308 75.33 274.533 73.7341 274.856 71.1829L275.668 64.8173C276.119 61.0176 276.708 56.4422 277.436 51.0913C278.162 45.7161 278.448 41.9892 278.295 39.9104C278.238 39.1369 277.588 38.4069 276.343 37.7202C275.099 37.0336 274.45 36.3277 274.396 35.6026C274.343 34.8775 278.449 34.2126 286.715 33.608L299.724 32.5472L302.957 32.2743L304.518 32.1236C306.312 31.9924 307.516 32.2933 308.131 33.0259C308.768 33.7327 309.141 34.8355 309.252 36.334Z" fill="#B23E3E"/>
<path d="M164.493 133.942L164.541 134.594C164.584 135.175 165.563 135.394 167.477 135.254L169.769 135.087C174.325 134.754 178.03 133.268 180.883 130.628C181.957 129.651 182.868 128.296 183.618 126.565C184.39 124.807 184.704 122.938 184.558 120.956L184.473 119.795C184.256 116.846 183.062 114.698 180.892 113.35C178.745 112 176.133 111.438 173.053 111.663L171.526 111.775C169.03 111.957 167.582 112.658 167.185 113.878C166.966 114.551 166.455 118.039 165.652 124.343C164.872 130.645 164.486 133.845 164.493 133.942ZM149.685 159.739C149.64 159.136 150.214 158.486 151.405 157.791C152.62 157.07 153.514 156.3 154.087 155.48C155.388 153.612 156.613 146.754 157.765 134.908C158.15 130.87 158.225 127.243 157.989 124.029C157.752 120.814 157.773 118.625 158.053 117.462C158.333 116.3 158.472 115.694 158.469 115.646C158.412 114.872 157.654 114.357 156.197 114.099C154.765 113.839 154.021 113.322 153.964 112.548C153.905 111.752 154.821 111.125 156.713 110.671C161.12 109.62 165.602 108.928 170.159 108.594L172.159 108.447C180.934 107.806 186.761 109.822 189.639 114.496C190.607 116.054 191.175 117.98 191.344 120.277C191.712 125.28 189.904 129.52 185.918 132.994C184.156 134.533 182.061 135.719 179.637 136.552C177.237 137.384 174.085 137.943 170.182 138.228L167.157 138.34C165.533 138.459 164.402 139.162 163.765 140.447C163.512 140.976 163.197 142.821 162.821 145.984C162.466 149.121 162.342 151.414 162.449 152.865C162.556 154.315 162.917 155.418 163.533 156.175C164.148 156.907 164.867 157.402 165.69 157.658C166.51 157.889 166.935 158.199 166.964 158.585C167.047 159.722 165.72 160.389 162.981 160.59L161.999 160.662C161.441 160.703 159.848 160.746 157.22 160.792L153.134 160.909C150.904 161.072 149.754 160.682 149.685 159.739ZM206.101 109.282L204.646 109.389C202.125 109.573 200.639 110.241 200.188 111.392C199.761 112.54 199.42 114.534 199.165 117.372C198.933 120.184 198.645 122.878 198.298 125.455C197.951 128.031 197.798 129.599 197.839 130.154C197.893 130.879 198.756 131.181 200.428 131.058L201.846 130.955L202.171 130.894C206.825 130.554 210.443 129.209 213.023 126.856C215.629 124.503 216.786 121.356 216.496 117.416L216.433 117.056C216.253 114.615 215.233 112.661 213.37 111.193C211.506 109.701 209.083 109.064 206.101 109.282ZM182.732 157.359C182.719 157.19 183.132 156.832 183.969 156.284L184.879 155.744C185.957 155.155 186.576 154.781 186.734 154.624C187.647 153.779 188.258 152.471 188.566 150.699C189.399 146.118 190.301 139.005 191.274 129.358C192.27 119.711 192.711 114.114 192.597 112.566C192.542 111.817 191.885 111.16 190.625 110.597C189.363 110.008 188.713 109.46 188.676 108.953C188.605 107.986 192.896 107.186 201.55 106.553L204.056 106.333C210.31 105.876 214.927 106.523 217.908 108.274C220.91 109.997 222.541 112.625 222.801 116.153C223.233 122.027 220.874 126.902 215.725 130.778C213.461 132.475 212.364 133.795 212.433 134.737C212.449 134.955 213.583 137.29 215.837 141.742C218.089 146.195 219.698 149.017 220.663 150.211C221.629 151.404 222.977 152.18 224.709 152.539C226.442 152.898 227.326 153.32 227.362 153.803C227.397 154.286 226.959 154.793 226.047 155.321C225.134 155.825 223.393 156.172 220.823 156.36C218.278 156.546 216.252 155.831 214.743 154.216C213.258 152.575 211.765 149.683 210.267 145.54C208.79 141.37 207.422 138.506 206.162 136.946C204.924 135.359 202.972 134.663 200.306 134.858C198.9 134.961 197.944 135.723 197.439 137.146C195.903 141.438 195.31 145.965 195.661 150.727C195.751 151.96 196.34 153.01 197.428 153.879C198.513 154.723 199.081 155.483 199.131 156.159C199.197 157.054 196.466 157.703 190.939 158.108L185.89 158.55C183.854 158.699 182.801 158.302 182.732 157.359ZM261.936 122.987L261.843 121.719C261.674 119.422 261.17 117.211 260.332 115.085C257.865 108.728 253.589 105.761 247.503 106.182C242.098 106.577 237.487 109.502 233.672 114.958C231.885 117.494 230.505 120.596 229.532 124.264C228.581 127.906 228.217 131.237 228.439 134.259L228.578 136.144C228.923 140.833 230.387 144.676 232.972 147.67C234.251 149.156 235.719 150.239 237.378 150.92C239.037 151.601 240.69 151.881 242.338 151.76L243.611 151.667C248.846 151.284 253.314 148.235 257.013 142.522C258.763 139.817 260.082 136.708 260.969 133.192C261.855 129.677 262.178 126.275 261.936 122.987ZM247.58 102.75L248.38 102.691C251.046 102.496 253.668 102.851 256.245 103.756C261.448 105.587 265.184 109.323 267.451 114.966C268.286 117.043 268.8 119.387 268.992 121.998L269.109 123.593C269.371 127.146 268.85 130.83 267.546 134.643C264.92 142.344 260.475 148.015 254.212 151.657C250.612 153.743 247.115 154.91 243.721 155.159L242.085 155.278C236.582 155.681 231.765 153.967 227.633 150.138C225.909 148.563 224.501 146.491 223.411 143.922C222.32 141.353 221.674 138.702 221.473 135.971L221.414 135.174C221.139 131.427 221.59 127.627 222.769 123.774C223.973 119.919 225.733 116.51 228.049 113.546C230.388 110.556 233.24 108.087 236.606 106.14C239.995 104.167 243.653 103.037 247.58 102.75ZM286.421 103.59L285.148 103.683C281.827 103.926 279.938 104.915 279.48 106.65C279.46 106.699 278.605 113.141 276.917 125.974C275.253 138.806 274.458 145.717 274.531 146.708C274.604 147.699 274.965 148.293 275.613 148.488C276.285 148.682 277.53 148.712 279.348 148.579L281.893 148.393C288.607 147.902 294.055 144.928 298.236 139.47C300.28 136.793 301.748 133.709 302.636 130.217C303.525 126.726 303.856 123.445 303.63 120.376L303.582 119.723C303.473 118.905 303.403 118.278 303.371 117.843C303.194 115.766 302.619 113.742 301.645 111.772C299.785 108.02 297.021 105.561 293.352 104.396C291.131 103.683 288.821 103.414 286.421 103.59ZM267.28 104.297C267.156 102.605 273.057 101.324 284.983 100.451C296.933 99.5774 304.789 102.988 308.547 110.684C309.836 113.288 310.583 116.003 310.791 118.831L310.861 119.774C311.161 123.858 310.576 127.996 309.105 132.187C307.632 136.353 305.361 139.934 302.292 142.928C299.246 145.921 295.845 148.065 292.09 149.361C288.335 150.656 283.645 151.509 278.021 151.921L277.04 151.993L276.092 152.025L272.383 152.297L268.597 152.5L267.648 152.533L266.77 152.525L264.406 152.698C263.098 152.794 262.423 152.563 262.382 152.008C262.329 151.283 262.934 150.57 264.198 149.87C265.485 149.144 266.386 148.459 266.899 147.813C267.435 147.142 267.992 145.279 268.572 142.223C269.151 139.167 270.006 132.239 271.137 121.44C271.612 116.958 271.672 112.312 271.318 107.501C271.247 106.534 270.711 105.881 269.711 105.542C268.112 105.002 267.301 104.588 267.28 104.297ZM313.392 105.081C313.309 103.945 312.749 103.135 311.714 102.651C309.745 101.726 308.74 100.973 308.697 100.394C308.633 99.5233 312.879 98.7752 321.436 98.1495C323.739 97.981 324.917 98.2594 324.97 98.9844C324.989 99.2503 324.341 99.8814 323.026 100.877C321.709 101.872 320.896 103.073 320.586 104.482C320.495 104.901 320.202 107.548 319.708 112.42C319.237 117.29 318.725 121.604 318.173 125.363C317.644 129.095 317.481 132.352 317.685 135.131C317.89 137.911 319.07 140.207 321.227 142.017C323.405 143.802 326.106 144.576 329.33 144.341C335.657 143.878 340.083 140.772 342.609 135.022C343.653 132.637 344.715 127.529 345.796 119.698C346.875 111.842 347.351 107.057 347.225 105.34C347.099 103.624 346.671 102.282 345.942 101.315C344.105 98.8727 343.186 97.6398 343.184 97.6159C343.122 96.7703 345.467 96.1729 350.218 95.8254C354.969 95.478 357.379 95.7758 357.448 96.7189C357.503 97.4678 356.798 98.3214 355.333 99.2787C353.869 100.237 352.9 101.474 352.427 102.991C352.289 103.438 351.718 107.283 350.716 114.526C349.737 121.767 348.903 127.162 348.214 130.712C347.548 134.235 346.615 136.964 345.417 138.899C341.843 144.653 335.959 147.829 327.766 148.428C323.355 148.751 319.583 147.836 316.452 145.683C313.318 143.506 311.606 140.449 311.317 136.509L311.207 135.022C311.067 133.112 311.18 130.005 311.545 125.702C311.935 121.396 312.251 117.728 312.491 114.697C312.729 111.642 312.941 109.39 313.127 107.943C313.335 106.47 313.424 105.516 313.392 105.081ZM376.395 93.4739C377.946 93.3604 379.978 93.4907 382.492 93.8665C385.005 94.2415 386.925 94.4897 388.249 94.612C389.598 94.7316 390.412 94.8548 390.689 94.9798C391.469 95.3122 391.934 96.5053 392.085 98.5598C392.352 102.185 392.029 104.578 391.115 105.739L390.56 106.144C389.808 106.199 388.884 105.222 387.785 103.211C385.279 98.6316 381.263 96.5443 375.736 96.9484C372.828 97.1612 369.893 98.3604 366.934 100.544C364.993 101.975 363.157 104.017 361.427 106.671C359.721 109.323 358.469 112.355 357.672 115.767C356.874 119.155 356.581 122.311 356.797 125.236C357.207 130.819 358.795 135.004 361.559 137.791C364.347 140.577 367.983 141.806 372.468 141.478C376.298 141.197 380.317 139.02 384.526 134.945C386.347 133.184 387.389 132.293 387.656 132.274C388.505 132.212 388.963 132.641 389.03 133.559C389.096 134.453 388.609 135.947 387.569 138.039C386.528 140.133 385.577 141.442 384.714 141.967C383.851 142.492 381.843 143.197 378.692 144.084C375.54 144.971 373.273 145.464 371.892 145.565L370.655 145.656C364.958 146.072 360.127 144.506 356.162 140.956C352.221 137.405 350.039 132.766 349.618 127.036C348.985 118.431 351.296 110.754 356.551 104.002C358.913 100.986 361.829 98.5492 365.299 96.6914C368.793 94.8318 372.492 93.7593 376.395 93.4739ZM431.051 91.1531L431.117 92.0593C431.366 95.4434 431.276 97.6983 430.847 98.8231C430.443 99.9461 430.058 100.521 429.694 100.548C429.089 100.592 428.439 99.8743 427.745 98.3941C427.051 96.9139 426 95.8724 424.591 95.2706C423.206 94.6678 420.647 94.5021 416.914 94.7751C415.581 94.8726 414.605 95.1996 413.988 95.7545C413.37 96.2863 412.898 97.1585 412.572 98.3737C412.272 99.5863 411.484 105.768 410.208 116.918C408.955 128.043 408.372 134.209 408.461 135.418C408.548 136.603 408.841 137.431 409.339 137.906C409.835 138.356 410.669 138.768 411.843 139.144C413.014 139.496 413.622 139.974 413.667 140.578C413.727 141.4 410.315 142.063 403.43 142.566L398.454 143.003L397.185 143.132C395.658 143.244 394.87 142.974 394.822 142.321C394.774 141.668 395.277 141.06 396.333 140.497C398.466 139.345 399.712 138.561 400.071 138.146C400.453 137.705 400.798 136.768 401.108 135.336C401.441 133.903 402.292 127.583 403.661 116.377C405.03 105.17 405.664 98.8789 405.563 97.5006C405.461 96.1232 403.823 95.5506 400.647 95.7829C397.472 96.0151 395.173 96.5717 393.751 97.4537C392.354 98.3329 391.214 99.7414 390.333 101.677C389.451 103.588 388.561 104.576 387.664 104.642C387.082 104.685 386.733 103.921 386.618 102.35C386.5 100.754 386.883 98.5022 387.766 95.595C388.157 94.2778 388.717 93.4473 389.447 93.1025C389.682 92.9882 396.563 92.436 410.089 91.4469L425.036 90.3901L429.604 89.8737C430.501 89.8082 430.983 90.2346 431.051 91.1531Z" fill="#B23E3E"/>
<path d="M75.5018 118.726C75.825 118.703 75.9967 118.829 76.0171 119.106C76.0238 119.198 75.9483 119.354 75.7903 119.574C75.644 119.793 75.578 120 75.5924 120.196C75.606 120.379 76.8183 122.426 79.2296 126.335C79.8086 127.265 80.1732 127.724 80.3232 127.713C80.5887 127.694 81.6605 126.33 83.5388 123.624C85.4162 120.906 86.3435 119.392 86.3206 119.081C86.3079 118.909 86.2685 118.767 86.2023 118.655L85.9852 118.307C85.9606 117.974 86.1503 117.792 86.5543 117.762L86.918 117.735L87.7011 117.73C88.0486 117.728 88.3091 117.72 88.4824 117.708C90.0753 117.592 90.8815 117.66 90.9002 117.913C90.91 118.051 90.3695 118.351 89.278 118.813C88.6584 119.078 88.0228 119.657 87.3686 120.55C85.514 123.103 83.6046 126.333 81.6404 130.238C81.3159 130.875 81.002 132.13 80.6988 134.004C80.4073 135.877 80.3071 137.435 80.3986 138.678C80.4367 139.196 80.8239 139.648 81.5602 140.034C82.3072 140.407 82.6879 140.691 82.7023 140.887C82.7277 141.233 81.2975 141.511 78.4117 141.722L76.0928 141.909L75.5067 141.986C74.5948 142.054 74.1249 141.897 74.0969 141.517C74.0851 141.356 74.4658 141.01 75.2391 140.479C76.0116 139.936 76.4955 139.415 76.6908 138.914C77.3859 137.163 77.6305 134.888 77.4248 132.091C77.3681 131.32 76.9513 129.834 76.1744 127.634C75.4082 125.422 74.6615 123.712 73.9344 122.504C73.2188 121.295 72.6385 120.585 72.1937 120.375L71.7455 120.199L71.3 120.059C70.7636 119.866 70.4908 119.707 70.4814 119.58C70.4722 119.453 70.6003 119.38 70.8657 119.361L73.6964 119.032C73.9504 119.014 74.1977 118.984 74.4384 118.944L74.7995 118.882C75.21 118.783 75.444 118.731 75.5018 118.726ZM104.074 125.576L104.029 124.973C103.949 123.879 103.709 122.826 103.31 121.814C102.136 118.787 100.099 117.373 97.2006 117.574C94.6273 117.762 92.4317 119.155 90.6148 121.752C89.7642 122.961 89.1064 124.438 88.6433 126.184C88.19 127.919 88.0166 129.505 88.1224 130.944L88.1891 131.842C88.3526 134.075 89.0504 135.904 90.2806 137.33C90.8904 138.038 91.59 138.553 92.3793 138.878C93.1695 139.202 93.9562 139.335 94.7411 139.278L95.3473 139.233C97.8406 139.052 99.9677 137.6 101.73 134.879C102.562 133.591 103.191 132.11 103.613 130.436C104.035 128.762 104.189 127.142 104.074 125.576ZM97.2371 115.94L97.6184 115.911C98.8877 115.818 100.137 115.987 101.363 116.418C103.842 117.29 105.62 119.07 106.7 121.757C107.098 122.746 107.342 123.862 107.434 125.106L107.49 125.865C107.614 127.557 107.366 129.311 106.746 131.127C105.495 134.794 103.378 137.495 100.395 139.229C98.6815 140.222 97.0157 140.778 95.3997 140.896L94.6211 140.953C92.0006 141.145 89.7064 140.329 87.7393 138.506C86.9179 137.756 86.2476 136.769 85.7282 135.545C85.2088 134.322 84.9013 133.06 84.8057 131.759L84.7777 131.379C84.6465 129.596 84.8615 127.786 85.4229 125.951C85.9958 124.115 86.8338 122.493 87.9366 121.081C89.0504 119.657 90.4095 118.481 92.0122 117.554C93.6255 116.614 95.3677 116.076 97.2371 115.94ZM106.705 118.649C106.665 118.109 106.399 117.723 105.906 117.493C104.969 117.052 104.49 116.694 104.469 116.417C104.439 116.003 106.46 115.646 110.536 115.348C111.632 115.269 112.193 115.401 112.218 115.746C112.227 115.873 111.919 116.174 111.292 116.647C110.666 117.121 110.278 117.694 110.13 118.364C110.087 118.564 109.947 119.824 109.712 122.144C109.488 124.463 109.245 126.517 108.982 128.307C108.73 130.085 108.652 131.635 108.749 132.959C108.847 134.283 109.409 135.376 110.435 136.238C111.473 137.088 112.759 137.457 114.294 137.344C117.307 137.124 119.415 135.645 120.618 132.907C121.114 131.771 121.62 129.339 122.135 125.61C122.65 121.869 122.876 119.59 122.816 118.772C122.756 117.955 122.552 117.316 122.205 116.856C121.33 115.693 120.892 115.106 120.891 115.095C120.862 114.692 121.978 114.408 124.241 114.242C126.503 114.076 127.651 114.218 127.684 114.667C127.71 115.024 127.375 115.431 126.677 115.886C125.979 116.343 125.518 116.931 125.292 117.654C125.227 117.867 124.955 119.698 124.478 123.147C124.012 126.595 123.615 129.164 123.287 130.854C122.97 132.532 122.525 133.832 121.954 134.754C120.253 137.493 117.451 139.005 113.55 139.291C111.449 139.444 109.653 139.009 108.162 137.983C106.67 136.947 105.855 135.491 105.716 133.615L105.665 132.907C105.598 131.998 105.651 130.519 105.826 128.469C106.011 126.418 106.162 124.672 106.275 123.228C106.389 121.774 106.49 120.701 106.578 120.012C106.678 119.31 106.72 118.857 106.705 118.649ZM132.019 115.062L131.327 115.113C130.127 115.2 129.419 115.519 129.204 116.066C129.001 116.613 128.838 117.563 128.717 118.914C128.607 120.253 128.469 121.536 128.304 122.763C128.138 123.99 128.066 124.736 128.086 125.001C128.111 125.346 128.522 125.489 129.318 125.432L129.994 125.382L130.148 125.354C132.364 125.191 134.087 124.551 135.316 123.43C136.557 122.31 137.108 120.811 136.97 118.936L136.94 118.764C136.854 117.602 136.368 116.671 135.482 115.972C134.594 115.262 133.44 114.958 132.019 115.062ZM120.891 137.955C120.886 137.874 121.082 137.704 121.481 137.444L121.914 137.187C122.427 136.906 122.722 136.728 122.798 136.653C123.233 136.251 123.523 135.628 123.67 134.784C124.066 132.602 124.496 129.216 124.959 124.622C125.434 120.028 125.643 117.362 125.589 116.626C125.563 116.268 125.25 115.956 124.65 115.688C124.05 115.408 123.74 115.146 123.722 114.905C123.689 114.444 125.732 114.063 129.852 113.762L131.046 113.657C134.024 113.44 136.223 113.748 137.642 114.581C139.072 115.402 139.849 116.653 139.972 118.334C140.178 121.131 139.055 123.452 136.602 125.298C135.524 126.105 135.002 126.734 135.035 127.183C135.042 127.287 135.583 128.398 136.656 130.519C137.729 132.639 138.495 133.983 138.954 134.551C139.414 135.12 140.056 135.489 140.881 135.66C141.706 135.831 142.127 136.032 142.144 136.262C142.161 136.493 141.952 136.734 141.518 136.985C141.083 137.225 140.254 137.39 139.03 137.479C137.818 137.568 136.853 137.227 136.135 136.459C135.428 135.677 134.717 134.3 134.003 132.327C133.3 130.342 132.649 128.978 132.049 128.234C131.459 127.479 130.53 127.148 129.26 127.241C128.591 127.29 128.136 127.653 127.895 128.33C127.163 130.374 126.882 132.53 127.048 134.797C127.091 135.385 127.371 135.885 127.89 136.298C128.407 136.7 128.677 137.062 128.7 137.384C128.732 137.811 127.432 138.119 124.8 138.312L122.395 138.522C121.426 138.593 120.924 138.405 120.891 137.955Z" fill="#B23E3E"/>
</svg>
