<svg width="342" height="342" viewBox="0 0 342 342" fill="none" xmlns="http://www.w3.org/2000/svg">
<g filter="url(#filter0_dd_1369_3340)">
<rect x="11" y="11" width="320" height="320" rx="160" fill="#B23E3E"/>
<path d="M221.908 232.092H211.726V221.91H201.545V211.728H191.363V201.547H181.181V191.365H160.817V201.547H150.635V211.728H140.454V221.91H130.272V232.092H120.09V221.91H109.908V211.728H120.09V201.547H130.272V191.365H140.454V181.183H150.635V160.819H140.454V150.637H130.272V140.456H120.09V130.274H109.908V120.092H120.09V109.91H130.272V120.092H140.454V130.274H150.635V140.456H160.817V150.637H181.181V140.456H191.363V130.274H201.545V120.092H211.726V109.91H221.908V120.092H232.09V130.274H221.908V140.456H211.726V150.637H201.545V160.819H191.363V181.183H201.545V191.365H211.726V201.547H221.908V211.728H232.09V221.91H221.908V232.092Z" fill="#FCF8EF"/>
</g>
<defs>
<filter id="filter0_dd_1369_3340" x="0" y="0" width="342" height="342" filterUnits="userSpaceOnUse" color-interpolation-filters="sRGB">
<feFlood flood-opacity="0" result="BackgroundImageFix"/>
<feColorMatrix in="SourceAlpha" type="matrix" values="0 0 0 0 0 0 0 0 0 0 0 0 0 0 0 0 0 0 127 0" result="hardAlpha"/>
<feOffset/>
<feGaussianBlur stdDeviation="2"/>
<feComposite in2="hardAlpha" operator="out"/>
<feColorMatrix type="matrix" values="0 0 0 0 0.376471 0 0 0 0 0.376471 0 0 0 0 0.376471 0 0 0 0.08 0"/>
<feBlend mode="normal" in2="BackgroundImageFix" result="effect1_dropShadow_1369_3340"/>
<feColorMatrix in="SourceAlpha" type="matrix" values="0 0 0 0 0 0 0 0 0 0 0 0 0 0 0 0 0 0 127 0" result="hardAlpha"/>
<feMorphology radius="3" operator="dilate" in="SourceAlpha" result="effect2_dropShadow_1369_3340"/>
<feOffset/>
<feGaussianBlur stdDeviation="4"/>
<feComposite in2="hardAlpha" operator="out"/>
<feColorMatrix type="matrix" values="0 0 0 0 0.376471 0 0 0 0 0.376471 0 0 0 0 0.376471 0 0 0 0.04 0"/>
<feBlend mode="normal" in2="effect1_dropShadow_1369_3340" result="effect2_dropShadow_1369_3340"/>
<feBlend mode="normal" in="SourceGraphic" in2="effect2_dropShadow_1369_3340" result="shape"/>
</filter>
</defs>
</svg>
