<svg width="726" height="296" viewBox="0 0 726 296" fill="none" xmlns="http://www.w3.org/2000/svg">
<path d="M156.22 70.8868C158.566 70.7146 161.64 70.9132 165.442 71.4826C169.244 72.052 172.147 72.4291 174.15 72.614C176.191 72.7962 177.421 72.9825 177.84 73.1732C179.021 73.6768 179.724 75.4879 179.952 78.6067C180.356 84.1104 179.866 87.743 178.484 89.5044L177.645 90.1193C176.508 90.2027 175.11 88.7192 173.448 85.6688C169.658 78.7169 163.584 75.5476 155.224 76.1612C150.825 76.4841 146.387 78.3038 141.911 81.6203C138.975 83.791 136.197 86.8906 133.581 90.9191C131.001 94.9449 129.108 99.5473 127.903 104.726C126.695 109.869 126.253 114.66 126.579 119.099C127.2 127.575 129.601 133.928 133.781 138.158C137.998 142.386 143.498 144.251 150.281 143.753C156.074 143.328 162.153 140.023 168.519 133.838C171.273 131.165 172.85 129.813 173.253 129.783C174.537 129.689 175.229 130.339 175.332 131.734C175.431 133.091 174.694 135.359 173.121 138.535C171.547 141.713 170.108 143.7 168.803 144.497C167.497 145.293 164.46 146.364 159.694 147.71C154.927 149.057 151.499 149.806 149.409 149.959L147.539 150.097C138.923 150.729 131.616 148.352 125.618 142.963C119.657 137.572 116.358 130.529 115.721 121.833C114.763 108.771 118.259 97.1159 126.207 86.8678C129.779 82.2896 134.189 78.5905 139.438 75.7706C144.723 72.9481 150.317 71.3201 156.22 70.8868ZM191.625 139.944C193.425 140.365 197.277 140.36 203.179 139.926C209.119 139.49 213.406 138.382 216.04 136.603C218.674 134.823 221.041 132.418 223.141 129.386C225.239 126.318 226.874 124.741 228.047 124.655C228.414 124.628 228.641 125.22 228.73 126.431C229.045 130.724 227.963 135.322 225.483 140.225C224.359 142.484 221.982 143.748 218.352 144.014L208.453 144.74L206.8 144.806L201.74 145.178L198.272 145.377L194.861 145.627C177.519 146.9 168.82 147.152 168.764 146.381C168.683 145.28 169.65 144.139 171.665 142.959C173.679 141.778 175.017 140.665 175.677 139.621C176.336 138.539 176.796 137.271 177.057 135.812C177.355 134.352 178.628 124.815 180.876 107.201C183.158 89.5487 184.233 79.8234 184.101 78.0256C183.97 76.2276 183.068 74.9843 181.395 74.2956C178.24 72.9778 176.638 72.0072 176.593 71.3835C176.52 70.3928 177.656 69.8113 180.004 69.6391L181.657 69.573L196.615 68.475L198.262 68.2989C202.038 68.0217 203.959 68.3233 204.023 69.2039C204.109 70.3781 202.784 71.6558 200.046 73.0372C197.307 74.3818 195.643 76.3299 195.056 78.8814C194.467 81.3962 193.092 91.3095 190.933 108.621C188.773 125.933 187.729 135.065 187.799 136.019C187.949 138.074 189.225 139.383 191.625 139.944ZM248.377 108.721L257.616 108.043L258.053 107.955L261.728 107.575C262.019 107.516 262.312 107.476 262.605 107.455C265.354 107.253 266.68 106.473 266.58 105.116L266.548 104.676L266.461 104.239L266.142 102.16L265.884 100.906C265.768 100.325 265.698 99.887 265.677 99.5935L265.416 98.2847C265.241 97.4122 265.143 96.8291 265.122 96.5356C264.511 88.2067 263.077 81.9672 260.819 77.8169C260.478 77.1781 260.27 76.8612 260.197 76.8666L260.032 76.8787C259.665 76.9056 259.07 77.8346 258.246 79.6658C257.456 81.4575 256.476 83.4293 255.306 85.5808C247.772 99.4507 244.042 106.918 244.12 107.982L244.144 108.312C244.179 108.789 245.591 108.925 248.377 108.721ZM234.498 126.063C232.513 130.672 231.562 133.527 231.642 134.628C231.72 135.691 232.191 136.837 233.055 138.066C233.956 139.29 234.409 139.94 234.415 140.013C234.506 141.26 233.957 142.075 232.769 142.457C231.182 142.943 228.319 143.337 224.175 143.641L217.465 144.134C214.973 144.317 213.675 143.711 213.573 142.317C213.495 141.253 214.681 140.078 217.129 138.791C219.579 137.505 221.433 135.893 222.691 133.957C223.987 132.017 226.591 127.325 230.506 119.882C234.421 112.438 237.258 107.139 239.017 103.985C240.774 100.794 243.176 96.0992 246.223 89.8996C249.268 83.6632 252.965 77.0286 257.316 69.9955C259.624 66.2847 261.841 64.3513 263.968 64.1952C265.251 64.101 266.317 64.5577 267.165 65.5653C269.425 68.2398 270.936 71.2644 271.7 74.6389C271.914 75.5455 272.192 77.5907 272.536 80.7749C272.878 83.9221 273.156 86.2073 273.371 87.6302L275.676 100.962C278.641 118.303 280.352 127.806 280.806 129.469C281.295 131.13 282.581 132.567 284.66 133.779C286.775 134.989 287.859 135.943 287.91 136.639C288.015 138.07 284.016 139.083 275.913 139.678C267.848 140.27 263.781 140.107 263.714 139.19C263.647 138.273 264.096 137.354 265.06 136.435L266.049 135.587L267.046 134.851C267.913 134.123 268.522 133.378 268.871 132.614C269.258 131.848 269.345 130.016 269.132 127.117C268.543 119.082 267.528 114.527 266.086 113.452C265.306 112.882 261.03 112.883 253.257 113.453C245.485 114.024 240.732 115.313 238.999 117.322C237.98 118.503 236.48 121.417 234.498 126.063ZM293.882 99.0725C296.141 81.6059 297.203 71.9554 297.068 70.1209C296.931 68.2496 295.919 67.0144 294.033 66.4151C290.861 65.3936 289.252 64.5527 289.203 63.8922C289.109 62.6081 293.461 61.643 302.261 60.9972L310.776 60.2614C312.421 60.067 313.262 59.9683 313.298 59.9657C315.572 59.7988 316.754 60.3392 316.845 61.5867C316.883 62.1002 315.23 63.1991 311.889 64.883C309.971 65.8722 308.752 67.3266 308.229 69.2463C307.742 71.1633 306.321 81.1907 303.964 99.3285C301.641 117.427 300.549 127.43 300.689 129.338C300.826 131.209 302.121 132.516 304.57 133.258C307.019 133.964 308.285 134.904 308.371 136.078C308.433 136.922 303.368 137.719 293.175 138.467L284.663 139.256L283.398 139.349C281.822 139.465 281.006 139.157 280.952 138.422C280.874 137.358 282.563 135.999 286.017 134.344C287.941 133.428 289.159 131.697 289.673 129.151C290.221 126.565 291.623 116.539 293.882 99.0725ZM377.964 132.187C373.491 132.516 371.192 131.836 371.068 130.148L374.331 124.873C375.424 122.69 376.229 119.846 376.747 116.341C380.158 93.4776 381.649 79.1107 381.218 73.24C381.149 72.2861 380.783 71.8334 380.123 71.8818C379.5 71.9276 374.823 80.2757 366.091 96.9262C357.359 113.577 352.493 122.64 351.495 124.115C349.636 126.907 347.625 128.383 345.462 128.542C344.252 128.63 340.951 120.056 335.558 102.819C330.167 85.5823 327.068 76.9935 326.262 77.0527C325.088 77.1388 324.046 81.5313 323.136 90.23C322.223 98.8921 321.259 106.119 320.247 111.911C319.233 117.703 318.936 123.461 319.355 129.185L319.874 130.973L321.081 133.872C321.192 135.376 319.707 136.243 316.627 136.469C311.787 136.824 308.426 136.72 306.541 136.156L304.925 135.224C304.831 133.94 305.814 132.263 307.874 130.194C309.971 128.122 311.553 124.317 312.622 118.779C316.977 96.2154 318.773 79.7418 318.012 69.3583C317.929 68.2208 317.466 66.9452 316.626 65.5314C315.819 64.0782 315.382 62.893 315.315 61.9756C315.226 60.7649 317.747 59.971 322.88 59.5943C325.228 59.4221 327.258 59.7157 328.972 60.4752C330.721 61.1953 332.457 63.2627 334.182 66.6773C335.904 70.0554 338.089 75.9815 340.737 84.456C343.419 92.8911 345.222 98.6241 346.145 101.655C347.067 104.686 347.767 106.94 348.243 108.417L349.295 111.439L350.464 113.068C351.271 113.009 356.107 104.557 364.972 87.7124C373.835 70.8309 379.41 61.1443 381.697 58.6524C384.018 56.1212 387.47 54.6873 392.053 54.3509C396.673 54.0118 399.028 54.466 399.12 55.7135L397.943 57.0172L395.904 58.6055C393.972 60.4074 392.704 62.7322 392.102 65.5798C391.499 68.4276 390.202 80.401 388.21 101.5L386.56 118.221L386.507 121.268C386.62 122.809 387.517 124.237 389.199 125.553L392.898 128.49C393.024 130.215 388.046 131.447 377.964 132.187Z" fill="#B23E3E"/>
<path d="M259.236 161.204C265.138 160.77 268.141 161.27 268.246 162.7C268.311 163.581 267.078 164.853 264.545 166.513C262.013 168.174 260.364 169.568 259.599 170.694C258.834 171.821 253.849 181.003 244.643 198.241C235.435 215.443 229.946 225.53 228.172 228.501C223.41 236.448 219.893 240.506 217.62 240.673C215.053 240.861 212.965 238.285 211.357 232.943C210.973 231.718 209.417 222.555 206.69 205.454C203.998 188.351 202.266 178.555 201.495 176.066C200.723 173.578 199.53 171.895 197.917 171.016C195.075 169.455 193.624 168.27 193.565 167.463C193.506 166.655 197.565 165.952 205.74 165.352C213.954 164.749 218.117 165.236 218.233 166.814C218.263 167.218 217.814 167.878 216.886 168.795L214.975 170.65C213.97 172.014 213.558 173.945 213.741 176.44C213.921 178.898 215.158 187.218 217.451 201.399C219.743 215.58 221.095 223.21 221.505 224.287C221.913 225.327 222.319 225.831 222.722 225.802C224.665 225.659 232.304 211.689 245.638 183.892C248.802 177.279 250.27 172.413 250.041 169.294C250.017 168.963 249.505 168.263 248.506 167.192C247.542 166.12 247.051 165.455 247.032 165.198C246.882 163.144 250.949 161.812 259.236 161.204ZM313.537 188.592L313.395 186.665C313.14 183.18 312.378 179.823 311.11 176.597C307.38 166.947 300.912 162.443 291.707 163.081C283.531 163.681 276.558 168.122 270.789 176.402C268.085 180.253 265.997 184.962 264.525 190.529C263.088 196.058 262.536 201.115 262.873 205.702L263.082 208.564C263.604 215.681 265.82 221.514 269.728 226.059C271.663 228.315 273.884 229.959 276.392 230.992C278.901 232.026 281.402 232.451 283.896 232.268L285.82 232.127C293.74 231.545 300.495 226.917 306.09 218.244C308.738 214.139 310.732 209.418 312.074 204.082C313.416 198.745 313.902 193.582 313.537 188.592ZM291.822 157.871L293.032 157.782C297.066 157.486 301.031 158.026 304.928 159.399C312.799 162.178 318.449 167.85 321.879 176.415C323.141 179.569 323.918 183.126 324.209 187.089L324.386 189.511C324.782 194.905 323.994 200.495 322.021 206.284C318.05 217.974 311.326 226.583 301.853 232.11C296.408 235.278 291.121 237.048 285.988 237.426L283.512 237.608C275.189 238.219 267.903 235.618 261.653 229.806C259.045 227.415 256.917 224.269 255.267 220.37C253.617 216.47 252.64 212.447 252.336 208.3L252.247 207.09C251.831 201.403 252.514 195.635 254.296 189.786C256.117 183.935 258.779 178.759 262.282 174.26C265.82 169.722 270.134 165.975 275.225 163.019C280.35 160.022 285.884 158.307 291.822 157.871ZM327.524 166.096C327.398 164.371 326.552 163.142 324.987 162.409C322.009 161.005 320.489 159.862 320.424 158.981C320.327 157.66 326.75 156.525 339.691 155.574C343.175 155.319 344.956 155.742 345.037 156.843C345.067 157.247 344.086 158.203 342.097 159.714C340.105 161.225 338.875 163.05 338.406 165.186C338.268 165.824 337.825 169.84 337.078 177.236C336.365 184.629 335.592 191.178 334.757 196.884C333.956 202.549 333.71 207.493 334.019 211.712C334.328 215.931 336.114 219.415 339.374 222.163C342.669 224.873 346.755 226.049 351.631 225.691C361.201 224.988 367.895 220.273 371.716 211.545C373.293 207.925 374.9 200.171 376.536 188.284C378.168 176.359 378.889 169.095 378.698 166.49C378.507 163.885 377.86 161.848 376.758 160.379C373.979 156.673 372.589 154.802 372.586 154.766C372.492 153.481 376.038 152.575 383.225 152.048C390.411 151.52 394.055 151.972 394.16 153.403C394.244 154.54 393.177 155.835 390.962 157.29C388.746 158.743 387.281 160.621 386.564 162.924C386.356 163.604 385.494 169.441 383.977 180.433C382.497 191.424 381.236 199.614 380.194 205.002C379.184 210.352 377.774 214.494 375.962 217.43C370.557 226.165 361.658 230.986 349.267 231.895C342.594 232.385 336.89 230.996 332.153 227.73C327.413 224.425 324.825 219.782 324.386 213.801L324.221 211.545C324.008 208.647 324.179 203.931 324.732 197.398C325.322 190.863 325.798 185.294 326.162 180.693C326.523 176.056 326.843 172.639 327.125 170.442C327.439 168.205 327.573 166.756 327.524 166.096ZM422.816 148.477C425.163 148.305 428.237 148.504 432.039 149.073C435.839 149.642 438.742 150.02 440.747 150.205C442.787 150.386 444.018 150.573 444.437 150.764C445.616 151.267 446.321 153.078 446.549 156.197C446.953 161.701 446.463 165.334 445.081 167.095L444.241 167.71C443.105 167.794 441.707 166.31 440.045 163.259C436.255 156.308 430.179 153.138 421.821 153.751C417.42 154.075 412.984 155.894 408.508 159.211C405.572 161.381 402.794 164.481 400.178 168.509C397.598 172.535 395.705 177.138 394.499 182.317C393.292 187.459 392.849 192.25 393.175 196.69C393.796 205.166 396.197 211.518 400.377 215.75C404.594 219.977 410.095 221.842 416.877 221.344C422.671 220.919 428.75 217.613 435.116 211.429C437.868 208.755 439.447 207.404 439.85 207.374C441.134 207.28 441.826 207.93 441.928 209.324C442.028 210.681 441.291 212.948 439.717 216.126C438.144 219.303 436.705 221.29 435.4 222.087C434.094 222.883 431.057 223.956 426.291 225.301C421.524 226.647 418.095 227.397 416.005 227.551L414.136 227.688C405.519 228.32 398.212 225.942 392.215 220.554C386.254 215.163 382.954 208.12 382.317 199.424C381.36 186.362 384.855 174.707 392.804 164.458C396.375 159.88 400.786 156.181 406.034 153.361C411.319 150.538 416.914 148.91 422.816 148.477ZM497.903 164.491C498.82 157.377 499.241 153.307 499.165 152.281C499.087 151.216 498.575 150.276 497.631 149.461L495.842 148.429C494.106 147.376 493.22 146.611 493.185 146.135C493.08 144.703 497.885 143.631 507.602 142.918L510.347 142.661C515.223 142.303 517.715 142.84 517.82 144.271C517.865 144.894 516.646 145.869 514.163 147.195C511.677 148.484 510.226 149.808 509.809 151.167C509.394 152.525 508.049 162.602 505.777 181.398C503.503 200.156 502.42 210.27 502.528 211.738C502.633 213.168 503.15 214.2 504.081 214.832L506.189 215.674C508.641 216.453 509.879 216.989 509.901 217.282C510.014 218.824 508.383 219.717 505.01 219.965L499.558 220.256L494.227 220.702C487.884 221.168 484.67 220.813 484.584 219.639C484.541 219.051 485.562 217.908 487.65 216.204C489.77 214.462 491.033 213.079 491.438 212.054C491.877 211.024 492.557 206.973 493.477 199.896C494.393 192.783 494.819 188.787 494.754 187.906C494.579 185.521 493.341 184.228 491.042 184.028L488.453 184.164L474.709 185.228C464.26 185.995 458.517 187.117 457.482 188.594C456.814 189.529 455.997 193.721 455.031 201.169C454.1 208.578 453.688 213.017 453.796 214.484C453.903 215.952 454.654 217.133 456.046 218.026C458.56 219.649 459.844 220.81 459.896 221.507C459.984 222.718 455.921 223.625 447.709 224.227L442.324 224.678L439.578 224.935L436.883 225.133L434.859 224.673C434.746 223.131 435.972 221.768 438.54 220.584C441.142 219.36 442.755 217.489 443.382 214.972C444.042 212.416 445.139 204.496 446.672 191.214C448.239 177.893 449.265 169.259 449.75 165.314C450.268 161.329 450.557 158.984 450.616 158.279L450.765 155.777C450.652 154.237 449.964 153.143 448.7 152.499L446.49 151.775C444.19 151.059 443.013 150.351 442.962 149.654C442.863 148.297 443.785 147.547 445.728 147.405L448.368 147.211L451.181 147.115L456.68 146.712C464.343 146.148 468.222 146.51 468.316 147.793C468.364 148.454 467.268 149.604 465.03 151.245C462.825 152.844 461.541 154.192 461.179 155.289L460.705 157.87C460.576 158.616 460.14 161.73 459.398 167.206C458.655 172.647 458.318 175.862 458.391 176.853C458.566 179.238 459.714 180.555 461.833 180.806L464.375 180.784L478.064 179.725C488.844 178.933 494.616 177.975 495.381 176.849C496.143 175.686 496.985 171.566 497.903 164.491ZM566.374 145.299L566.536 147.5C566.794 151.023 566.19 152.838 564.723 152.945C564.466 152.964 563.684 152.1 562.376 150.351C561.103 148.563 558.977 147.226 556 146.338C553.057 145.409 548.157 145.198 541.302 145.701C537.415 145.987 534.617 147.538 532.907 150.357C532.087 151.745 531.111 154.767 529.977 159.425C528.88 164.079 528.361 166.793 528.418 167.562C528.593 169.948 529.117 171.569 529.991 172.427C531.778 174.178 534.101 174.947 536.96 174.738C539.856 174.525 542.219 173.798 544.044 172.558C547.414 170.245 549.464 169.061 550.198 169.007C552.104 168.867 553.201 170.76 553.489 174.686C553.777 178.612 553.458 181.568 552.536 183.554C551.646 185.501 550.67 186.513 549.606 186.591C548.543 186.669 547.67 186.327 546.987 185.566C544.738 183.038 543.5 181.727 543.271 181.633C541.627 180.832 539.266 180.545 536.186 180.771C531.053 181.147 527.813 182.953 526.464 186.187C525.936 187.517 525.412 190.432 524.894 194.934C524.376 199.436 524.235 203.302 524.472 206.529C524.706 209.722 525.842 211.631 527.877 212.256C529.312 212.704 532.833 212.722 538.442 212.311C544.089 211.896 548.904 210.712 552.889 208.76C554.954 207.76 557.155 206.104 559.492 203.794C561.864 201.443 563.215 200.255 563.544 200.231C563.911 200.204 564.133 200.722 564.211 201.787C564.289 202.851 563.878 204.782 562.977 207.577C562.11 210.333 561.049 212.459 559.794 213.952C558.576 215.443 556.116 216.326 552.413 216.597L550.045 216.716L530.352 218.106C514.991 219.233 507.048 219.761 506.528 219.688C505.073 219.463 504.312 218.891 504.245 217.975C504.196 217.314 505.117 216.546 507.006 215.669C508.896 214.793 509.995 214.196 510.303 213.878C511.337 212.88 512.185 210.881 512.849 207.881L513.336 205.466C513.523 204.494 513.862 202.07 514.352 198.198L515.578 188.535C516.261 182.767 517.153 175.822 518.254 167.699C519.351 159.541 519.784 153.883 519.553 150.728C519.467 149.553 518.482 148.446 516.6 147.403C514.718 146.361 513.737 145.29 513.656 144.189C513.575 143.088 519.785 142.079 532.288 141.162L551.964 139.551L556.854 139.137L559.215 138.908C561.928 138.709 563.75 139.165 564.679 140.278C565.643 141.35 566.207 143.024 566.374 145.299ZM591.111 141.216L588.911 141.377C585.098 141.657 582.85 142.67 582.167 144.416C581.521 146.161 581.006 149.187 580.621 153.494C580.27 157.762 579.832 161.852 579.308 165.763C578.783 169.676 578.552 172.053 578.614 172.897C578.695 173.998 580 174.455 582.53 174.269L584.675 174.112L585.165 174.02C592.205 173.504 597.677 171.461 601.581 167.892C605.52 164.32 607.272 159.543 606.834 153.561L606.738 153.015C606.467 149.31 604.922 146.343 602.105 144.115C599.285 141.851 595.62 140.885 591.111 141.216ZM555.765 214.193C555.746 213.936 556.37 213.392 557.635 212.561L559.013 211.742C560.643 210.847 561.579 210.28 561.819 210.041C563.2 208.759 564.124 206.773 564.589 204.083C565.849 197.13 567.214 186.331 568.684 171.69C570.191 157.045 570.859 148.548 570.686 146.2C570.602 145.062 569.609 144.067 567.703 143.21C565.795 142.317 564.812 141.486 564.755 140.715C564.648 139.247 571.139 138.034 584.227 137.073L588.018 136.739C597.478 136.045 604.461 137.026 608.968 139.683C613.509 142.3 615.976 146.288 616.369 151.646C617.022 160.561 613.455 167.961 605.666 173.844C602.243 176.419 600.584 178.423 600.688 179.854C600.713 180.184 602.428 183.728 605.835 190.487C609.243 197.246 611.677 201.531 613.137 203.342C614.595 205.153 616.636 206.332 619.257 206.876C621.877 207.421 623.213 208.062 623.267 208.795C623.321 209.53 622.658 210.297 621.28 211.1C619.898 211.864 617.264 212.39 613.377 212.675C609.528 212.958 606.463 211.873 604.183 209.422C601.935 206.93 599.679 202.54 597.411 196.251C595.178 189.922 593.108 185.574 591.202 183.206C589.331 180.797 586.378 179.743 582.345 180.039C580.218 180.195 578.774 181.352 578.01 183.51C575.686 190.026 574.789 196.897 575.319 204.125C575.456 205.997 576.347 207.591 577.992 208.909C579.634 210.19 580.492 211.345 580.568 212.373C580.667 213.73 576.537 214.715 568.178 215.329L560.542 216C557.462 216.226 555.87 215.623 555.765 214.193Z" fill="#B23E3E"/>
<path d="M412.082 85.5679C412.668 85.5248 412.98 85.7549 413.017 86.2581C413.03 86.4259 412.893 86.7101 412.605 87.1105C412.34 87.5094 412.221 87.8871 412.246 88.2435C412.27 88.5789 414.471 92.3065 418.847 99.4262C419.899 101.12 420.56 101.956 420.833 101.937C421.314 101.901 423.26 99.4185 426.669 94.4888C430.076 89.5379 431.759 86.7796 431.718 86.2134C431.695 85.899 431.624 85.6407 431.504 85.4387L431.109 84.8037C431.064 84.1957 431.409 83.8647 432.143 83.8109L432.803 83.7624L434.224 83.753C434.854 83.7488 435.328 83.7353 435.642 83.7121C438.533 83.4999 439.996 83.6244 440.029 84.0857C440.048 84.3373 439.067 84.8836 437.085 85.7246C435.962 86.2077 434.807 87.2621 433.62 88.8879C430.254 93.5405 426.789 99.4231 423.224 106.535C422.635 107.696 422.065 109.983 421.515 113.396C420.985 116.807 420.804 119.645 420.97 121.91C421.039 122.853 421.742 123.676 423.078 124.379C424.434 125.06 425.125 125.578 425.152 125.934C425.197 126.563 422.601 127.07 417.363 127.455L413.155 127.795L412.09 127.937C410.435 128.058 409.583 127.773 409.532 127.081C409.51 126.787 410.201 126.157 411.605 125.19C413.007 124.201 413.885 123.252 414.24 122.34C415.501 119.149 415.946 115.006 415.572 109.911C415.469 108.506 414.713 105.801 413.303 101.794C411.911 97.7642 410.556 94.649 409.237 92.4483C407.939 90.246 406.885 88.9532 406.078 88.5697L405.265 88.2501L404.455 87.9932C403.482 87.6431 402.987 87.3528 402.97 87.1222C402.953 86.8914 403.186 86.7585 403.667 86.7231L408.806 86.1246C409.266 86.0909 409.715 86.0368 410.152 85.9625L410.808 85.8513C411.552 85.67 411.977 85.5757 412.082 85.5679ZM463.94 98.0451L463.859 96.9444C463.714 94.9526 463.279 93.0348 462.553 91.1908C460.422 85.677 456.726 83.1025 451.466 83.4675C446.794 83.8105 442.809 86.3479 439.513 91.0798C437.967 93.28 436.774 95.9708 435.934 99.1523C435.111 102.311 434.797 105.201 434.989 107.822L435.108 109.457C435.407 113.525 436.673 116.857 438.907 119.455C440.012 120.744 441.281 121.683 442.715 122.274C444.149 122.864 445.578 123.107 447.001 123.003L448.103 122.922C452.627 122.59 456.488 119.945 459.685 114.989C461.197 112.644 462.338 109.946 463.104 106.897C463.87 103.847 464.15 100.897 463.94 98.0451ZM451.532 80.4906L452.223 80.4398C454.528 80.2706 456.794 80.5785 459.021 81.3638C463.519 82.9518 466.747 86.1929 468.706 91.087C469.428 92.8889 469.872 94.9222 470.038 97.1864L470.139 98.5702C470.365 101.652 469.915 104.847 468.788 108.155C466.519 114.835 462.678 119.755 457.264 122.913C454.153 124.723 451.13 125.735 448.198 125.95L446.784 126.054C442.027 126.403 437.863 124.917 434.292 121.596C432.803 120.229 431.586 118.432 430.644 116.204C429.7 113.975 429.142 111.677 428.968 109.307L428.917 108.615C428.679 105.366 429.071 102.07 430.088 98.7277C431.129 95.3841 432.649 92.4268 434.651 89.8556C436.673 87.2621 439.139 85.1207 442.048 83.4316C444.977 81.72 448.139 80.7397 451.532 80.4906ZM468.716 85.4266C468.643 84.4412 468.16 83.7389 467.265 83.3196C465.564 82.5171 464.694 81.8643 464.658 81.3611C464.602 80.6063 468.272 79.9574 475.668 79.4146C477.657 79.2685 478.677 79.5099 478.722 80.1389C478.74 80.3696 478.179 80.9165 477.042 81.78C475.904 82.6434 475.201 83.6857 474.932 84.9069C474.854 85.2711 474.602 87.5662 474.174 91.7924C473.767 96.017 473.326 99.7593 472.848 103.019C472.39 106.257 472.25 109.081 472.426 111.493C472.604 113.904 473.623 115.895 475.486 117.465C477.37 119.013 479.704 119.685 482.491 119.481C487.959 119.079 491.785 116.385 493.967 111.398C494.869 109.329 495.787 104.898 496.722 98.1052C497.655 91.2915 498.066 87.1402 497.957 85.6516C497.848 84.163 497.479 82.9992 496.848 82.16C495.26 80.0421 494.466 78.9727 494.464 78.9518C494.411 78.2179 496.437 77.7004 500.544 77.399C504.65 77.0976 506.732 77.3556 506.793 78.1734C506.84 78.8233 506.231 79.5637 504.964 80.3944C503.699 81.225 502.862 82.2983 502.452 83.6142C502.333 84.0023 501.84 87.3374 500.974 93.6194C500.129 99.8998 499.408 104.58 498.812 107.659C498.236 110.715 497.429 113.083 496.394 114.761C493.305 119.751 488.221 122.507 481.14 123.026C477.325 123.306 474.066 122.513 471.36 120.646C468.651 118.757 467.172 116.105 466.922 112.687L466.827 111.398C466.706 109.741 466.804 107.047 467.12 103.313C467.457 99.5788 467.729 96.3969 467.936 93.7679C468.143 91.1179 468.326 89.1651 468.487 87.9097C468.667 86.6316 468.742 85.804 468.716 85.4266ZM514.662 78.8922L513.405 78.9843C511.226 79.1443 509.942 79.7234 509.552 80.7217C509.182 81.7184 508.888 83.4475 508.667 85.9088C508.467 88.3476 508.218 90.6847 507.918 92.92C507.618 95.1553 507.487 96.5141 507.522 96.9963C507.567 97.6253 508.313 97.8867 509.759 97.7806L510.985 97.6907L511.265 97.6385C515.287 97.3432 518.414 96.1756 520.645 94.1359C522.897 92.0946 523.897 89.3652 523.647 85.9476L523.592 85.6354C523.437 83.5178 522.554 81.8224 520.945 80.5495C519.333 79.2554 517.239 78.703 514.662 78.8922ZM494.464 120.594C494.454 120.447 494.81 120.136 495.533 119.662L496.321 119.193C497.253 118.682 497.786 118.358 497.924 118.221C498.713 117.489 499.241 116.354 499.507 114.817C500.227 110.843 501.006 104.673 501.847 96.3061C502.708 87.9378 503.089 83.0826 502.991 81.7408C502.944 81.0908 502.375 80.5212 501.286 80.032C500.196 79.5218 499.634 79.0466 499.601 78.6064C499.541 77.7676 503.249 77.0738 510.728 76.5248L512.895 76.3342C518.3 75.9375 522.29 76.4983 524.866 78.0167C527.461 79.5124 528.871 81.7909 529.096 84.852C529.468 89.9468 527.43 94.1753 522.98 97.5375C521.023 99.009 520.075 100.154 520.135 100.971C520.149 101.16 521.129 103.185 523.077 107.048C525.024 110.91 526.414 113.358 527.249 114.393C528.082 115.428 529.248 116.101 530.746 116.413C532.242 116.725 533.007 117.09 533.038 117.51C533.067 117.929 532.69 118.368 531.902 118.826C531.113 119.263 529.607 119.563 527.386 119.727C525.186 119.888 523.434 119.268 522.132 117.867C520.848 116.444 519.558 113.935 518.262 110.341C516.987 106.725 515.803 104.24 514.714 102.887C513.644 101.511 511.958 100.908 509.653 101.077C508.438 101.166 507.612 101.827 507.176 103.061C505.848 106.784 505.336 110.711 505.638 114.841C505.716 115.91 506.226 116.822 507.165 117.575C508.104 118.307 508.594 118.966 508.638 119.553C508.694 120.329 506.334 120.892 501.558 121.243L497.194 121.626C495.434 121.756 494.525 121.411 494.464 120.594Z" fill="#B23E3E"/>
</svg>
