<svg width="200" height="66" viewBox="0 0 200 66" fill="none" xmlns="http://www.w3.org/2000/svg">
<path d="M34.9072 28.9175V21.2783H23.4536V28.9175H34.9072ZM15.8145 48V17.4639H38.7217V21.2783H42.5361V28.9175H38.7217V32.7319H23.4536V48H15.8145ZM47.4178 48V17.4639H55.057V44.1855H70.325V48H47.4178ZM94.2995 32.7319V25.0928H90.4748V21.2783H86.6603V25.0928H82.8459V32.7319H94.2995ZM75.2067 48V25.0928H79.0212V21.2783H82.8459V17.4639H94.2995V21.2783H98.1139V25.0928H101.928V48H94.2995V36.5464H82.8459V48H75.2067ZM116.356 48V36.5464H114.449V32.7319H110.625V28.9175H106.81V17.4639H114.449V28.9175H118.264V32.7319H122.078V28.9175H125.903V17.4639H133.532V28.9175H129.717V32.7319H125.903V36.5464H123.996V48H116.356Z" fill="#FCF8EF"/>
<path d="M185 31.5V34.5H183.5V36H182V37.5H179V39H176V40.5H174.5V42H171.5V43.5H168.5V45H167V46.5H164V48H161V49.5H156.5V48H155V18H156.5V16.5H161V18H164V19.5H167V21H168.5V22.5H171.5V24H174.5V25.5H176V27H179V28.5H182V30H183.5V31.5H185Z" fill="#FCF8EF"/>
</svg>
