<svg width="419" height="39" viewBox="0 0 419 39" fill="none" xmlns="http://www.w3.org/2000/svg">
<path d="M22.0184 0.111067C22.5835 0.111067 24.4481 0.366247 27.6124 0.876607C30.7949 1.38697 32.4675 1.68771 32.6302 1.77885C33.4798 2.25275 33.8904 3.44663 33.8618 5.36048C33.8331 7.27433 33.4653 8.71427 32.7581 9.68031C32.535 9.97194 32.232 10.1178 31.8492 10.1178C31.6669 10.1178 30.9953 9.31577 29.8344 7.71178C28.692 6.08957 27.5059 4.95037 26.2761 4.29419C25.0464 3.63802 23.4562 3.30993 21.5057 3.30993C17.6593 3.30993 14.1288 5.35137 10.9141 9.43424C9.55752 11.1658 8.4595 13.2802 7.62008 15.7773C6.79889 18.2744 6.37059 20.7077 6.33516 23.0772C6.28338 26.5404 7.02513 29.3565 8.56041 31.5255C10.3457 34.0409 12.9519 35.2985 16.379 35.2985C19.4597 35.2985 22.5413 34.0226 25.6237 31.4708C26.8791 30.4137 27.7802 29.8851 28.3271 29.8851H28.3545C28.9013 29.8851 29.1608 30.2132 29.1327 30.8693C29.1232 31.5073 28.7436 32.5098 27.994 33.8768C27.2629 35.2256 26.5201 36.137 25.7656 36.6109C25.0294 37.0848 23.4452 37.5769 21.0131 38.0873C18.5992 38.5976 16.4535 38.8528 14.5759 38.8528C12.6983 38.8528 10.8715 38.4974 9.09571 37.7865C5.29047 36.2555 2.67778 33.6034 1.25763 29.8304C0.538574 27.9348 0.195807 25.866 0.229327 23.6241L0.243225 22.6945C0.28601 19.8328 0.930221 16.9803 2.17586 14.1368C4.74169 8.34062 8.74064 4.2304 14.1727 1.80619C16.7052 0.676108 19.3205 0.111067 22.0184 0.111067ZM66.9795 5.05973C66.9885 4.45824 66.7789 3.84763 66.3507 3.22791L65.7324 2.51705C65.2478 2.00669 65.0069 1.66037 65.0096 1.4781C65.0197 0.803698 66.1914 0.466496 68.5248 0.466496L69.8369 0.493837L75.1693 0.466496C76.8646 0.466496 77.7071 0.812812 77.6967 1.50544C77.6916 1.85176 76.798 2.48059 75.0162 3.39195C74.006 3.90231 73.3184 4.77721 72.9535 6.01666L72.6331 7.32901C72.321 8.69604 71.9484 10.455 71.5152 12.6058C71.0822 14.7383 70.2969 18.4931 69.1592 23.8701C68.0401 29.2289 67.4731 32.4004 67.4584 33.3847C67.4437 34.369 67.6342 35.0342 68.0301 35.3806L69.0067 35.9C70.1837 36.4286 70.7708 36.784 70.7681 36.9663C70.7548 37.8594 69.9004 38.306 68.2051 38.306L65.5263 38.2513H62.9286C60.2125 38.2513 58.6549 38.1784 58.2561 38.0326C57.8572 37.8868 57.6617 37.5496 57.6696 37.021C57.6729 36.8023 58.191 36.2919 59.2238 35.4899C60.2566 34.6879 60.9522 33.8859 61.3105 33.0839C61.6871 32.2819 62.1789 30.4775 62.786 27.6705C63.3931 24.8635 63.6993 23.2777 63.7048 22.9132C63.7252 21.5462 63.3545 20.7351 62.5927 20.4799C62.3207 20.3887 59.6963 20.3432 54.7198 20.3432C49.7614 20.3432 46.9661 20.7624 46.3338 21.6009C46.0549 21.9654 45.6132 23.4691 45.0085 26.1121C44.4224 28.7368 44.1178 30.8238 44.0946 32.3731C44.0717 33.9042 44.3825 35.0616 45.0271 35.8454C45.6901 36.6109 46.0194 37.1395 46.0151 37.4311C46.0061 38.0326 42.9847 38.3334 36.9508 38.3334L34.2981 38.3607C33.6053 38.3607 33.2649 37.9688 33.2766 37.185C33.2826 36.784 33.9367 36.3193 35.2388 35.7907C36.5595 35.2439 37.3899 34.5695 37.73 33.7675C38.0884 32.9655 39.1543 28.117 40.9279 19.2222C42.7198 10.3274 43.6201 5.58832 43.6288 5.00505C43.6378 4.40356 43.3539 3.88408 42.7771 3.44663L41.8278 2.92716C40.8152 2.38034 40.3113 1.94289 40.3162 1.61481C40.3276 0.849266 40.7982 0.466496 41.7279 0.466496H43.0677L45.774 0.521178H48.399C51.7531 0.521178 53.4261 0.794584 53.4179 1.3414C53.4098 1.88821 52.8716 2.52616 51.8034 3.25525C50.7537 3.9661 50.0304 4.79544 49.6334 5.74325C48.2716 9.04236 47.5706 12.0316 47.5306 14.711C47.5098 16.0963 47.853 16.9165 48.5602 17.1717C48.8502 17.281 51.4835 17.3357 56.4601 17.3357C61.4366 17.3357 64.2224 16.9438 64.8175 16.1601C65.0961 15.8137 65.5177 14.4376 66.0823 12.0316C66.6472 9.6074 66.9463 7.28344 66.9795 5.05973ZM93.0415 35.9274H94.436C96.3136 35.9274 98.155 35.2985 99.9603 34.0409C101.766 32.7832 103.339 31.1792 104.681 29.2289C106.041 27.2786 107.085 25.0731 107.815 22.6125C108.545 20.1336 108.926 17.8005 108.958 15.6132L108.965 15.1484C108.993 13.3075 108.763 11.6033 108.276 10.0357C106.833 5.35137 103.997 3.00918 99.768 3.00918H99.2758C97.2159 3.00918 95.3115 3.58334 93.5626 4.73164C89.9172 7.13763 87.284 10.7375 85.6628 15.5312C84.7853 18.1377 84.3273 20.7259 84.2889 23.296L84.3093 23.7608C84.2583 27.1692 85.0357 30.04 86.6415 32.3731C87.4444 33.5396 88.4246 34.4236 89.5823 35.0251C90.74 35.6266 91.893 35.9274 93.0415 35.9274ZM99.977 0.00170439H100.606C104.89 0.00170439 108.413 1.49633 111.176 4.48558C112.323 5.74325 113.248 7.33812 113.948 9.2702C114.648 11.2023 114.982 13.2528 114.95 15.4219L114.941 16.0234C114.902 18.6298 114.332 21.373 113.232 24.2529C112.131 27.1328 110.553 29.6937 108.496 31.9356C106.439 34.1776 104.07 35.9183 101.39 37.1577C98.7105 38.3789 96.0126 38.9895 93.2965 38.9895H92.6676C90.5712 38.9895 88.6538 38.6068 86.9152 37.8412C83.2387 36.2372 80.7438 33.6308 79.4305 30.0218C78.6603 27.8892 78.2915 25.7384 78.3239 23.5694L78.3333 22.9405C78.3725 20.3158 78.9234 17.6091 79.9859 14.8204C81.0487 12.0134 82.5907 9.4707 84.6117 7.19231C86.651 4.91392 89.0381 3.14588 91.773 1.88821C94.508 0.63054 97.2427 0.00170439 99.977 0.00170439ZM133.182 35.9274H134.577C136.454 35.9274 138.296 35.2985 140.101 34.0409C141.906 32.7832 143.48 31.1792 144.821 29.2289C146.181 27.2786 147.226 25.0731 147.955 22.6125C148.685 20.1336 149.066 17.8005 149.099 15.6132L149.106 15.1484C149.134 13.3075 148.904 11.6033 148.417 10.0357C146.974 5.35137 144.138 3.00918 139.909 3.00918H139.416C137.357 3.00918 135.452 3.58334 133.703 4.73164C130.058 7.13763 127.425 10.7375 125.803 15.5312C124.926 18.1377 124.468 20.7259 124.43 23.296L124.45 23.7608C124.399 27.1692 125.176 30.04 126.782 32.3731C127.585 33.5396 128.565 34.4236 129.723 35.0251C130.881 35.6266 132.034 35.9274 133.182 35.9274ZM140.118 0.00170439H140.747C145.03 0.00170439 148.554 1.49633 151.316 4.48558C152.464 5.74325 153.388 7.33812 154.088 9.2702C154.789 11.2023 155.123 13.2528 155.09 15.4219L155.081 16.0234C155.042 18.6298 154.473 21.373 153.372 24.2529C152.272 27.1328 150.693 29.6937 148.636 31.9356C146.579 34.1776 144.211 35.9183 141.531 37.1577C138.851 38.3789 136.153 38.9895 133.437 38.9895H132.808C130.712 38.9895 128.794 38.6068 127.056 37.8412C123.379 36.2372 120.884 33.6308 119.571 30.0218C118.801 27.8892 118.432 25.7384 118.465 23.5694L118.474 22.9405C118.513 20.3158 119.064 17.6091 120.127 14.8204C121.189 12.0134 122.731 9.4707 124.752 7.19231C126.792 4.91392 129.179 3.14588 131.914 1.88821C134.649 0.63054 137.383 0.00170439 140.118 0.00170439ZM174.543 0.00170439C175.819 0.00170439 177.175 0.165749 178.61 0.493837C180.045 0.821925 181.301 0.985969 182.376 0.985969C183.47 0.985969 184.151 1.17735 184.419 1.56012C184.705 1.94289 184.843 2.45325 184.833 3.0912L184.821 3.91142C184.791 5.93463 184.437 7.61153 183.761 8.94211C183.48 9.48892 183.157 9.76233 182.792 9.76233C182.263 9.76233 181.609 9.03325 180.829 7.57508C180.049 6.09868 179.154 4.99594 178.144 4.26685C177.134 3.51954 175.736 3.14588 173.95 3.14588C172.181 3.14588 170.678 3.72004 169.439 4.86835C168.201 6.01666 167.57 7.3928 167.546 8.99679C167.522 10.5826 168.22 12.0498 169.64 13.3986C170.449 14.1642 172.209 15.3307 174.92 16.8983C177.649 18.4476 179.568 19.9878 180.675 21.5188C181.8 23.0499 182.345 25.0458 182.308 27.5064C182.307 27.5429 182.307 27.5793 182.306 27.6158C182.285 29.074 181.908 30.4957 181.176 31.881C180.425 33.3209 179.423 34.533 178.169 35.5173C175.457 37.6681 172.296 38.7435 168.687 38.7435H167.73C164.558 38.7435 161.431 38.1875 158.349 37.0757C157.442 36.7476 156.998 35.9456 157.017 34.6697L157.03 33.7948C157.053 32.2637 157.256 30.924 157.637 29.7757C158.037 28.6274 158.584 28.0533 159.276 28.0533C159.659 28.0533 160.249 28.8552 161.045 30.4592C161.86 32.0632 162.708 33.2206 163.591 33.9315C165.032 35.0798 166.828 35.654 168.979 35.654C171.148 35.654 172.971 35.0434 174.448 33.8221C175.943 32.5827 176.704 31.0516 176.731 29.2289C176.759 27.388 176.081 25.784 174.698 24.4169C174.015 23.7425 172.409 22.6398 169.88 21.1087C167.37 19.5594 165.46 18.0374 164.152 16.5428C162.843 15.03 162.204 13.3257 162.232 11.4301C162.286 7.82114 163.54 5.01416 165.995 3.00918C168.467 1.0042 171.317 0.00170439 174.543 0.00170439ZM200.2 14.1095C200.186 15.0026 200.513 15.6953 201.18 16.1874C201.848 16.6613 202.747 16.8983 203.877 16.8983C205.025 16.8983 206.243 16.5519 207.529 15.8593C208.815 15.1667 209.768 14.8204 210.388 14.8204C211.282 14.8204 211.716 15.6497 211.691 17.3084C211.666 18.967 211.371 20.3887 210.807 21.5735C210.242 22.7583 209.641 23.3507 209.003 23.3507C208.511 23.3507 207.752 22.8768 206.727 21.9289C205.721 20.9811 204.588 20.5072 203.331 20.5072C202.091 20.5072 201.012 20.7259 200.094 21.1634C199.176 21.6009 198.577 22.0748 198.296 22.5851C197.264 24.499 196.72 27.3789 196.663 31.2248C196.637 32.9381 196.912 34.0226 197.489 34.4783C198.066 34.9158 199.484 35.1345 201.745 35.1345C204.023 35.1345 206.024 34.852 207.746 34.2869C209.468 33.7219 211.083 32.9837 212.591 32.0723C214.1 31.1428 214.863 30.678 214.882 30.678C215.283 30.678 215.478 30.9969 215.469 31.6349C215.438 33.6946 214.618 35.5173 213.008 37.103C212.176 37.9232 210.547 38.3334 208.123 38.3334H205.771L204.568 38.306H197.322C189.52 38.306 185.623 38.0326 185.631 37.4858C185.64 36.9208 186.471 36.1917 188.125 35.2985C189.136 34.7517 189.844 33.7401 190.249 32.2637C190.672 30.7691 191.67 26.1941 193.243 18.5387C194.816 10.8833 195.609 6.56347 195.624 5.57921C195.639 4.59494 195.277 3.8294 194.537 3.28259C193.383 2.44414 192.808 1.92467 192.811 1.72417C192.82 1.06799 193.455 0.676108 194.715 0.548518C195.062 0.512064 198.954 0.493837 206.392 0.493837L215.99 0.411815C218.196 0.411815 219.283 1.49633 219.25 3.66536C219.212 6.21716 218.829 7.49305 218.099 7.49305C217.862 7.49305 217.257 7.11028 216.285 6.34475C215.33 5.57921 214.408 5.05062 213.519 4.75898C211.27 4.0299 209.106 3.66536 207.028 3.66536C204.95 3.66536 203.415 4.51292 202.423 6.20804C200.983 8.65048 200.242 11.2843 200.2 14.1095ZM243.811 5.11441C243.822 4.34887 243.558 3.74738 243.017 3.30993C241.793 2.32566 241.182 1.72417 241.185 1.50544C241.195 0.849266 242.33 0.521178 244.59 0.521178L245.548 0.493837C246.186 0.47561 246.833 0.466496 247.49 0.466496L263.268 0.384474H265.21C266.194 0.384474 266.837 0.63054 267.14 1.12267C267.461 1.61481 267.614 2.33478 267.6 3.28259C267.553 6.39943 267.038 7.95785 266.053 7.95785C265.889 7.95785 265.476 7.53862 264.814 6.70017C263.151 4.58583 260.113 3.51954 255.702 3.50131C254.59 3.50131 253.74 3.63802 253.153 3.91142C251.978 4.44001 251.045 5.3058 250.352 6.50879C250.053 7.01915 249.625 8.22214 249.068 10.1178C248.511 11.9952 248.227 13.344 248.214 14.1642C248.202 14.9844 248.421 15.6224 248.869 16.078C249.713 16.9347 250.746 17.363 251.967 17.363C253.189 17.363 254.25 17.1261 255.15 16.6522C257.3 15.5221 258.475 14.9571 258.675 14.9571C259.496 14.9571 259.896 15.6224 259.876 16.9529C259.847 18.9032 259.577 20.489 259.067 21.7102C258.575 22.9132 257.928 23.5147 257.125 23.5147C256.542 23.5147 255.846 23.1046 255.038 22.2844C254.23 21.4641 253.307 21.054 252.268 21.054C249.661 21.054 247.857 21.61 246.856 22.7218C246.485 23.141 246.113 24.2711 245.739 26.1121C245.384 27.9348 245.191 29.8669 245.16 31.9083C245.13 33.9497 245.553 35.4717 246.432 36.4742C246.826 36.9299 247.022 37.258 247.019 37.4585C247.01 38.0235 245.958 38.306 243.861 38.306H238.119C235.549 38.306 234.269 37.9324 234.28 37.185C234.286 36.8387 235.033 36.2099 236.524 35.2985C237.48 34.7153 238.159 33.8313 238.559 32.6465C238.75 32.0997 239.249 29.8213 240.056 25.8113C240.882 21.8013 241.706 17.8825 242.529 14.0548C243.352 10.2089 243.779 7.22876 243.811 5.11441ZM276.401 5.33314C276.415 4.42178 275.879 3.65624 274.795 3.03652C273.71 2.4168 273.162 1.90644 273.15 1.50544C273.159 0.867493 275.598 0.548518 280.465 0.548518L285.279 0.466496C286.701 0.466496 287.408 0.703449 287.401 1.17735C287.394 1.65126 286.518 2.31655 284.773 3.17322C283.782 3.66536 283.057 4.57671 282.6 5.90729C282.391 6.43588 281.406 10.7375 279.645 18.8121C277.884 26.8867 276.988 31.9174 276.958 33.9042C276.948 34.615 277.467 35.2712 278.515 35.8727C279.563 36.4742 280.094 36.9663 280.106 37.3491C280.096 38.0053 277.503 38.3334 272.326 38.3334L267.43 38.4154C266.427 38.4154 265.93 38.1511 265.938 37.6225C265.946 37.1121 266.491 36.6109 267.574 36.1188C268.675 35.6084 269.392 35.1892 269.725 34.8611C270.058 34.533 270.377 33.9315 270.682 33.0566C270.987 32.1452 272.01 27.7343 273.751 19.8237C275.492 11.9131 276.375 7.08294 276.401 5.33314ZM299.157 19.5503C297.396 27.6249 296.508 32.1452 296.494 33.1113C296.479 34.0773 296.898 34.697 297.751 34.9705C298.622 35.2256 300.352 35.3532 302.941 35.3532C305.529 35.3532 307.669 34.9158 309.359 34.0409C310.277 33.567 311.459 32.5827 312.903 31.0881C314.347 29.5752 315.243 28.8188 315.589 28.8188C316.1 28.8188 316.351 29.074 316.343 29.5843C316.336 30.0947 316.016 31.3706 315.384 33.412C314.77 35.4352 314.268 36.6838 313.879 37.1577C313.229 37.9597 311.928 38.3607 309.978 38.3607H305.083L304.263 38.3334H301.748L300.053 38.306H298.385C290.145 38.306 286.03 38.0144 286.039 37.4311C286.044 37.0848 286.809 36.4651 288.336 35.5719C289.329 34.9887 290.055 33.9862 290.514 32.5645C290.973 31.1245 291.626 28.2993 292.472 24.0889C293.337 19.8784 294.161 15.9687 294.945 12.3597C295.746 8.75073 296.156 6.34475 296.174 5.14175C296.185 4.39444 295.658 3.67447 294.593 2.98184C293.527 2.28921 292.999 1.69683 293.006 1.20469C293.014 0.694335 293.546 0.439155 294.603 0.439155H296.244L297.064 0.466496L303.545 0.439155H304.338C306.106 0.439155 306.986 0.73079 306.977 1.31406C306.97 1.75151 306.186 2.37123 304.625 3.17322C303.467 3.77472 302.631 4.87746 302.115 6.48145C301.904 7.1194 300.919 11.4757 299.157 19.5503ZM320.226 9.46158C319.825 9.46158 319.629 9.17906 319.637 8.61402L319.649 7.82114C319.66 7.07383 319.906 5.87084 320.387 4.21217C320.886 2.53528 321.321 1.48722 321.692 1.06799C322.063 0.63054 323.032 0.411815 324.6 0.411815H331.026L331.955 0.439155L347.649 0.493837C348.269 0.493837 348.889 0.484723 349.509 0.466496L351.26 0.411815H352.053C352.855 0.411815 353.251 0.749017 353.241 1.42342L353.231 2.10694C353.185 5.1691 352.798 7.2561 352.071 8.36796C351.791 8.80541 351.478 9.02413 351.131 9.02413C350.785 9.02413 350.365 8.47732 349.871 7.38369C349.395 6.27184 348.842 5.48807 348.21 5.03239C347.02 4.15749 345.25 3.72004 342.898 3.72004C341.859 3.72004 341.072 3.90231 340.538 4.26685C340.004 4.61317 339.497 5.65211 339.015 7.38369C338.552 9.11527 337.638 13.5445 336.273 20.6713C334.909 27.7981 334.219 31.881 334.204 32.9199C334.188 33.9406 334.578 34.7335 335.371 35.2985C336.796 36.301 337.506 36.9845 337.501 37.3491C337.491 38.0053 336.711 38.3334 335.162 38.3334H334.232L333.303 38.306L326.002 38.3334H325.099C323.677 38.3334 322.971 38.0144 322.981 37.3764C322.985 37.1213 323.906 36.4468 325.745 35.3532C326.72 34.77 327.436 33.8039 327.894 32.4551C328.352 31.1063 329.405 26.4857 331.055 18.5934C332.704 10.701 333.535 6.30829 333.548 5.41516C333.566 4.21217 332.773 3.61068 331.169 3.61068C328.635 3.61068 326.789 3.92965 325.631 4.5676C324.474 5.18732 323.475 6.16247 322.635 7.49305C321.795 8.80541 320.992 9.46158 320.226 9.46158ZM365.192 14.1095C365.179 15.0026 365.505 15.6953 366.173 16.1874C366.84 16.6613 367.739 16.8983 368.869 16.8983C370.017 16.8983 371.235 16.5519 372.521 15.8593C373.808 15.1667 374.761 14.8204 375.38 14.8204C376.274 14.8204 376.708 15.6497 376.683 17.3084C376.658 18.967 376.364 20.3887 375.799 21.5735C375.234 22.7583 374.633 23.3507 373.995 23.3507C373.503 23.3507 372.744 22.8768 371.719 21.9289C370.713 20.9811 369.581 20.5072 368.323 20.5072C367.083 20.5072 366.004 20.7259 365.086 21.1634C364.168 21.6009 363.569 22.0748 363.288 22.5851C362.257 24.499 361.712 27.3789 361.655 31.2248C361.629 32.9381 361.905 34.0226 362.481 34.4783C363.058 34.9158 364.476 35.1345 366.737 35.1345C369.016 35.1345 371.016 34.852 372.738 34.2869C374.46 33.7219 376.075 32.9837 377.583 32.0723C379.092 31.1428 379.856 30.678 379.874 30.678C380.275 30.678 380.471 30.9969 380.461 31.6349C380.43 33.6946 379.61 35.5173 378 37.103C377.168 37.9232 375.539 38.3334 373.115 38.3334H370.763L369.561 38.306H362.314C354.512 38.306 350.615 38.0326 350.624 37.4858C350.632 36.9208 351.463 36.1917 353.117 35.2985C354.128 34.7517 354.836 33.7401 355.241 32.2637C355.664 30.7691 356.662 26.1941 358.235 18.5387C359.808 10.8833 360.602 6.56347 360.616 5.57921C360.631 4.59494 360.269 3.8294 359.53 3.28259C358.375 2.44414 357.8 1.92467 357.803 1.72417C357.813 1.06799 358.447 0.676108 359.707 0.548518C360.054 0.512064 363.946 0.493837 371.384 0.493837L380.983 0.411815C383.188 0.411815 384.275 1.49633 384.243 3.66536C384.204 6.21716 383.821 7.49305 383.092 7.49305C382.855 7.49305 382.25 7.11028 381.277 6.34475C380.322 5.57921 379.4 5.05062 378.511 4.75898C376.262 4.0299 374.098 3.66536 372.02 3.66536C369.942 3.66536 368.407 4.51292 367.415 6.20804C365.975 8.65048 365.234 11.2843 365.192 14.1095ZM402.597 3.22791C401.448 3.22791 400.693 3.77472 400.33 4.86835C398.63 10.0631 397.756 14.2827 397.707 17.5271L397.704 17.7458C397.697 18.2197 398.295 18.4567 399.498 18.4567H400.756C405.514 18.4567 408.792 16.8162 410.591 13.5353C411.228 12.387 411.556 11.1658 411.576 9.87169L411.591 8.86009C411.617 7.12851 410.963 5.74325 409.629 4.7043C408.296 3.66536 406.535 3.14588 404.348 3.14588H403.828C403.335 3.20057 402.925 3.22791 402.597 3.22791ZM417.762 36.8843C417.745 37.9779 416.051 38.5247 412.678 38.5247H411.831C410.044 38.5247 408.555 37.5314 407.364 35.5446C406.688 34.3963 405.916 32.3731 405.048 29.475C404.198 26.5586 403.489 24.6266 402.92 23.6787C402.119 22.3664 400.734 21.7102 398.766 21.7102C397.727 21.7102 396.957 22.576 396.457 24.3076C395.592 27.3333 395.14 30.1038 395.103 32.6192C395.091 33.3847 395.379 34.2596 395.966 35.2439C396.553 36.2281 396.844 36.8387 396.841 37.0757C396.828 37.9141 393.96 38.3334 388.236 38.3334C386.03 38.3334 384.801 38.2696 384.547 38.142C384.294 38.0144 384.171 37.6954 384.179 37.185C384.184 36.8387 384.737 36.4104 385.839 35.9C386.959 35.3714 387.667 34.934 387.964 34.5877C388.261 34.2231 388.506 33.7037 388.698 33.0293C388.89 32.3549 389.213 30.924 389.665 28.7368L390.609 24.0889C390.727 23.4874 390.855 22.8768 390.992 22.257L392.524 14.9024C393.506 10.1998 394.009 6.98269 394.035 5.25112C394.048 4.39444 393.639 3.6927 392.809 3.14588C391.997 2.58084 391.595 2.0158 391.604 1.45076C391.614 0.75813 394.591 0.411815 400.533 0.411815L403.323 0.384474H405.21C410.897 0.384474 414.565 1.97023 416.213 5.14175C416.833 6.32652 417.129 7.8576 417.101 9.73499C417.073 11.6124 416.491 13.3804 415.354 15.0391C414.235 16.6795 412.774 18.1012 410.97 19.3042C409.165 20.5072 408.259 21.3548 408.252 21.8469C408.243 22.4302 408.881 24.2711 410.165 27.3697C411.45 30.4683 412.386 32.4551 412.975 33.33C413.564 34.1867 414.284 34.7973 415.135 35.1618C416.892 35.9091 417.768 36.4833 417.762 36.8843Z" fill="#B23E3E"/>
</svg>
