<svg width="642" height="116" viewBox="0 0 642 116" fill="none" xmlns="http://www.w3.org/2000/svg">
<g filter="url(#filter0_dd_1269_7640)">
<path d="M72.7246 52.7393V41.8262H56.3623V52.7393H72.7246ZM45.4492 80V36.377H78.1738V41.8262H83.623V52.7393H78.1738V58.1885H56.3623V80H45.4492ZM117.872 52.7393V41.8262H101.51V52.7393H117.872ZM90.5969 80V36.377H123.321V41.8262H128.771V52.7393H123.321V58.1885H128.771V80H117.872V58.1885H101.51V80H90.5969ZM135.745 80V36.377H173.918V41.8262H146.658V52.7393H163.02V58.1885H146.658V74.5508H173.918V80H135.745ZM186.341 80V74.5508H180.892V69.1016H191.805V74.5508H208.168V58.1885H186.341V52.7393H180.892V41.8262H186.341V36.377H213.617V41.8262H219.066V47.2754H208.168V41.8262H191.805V52.7393H213.617V58.1885H219.066V74.5508H213.617V80H186.341ZM231.489 80V74.5508H226.04V69.1016H236.953V74.5508H253.315V58.1885H231.489V52.7393H226.04V41.8262H231.489V36.377H258.764V41.8262H264.214V47.2754H253.315V41.8262H236.953V52.7393H258.764V58.1885H264.214V74.5508H258.764V80H231.489ZM297.234 80V74.5508H291.784V69.1016H302.697V74.5508H319.06V58.1885H297.234V52.7393H291.784V41.8262H297.234V36.377H324.509V41.8262H329.958V47.2754H319.06V41.8262H302.697V52.7393H324.509V58.1885H329.958V74.5508H324.509V80H297.234ZM350.57 80V41.8262H336.932V36.377H375.106V41.8262H361.483V80H350.57ZM409.355 58.1885V47.2754H403.891V41.8262H398.442V47.2754H392.993V58.1885H409.355ZM382.08 80V47.2754H387.529V41.8262H392.993V36.377H409.355V41.8262H414.804V47.2754H420.254V80H409.355V63.6377H392.993V80H382.08ZM454.503 52.7393V41.8262H438.14V52.7393H454.503ZM427.227 80V36.377H459.952V41.8262H465.401V52.7393H459.952V58.1885H465.401V80H454.503V58.1885H438.14V80H427.227ZM486.013 80V41.8262H472.375V36.377H510.549V41.8262H496.926V80H486.013Z" fill="#CFAA37"/>
<path d="M597.333 55.6654V60.332H595V62.6654H592.667V64.9987H588V67.332H583.333V69.6654H581V71.9987H576.333V74.332H571.667V76.6654H569.333V78.9987H564.667V81.332H560V83.6654H553V81.332H550.667V34.6654H553V32.332H560V34.6654H564.667V36.9987H569.333V39.332H571.667V41.6654H576.333V43.9987H581V46.332H583.333V48.6654H588V50.9987H592.667V53.332H595V55.6654H597.333Z" fill="#CFAA37"/>
</g>
<defs>
<filter id="filter0_dd_1269_7640" x="-11" y="-11" width="664" height="138" filterUnits="userSpaceOnUse" color-interpolation-filters="sRGB">
<feFlood flood-opacity="0" result="BackgroundImageFix"/>
<feColorMatrix in="SourceAlpha" type="matrix" values="0 0 0 0 0 0 0 0 0 0 0 0 0 0 0 0 0 0 127 0" result="hardAlpha"/>
<feOffset/>
<feGaussianBlur stdDeviation="2"/>
<feComposite in2="hardAlpha" operator="out"/>
<feColorMatrix type="matrix" values="0 0 0 0 0.376471 0 0 0 0 0.376471 0 0 0 0 0.376471 0 0 0 0.08 0"/>
<feBlend mode="normal" in2="BackgroundImageFix" result="effect1_dropShadow_1269_7640"/>
<feColorMatrix in="SourceAlpha" type="matrix" values="0 0 0 0 0 0 0 0 0 0 0 0 0 0 0 0 0 0 127 0" result="hardAlpha"/>
<feMorphology radius="3" operator="dilate" in="SourceAlpha" result="effect2_dropShadow_1269_7640"/>
<feOffset/>
<feGaussianBlur stdDeviation="4"/>
<feComposite in2="hardAlpha" operator="out"/>
<feColorMatrix type="matrix" values="0 0 0 0 0.376471 0 0 0 0 0.376471 0 0 0 0 0.376471 0 0 0 0.04 0"/>
<feBlend mode="normal" in2="effect1_dropShadow_1269_7640" result="effect2_dropShadow_1269_7640"/>
<feBlend mode="normal" in="SourceGraphic" in2="effect2_dropShadow_1269_7640" result="shape"/>
</filter>
</defs>
</svg>
