<svg width="172" height="64" viewBox="0 0 172 64" fill="none" xmlns="http://www.w3.org/2000/svg">
<path fill-rule="evenodd" clip-rule="evenodd" d="M15.334 31.9987C15.334 22.7937 22.7957 15.332 32.0007 15.332C41.2057 15.332 48.6673 22.7937 48.6673 31.9987C48.6673 41.2037 41.2057 48.6654 32.0007 48.6654C22.7957 48.6654 15.334 41.2037 15.334 31.9987Z" fill="#C64747"/>
<path d="M89.8164 28.8262V21.5508H78.9082V28.8262H89.8164ZM71.6328 47V17.918H93.4492V21.5508H97.082V28.8262H93.4492V32.459H97.082V47H89.8164V32.459H78.9082V47H71.6328ZM101.731 47V17.918H127.18V21.5508H109.007V28.8262H119.915V32.459H109.007V43.3672H127.18V47H101.731ZM139.105 47V43.3672H135.463V39.7344H131.83V25.1836H135.463V21.5508H139.105V17.918H153.646V21.5508H157.279V25.1836H150.013V21.5508H142.738V25.1836H139.105V39.7344H142.738V43.3672H150.013V39.7344H157.279V43.3672H153.646V47H139.105Z" fill="black"/>
</svg>
