<svg width="480" height="196" viewBox="0 0 480 196" fill="none" xmlns="http://www.w3.org/2000/svg">
<path d="M130.508 74.321L136.617 73.8719L136.905 73.8141L139.336 73.5622C139.528 73.5236 139.721 73.4972 139.915 73.483C141.733 73.3492 142.609 72.833 142.543 71.934L142.522 71.6425L142.465 71.3536L142.254 69.9768L142.083 69.1466C142.007 68.7615 141.961 68.4717 141.946 68.2774L141.774 67.4107C141.658 66.8329 141.594 66.4469 141.579 66.2525C141.176 60.7374 140.227 56.6058 138.735 53.8577C138.509 53.4347 138.371 53.2249 138.323 53.2285L138.214 53.2365C137.971 53.2543 137.578 53.8695 137.033 55.082C136.511 56.2685 135.863 57.574 135.09 58.9987C130.107 68.1829 127.642 73.1271 127.694 73.8318L127.71 74.0504C127.733 74.3662 128.666 74.4565 130.508 74.321ZM121.332 85.8041C120.02 88.8562 119.391 90.7466 119.444 91.4754C119.496 92.1801 119.807 92.9392 120.378 93.7517C120.974 94.5633 121.274 94.9927 121.277 95.0417C121.338 95.8676 120.975 96.4066 120.189 96.6605C119.14 96.9812 117.246 97.2431 114.507 97.4445L110.071 97.7706C108.423 97.8917 107.565 97.4908 107.498 96.5669C107.446 95.8631 108.229 95.0845 109.849 94.2328C111.468 93.3811 112.694 92.3137 113.526 91.0308C114.383 89.747 116.105 86.6404 118.693 81.7114C121.282 76.7824 123.157 73.2737 124.32 71.1853C125.482 69.0725 127.069 65.9635 129.084 61.8584C131.098 57.7289 133.542 53.3357 136.418 48.6787C137.945 46.2216 139.41 44.9414 140.817 44.838C141.665 44.7756 142.37 45.078 142.93 45.7451C144.424 47.5161 145.424 49.5188 145.929 51.7534C146.07 52.3536 146.254 53.708 146.482 55.8163C146.707 57.9004 146.891 59.4135 147.034 60.3557L148.556 69.1837C150.518 80.6664 151.649 86.9586 151.948 88.0601C152.273 89.1599 153.122 90.1114 154.497 90.9141C155.896 91.7151 156.612 92.3458 156.646 92.8073C156.715 93.7552 154.072 94.4261 148.714 94.8199C143.382 95.2119 140.693 95.1041 140.649 94.4965C140.604 93.8889 140.901 93.2813 141.538 92.6728L142.192 92.1115L142.851 91.6233C143.425 91.1413 143.827 90.6477 144.058 90.1426C144.314 89.6348 144.371 88.4217 144.231 86.5023C143.842 81.1817 143.17 78.1655 142.216 77.454C141.701 77.0766 138.874 77.0768 133.735 77.4546C128.596 77.8324 125.454 78.6862 124.308 80.0162C123.634 80.7986 122.642 82.7278 121.332 85.8041ZM176.242 44.9816L174.97 45.0752C171.649 45.3193 169.76 46.3131 169.303 48.0566C169.282 48.1069 168.427 54.5816 166.739 67.4806C165.075 80.3779 164.28 87.3246 164.353 88.3207C164.426 89.3167 164.786 89.9127 165.434 90.1096C166.106 90.3047 167.352 90.335 169.17 90.2014L171.715 90.0143C178.43 89.5208 183.877 86.5312 188.058 81.0455C190.103 78.3549 191.57 75.2548 192.458 71.7454C193.346 68.2359 193.678 64.9385 193.452 61.8529L193.404 61.197C193.295 60.3745 193.225 59.7446 193.193 59.3073C193.016 57.2197 192.441 55.1857 191.466 53.2054C189.607 49.434 186.842 46.9626 183.174 45.7911C180.953 45.075 178.642 44.8052 176.242 44.9816ZM157.103 45.6926C156.978 43.9918 162.879 42.7031 174.805 41.8264C186.756 40.9478 194.61 44.3763 198.369 52.1118C199.658 54.7284 200.405 57.458 200.613 60.3006L200.682 61.2481C200.983 65.3541 200.398 69.5129 198.927 73.7247C197.455 77.9121 195.183 81.5109 192.114 84.5212C189.068 87.5297 185.667 89.6847 181.913 90.9872C178.157 92.2888 173.467 93.1468 167.843 93.5601L166.862 93.6323L165.914 93.6653L162.205 93.9379L158.418 94.1428L157.47 94.1758L156.592 94.1668L154.229 94.3406C152.92 94.4377 152.245 94.206 152.204 93.6474C152.151 92.9187 152.756 92.2024 154.021 91.4986C155.307 90.7689 156.208 90.0793 156.721 89.4317C157.257 88.7569 157.814 86.8839 158.394 83.8125C158.973 80.741 159.828 73.7778 160.959 62.9227C161.434 58.4178 161.494 53.7479 161.14 48.9131C161.069 47.9413 160.533 47.2844 159.534 46.9428C157.934 46.4008 157.124 45.9841 157.103 45.6926ZM218.45 41.8789L217.178 41.9724C213.857 42.2165 211.967 43.2103 211.51 44.9537C211.49 45.0042 210.634 51.4788 208.946 64.3779C207.283 77.2751 206.488 84.2217 206.561 85.2178C206.634 86.214 206.994 86.8103 207.642 87.007C208.314 87.2018 209.559 87.2324 211.378 87.0987L213.922 86.9116C220.637 86.4181 226.084 83.4284 230.265 77.9428C232.31 75.252 233.777 72.152 234.666 68.6426C235.554 65.1332 235.885 61.8357 235.659 58.7502L235.611 58.0942C235.503 57.2717 235.433 56.6418 235.401 56.2045C235.223 54.1168 234.648 52.0829 233.674 50.1027C231.814 46.3312 229.05 43.8597 225.382 42.6882C223.161 41.9722 220.85 41.7024 218.45 41.8789ZM199.31 42.5897C199.186 40.8891 205.086 39.6003 217.013 38.7236C228.963 37.8451 236.817 41.2736 240.577 49.0091C241.865 51.6257 242.613 54.3552 242.821 57.1978L242.89 58.1453C243.191 62.2513 242.605 66.4101 241.135 70.6219C239.662 74.8093 237.391 78.4082 234.321 81.4184C231.275 84.4269 227.875 86.5821 224.12 87.8841C220.364 89.1858 215.674 90.0437 210.051 90.4571L209.069 90.5293L208.121 90.5622L204.412 90.8348L200.626 91.0397L199.678 91.0736L198.8 91.0647L196.436 91.2384C195.127 91.3346 194.452 91.103 194.411 90.5444C194.358 89.8156 194.963 89.0993 196.228 88.3956C197.515 87.666 198.415 86.9768 198.929 86.3285C199.464 85.654 200.021 83.7811 200.601 80.7097C201.18 77.6382 202.035 70.6749 203.166 59.8198C203.641 55.3149 203.701 50.6451 203.347 45.8103C203.276 44.8385 202.741 44.1817 201.741 43.8399C200.142 43.298 199.331 42.8812 199.31 42.5897ZM270.413 38.2055L270.493 39.2987C270.692 42.0198 270.396 44.3132 269.607 46.1787C269.317 46.884 268.93 47.2544 268.445 47.2901C267.718 47.3435 266.913 46.4989 266.03 44.7563C265.17 42.9876 264.026 41.5205 262.601 40.3552C261.2 39.188 259.262 38.6954 256.79 38.8771L256.717 38.8825C254.22 39.066 252.259 39.7475 250.835 40.927C248.674 42.698 247.686 44.859 247.873 47.4101C248.06 49.9611 249.358 52.2106 251.767 54.1586C252.389 54.6746 254.616 55.9643 258.447 58.0276C262.278 60.0909 265.052 62.0364 266.77 63.8643C268.489 65.692 269.443 67.9179 269.635 70.5418C269.993 75.4252 268.591 79.412 265.429 82.5023C262.266 85.5683 258.212 87.2831 253.267 87.6466L251.994 87.7402C248.746 87.9789 244.506 87.4967 239.276 86.2935C238.038 86.0182 237.361 85.0909 237.245 83.5117L237.162 82.382C236.96 79.6123 237.278 77.305 238.118 75.4602C238.411 74.8036 238.739 74.4618 239.103 74.4351C240 74.3691 240.932 75.4487 241.899 77.6737C242.866 79.8987 244.294 81.5891 246.182 82.7448C248.092 83.8745 250.502 84.3324 253.41 84.1186C256.32 83.9048 258.745 82.9204 260.689 81.1654C262.656 79.4087 263.547 77.2669 263.362 74.7402C263.178 72.2134 262.362 70.2338 260.917 68.8011C259.496 67.3668 256.908 65.6396 253.154 63.6195C249.423 61.5977 246.661 59.6512 244.866 57.7802C243.097 55.9074 242.12 53.7075 241.935 51.1808C241.61 46.7348 242.864 43.0641 245.698 40.1688C248.532 37.2736 252.131 35.6656 256.495 35.3448L257.731 35.2539C258.701 35.1826 260.334 35.3557 262.631 35.773C264.928 36.1904 266.089 36.3982 266.113 36.3965L267.121 36.1758L268.089 35.9214C269.519 35.8163 270.294 36.5776 270.413 38.2055Z" fill="#B23E3E"/>
<path d="M270.767 120.066L270.674 118.79C270.505 116.483 270.001 114.26 269.162 112.123C266.696 105.734 262.42 102.751 256.334 103.173C250.928 103.571 246.318 106.512 242.503 111.994C240.716 114.544 239.335 117.662 238.363 121.349C237.412 125.01 237.047 128.359 237.269 131.395L237.408 133.291C237.753 138.003 239.218 141.866 241.802 144.875C243.081 146.369 244.55 147.458 246.209 148.142C247.867 148.826 249.521 149.108 251.169 148.987L252.442 148.893C257.677 148.507 262.145 145.443 265.843 139.7C267.594 136.983 268.913 133.856 269.799 130.323C270.686 126.789 271.009 123.37 270.767 120.066ZM256.411 99.7238L257.211 99.665C259.876 99.469 262.499 99.8263 265.076 100.736C270.279 102.576 274.014 106.332 276.282 112.003C277.117 114.091 277.63 116.447 277.822 119.071L277.94 120.674C278.201 124.246 277.68 127.948 276.377 131.781C273.75 139.522 269.306 145.223 263.042 148.882C259.443 150.98 255.946 152.152 252.552 152.401L250.916 152.522C245.413 152.927 240.596 151.205 236.464 147.356C234.74 145.773 233.332 143.69 232.241 141.108C231.15 138.526 230.505 135.862 230.304 133.116L230.245 132.315C229.97 128.549 230.421 124.73 231.6 120.857C232.803 116.982 234.563 113.555 236.879 110.576C239.219 107.571 242.071 105.09 245.437 103.132C248.826 101.148 252.484 100.012 256.411 99.7238ZM276.622 99.7773C276.581 99.2178 277.434 98.8748 279.18 98.7465C280.948 98.6164 282.864 98.8053 284.924 99.3131C286.983 99.8209 288.548 100.561 289.619 101.533C290.687 102.48 294.488 108.295 301.021 118.977C307.553 129.636 311.279 134.931 312.201 134.863L312.674 133.839C312.83 133.315 313.168 131.104 313.687 127.207L314.153 123.581C314.296 122.203 314.65 119.539 315.213 115.589C315.778 111.64 315.981 108.596 315.825 106.458C315.668 104.32 315.437 102.835 315.133 102.002C314.828 101.17 314.425 100.32 313.923 99.453C313.42 98.5861 313.161 98.0311 313.143 97.7887C313.065 96.7197 314.044 96.1103 316.08 95.9606L317.716 95.8403C323.195 95.4376 325.958 95.5757 326.008 96.2564C326.042 96.7179 325.267 97.4466 323.683 98.4427C322.123 99.4369 321.02 101.191 320.375 103.705C318.992 109.108 317.489 122.701 315.866 144.487C315.773 145.885 315.23 146.622 314.236 146.695C313.509 146.749 312.58 146.365 311.447 145.544C310.337 144.698 308.573 142.739 306.155 139.668C305.806 139.229 302.444 133.907 296.067 123.702C289.691 113.496 286.163 108.419 285.484 108.469L285.013 109.529C284.819 110.203 284.519 112.435 284.114 116.227C283.709 120.019 283.148 124.664 282.429 130.163C281.71 135.664 281.421 139.374 281.562 141.293C281.7 143.188 282.188 144.52 283.024 145.288L284.095 145.942C285.098 146.651 285.612 147.175 285.636 147.515C285.72 148.657 285.035 149.282 283.58 149.388L280.271 149.632C274.38 150.065 271.411 149.941 271.361 149.26C271.311 148.58 271.585 147.999 272.183 147.515C274.164 145.928 275.252 144.993 275.451 144.709C276.068 143.81 276.537 142.566 276.86 140.979C277.182 139.392 278 133.75 279.313 124.055L280.245 116.804C281.002 111.497 281.283 107.508 281.087 104.835C281.03 104.057 280.286 103.221 278.856 102.324C277.424 101.403 276.679 100.554 276.622 99.7773ZM346.239 103.159C345.99 99.7585 344.132 98.1852 340.667 98.44C338.946 98.5665 337.442 99.3363 336.156 100.75C334.037 103.104 332.627 104.307 331.924 104.358C330.833 104.438 330.234 103.737 330.125 102.256C330.07 101.503 330.326 100.507 330.893 99.2677C331.46 98.0293 332.194 97.06 333.093 96.3588C335.308 94.6563 337.846 93.7004 340.707 93.4901L341.397 93.4393C344.379 93.2202 347.011 93.8821 349.292 95.4243C350.42 96.1717 351.348 97.215 352.08 98.5531C352.836 99.8904 353.26 101.19 353.353 102.454C353.547 105.101 353.029 107.521 351.8 109.712C350.57 111.878 348.714 114.165 346.234 116.57C343.776 118.949 342.052 120.859 341.06 122.299C340.068 123.74 339.642 125.396 339.779 127.267L340.167 129.584C340.251 130.725 339.675 131.341 338.438 131.432C337.759 131.482 337.074 131.105 336.381 130.302C335.711 129.471 335.314 128.205 335.189 126.505C335.065 124.805 335.62 122.883 336.852 120.74C336.981 120.511 338.177 118.872 340.44 115.823C342.725 112.749 344.289 110.313 345.132 108.517C345.998 106.694 346.367 104.909 346.239 103.159ZM340.643 140.576L340.693 141.269C340.782 142.484 340.326 143.58 339.325 144.557C338.324 145.534 337.436 146.052 336.66 146.109L335.97 146.16L335.123 146.075C334.589 146.114 333.955 145.758 333.217 145.006C332.504 144.252 332.12 143.5 332.065 142.746L332.004 141.908C331.943 141.082 332.288 140.141 333.039 139.084C333.791 138.028 334.555 137.47 335.33 137.413L336.301 137.195L336.556 137.177C337.525 137.105 338.428 137.442 339.261 138.187C340.118 138.905 340.579 139.702 340.643 140.576Z" fill="#B23E3E"/>
</svg>
