<svg width="640" height="260" viewBox="0 0 640 260" fill="none" xmlns="http://www.w3.org/2000/svg">
<path d="M217.947 58.4355L218.036 59.6441C218.368 64.1561 218.248 67.1622 217.676 68.662C217.137 70.1596 216.623 70.9261 216.139 70.9616C215.331 71.0207 214.464 70.0634 213.539 68.0896C212.614 66.116 211.213 64.7281 209.333 63.9257C207.488 63.1212 204.076 62.9009 199.098 63.2649C197.32 63.395 196.02 63.8303 195.198 64.5709C194.373 65.2793 193.743 66.4431 193.31 68.0626C192.909 69.6797 191.858 77.9218 190.157 92.7892C188.486 107.622 187.71 115.844 187.828 117.455C187.944 119.035 188.334 120.14 188.998 120.772C189.659 121.372 190.772 121.922 192.337 122.423C193.899 122.893 194.709 123.53 194.769 124.336C194.849 125.431 190.299 126.315 181.12 126.986L174.485 127.569L172.793 127.742C170.757 127.89 169.707 127.53 169.643 126.659C169.579 125.789 170.249 124.978 171.656 124.228C174.501 122.692 176.162 121.646 176.641 121.093C177.151 120.504 177.611 119.256 178.023 117.346C178.467 115.435 179.602 107.008 181.428 92.0667C183.253 77.1255 184.098 68.7363 183.963 66.8992C183.828 65.0622 181.644 64.2985 177.409 64.6081C173.176 64.9179 170.111 65.6604 168.214 66.836C166.351 68.0092 164.832 69.8861 163.657 72.467C162.481 75.0157 161.294 76.3338 160.098 76.4212C159.322 76.478 158.857 75.4589 158.703 73.364C158.547 71.2369 159.057 68.2348 160.233 64.3577C160.755 62.6022 161.502 61.4945 162.476 61.0345C162.789 60.882 171.963 60.1462 189.998 58.8271L209.927 57.4182L216.019 56.7297C217.215 56.6422 217.857 57.2108 217.947 58.4355ZM215.483 90.0134C217.474 74.6712 218.411 66.1944 218.292 64.5828C218.171 62.9393 217.279 61.8543 215.616 61.3279C212.82 60.4306 211.401 59.6919 211.359 59.1118C211.276 57.9838 215.112 57.1362 222.869 56.5688L230.376 55.9225C231.827 55.7517 232.568 55.6651 232.6 55.6627C234.604 55.5162 235.646 55.9908 235.726 57.0866C235.759 57.5378 234.304 58.503 231.358 59.982C229.667 60.851 228.591 62.1286 228.13 63.8148C227.701 65.4986 226.449 74.3065 224.371 90.2382C222.323 106.135 221.362 114.922 221.485 116.598C221.606 118.242 222.746 119.39 224.907 120.042C227.064 120.661 228.18 121.487 228.256 122.518C228.31 123.259 223.846 123.959 214.861 124.616L207.356 125.311L206.241 125.392C204.852 125.494 204.133 125.222 204.085 124.578C204.017 123.643 205.505 122.448 208.55 120.995C210.246 120.19 211.32 118.67 211.772 116.433C212.256 114.162 213.492 105.356 215.483 90.0134ZM289.605 119.1C285.662 119.388 283.636 118.792 283.527 117.309L286.402 112.676C287.367 110.759 288.076 108.26 288.532 105.181C291.539 85.0988 292.853 72.4793 292.474 67.3228C292.412 66.4847 292.09 66.0871 291.509 66.1296C290.959 66.1698 286.836 73.5026 279.138 88.1282C271.441 102.754 267.151 110.714 266.272 112.01C264.633 114.463 262.86 115.759 260.953 115.898C259.886 115.976 256.977 108.445 252.224 93.3044C247.47 78.1639 244.738 70.6196 244.027 70.6716C242.993 70.7472 242.074 74.6055 241.272 82.2463C240.467 89.8548 239.617 96.203 238.725 101.291C237.831 106.378 237.57 111.436 237.94 116.464L238.396 118.034L239.461 120.581C239.558 121.902 238.249 122.662 235.534 122.861C231.267 123.173 228.305 123.082 226.643 122.588L225.218 121.769C225.135 120.64 226.002 119.167 227.817 117.35C229.666 115.53 231.061 112.187 232.003 107.323C235.842 87.5037 237.426 73.0338 236.755 63.913C236.681 62.9139 236.274 61.7934 235.533 60.5515C234.822 59.2751 234.437 58.234 234.377 57.4282C234.299 56.3647 236.523 55.6674 241.048 55.3365C243.116 55.1853 244.905 55.4431 246.417 56.1103C247.958 56.7428 249.489 58.5588 251.009 61.5582C252.527 64.5254 254.453 69.7308 256.788 77.1745C259.154 84.5837 260.742 89.6194 261.555 92.2817C262.368 94.9441 262.985 96.9241 263.406 98.2218L264.332 100.876L265.363 102.307C266.074 102.255 270.337 94.831 278.152 80.0349C285.965 65.2066 290.88 56.698 292.896 54.5091C294.943 52.2858 297.985 51.0263 302.025 50.7309C306.098 50.4331 308.174 50.832 308.255 51.9278L307.218 53.0729L305.42 54.4681C303.717 56.0507 302.599 58.0928 302.068 60.5942C301.537 63.0955 300.393 73.6128 298.638 92.1456L297.184 106.833L297.137 109.51C297.236 110.863 298.027 112.118 299.509 113.273L302.77 115.853C302.881 117.368 298.492 118.45 289.605 119.1ZM353.052 52.7826L353.195 54.7163C353.422 57.8103 352.89 59.4046 351.597 59.4991C351.371 59.5157 350.682 58.756 349.529 57.2202C348.405 55.6498 346.533 54.4746 343.907 53.6945C341.313 52.8798 336.994 52.6934 330.95 53.1355C327.523 53.3861 325.057 54.7492 323.55 57.2247C322.827 58.4441 321.966 61.0992 320.967 65.1902C320.001 69.2787 319.542 71.6613 319.592 72.3382C319.746 74.4331 320.209 75.8574 320.979 76.611C322.554 78.1483 324.602 78.8248 327.123 78.6404C329.677 78.4537 331.758 77.8154 333.368 76.7257C336.338 74.6939 338.146 73.6544 338.792 73.6071C340.473 73.4842 341.44 75.147 341.694 78.5954C341.947 82.044 341.667 84.6404 340.853 86.3848C340.069 88.0946 339.208 88.9838 338.271 89.0524C337.333 89.121 336.564 88.8209 335.963 88.152C333.979 85.9317 332.888 84.7802 332.686 84.6977C331.238 83.9937 329.155 83.7409 326.44 83.9395C321.916 84.2704 319.059 85.8565 317.871 88.6976C317.404 89.8657 316.943 92.4268 316.487 96.381C316.03 100.335 315.906 103.73 316.115 106.566C316.321 109.37 317.321 111.047 319.117 111.596C320.38 111.989 323.484 112.005 328.43 111.644C333.407 111.28 337.652 110.24 341.166 108.525C342.985 107.647 344.926 106.193 346.987 104.163C349.076 102.098 350.267 101.055 350.558 101.034C350.881 101.01 351.077 101.465 351.145 102.4C351.214 103.335 350.851 105.03 350.057 107.486C349.293 109.907 348.359 111.774 347.253 113.086C346.179 114.396 344.011 115.17 340.745 115.409L338.658 115.513L321.298 116.734C307.756 117.724 300.755 118.188 300.295 118.124C299.014 117.926 298.343 117.425 298.284 116.619C298.241 116.039 299.052 115.364 300.718 114.594C302.383 113.824 303.352 113.3 303.624 113.02C304.534 112.144 305.282 110.388 305.869 107.753L306.298 105.632C306.462 104.777 306.76 102.649 307.193 99.2478L308.275 90.7603C308.877 85.6939 309.663 79.5935 310.632 72.4588C311.601 65.292 311.982 60.3227 311.778 57.551C311.702 56.5198 310.835 55.5463 309.174 54.6309C307.515 53.7153 306.65 52.7742 306.579 51.8074C306.508 50.8404 311.983 49.9539 323.004 49.1479L340.35 47.7335L344.661 47.3695L346.742 47.1687C349.134 46.9938 350.739 47.3948 351.559 48.3718C352.408 49.3141 352.905 50.7844 353.052 52.7826Z" fill="#E9C140"/>
<path d="M299.889 198.491C301.476 198.861 304.872 198.856 310.076 198.475C315.312 198.092 319.091 197.119 321.412 195.556C323.735 193.993 325.821 191.88 327.673 189.217C329.521 186.522 330.964 185.137 331.997 185.062C332.321 185.038 332.521 185.557 332.599 186.621C332.877 190.392 331.924 194.431 329.738 198.738C328.746 200.722 326.651 201.832 323.451 202.066L314.724 202.704L313.267 202.762L308.807 203.088L305.749 203.263L302.743 203.483C287.456 204.601 279.786 204.822 279.737 204.145C279.665 203.178 280.518 202.176 282.294 201.139C284.07 200.102 285.249 199.124 285.832 198.207C286.411 197.257 286.817 196.142 287.048 194.861C287.311 193.579 288.433 185.201 290.414 169.73C292.426 154.225 293.373 145.682 293.257 144.103C293.141 142.523 292.346 141.431 290.871 140.826C288.09 139.669 286.678 138.817 286.638 138.269C286.574 137.399 287.577 136.887 289.645 136.736L291.102 136.678L304.29 135.714L305.741 135.559C309.07 135.315 310.762 135.581 310.819 136.354C310.895 137.386 309.726 138.508 307.313 139.721C304.899 140.902 303.432 142.613 302.915 144.855C302.395 147.064 301.184 155.772 299.28 170.978C297.376 186.183 296.455 194.205 296.516 195.043C296.649 196.849 297.774 197.998 299.889 198.491ZM335.018 166.614C337.008 151.272 337.945 142.795 337.826 141.183C337.705 139.54 336.814 138.454 335.15 137.928C332.354 137.031 330.935 136.293 330.893 135.713C330.81 134.584 334.646 133.737 342.403 133.169L349.911 132.523C351.361 132.353 352.102 132.266 352.134 132.264C354.138 132.116 355.181 132.591 355.261 133.687C355.294 134.138 353.838 135.104 350.891 136.582C349.201 137.452 348.125 138.73 347.664 140.415C347.236 142.099 345.982 150.907 343.905 166.839C341.858 182.736 340.896 191.523 341.019 193.199C341.14 194.842 342.28 195.99 344.441 196.642C346.598 197.262 347.715 198.088 347.791 199.119C347.846 199.86 343.38 200.559 334.395 201.216L326.891 201.911L325.776 201.992C324.386 202.094 323.668 201.823 323.62 201.178C323.552 200.243 325.039 199.05 328.085 197.595C329.78 196.791 330.855 195.27 331.307 193.034C331.79 190.763 333.027 181.956 335.018 166.614ZM409.139 195.702C405.195 195.99 403.17 195.392 403.061 193.91L405.937 189.277C406.901 187.359 407.611 184.861 408.066 181.782C411.074 161.7 412.387 149.08 412.008 143.924C411.946 143.086 411.625 142.688 411.043 142.73C410.493 142.77 406.37 150.104 398.672 164.729C390.974 179.355 386.686 187.315 385.806 188.611C384.167 191.063 382.394 192.359 380.487 192.499C379.42 192.577 376.51 185.045 371.758 169.905C367.004 154.765 364.272 147.22 363.561 147.272C362.528 147.348 361.609 151.206 360.806 158.847C360.001 166.455 359.152 172.804 358.259 177.892C357.366 182.979 357.104 188.036 357.474 193.064L357.93 194.634L358.996 197.181C359.093 198.503 357.783 199.262 355.068 199.461C350.803 199.773 347.838 199.682 346.178 199.188L344.752 198.369C344.669 197.242 345.536 195.768 347.353 193.95C349.2 192.13 350.595 188.788 351.537 183.924C355.376 164.105 356.96 149.634 356.289 140.513C356.215 139.514 355.809 138.394 355.067 137.152C354.356 135.876 353.971 134.834 353.911 134.028C353.833 132.965 356.057 132.269 360.582 131.937C362.65 131.785 364.439 132.044 365.952 132.711C367.492 133.343 369.024 135.159 370.543 138.159C372.061 141.126 373.988 146.331 376.323 153.775C378.688 161.184 380.276 166.22 381.09 168.883C381.903 171.545 382.519 173.525 382.94 174.822L383.867 177.477L384.898 178.908C385.609 178.856 389.872 171.432 397.687 156.635C405.5 141.807 410.414 133.298 412.43 131.109C414.477 128.886 417.519 127.627 421.559 127.331C425.632 127.033 427.708 127.433 427.789 128.528L426.753 129.673L424.954 131.069C423.251 132.652 422.134 134.694 421.603 137.195C421.072 139.696 419.929 150.213 418.172 168.747L416.718 183.433L416.67 186.11C416.77 187.464 417.562 188.718 419.043 189.874L422.304 192.454C422.415 193.969 418.027 195.052 409.139 195.702ZM429.44 159.708C431.43 144.366 432.366 135.889 432.247 134.278C432.126 132.634 431.235 131.549 429.571 131.023C426.775 130.125 425.357 129.386 425.314 128.807C425.231 127.679 429.068 126.831 436.825 126.264L444.333 125.617C445.782 125.446 446.523 125.36 446.555 125.357C448.559 125.211 449.602 125.686 449.683 126.782C449.716 127.233 448.259 128.197 445.313 129.677C443.623 130.546 442.547 131.823 442.086 133.51C441.658 135.194 440.404 144.002 438.326 159.933C436.279 175.831 435.317 184.617 435.44 186.293C435.561 187.936 436.701 189.085 438.862 189.736C441.019 190.356 442.137 191.181 442.212 192.213C442.267 192.954 437.801 193.654 428.816 194.311L421.313 195.006L420.198 195.087C418.807 195.189 418.089 194.917 418.042 194.273C417.973 193.338 419.46 192.143 422.506 190.69C424.201 189.885 425.276 188.365 425.729 186.128C426.211 183.857 427.449 175.051 429.44 159.708ZM500.241 123.132L500.33 124.341C500.662 128.853 500.542 131.859 499.97 133.358C499.431 134.856 498.918 135.623 498.433 135.658C497.626 135.717 496.759 134.76 495.834 132.786C494.909 130.813 493.507 129.425 491.629 128.623C489.782 127.818 486.37 127.597 481.392 127.962C479.614 128.092 478.314 128.527 477.492 129.268C476.667 129.976 476.038 131.14 475.604 132.759C475.203 134.376 474.152 142.619 472.451 157.486C470.78 172.318 470.004 180.541 470.122 182.152C470.238 183.731 470.628 184.837 471.292 185.469C471.953 186.069 473.066 186.619 474.631 187.12C476.193 187.59 477.003 188.227 477.063 189.033C477.143 190.128 472.593 191.012 463.414 191.683L456.779 192.265L455.087 192.437C453.051 192.586 452.001 192.226 451.937 191.356C451.873 190.486 452.544 189.676 453.95 188.924C456.795 187.388 458.457 186.343 458.935 185.79C459.445 185.201 459.905 183.952 460.317 182.043C460.762 180.131 461.896 171.705 463.722 156.763C465.547 141.823 466.393 133.433 466.257 131.596C466.122 129.759 463.938 128.995 459.703 129.305C455.47 129.614 452.405 130.357 450.509 131.532C448.646 132.706 447.126 134.583 445.952 137.164C444.775 139.712 443.588 141.031 442.393 141.118C441.616 141.175 441.152 140.155 440.998 138.061C440.841 135.934 441.351 132.932 442.529 129.054C443.049 127.299 443.796 126.192 444.77 125.731C445.083 125.578 454.257 124.843 472.292 123.523L492.221 122.115L498.313 121.427C499.509 121.339 500.151 121.908 500.241 123.132Z" fill="#E9C140"/>
</svg>
