<svg width="481" height="195" viewBox="0 0 481 195" fill="none" xmlns="http://www.w3.org/2000/svg">
<path d="M155.993 65.0809L156.1 66.5311C156.271 68.8517 155.87 70.0473 154.899 70.1182C154.729 70.1307 154.211 69.5609 153.344 68.4091C152.501 67.2313 151.092 66.3498 149.12 65.7647C147.17 65.1537 143.924 65.014 139.382 65.3455C136.807 65.5335 134.953 66.5558 133.819 68.4125C133.277 69.327 132.629 71.3183 131.879 74.3865C131.152 77.4529 130.808 79.2399 130.845 79.7475C130.961 81.3187 131.308 82.3869 131.887 82.9522C133.071 84.1052 134.611 84.6125 136.506 84.4743C138.424 84.3341 139.988 83.8555 141.198 83.0381C143.43 81.5143 144.789 80.7347 145.275 80.6992C146.538 80.6071 147.266 81.8541 147.456 84.4405C147.647 87.0268 147.436 88.974 146.824 90.2822C146.235 91.5648 145.588 92.2322 144.884 92.2836C144.179 92.3351 143.601 92.1099 143.149 91.6082C141.659 89.9428 140.837 89.0794 140.687 89.0174C139.597 88.4891 138.033 88.2996 135.993 88.4485C132.592 88.6965 130.445 89.886 129.552 92.0169C129.202 92.8935 128.854 94.8142 128.511 97.78C128.168 100.745 128.075 103.291 128.232 105.419C128.386 107.521 129.138 108.779 130.488 109.191C131.437 109.486 133.771 109.498 137.487 109.226C141.228 108.953 144.419 108.174 147.059 106.887C148.427 106.229 149.885 105.139 151.434 103.616C153.005 102.067 153.899 101.285 154.118 101.269C154.36 101.251 154.508 101.593 154.56 102.294C154.612 102.995 154.339 104.266 153.742 106.108C153.168 107.924 152.465 109.324 151.634 110.309C150.827 111.291 149.197 111.871 146.744 112.05L145.174 112.128L132.128 113.044C121.949 113.787 116.688 114.135 116.342 114.087C115.379 113.938 114.875 113.563 114.83 112.958C114.798 112.523 115.408 112.017 116.66 111.44C117.911 110.862 118.64 110.468 118.844 110.259C119.528 109.601 120.091 108.285 120.531 106.309L120.853 104.718C120.977 104.077 121.202 102.48 121.526 99.9294L122.339 93.5644C122.792 89.7646 123.382 85.189 124.112 79.838C124.839 74.4629 125.125 70.736 124.972 68.6572C124.915 67.8837 124.263 67.1536 123.016 66.4671C121.769 65.7804 121.118 65.0745 121.065 64.3494C121.011 63.6242 125.126 62.9594 133.409 62.3549L146.446 61.294L149.686 61.0211L151.25 60.8705C153.048 60.7393 154.254 61.04 154.87 61.7727C155.508 62.4795 155.883 63.5822 155.993 65.0809ZM159.189 111.033C152.485 111.522 149.105 111.392 149.05 110.643C149.007 110.062 149.983 109.214 151.976 108.096C153.969 106.979 156.038 105.053 158.181 102.322C162.584 96.7749 165.638 92.6639 167.346 89.988C169.076 87.2854 169.895 85.3058 169.802 84.0489C169.708 82.7678 168.97 80.8775 167.589 78.378C164.49 72.7719 162.349 69.2343 161.166 67.7653C160.007 66.2946 158.959 65.3382 158.023 64.8962L156.825 64.5462L155.64 64.3775C154.87 64.1907 154.473 63.9402 154.45 63.626L154.776 63.0918C154.938 62.9586 155.73 62.7671 157.152 62.5175C158.597 62.2419 160.425 61.8534 162.635 61.3519C164.867 60.8244 166.493 60.5235 167.513 60.449C168.533 60.3746 169.056 60.5065 169.081 60.8449C169.117 61.3283 168.854 61.9065 168.293 62.5792C167.756 63.2502 167.51 63.8758 167.552 64.4559C167.679 66.1721 169.658 69.8308 173.49 75.4321C174.53 76.9601 175.367 77.701 175.998 77.6549C177.115 77.5734 179.318 75.1525 182.606 70.3925C184.746 67.2957 185.748 64.8167 185.611 62.9556L185.367 62.135C185.15 61.4948 185.03 61.0296 185.008 60.7396C184.903 59.3134 186.806 58.4576 190.717 58.1722C195.866 57.7963 198.467 57.9589 198.519 58.6599L198.562 59.24C198.588 59.6025 197.729 60.1999 195.983 61.0321C194.261 61.8625 192.927 62.8105 191.98 63.876C185.916 70.7341 181.681 76.4017 179.276 80.8786C178.696 81.9417 178.431 82.8358 178.484 83.561C178.536 84.262 179.102 85.6302 180.18 87.6658C184.551 95.9496 187.176 100.752 188.055 102.073C188.932 103.369 189.978 104.302 191.192 104.869C193.896 106.106 195.251 106.761 195.256 106.833L194.929 107.367C193.794 108.204 189.995 108.857 183.534 109.328C180.717 109.534 179.281 109.274 179.227 108.549C179.197 108.139 179.448 107.561 179.979 106.818C180.509 106.051 180.74 105.207 180.672 104.289C180.531 102.379 178.517 98.0911 174.632 91.4239C173.904 90.1652 173.37 89.5483 173.03 89.5732C171.742 89.6671 168.856 93.2436 164.37 100.303C162.554 103.157 161.694 105.248 161.792 106.578L162.48 109.444C162.546 110.338 161.449 110.868 159.189 111.033ZM236.562 56.0291L236.628 56.9355C236.878 60.3195 236.788 62.574 236.358 63.699C235.952 64.8222 235.568 65.3971 235.203 65.4236C234.596 65.468 233.945 64.75 233.249 63.2697C232.554 61.7895 231.5 60.7485 230.089 60.1468C228.701 59.5433 226.136 59.3781 222.395 59.6511C221.06 59.7486 220.083 60.0751 219.464 60.6306C218.844 61.1619 218.371 62.0348 218.045 63.2494C217.744 64.4621 216.954 70.6438 215.676 81.7943C214.42 92.9192 213.836 99.0856 213.925 100.294C214.013 101.479 214.306 102.308 214.805 102.782C215.302 103.231 216.139 103.644 217.314 104.02C218.488 104.372 219.097 104.85 219.141 105.454C219.202 106.276 215.783 106.939 208.885 107.442L203.898 107.879L202.625 108.009C201.095 108.12 200.306 107.85 200.258 107.197C200.21 106.544 200.714 105.936 201.772 105.373C203.909 104.221 205.158 103.437 205.518 103.022C205.901 102.581 206.247 101.645 206.556 100.212C206.89 98.778 207.743 92.4583 209.115 81.2525C210.487 70.0466 211.122 63.7546 211.021 62.3769C210.919 60.9991 209.277 60.4263 206.096 60.6586C202.913 60.8908 200.61 61.4478 199.185 62.3294C197.784 63.2092 196.643 64.617 195.759 66.5527C194.875 68.4642 193.983 69.4528 193.085 69.5184C192.501 69.5609 192.152 68.7966 192.036 67.2254C191.919 65.6302 192.302 63.3785 193.187 60.4707C193.578 59.1541 194.14 58.3233 194.871 57.9784C195.107 57.8639 202.002 57.3121 215.556 56.3228L230.535 55.2661L235.112 54.7497C236.011 54.6841 236.494 55.1105 236.562 56.0291ZM248.665 56.8225L247.208 56.9289C244.682 57.1133 243.192 57.7809 242.74 58.9318C242.311 60.0809 241.97 62.0743 241.715 64.9119C241.483 67.7235 241.193 70.4179 240.845 72.9949C240.499 75.5719 240.345 77.1384 240.386 77.6943C240.44 78.4194 241.304 78.7209 242.98 78.5985L244.401 78.4948L244.727 78.4347C249.39 78.0942 253.015 76.7483 255.602 74.3967C258.213 72.0433 259.373 68.8966 259.082 64.9566L259.019 64.5967C258.839 62.1554 257.816 60.2008 255.949 58.7332C254.081 57.2414 251.653 56.6044 248.665 56.8225ZM225.247 104.899C225.235 104.73 225.648 104.372 226.486 103.824L227.399 103.284C228.479 102.695 229.099 102.322 229.258 102.164C230.173 101.319 230.785 100.011 231.094 98.2391C231.928 93.6584 232.833 86.5446 233.807 76.8987C234.805 67.251 235.248 61.6536 235.134 60.1066C235.079 59.3573 234.419 58.7007 233.156 58.1367C231.892 57.5486 231.241 57.0006 231.204 56.493C231.133 55.5262 235.433 54.7263 244.104 54.0933L246.616 53.8736C252.884 53.4162 257.51 54.0628 260.496 55.8132C263.505 57.5378 265.139 60.1645 265.399 63.6936C265.832 69.5672 263.469 74.4421 258.309 78.3182C256.04 80.0147 254.941 81.3344 255.011 82.277C255.027 82.4946 256.163 84.8296 258.42 89.2824C260.678 93.7346 262.291 96.5577 263.258 97.7507C264.224 98.9438 265.577 99.7202 267.313 100.079C269.049 100.438 269.934 100.86 269.97 101.343C270.005 101.827 269.566 102.332 268.653 102.862C267.738 103.365 265.993 103.712 263.417 103.899C260.867 104.086 258.836 103.371 257.326 101.756C255.837 100.115 254.342 97.2225 252.84 93.0796C251.36 88.9101 249.989 86.0458 248.726 84.4854C247.486 82.8992 245.53 82.2036 242.857 82.3986C241.448 82.5014 240.492 83.2638 239.986 84.6859C238.446 88.9784 237.851 93.5051 238.202 98.2666C238.293 99.4995 238.884 100.55 239.973 101.419C241.062 102.262 241.63 103.023 241.68 103.7C241.746 104.594 239.01 105.243 233.472 105.647L228.412 106.09C226.372 106.239 225.317 105.841 225.247 104.899ZM282.666 80.3679L288.788 79.9211L289.077 79.8636L291.512 79.6129C291.705 79.5745 291.899 79.5483 292.093 79.5341C293.915 79.4012 294.793 78.8875 294.727 77.9932L294.706 77.7031L294.648 77.4157L294.437 76.0458L294.266 75.2199C294.189 74.8367 294.143 74.5484 294.128 74.3551L293.956 73.4928C293.84 72.9181 293.775 72.534 293.761 72.3406C293.356 66.8537 292.406 62.7431 290.91 60.009C290.684 59.5881 290.546 59.3794 290.498 59.383L290.388 59.391C290.145 59.4087 289.751 60.0207 289.205 61.2271C288.682 62.4074 288.032 63.7063 287.257 65.1238C282.266 74.261 279.795 79.1802 279.846 79.8811L279.862 80.0986C279.885 80.4129 280.821 80.5026 282.666 80.3679ZM273.471 91.7926C272.157 94.8293 271.526 96.7102 271.579 97.4352C271.631 98.1354 271.943 98.8906 272.515 99.6999C273.112 100.506 273.412 100.935 273.416 100.982C273.477 101.804 273.113 102.341 272.326 102.593C271.275 102.913 269.377 103.173 266.632 103.373L262.186 103.697C260.535 103.818 259.675 103.419 259.608 102.501C259.556 101.8 260.342 101.026 261.964 100.178C263.587 99.3302 264.815 98.2684 265.649 96.9929C266.507 95.7148 268.233 92.624 270.827 87.7206C273.42 82.8168 275.3 79.326 276.465 77.2482C277.629 75.1462 279.221 72.0531 281.239 67.9688C283.257 63.8604 285.706 59.4896 288.589 54.8564C290.118 52.4118 291.587 51.1381 292.996 51.0353C293.846 50.9733 294.552 51.2741 295.114 51.9378C296.612 53.6998 297.613 55.6923 298.119 57.9154C298.261 58.5127 298.445 59.86 298.673 61.9576C298.899 64.0311 299.084 65.5365 299.226 66.4739L300.753 75.2568C302.718 86.681 303.851 92.9413 304.152 94.0369C304.476 95.1307 305.328 96.0773 306.706 96.8759C308.107 97.6727 308.825 98.3012 308.859 98.7603C308.928 99.7025 306.279 100.37 300.911 100.762C295.567 101.152 292.872 101.044 292.828 100.441C292.783 99.8364 293.081 99.231 293.72 98.6256L294.375 98.0681L295.035 97.5823C295.61 97.1028 296.013 96.6118 296.245 96.1083C296.501 95.604 296.558 94.3967 296.418 92.4875C296.027 87.1935 295.355 84.1928 294.399 83.4849C293.883 83.1094 291.05 83.1097 285.9 83.4855C280.75 83.8613 277.602 84.7109 276.453 86.0341C275.778 86.8124 274.784 88.732 273.471 91.7926Z" fill="#B23E3E"/>
<path d="M209.432 145.027L209.48 145.681C209.523 146.26 210.505 146.48 212.423 146.34L214.719 146.173C219.285 145.839 222.998 144.354 225.856 141.715C226.932 140.737 227.845 139.382 228.597 137.651C229.371 135.893 229.685 134.023 229.539 132.041L229.453 130.881C229.236 127.932 228.04 125.784 225.864 124.435C223.713 123.086 221.095 122.524 218.011 122.749L216.48 122.86C213.978 123.043 212.528 123.744 212.129 124.965C211.91 125.636 211.398 129.124 210.593 135.429C209.812 141.731 209.425 144.931 209.432 145.027ZM194.593 170.826C194.549 170.221 195.123 169.572 196.318 168.877C197.534 168.156 198.43 167.386 199.004 166.567C200.307 164.698 201.536 157.84 202.69 145.994C203.076 141.955 203.151 138.329 202.914 135.114C202.677 131.9 202.699 129.711 202.98 128.548C203.26 127.385 203.398 126.78 203.395 126.732C203.338 125.958 202.58 125.442 201.12 125.184C199.684 124.925 198.937 124.408 198.88 123.635C198.822 122.837 199.74 122.212 201.636 121.757C206.053 120.706 210.544 120.013 215.111 119.68L217.115 119.534C225.907 118.892 231.746 120.908 234.631 125.582C235.6 127.14 236.169 129.067 236.339 131.362C236.707 136.366 234.896 140.605 230.902 144.081C229.135 145.619 227.037 146.805 224.608 147.639C222.202 148.47 219.044 149.028 215.133 149.314L212.101 149.426C210.473 149.544 209.341 150.247 208.703 151.533C208.449 152.062 208.133 153.908 207.756 157.07C207.401 160.206 207.276 162.5 207.383 163.95C207.49 165.401 207.853 166.504 208.47 167.261C209.086 167.994 209.806 168.488 210.631 168.744C211.454 168.975 211.88 169.285 211.908 169.671C211.992 170.807 210.661 171.476 207.916 171.676L206.933 171.748C206.374 171.789 204.778 171.832 202.143 171.878L198.049 171.995C195.814 172.158 194.663 171.768 194.593 170.826ZM251.127 120.368L249.67 120.474C247.143 120.659 245.654 121.327 245.202 122.477C244.773 123.627 244.432 125.62 244.176 128.458C243.945 131.269 243.654 133.964 243.307 136.541C242.96 139.118 242.806 140.684 242.847 141.24C242.901 141.965 243.766 142.266 245.442 142.144L246.863 142.04L247.188 141.98C251.852 141.64 255.477 140.294 258.064 137.943C260.674 135.589 261.834 132.442 261.544 128.502L261.481 128.142C261.301 125.701 260.277 123.747 258.411 122.279C256.542 120.787 254.114 120.15 251.127 120.368ZM227.709 168.445C227.697 168.276 228.11 167.918 228.948 167.37L229.861 166.829C230.941 166.241 231.561 165.868 231.72 165.71C232.635 164.865 233.247 163.557 233.555 161.785C234.39 157.203 235.295 150.09 236.268 140.444C237.267 130.797 237.709 125.199 237.595 123.653C237.539 122.903 236.881 122.246 235.618 121.682C234.354 121.095 233.703 120.546 233.666 120.039C233.594 119.072 237.895 118.272 246.566 117.639L249.078 117.419C255.344 116.962 259.972 117.609 262.958 119.359C265.966 121.083 267.601 123.71 267.861 127.239C268.294 133.113 265.931 137.988 260.77 141.864C258.502 143.561 257.403 144.88 257.472 145.823C257.488 146.041 258.625 148.375 260.882 152.828C263.14 157.281 264.752 160.104 265.72 161.297C266.686 162.49 268.038 163.266 269.774 163.625C271.51 163.984 272.396 164.406 272.431 164.889C272.467 165.373 272.028 165.878 271.115 166.407C270.199 166.911 268.454 167.257 265.879 167.445C263.329 167.631 261.298 166.917 259.787 165.302C258.298 163.661 256.803 160.768 255.301 156.626C253.821 152.456 252.45 149.591 251.187 148.031C249.947 146.445 247.991 145.749 245.319 145.944C243.91 146.047 242.953 146.81 242.447 148.232C240.907 152.524 240.313 157.051 240.664 161.813C240.755 163.045 241.346 164.096 242.435 164.964C243.523 165.808 244.092 166.569 244.142 167.246C244.207 168.14 241.471 168.789 235.933 169.193L230.874 169.636C228.833 169.784 227.779 169.387 227.709 168.445ZM274.22 140.554C275.717 129.047 276.42 122.69 276.331 121.481C276.24 120.248 275.57 119.435 274.32 119.04C272.219 118.367 271.152 117.813 271.12 117.378C271.058 116.532 273.941 115.896 279.771 115.471L285.414 114.986C286.503 114.858 287.06 114.793 287.084 114.791C288.59 114.681 289.373 115.037 289.434 115.859C289.459 116.198 288.365 116.922 286.151 118.031C284.88 118.682 284.072 119.64 283.725 120.905C283.403 122.168 282.461 128.774 280.9 140.723C279.361 152.646 278.638 159.236 278.731 160.493C278.822 161.726 279.679 162.586 281.302 163.076C282.924 163.54 283.763 164.16 283.82 164.933C283.861 165.489 280.505 166.013 273.752 166.506L268.112 167.027L267.274 167.088C266.23 167.164 265.69 166.961 265.655 166.477C265.603 165.776 266.721 164.881 269.009 163.79C270.284 163.187 271.091 162.047 271.431 160.37C271.795 158.666 272.724 152.061 274.22 140.554ZM286.494 115.818C286.453 115.262 287.306 114.921 289.055 114.794C290.829 114.664 292.747 114.852 294.811 115.357C296.876 115.863 298.444 116.599 299.517 117.565C300.588 118.508 304.397 124.294 310.944 134.921C317.488 145.526 321.223 150.793 322.146 150.726L322.619 149.707C322.777 149.185 323.116 146.985 323.636 143.108L324.102 139.502C324.245 138.131 324.6 135.48 325.164 131.55C325.73 127.621 325.934 124.592 325.777 122.466C325.62 120.339 325.39 118.861 325.084 118.032C324.779 117.204 324.374 116.359 323.871 115.496C323.368 114.634 323.108 114.082 323.09 113.84C323.011 112.776 323.992 112.17 326.033 112.021L327.673 111.901C333.162 111.501 335.932 111.639 335.982 112.316C336.016 112.775 335.238 113.5 333.651 114.491C332.088 115.48 330.983 117.225 330.338 119.727C328.951 125.101 327.445 138.626 325.818 160.3C325.725 161.692 325.181 162.424 324.185 162.497C323.457 162.55 322.525 162.169 321.39 161.352C320.278 160.51 318.51 158.561 316.087 155.506C315.738 155.07 312.368 149.775 305.978 139.622C299.588 129.468 296.053 124.416 295.373 124.466L294.901 125.521C294.706 126.191 294.406 128.413 294.001 132.185C293.595 135.956 293.032 140.579 292.312 146.05C291.591 151.522 291.302 155.213 291.443 157.123C291.582 159.008 292.07 160.333 292.908 161.098L293.982 161.749C294.986 162.453 295.501 162.975 295.526 163.313C295.609 164.449 294.923 165.07 293.465 165.176L290.149 165.418C284.246 165.85 281.27 165.727 281.22 165.05C281.171 164.373 281.445 163.794 282.045 163.313C284.029 161.735 285.12 160.804 285.32 160.522C285.937 159.627 286.407 158.389 286.731 156.81C287.054 155.231 287.873 149.619 289.19 139.972L290.123 132.759C290.881 127.479 291.163 123.509 290.967 120.851C290.91 120.077 290.165 119.245 288.731 118.352C287.296 117.437 286.551 116.592 286.494 115.818ZM373.663 109.748L373.73 110.654C373.979 114.038 373.89 116.293 373.459 117.418C373.054 118.541 372.668 119.116 372.304 119.143C371.697 119.187 371.046 118.469 370.351 116.988C369.655 115.508 368.602 114.467 367.19 113.866C365.803 113.262 363.238 113.097 359.497 113.37C358.161 113.468 357.184 113.794 356.566 114.35C355.946 114.88 355.473 115.754 355.147 116.969C354.846 118.181 354.055 124.363 352.777 135.513C351.521 146.638 350.938 152.804 351.027 154.013C351.114 155.198 351.407 156.026 351.906 156.501C352.403 156.95 353.239 157.363 354.415 157.739C355.589 158.091 356.199 158.568 356.243 159.173C356.304 159.995 352.884 160.658 345.985 161.161L340.999 161.598L339.727 161.727C338.197 161.839 337.407 161.569 337.359 160.916C337.311 160.263 337.815 159.655 338.873 159.092C341.01 157.94 342.259 157.156 342.619 156.741C343.002 156.3 343.348 155.363 343.658 153.931C343.992 152.498 344.844 146.177 346.217 134.972C347.589 123.765 348.224 117.474 348.122 116.096C348.021 114.718 346.379 114.146 343.196 114.378C340.015 114.61 337.711 115.167 336.286 116.049C334.886 116.928 333.744 118.336 332.861 120.271C331.977 122.183 331.085 123.171 330.186 123.237C329.603 123.28 329.254 122.516 329.138 120.944C329.02 119.349 329.403 117.097 330.289 114.19C330.68 112.873 331.241 112.042 331.973 111.698C332.208 111.583 339.103 111.031 352.658 110.042L367.636 108.985L372.214 108.468C373.113 108.403 373.596 108.829 373.663 109.748ZM392.648 116.527C392.398 113.144 390.537 111.579 387.064 111.832C385.338 111.958 383.832 112.724 382.544 114.131C380.42 116.472 379.007 117.669 378.302 117.72C377.209 117.8 376.608 117.103 376.499 115.629C376.444 114.88 376.702 113.889 377.27 112.657C377.838 111.424 378.573 110.459 379.474 109.762C381.694 108.069 384.237 107.117 387.103 106.908L387.796 106.857C390.783 106.639 393.421 107.298 395.707 108.832C396.837 109.576 397.768 110.613 398.501 111.945C399.258 113.275 399.684 114.568 399.776 115.825C399.97 118.46 399.451 120.867 398.22 123.047C396.987 125.203 395.127 127.477 392.642 129.87C390.179 132.236 388.45 134.137 387.457 135.57C386.464 137.003 386.037 138.651 386.174 140.512L386.563 142.817C386.647 143.952 386.07 144.566 384.83 144.656C384.15 144.706 383.463 144.331 382.769 143.531C382.098 142.705 381.7 141.447 381.575 139.754C381.45 138.062 382.005 136.151 383.241 134.019C383.37 133.791 384.569 132.16 386.836 129.127C389.126 126.068 390.693 123.645 391.539 121.858C392.406 120.044 392.776 118.268 392.648 116.527ZM387.04 153.754L387.09 154.443C387.179 155.651 386.722 156.742 385.719 157.714C384.716 158.686 383.827 159.201 383.049 159.258L382.357 159.309L381.508 159.224C380.974 159.263 380.338 158.909 379.598 158.161C378.884 157.412 378.498 156.662 378.443 155.912L378.382 155.079C378.321 154.256 378.667 153.32 379.42 152.269C380.173 151.218 380.938 150.664 381.716 150.607L382.688 150.39L382.944 150.371C383.916 150.3 384.819 150.635 385.655 151.376C386.514 152.091 386.975 152.884 387.04 153.754Z" fill="#B23E3E"/>
<path d="M82.1474 28.4988C82.1279 28.2341 82.5346 28.0713 83.3674 28.0105C84.2118 27.9489 85.1255 28.0384 86.1085 28.2792C87.0914 28.5199 87.8383 28.8704 88.349 29.3307C88.8589 29.7795 90.6727 32.5344 93.7903 37.5954C96.907 42.6448 98.6849 45.1535 99.125 45.1214L99.3503 44.6363C99.4251 44.3878 99.5864 43.3403 99.834 41.4938L100.057 39.7764C100.124 39.1235 100.293 37.8614 100.563 35.9902C100.832 34.119 100.929 32.6769 100.854 31.664C100.779 30.6512 100.67 29.9475 100.524 29.553C100.378 29.1586 100.186 28.7561 99.9462 28.3454C99.7066 27.9347 99.5828 27.6718 99.5739 27.5567C99.5374 27.0502 100.004 26.7616 100.976 26.6906L101.756 26.6337C104.371 26.4429 105.69 26.5086 105.714 26.8309C105.73 27.0496 105.359 27.3948 104.604 27.8666C103.859 28.3376 103.333 29.1686 103.026 30.3599C102.365 32.9193 101.648 39.3594 100.873 49.6805C100.83 50.3433 100.571 50.6921 100.096 50.7267C99.7494 50.752 99.3049 50.5703 98.7651 50.1816C98.2351 49.7805 97.3934 48.8525 96.2399 47.3976C96.0733 47.1899 94.4682 44.6686 91.4254 39.8335C88.383 34.9986 86.6997 32.5929 86.3758 32.6166L86.1512 33.119C86.0584 33.4382 85.9155 34.4959 85.7223 36.2921C85.529 38.0884 85.2609 40.2893 84.918 42.8949C84.5752 45.5006 84.4372 47.2581 84.5043 48.1673C84.5704 49.0651 84.803 49.6962 85.202 50.0606L85.7133 50.3703C86.1915 50.7057 86.4366 50.954 86.4485 51.1153C86.4884 51.6562 86.1613 51.952 85.4672 52.0027L83.8883 52.1179C81.0776 52.323 79.6602 52.2645 79.6365 51.9422C79.6127 51.6199 79.7436 51.3442 80.0291 51.1151C80.9738 50.3633 81.4935 49.9204 81.5883 49.7861C81.8824 49.3597 82.1066 48.7705 82.2605 48.0186C82.4144 47.2668 82.8046 44.5941 83.4313 40.0004L83.8758 36.5658C84.2371 34.0514 84.3711 32.1612 84.2777 30.895C84.2506 30.5267 83.8958 30.1301 83.2132 29.7056C82.5298 29.2694 82.1745 28.8672 82.1474 28.4988ZM119.18 27.445L119.231 28.1356C119.313 29.2406 119.122 29.81 118.659 29.8438C118.578 29.8496 118.331 29.5784 117.919 29.0298C117.517 28.469 116.846 28.0492 115.907 27.7706C114.978 27.4797 113.433 27.4132 111.27 27.571C110.044 27.6605 109.161 28.1474 108.621 29.0315C108.363 29.467 108.055 30.4152 107.697 31.8763C107.351 33.3365 107.187 34.1874 107.205 34.4291C107.26 35.1773 107.426 35.686 107.701 35.9552C108.265 36.5042 108.998 36.7458 109.9 36.6799C110.814 36.6132 111.559 36.3853 112.135 35.9961C113.198 35.2704 113.845 34.8992 114.076 34.8823C114.678 34.8384 115.024 35.4323 115.115 36.6639C115.206 37.8955 115.106 38.8227 114.814 39.4457C114.533 40.0564 114.226 40.374 113.89 40.3985C113.554 40.423 113.279 40.3158 113.064 40.0769C112.354 39.2839 111.963 38.8727 111.891 38.8433C111.373 38.5918 110.628 38.5015 109.656 38.5724C108.037 38.6906 107.014 39.257 106.589 40.2717C106.422 40.689 106.257 41.6037 106.093 43.0158C105.93 44.428 105.886 45.6405 105.961 46.6534C106.034 47.6548 106.393 48.2535 107.035 48.4497C107.487 48.5903 108.598 48.5959 110.368 48.4668C112.149 48.3368 113.669 47.9655 114.926 47.353C115.577 47.0393 116.272 46.5199 117.009 45.7949C117.757 45.0576 118.183 44.6851 118.287 44.6775C118.403 44.6691 118.473 44.8317 118.498 45.1655C118.523 45.4993 118.393 46.1048 118.108 46.9819C117.835 47.8466 117.5 48.5132 117.105 48.9819C116.72 49.4497 115.944 49.7262 114.775 49.8115L114.028 49.8486L107.816 50.2847C102.969 50.6385 100.464 50.804 100.299 50.7813C99.8402 50.7106 99.5997 50.5314 99.5792 50.2437C99.5632 50.0365 99.8536 49.7954 100.45 49.5204C101.046 49.2455 101.393 49.0582 101.49 48.9585C101.816 48.6454 102.084 48.0184 102.293 47.0772L102.447 46.3197C102.506 46.0145 102.613 45.2545 102.767 44.0397L103.155 41.0085C103.37 39.1991 103.652 37.0203 103.998 34.4722C104.345 31.9126 104.481 30.1379 104.409 29.148C104.381 28.7797 104.07 28.4321 103.477 28.1051C102.883 27.7781 102.573 27.442 102.548 27.0967C102.522 26.7513 104.482 26.4347 108.426 26.1469L114.634 25.6417L116.176 25.5117L116.922 25.44C117.778 25.3776 118.352 25.5208 118.646 25.8697C118.949 26.2062 119.127 26.7314 119.18 27.445ZM134.005 26.363L134.055 27.0536C134.137 28.1586 133.947 28.728 133.483 28.7618C133.402 28.7676 133.156 28.4964 132.743 27.9478C132.342 27.387 131.671 26.9672 130.732 26.6887C129.803 26.3977 128.258 26.3312 126.094 26.4891C124.868 26.5785 123.986 27.0654 123.446 27.9495C123.187 28.385 122.879 29.3332 122.521 30.7943C122.176 32.2545 122.012 33.1054 122.029 33.3471C122.085 34.0953 122.25 34.604 122.526 34.8732C123.089 35.4222 123.823 35.6638 124.725 35.5979C125.639 35.5312 126.383 35.3033 126.96 34.9141C128.022 34.1885 128.67 33.8172 128.901 33.8003C129.503 33.7564 129.848 34.3503 129.939 35.5819C130.03 36.8135 129.929 37.7408 129.638 38.3638C129.358 38.9745 129.049 39.292 128.714 39.3165C128.379 39.341 128.103 39.2338 127.888 38.9949C127.179 38.202 126.788 37.7907 126.716 37.7613C126.197 37.5098 125.452 37.4195 124.481 37.4904C122.861 37.6087 121.839 38.1751 121.413 39.1898C121.247 39.607 121.082 40.5217 120.918 41.9339C120.755 43.346 120.71 44.5586 120.785 45.5714C120.859 46.5728 121.217 47.1716 121.859 47.3677C122.312 47.5083 123.423 47.514 125.192 47.3848C126.974 47.2548 128.493 46.8836 129.75 46.271C130.402 45.9573 131.096 45.438 131.833 44.713C132.581 43.9756 133.008 43.6031 133.112 43.5955C133.227 43.5871 133.297 43.7497 133.322 44.0835C133.346 44.4174 133.217 45.0228 132.933 45.8999C132.66 46.7646 132.325 47.4313 131.929 47.9C131.544 48.3677 130.769 48.6442 129.6 48.7295L128.853 48.7667L122.64 49.2027C117.793 49.5565 115.287 49.7221 115.124 49.6993C114.665 49.6286 114.424 49.4494 114.403 49.1617C114.388 48.9545 114.678 48.7135 115.274 48.4385C115.871 48.1636 116.217 47.9762 116.314 47.8766C116.64 47.5634 116.909 46.9364 117.118 45.9953L117.271 45.2377C117.33 44.9325 117.437 44.1725 117.592 42.9577L117.979 39.9265C118.195 38.1171 118.475 35.9383 118.823 33.3902C119.169 30.8306 119.306 29.0559 119.233 28.0661C119.206 27.6977 118.895 27.3501 118.301 27.0231C117.708 26.6961 117.398 26.36 117.372 26.0147C117.347 25.6693 119.306 25.3528 123.251 25.0649L129.458 24.5597L131.001 24.4298L131.746 24.3581C132.602 24.2956 133.176 24.4388 133.47 24.7877C133.774 25.1242 133.952 25.6494 134.005 26.363ZM140.853 25.2382L140.247 25.2825C138.662 25.3982 137.761 25.869 137.543 26.695C137.532 26.7189 137.125 29.7863 136.319 35.8974C135.525 42.0076 135.146 45.2987 135.18 45.7706C135.215 46.2425 135.387 46.525 135.696 46.6182C136.017 46.7105 136.612 46.725 137.478 46.6616L138.693 46.573C141.897 46.3392 144.497 44.9228 146.492 42.3239C147.467 41.0492 148.167 39.5805 148.591 37.9178C149.015 36.2552 149.174 34.693 149.066 33.2312L149.043 32.9204C148.991 32.5308 148.957 32.2323 148.942 32.0251C148.858 31.0361 148.583 30.0725 148.118 29.1343C147.231 27.3476 145.912 26.1767 144.162 25.6217C143.102 25.2824 141.999 25.1546 140.853 25.2382ZM131.721 25.575C131.661 24.7692 134.477 24.1587 140.168 23.7434C145.871 23.3271 149.618 24.9515 151.412 28.6162C152.027 29.8558 152.384 31.149 152.483 32.4958L152.516 32.9446C152.659 34.8898 152.381 36.8601 151.679 38.8555C150.976 40.8394 149.892 42.5444 148.427 43.9705C146.974 45.3958 145.352 46.4169 143.56 47.0337C141.767 47.6505 139.53 48.0569 136.846 48.2527L136.378 48.287L135.925 48.3026L134.155 48.4317L132.349 48.5289L131.896 48.5445L131.477 48.5405L130.349 48.6227C129.725 48.6684 129.403 48.5588 129.383 48.294C129.358 47.9487 129.646 47.6094 130.25 47.2761C130.864 46.9304 131.294 46.6039 131.538 46.2967C131.794 45.9772 132.06 45.0898 132.336 43.6347C132.613 42.1796 133.021 38.8807 133.561 33.7379C133.787 31.6037 133.816 29.3913 133.647 27.1007C133.614 26.6404 133.358 26.3292 132.88 26.1673C132.117 25.9105 131.731 25.7131 131.721 25.575Z" fill="#B23E3E"/>
</svg>
