<svg width="1080" height="354" viewBox="0 0 1080 354" fill="none" xmlns="http://www.w3.org/2000/svg">
<mask id="mask0_1269_7561" style="mask-type:luminance" maskUnits="userSpaceOnUse" x="0" y="76" width="1080" height="278">
<path d="M1080 76.3828H0V354.001H1080V76.3828Z" fill="white"/>
</mask>
<g mask="url(#mask0_1269_7561)">
<path d="M62.5303 222.851L52.3606 271.577C51.6733 274.836 51.3325 277.05 51.3325 278.209C51.3325 284.544 56.9034 287.711 68.051 287.711H75.7397L73.594 297.695H1.84735L3.99305 287.711H6.92103C14.6098 287.711 19.9349 286.323 22.902 283.534C25.8803 280.751 27.8974 276.85 28.9591 271.829L53.2546 154.158C53.8637 151.22 54.171 149.017 54.171 147.548C54.171 141.202 48.628 138.023 37.5419 138.023H34.5022L36.5361 128.062H97.219C132.545 128.062 150.213 141.523 150.213 168.434C150.213 194.587 135.937 211.14 107.389 218.1L124.107 268.914C126.817 277.039 129.567 282.203 132.355 284.406C135.138 286.61 138.714 287.711 143.083 287.711H144.894L143.083 297.695H140.044C126.778 297.695 117.402 295.899 111.904 292.302C106.405 288.71 102.036 281.228 98.806 269.855L85.4624 222.851H62.5303ZM64.7878 211.72H82.6462C96.4256 211.72 107.042 208.105 114.496 200.864C121.962 193.628 125.694 183.283 125.694 169.834C125.694 159.311 123.414 151.61 118.855 146.745C114.295 141.868 106.478 139.423 95.4086 139.423H79.5841L64.7878 211.72Z" fill="#E9C140"/>
<path d="M166.175 285.852H210.81C223.846 285.852 232.585 279.357 237.028 266.367L240.649 256.153H252.741L242.571 297.695H118.5L120.289 287.711H123.351C131.185 287.711 136.627 286.306 139.667 283.488C142.718 280.66 144.774 276.775 145.836 271.829L169.908 155.099C170.355 152.93 170.578 151.031 170.578 149.407C170.578 145.689 169.517 142.866 167.404 140.938C165.303 138.999 160.934 138.023 154.307 138.023H151.379L153.413 128.062H270.018L262.687 169.604H250.595L251.265 162.283C251.634 158.565 251.824 156.402 251.824 155.788C251.824 145.184 246.326 139.882 235.329 139.882H196.461L183.251 203.136H239.062L236.804 214.726H180.971L166.175 285.852Z" fill="#E9C140"/>
<path d="M304.984 271.577C304.37 274.532 304.068 276.741 304.068 278.209C304.068 284.544 309.639 287.711 320.787 287.711H326.106L323.96 297.695H251.968L254.136 287.711H259.433C267.194 287.711 272.581 286.346 275.593 283.603C278.599 280.849 280.633 276.924 281.695 271.829L308.941 139.882H286.791C275.777 139.882 268.049 146.389 263.613 159.391L260.349 169.604H248.369L258.07 128.062H388.376L380.911 169.604H368.931C369.691 163.407 370.07 158.576 370.07 155.099C370.07 144.955 364.98 139.882 354.805 139.882H332.32L304.984 271.577Z" fill="#E9C140"/>
<path d="M387.845 222.851L377.676 271.577C376.988 274.836 376.647 277.05 376.647 278.209C376.647 284.544 382.218 287.711 393.366 287.711H401.055L398.909 297.695H327.162L329.308 287.711H332.236C339.925 287.711 345.25 286.323 348.217 283.534C351.195 280.751 353.212 276.85 354.274 271.829L378.57 154.158C379.179 151.22 379.486 149.017 379.486 147.548C379.486 141.202 373.943 138.023 362.857 138.023H359.817L361.851 128.062H422.534C457.86 128.062 475.528 141.523 475.528 168.434C475.528 194.587 461.252 211.14 432.704 218.1L449.422 268.914C452.132 277.039 454.882 282.203 457.67 284.406C460.453 286.61 464.029 287.711 468.398 287.711H470.209L468.398 297.695H465.359C452.093 297.695 442.717 295.899 437.219 292.302C431.72 288.71 427.351 281.228 424.121 269.855L410.777 222.851H387.845ZM390.103 211.72H407.961C421.741 211.72 432.357 208.105 439.811 200.864C447.277 193.628 451.009 183.283 451.009 169.834C451.009 159.311 448.729 151.61 444.17 146.745C439.61 141.868 431.793 139.423 420.724 139.423H404.899L390.103 211.72Z" fill="#E9C140"/>
<path d="M548.68 125.379C566.605 125.379 581.066 131.111 592.063 142.569C603.06 154.016 608.558 170.065 608.558 190.721C608.558 217.867 599.964 242.929 582.788 265.909C565.622 288.878 543.589 300.359 516.696 300.359C498.379 300.359 483.689 294.426 472.619 282.549C461.545 270.677 456.013 254.652 456.013 234.466C456.013 207.234 464.674 182.246 482.007 159.507C499.335 136.757 521.557 125.379 548.68 125.379ZM518.037 287.254C537.259 287.254 552.91 276.329 564.996 254.48C577.094 232.63 583.145 209.254 583.145 184.341C583.145 169.56 579.955 158.193 573.579 150.235C567.214 142.265 558.274 138.278 546.758 138.278C527.458 138.278 511.723 149.242 499.552 171.167C487.393 193.097 481.314 216.438 481.314 241.191C481.314 256.052 484.588 267.441 491.148 275.365C497.703 283.295 506.666 287.254 518.037 287.254Z" fill="#E9C140"/>
<path d="M574.36 297.695L576.394 287.711H579.434C586.676 287.711 591.912 286.283 595.147 283.419C598.377 280.562 600.561 276.305 601.696 270.659L625.768 154.158C626.36 151.22 626.662 149.017 626.662 147.548C626.662 141.202 621.085 138.023 609.943 138.023H607.015L609.049 128.062H668.369C685.087 128.062 698.04 132.05 707.237 140.02C716.429 147.978 721.028 159.27 721.028 173.896C721.028 191.924 715.133 206.062 703.348 216.31C691.558 226.546 673.873 231.664 650.287 231.664H633.121L624.874 271.577C624.186 274.836 623.846 277.05 623.846 278.209C623.846 284.544 629.417 287.711 640.564 287.711H648.141L646.107 297.695H574.36ZM635.49 220.418H647.694C680.237 220.418 696.509 204.989 696.509 174.126C696.509 150.991 685.244 139.423 662.714 139.423H652.097L635.49 220.418Z" fill="#E9C140"/>
<path d="M681.066 297.695L683.1 287.711H686.14C693.382 287.711 698.617 286.283 701.853 283.419C705.082 280.562 707.267 276.305 708.402 270.659L732.474 154.158C733.066 151.22 733.368 149.017 733.368 147.548C733.368 141.202 727.791 138.023 716.649 138.023H713.721L715.755 128.062H775.075C791.793 128.062 804.746 132.05 813.943 140.02C823.135 147.978 827.734 159.27 827.734 173.896C827.734 191.924 821.838 206.062 810.054 216.31C798.264 226.546 780.578 231.664 756.993 231.664H739.827L731.58 271.577C730.892 274.836 730.551 277.05 730.551 278.209C730.551 284.544 736.122 287.711 747.27 287.711H754.847L752.813 297.695H681.066ZM742.196 220.418H754.4C786.943 220.418 803.214 204.989 803.214 174.126C803.214 150.991 791.95 139.423 769.42 139.423H758.803L742.196 220.418Z" fill="#E9C140"/>
<path d="M889.804 128.062L887.77 138.023H884.708C877.332 138.023 872.018 139.464 868.772 142.338C865.537 145.201 863.352 149.453 862.223 155.099L838.285 271.577C837.598 274.916 837.257 277.125 837.257 278.209C837.257 284.544 842.828 287.711 853.976 287.711H856.926L854.892 297.695H787.548L789.337 287.711H792.399C805.195 287.711 812.766 282.031 815.107 270.659L839.179 154.158C839.772 151.22 840.073 149.017 840.073 147.548C840.073 141.202 834.497 138.023 823.355 138.023H820.427L822.461 128.062H889.804Z" fill="#E9C140"/>
<path d="M883.398 285.852H928.033C941.069 285.852 949.808 279.357 954.25 266.367L957.871 256.153H969.963L959.793 297.695H835.723L837.511 287.711H840.573C848.407 287.711 853.85 286.306 856.889 283.488C859.94 280.66 861.996 276.775 863.058 271.829L887.13 155.099C887.577 152.93 887.801 151.031 887.801 149.407C887.801 145.689 886.739 142.866 884.627 140.938C882.526 138.999 878.156 138.023 871.529 138.023H868.601L870.635 128.062H987.24L979.909 169.604H967.817L968.488 162.283C968.857 158.565 969.047 156.402 969.047 155.788C969.047 145.184 963.548 139.882 952.552 139.882H913.683L900.474 203.136H956.284L954.027 214.726H898.194L883.398 285.852Z" fill="#E9C140"/>
<path d="M967.402 248.031C967.402 260.184 970.52 269.95 976.767 277.34C983.025 284.73 991.614 288.425 1002.54 288.425C1013.31 288.425 1021.88 285.683 1028.24 280.186C1034.6 274.695 1037.79 267.23 1037.79 257.786C1037.79 250.275 1035.96 243.934 1032.31 238.759C1028.66 233.572 1020.77 227.461 1008.64 220.421C996.285 213.077 987.719 205.543 982.936 197.814C978.153 190.074 975.761 181.323 975.761 171.558C975.761 157.879 980.802 146.805 990.893 138.324C1001 129.85 1014.66 125.609 1031.91 125.609C1045.32 125.609 1056.01 128.014 1064 132.816C1071.99 137.607 1075.98 143.758 1075.98 151.269C1075.98 162.257 1069.17 167.748 1055.53 167.748C1055.53 158.464 1053.39 151.108 1049.1 145.692C1044.8 140.275 1038.47 137.567 1030.1 137.567C1020.92 137.567 1013.38 140.275 1007.5 145.692C1001.63 151.108 998.694 158.384 998.694 167.518C998.694 174.237 1000.26 180.05 1003.39 184.961C1006.52 189.873 1014.48 196.161 1027.28 203.827C1039.41 211.097 1048.16 218.332 1053.54 225.539C1058.94 232.734 1061.63 240.928 1061.63 250.12C1061.63 265.818 1056.28 278.063 1045.59 286.842C1034.89 295.626 1020.01 300.016 1000.95 300.016C985.199 300.016 972.688 296.826 963.424 290.445C954.17 284.065 949.544 275.963 949.544 266.14C949.544 260.649 951.22 256.259 954.573 252.966C957.925 249.678 962.2 248.031 967.402 248.031Z" fill="#E9C140"/>
</g>
<mask id="mask1_1269_7561" style="mask-type:luminance" maskUnits="userSpaceOnUse" x="143" y="0" width="166" height="146">
<path d="M308.981 0H143.047V145.419H308.981V0Z" fill="white"/>
</mask>
<g mask="url(#mask1_1269_7561)">
<path d="M174.888 105.578C173.776 107.001 172.418 107.454 170.825 106.932C169.685 106.559 169.082 105.819 169.021 104.711C168.981 103.966 169.272 103.139 169.903 102.233C177.659 91.3538 185.124 81.2553 192.288 71.9256C199.463 62.5902 206.699 53.6392 213.996 45.0727C221.294 36.5061 228.949 28.0257 236.956 19.6312L238.074 20.7558V22.3567C233.296 22.3567 228.379 21.7657 223.311 20.5837C218.327 19.4247 213.303 18.0706 208.235 16.5213C203.229 14.9893 198.323 13.6295 193.523 12.4418C188.812 11.2712 184.331 10.6688 180.084 10.6286C175.955 10.5884 172.166 11.409 168.724 13.1016C164.941 15.0008 162.025 17.7779 159.98 21.4272C157.923 25.0936 156.973 29.5519 157.13 34.802C157.281 37.975 158.208 40.8038 159.907 43.2882C161.628 45.8014 163.807 47.7465 166.45 49.1236C169.082 50.4949 171.77 51.1433 174.497 51.063C176.855 50.9884 179.073 50.2252 181.157 48.7793C183.23 47.3276 184.94 44.9981 186.275 41.7849C187.65 38.4799 188.332 34.079 188.332 28.5707C188.332 26.2871 188.974 24.583 190.248 23.4469C191.506 22.3337 192.925 21.8632 194.501 22.0469C196.088 22.2247 197.367 23.0223 198.345 24.4395C199.301 25.8281 199.58 27.7215 199.172 30.1257C198.127 36.0184 196.244 40.8611 193.523 44.6481C190.796 48.4408 187.572 51.2925 183.85 53.2032C180.168 55.0909 176.352 56.1753 172.401 56.445H172.356C167.892 56.6286 163.595 55.8598 159.477 54.1499C155.319 52.4228 151.905 49.8752 149.24 46.4957C146.513 43.0415 145.15 38.9906 145.15 34.3372C145.15 28.8634 147.189 23.9633 151.268 19.637C155.168 15.5 159.901 11.9368 165.456 8.95318C171.624 5.6941 177.721 3.73751 183.739 3.07766C189.706 2.41781 195.49 2.59568 201.083 3.60554C206.626 4.60392 211.867 6.01542 216.818 7.84004C221.707 9.64171 226.222 11.3975 230.357 13.1131C234.408 14.7943 237.934 16.0107 240.94 16.7623C243.969 17.4796 247.316 17.514 250.976 16.8656C254.731 16.2058 258.469 15.0812 262.191 13.5033C264.096 12.7 265.716 12.7172 267.041 13.5606C268.32 14.3754 269.08 15.5803 269.321 17.1755C269.55 18.7132 269.192 20.1706 268.242 21.5534C267.287 22.9305 265.689 23.8313 263.442 24.2502C259.754 24.8813 256.016 24.8641 252.222 24.1928C248.618 23.5502 245.154 22.9764 241.834 22.4657L242.069 20.8821L243.17 22.0124C236.23 29.1445 229.782 36.6553 223.831 44.5448C217.869 52.4572 212.007 61.0238 206.246 70.2559C200.474 79.511 194.305 89.8161 187.739 101.165C186.901 102.634 185.733 103.472 184.219 103.667C183.124 103.805 181.923 103.828 180.615 103.736C179.548 103.661 178.458 103.736 177.346 103.966C176.447 104.149 175.62 104.7 174.854 105.618L173.67 104.574L174.888 105.578ZM172.451 103.575L172.485 103.529C173.714 102.055 175.134 101.154 176.732 100.827C178.117 100.54 179.481 100.448 180.827 100.54C181.934 100.62 182.934 100.603 183.834 100.483C184.325 100.425 184.733 100.104 185.057 99.5245C191.64 88.1464 197.831 77.8126 203.62 68.5288C209.431 59.2164 215.343 50.5695 221.361 42.5882C227.396 34.584 233.928 26.9756 240.963 19.746L241.522 19.1779L242.298 19.2984C245.64 19.8091 249.121 20.3886 252.753 21.0313C256.201 21.6452 259.576 21.6624 262.884 21.1001C264.297 20.8362 265.23 20.3714 265.694 19.7001C266.158 19.0288 266.342 18.346 266.236 17.6632C266.141 17.0377 265.862 16.5787 265.398 16.2861C264.973 16.0164 264.303 16.0738 263.381 16.464C259.447 18.1337 255.491 19.3214 251.507 20.0271C247.428 20.7444 243.662 20.6927 240.203 19.8722C237.046 19.0861 233.38 17.8238 229.189 16.0853C225.088 14.3869 220.612 12.6426 215.768 10.8524C210.985 9.09088 205.911 7.72528 200.547 6.76133C195.238 5.80312 189.751 5.63672 184.068 6.26214C178.436 6.88183 172.714 8.72366 166.903 11.7934C161.645 14.6164 157.18 17.973 153.509 21.869C150.017 25.5699 148.268 29.7298 148.268 34.3372C148.268 38.2332 149.402 41.6128 151.665 44.4817C153.989 47.4252 156.985 49.6629 160.65 51.1834C164.355 52.7212 168.216 53.404 172.233 53.2433L172.295 54.8442L172.194 53.2491C175.726 53.0023 179.151 52.0326 182.459 50.3343C185.728 48.6588 188.578 46.1284 191.008 42.7431C193.445 39.3521 195.143 34.9684 196.099 29.5806C196.356 28.0486 196.255 26.9584 195.797 26.2928C195.361 25.6617 194.814 25.3059 194.154 25.2313C193.484 25.151 192.858 25.369 192.288 25.874C191.735 26.3674 191.455 27.2683 191.455 28.5707C191.455 34.5151 190.684 39.3406 189.148 43.0415C187.572 46.8342 185.488 49.6285 182.906 51.4302C180.33 53.2261 177.553 54.1728 174.586 54.2704C171.328 54.3622 168.143 53.5991 165.036 51.981C161.935 50.3629 159.376 48.0793 157.353 45.1301C155.308 42.1407 154.191 38.7324 154.012 34.8995C153.833 29.0412 154.923 24.0207 157.275 19.8263C159.639 15.6148 163.008 12.4073 167.378 10.2098C171.261 8.3048 175.502 7.38101 180.112 7.42118C184.599 7.46708 189.315 8.10398 194.255 9.32613C199.105 10.5311 204.061 11.9024 209.124 13.4516C214.125 14.9779 219.087 16.3148 224.004 17.4623C228.837 18.587 233.531 19.1493 238.074 19.1493H241.784L239.186 21.8747C231.218 30.229 223.607 38.6635 216.343 47.1842C209.079 55.7106 201.876 64.6157 194.741 73.9109C187.594 83.2062 180.162 93.2703 172.44 104.098C172.301 104.298 172.206 104.465 172.15 104.597C172.138 104.625 172.133 104.643 172.133 104.654C172.138 104.62 172.138 104.579 172.138 104.534C172.127 104.333 172.049 104.155 171.909 104C171.865 103.954 171.82 103.914 171.77 103.885V103.879C171.898 103.925 171.999 103.931 172.071 103.908C172.178 103.868 172.306 103.759 172.451 103.575Z" fill="#E9C140"/>
<path d="M233.542 102.055C231.715 99.9784 230.983 97.6431 231.346 95.0553C231.67 92.7373 232.575 90.3675 234.067 87.9519C235.486 85.6568 237.163 83.4018 239.096 81.2043L244.399 75.1738C246.008 73.3607 247.221 71.7885 248.048 70.4573C248.355 69.9639 248.517 69.5795 248.545 69.3098H248.573L248.551 69.2811L248.523 69.2524C248.489 69.218 248.416 69.2065 248.299 69.2237C247.869 69.304 247.282 69.6196 246.545 70.1704C244.74 71.5303 242.499 73.6303 239.811 76.4706C237.42 79.0067 234.928 81.8239 232.324 84.9224C229.714 88.0265 227.289 91.0044 225.054 93.8504C222.813 96.7078 220.992 99.0718 219.584 100.942L219.55 100.988C217.997 102.893 216.198 103.88 214.147 103.932C212.035 103.989 210.403 103.249 209.246 101.705C208.011 100.053 208.006 98.0275 209.23 95.6291C209.827 94.493 210.275 93.6553 210.571 93.1274C210.889 92.5709 211.398 91.802 212.096 90.8151C212.767 89.8683 213.895 88.3191 215.482 86.1732L222.411 76.7575L234.576 60.0375L235.822 60.9957L234.548 60.0719C235.553 58.6088 236.939 56.6751 238.694 54.271C240.437 51.8841 242.32 49.2447 244.354 46.3471C246.399 43.4323 248.444 40.5806 250.49 37.7977C252.535 35.0149 254.39 32.5132 256.055 30.2869C257.748 28.0262 259.106 26.3221 260.14 25.1803C262.179 22.9827 264.269 22.0245 266.415 22.3056C268.639 22.5983 270.153 23.7573 270.963 25.7828C271.773 27.7967 271.254 30.0746 269.398 32.6108L269.382 32.628L269.371 32.6509C268.65 33.569 266.744 35.4682 263.643 38.3486C260.62 41.1543 256.994 44.6831 252.769 48.9406C248.562 53.1751 244.315 57.9604 240.024 63.3023L238.817 62.281L240.057 63.2564L236.934 67.422L231.949 74.1467C230.139 76.5911 228.457 79.0411 226.892 81.4854C225.35 83.9068 224.177 85.9609 223.372 87.6535C223.031 88.365 222.841 88.9044 222.802 89.2716C222.797 89.3118 222.791 89.3462 222.797 89.3692C222.797 89.3519 222.791 89.329 222.78 89.3003C222.735 89.1454 222.64 89.0191 222.5 88.9159L222.534 88.9446L222.568 88.9675C222.35 88.7896 222.109 88.7093 221.847 88.7323C221.796 88.738 221.757 88.7437 221.724 88.7552C221.729 88.7552 221.746 88.7437 221.774 88.7265C222.048 88.5773 222.428 88.2503 222.925 87.7396C224.104 86.5289 225.496 84.974 227.094 83.0805C228.708 81.1698 230.323 79.2132 231.938 77.2107C233.581 75.1853 234.95 73.5558 236.051 72.3393C238.99 69.1549 241.588 66.4409 243.851 64.2031C246.271 61.8105 248.523 60.2612 250.618 59.544C253.065 58.7063 255.345 59.2629 257.463 61.2195C259.072 62.7572 259.631 64.6966 259.128 67.0433C258.715 68.977 257.815 71.0885 256.435 73.3779C255.116 75.5583 253.607 77.7845 251.914 80.0452C250.26 82.2485 248.735 84.3715 247.332 86.4027C245.986 88.3593 245.019 90.0462 244.438 91.4749C244.086 92.3528 244.036 92.9266 244.293 93.1905L243.186 94.3209L244.248 93.1446C244.902 93.7643 246.22 93.793 248.199 93.225C250.557 92.5536 253.35 91.0274 256.569 88.6634C259.855 86.2478 263.252 83.1092 266.761 79.2591L267.555 78.3813L271.404 80.3608L270.069 81.9215C267.04 85.4674 263.839 88.8355 260.475 92.0372C257.077 95.2619 253.742 97.9644 250.467 100.15C247.092 102.4 243.991 103.8 241.169 104.356C237.973 104.982 235.431 104.213 233.542 102.055ZM235.861 99.9152C236.967 101.178 238.543 101.608 240.588 101.206C243.008 100.736 245.734 99.4849 248.763 97.4652C251.892 95.3766 255.088 92.7831 258.351 89.6847C261.643 86.5634 264.766 83.2699 267.728 79.8042L268.901 80.8657L268.203 82.2944L267.202 81.7838L267.901 80.3493L269.041 81.4452C265.392 85.456 261.838 88.7265 258.385 91.2684C254.865 93.8561 251.752 95.5373 249.037 96.3119C245.941 97.2013 243.639 96.9258 242.13 95.4971L242.108 95.4742L242.086 95.457C240.845 94.1774 240.666 92.4446 241.56 90.247C242.231 88.5946 243.304 86.7011 244.784 84.5494C246.209 82.4838 247.763 80.3321 249.439 78.0944C251.071 75.914 252.518 73.7795 253.781 71.691C254.976 69.7057 255.742 67.9327 256.077 66.3605C256.329 65.2015 256.088 64.2835 255.373 63.6007C254.161 62.476 252.903 62.1375 251.607 62.5793C249.959 63.1474 248.092 64.4556 246.019 66.5097C243.79 68.713 241.231 71.3869 238.342 74.5197C237.275 75.696 235.945 77.2739 234.341 79.2591C232.709 81.2788 231.083 83.2527 229.452 85.1806C227.803 87.1314 226.362 88.7437 225.132 90.0061C224.423 90.7348 223.797 91.2512 223.255 91.5495C222.243 92.1118 221.366 92.0831 220.617 91.4692L221.595 90.2184L220.684 91.5266C219.388 90.5741 219.349 88.8126 220.567 86.2478C221.428 84.4346 222.668 82.2657 224.283 79.7296C225.881 77.2222 227.613 74.7148 229.463 72.2016L234.464 65.4654L237.599 61.2826L237.615 61.2596C241.979 55.8317 246.299 50.966 250.585 46.6512C254.842 42.365 258.497 38.8076 261.548 35.9731C264.526 33.2075 266.32 31.4345 266.934 30.6484L268.152 31.6468L266.901 30.6886C268.046 29.1222 268.437 27.8943 268.08 27.0049C267.728 26.127 267.04 25.6164 266.018 25.4844C264.917 25.3352 263.721 25.9606 262.431 27.3492C261.464 28.4279 260.162 30.0574 258.53 32.2378C256.865 34.4583 255.021 36.9543 252.982 39.7256C250.953 42.4913 248.919 45.3257 246.885 48.2233C244.84 51.1324 242.946 53.789 241.192 56.1931C239.454 58.5743 238.085 60.4793 237.096 61.9195L237.085 61.9424L224.898 78.6911L217.969 88.1126C216.393 90.2413 215.276 91.7676 214.616 92.7028C213.985 93.5979 213.532 94.2807 213.27 94.7455C212.985 95.2389 212.56 96.0308 211.99 97.1152C211.386 98.3029 211.297 99.1865 211.722 99.7546C212.23 100.432 213.013 100.759 214.063 100.73C215.175 100.701 216.203 100.105 217.153 98.9341L218.349 99.9612L217.114 98.98C218.533 97.0922 220.372 94.7111 222.623 91.8421C224.881 88.9675 227.328 85.9609 229.96 82.8281C232.603 79.6895 235.14 76.8263 237.576 74.2386C240.381 71.2664 242.756 69.0516 244.701 67.5884C247.327 65.6089 249.372 65.4482 250.83 67.095L249.679 68.1737L250.78 67.0433C252.037 68.3343 252.004 70.0442 250.68 72.1729C249.758 73.6648 248.439 75.3804 246.718 77.3255L241.415 83.3445C239.599 85.4158 238.029 87.5216 236.705 89.6675C235.453 91.6987 234.693 93.6438 234.436 95.5086C234.212 97.1095 234.687 98.5783 235.861 99.9152Z" fill="#E9C140"/>
<path d="M268.398 102.312C265.169 100.068 263.364 97.1878 262.978 93.6648C262.615 90.3541 263.191 86.8598 264.716 83.1818C266.191 79.6129 268.276 76.2276 270.958 73.0259C273.712 69.6693 276.797 66.8348 280.211 64.5282C283.675 62.1872 287.056 60.7183 290.347 60.1216C293.912 59.4789 296.795 60.1331 298.997 62.0896C300.657 63.5643 301.355 65.6471 301.092 68.3324C300.858 70.7136 299.952 73.2267 298.371 75.8661C296.829 78.4481 294.745 80.881 292.124 83.1704C289.464 85.4942 286.285 87.2385 282.586 88.4147C280.546 89.0803 278.836 88.9541 277.467 88.036C276.143 87.1467 275.333 85.9245 275.042 84.3696C274.752 82.8261 275.02 81.4261 275.836 80.1637C276.73 78.7924 278.199 78.1039 280.256 78.1039C284.005 78.1039 287 77.5416 289.241 76.4112C291.448 75.2981 293.074 73.944 294.124 72.3374C295.153 70.7767 295.667 69.3021 295.667 67.9193C295.667 66.6799 295.382 65.7963 294.806 65.2569L294.778 65.234L294.756 65.2053C294.124 64.5626 293.242 64.4364 292.107 64.8208C290.537 65.3602 288.827 66.3987 286.978 67.9422C285.061 69.5488 283.212 71.4193 281.446 73.5653C279.775 75.5276 278.361 77.6678 277.216 79.9859C276.104 82.2294 275.473 84.3982 275.322 86.4925C275.182 88.4262 275.635 90.182 276.674 91.7484L275.389 92.655L276.635 91.691C278.037 93.6132 279.926 94.4681 282.306 94.2615C285.005 94.0263 288.112 92.741 291.644 90.4115C295.292 87.9959 299.12 84.731 303.115 80.6285L304.222 79.4924L307.032 82.3843L306.211 83.4974C304.082 86.3835 301.484 89.3155 298.427 92.282C295.348 95.2657 292.079 97.8305 288.615 99.9821C285.078 102.18 281.591 103.597 278.16 104.228C274.5 104.899 271.248 104.263 268.404 102.317L268.398 102.312ZM270.136 99.6493C272.282 101.124 274.774 101.594 277.607 101.072C280.664 100.51 283.793 99.2305 287 97.2395C290.275 95.2083 293.37 92.7755 296.281 89.9524C299.215 87.1065 301.696 84.3122 303.724 81.558L304.97 82.5277L303.864 83.6638L303.115 82.8892L304.222 81.7589L305.322 82.8892C301.165 87.1581 297.17 90.5607 293.331 93.1025C289.369 95.7247 285.782 97.1763 282.569 97.4518C279.043 97.7616 276.233 96.4821 274.137 93.6132L274.12 93.5845L274.098 93.5558C272.645 91.3697 272.014 88.9369 272.209 86.2573C272.388 83.7327 273.131 81.1621 274.433 78.5342C275.696 75.9809 277.244 73.6341 279.065 71.4939C280.96 69.1988 282.938 67.1848 285.011 65.4577C287.157 63.6675 289.19 62.4454 291.118 61.7855C293.476 60.9765 295.421 61.3609 296.957 62.9388L295.857 64.0749L296.907 62.8872C298.164 64.0577 298.79 65.7332 298.79 67.9193C298.79 69.9504 298.097 72.0218 296.712 74.1333C295.354 76.2047 293.32 77.926 290.615 79.2859C287.944 80.6342 284.491 81.3113 280.256 81.3113C279.311 81.3113 278.708 81.5236 278.434 81.9425C278.088 82.4761 277.976 83.0843 278.104 83.7614C278.227 84.4269 278.585 84.9606 279.172 85.3507C279.719 85.7179 280.546 85.7179 281.664 85.3565C284.955 84.3064 287.771 82.7687 290.101 80.7318C292.476 78.6604 294.342 76.4801 295.711 74.1907C297.047 71.9644 297.801 69.9045 297.986 68.0168C298.142 66.4274 297.796 65.2627 296.957 64.5167C295.499 63.2257 293.476 62.8126 290.884 63.2774C288.017 63.7938 285.033 65.102 281.926 67.202C278.764 69.3422 275.897 71.9759 273.321 75.1145C270.851 78.0637 268.94 81.1736 267.588 84.4384C266.281 87.5942 265.778 90.5549 266.08 93.3091C266.359 95.8509 267.711 97.9682 270.147 99.6551L270.136 99.6493Z" fill="#E9C140"/>
<path d="M173.664 104.569C172.993 105.424 172.2 105.7 171.295 105.396C170.384 105.103 170.339 104.363 171.161 103.169C178.905 92.3248 186.359 82.2378 193.512 72.9196C200.664 63.6014 207.872 54.6733 215.147 46.1355C222.434 37.5976 230.067 29.1401 238.057 20.7514C233.408 20.7514 228.603 20.1776 223.641 19.0301C218.69 17.8825 213.7 16.5456 208.666 15.0136C203.642 13.4701 198.719 12.0988 193.892 10.9053C189.064 9.70039 184.465 9.0807 180.101 9.04628C175.731 9.00038 171.719 9.87252 168.054 11.6627C163.969 13.7169 160.823 16.7063 158.622 20.6367C156.415 24.5728 155.392 29.3122 155.56 34.8664C155.738 38.3722 156.755 41.4936 158.622 44.2305C160.499 46.956 162.868 49.0675 165.729 50.5651C168.601 52.0512 171.541 52.7569 174.536 52.6766C177.201 52.5848 179.699 51.7298 182.023 50.106C184.359 48.488 186.253 45.9232 187.7 42.4174C189.159 38.9173 189.891 34.3041 189.891 28.5778C189.891 26.7876 190.343 25.4908 191.254 24.6761C192.176 23.867 193.199 23.5228 194.316 23.6433C195.445 23.7695 196.361 24.3433 197.065 25.3646C197.781 26.3917 197.965 27.8892 197.624 29.863C196.624 35.4976 194.836 40.1108 192.26 43.7026C189.678 47.283 186.639 49.9798 183.141 51.7815C179.654 53.5717 176.039 54.5987 172.301 54.8569C168.054 55.0291 163.969 54.3004 160.052 52.6766C156.146 51.0585 152.945 48.6601 150.441 45.4928C147.949 42.3256 146.709 38.6075 146.709 34.3385C146.709 29.3065 148.597 24.7851 152.386 20.7744C156.169 16.7522 160.767 13.2865 166.176 10.3774C172.166 7.21018 178.073 5.3167 183.901 4.68554C189.723 4.04291 195.356 4.21504 200.798 5.19047C206.252 6.17164 211.415 7.56592 216.287 9.3676C221.16 11.1578 225.652 12.9136 229.765 14.6234C233.889 16.3218 237.487 17.5554 240.56 18.3186C243.807 19.0874 247.361 19.1333 251.222 18.4563C255.094 17.7677 258.944 16.6144 262.777 14.9906C264.191 14.3939 265.331 14.3824 266.197 14.9447C267.074 15.4956 267.594 16.3333 267.762 17.4464C267.94 18.5481 267.672 19.6153 266.957 20.6367C266.253 21.6637 264.99 22.3465 263.157 22.6793C259.654 23.276 256.094 23.2531 252.474 22.6105C248.864 21.9678 245.394 21.394 242.058 20.8891C235.068 28.0671 228.58 35.6353 222.59 43.5879C216.6 51.529 210.711 60.1357 204.933 69.408C199.15 78.6688 192.975 88.9797 186.404 100.346C185.823 101.373 185.029 101.941 184.035 102.068C183.035 102.205 181.934 102.228 180.727 102.136C179.52 102.056 178.291 102.142 177.039 102.389C175.787 102.647 174.659 103.376 173.664 104.569Z" fill="#E9C140"/>
<path d="M234.693 100.986C233.201 99.2766 232.598 97.3773 232.883 95.2945C233.179 93.2002 234.011 91.0428 235.386 88.8223C236.755 86.5903 238.37 84.4099 240.236 82.2812C242.113 80.141 243.885 78.127 245.556 76.245C247.221 74.363 248.489 72.722 249.355 71.3105C250.232 69.9047 250.339 68.8547 249.668 68.1662C248.83 67.2366 247.478 67.4719 245.6 68.8776C243.734 70.2891 241.432 72.4466 238.694 75.3499C236.28 77.9204 233.76 80.7664 231.139 83.8878C228.513 86.9976 226.077 89.9813 223.83 92.8387C221.595 95.7019 219.768 98.0716 218.354 99.9536C217.103 101.503 215.689 102.283 214.108 102.318C212.532 102.363 211.325 101.836 210.487 100.734C209.654 99.6208 209.699 98.1634 210.621 96.3732C211.202 95.2601 211.644 94.4453 211.94 93.9404C212.225 93.424 212.7 92.6953 213.37 91.76C214.029 90.8133 215.147 89.2756 216.723 87.1468C218.299 85.0066 220.612 81.868 223.652 77.7368C226.691 73.5941 230.748 68.017 235.833 61.0054C236.827 59.5537 238.202 57.6315 239.945 55.2446C241.689 52.8462 243.577 50.1896 245.623 47.2805C247.662 44.3772 249.696 41.537 251.724 38.7656C253.764 35.9828 255.619 33.4811 257.29 31.2606C258.955 29.0458 260.29 27.3761 261.291 26.2572C262.945 24.467 264.582 23.6809 266.208 23.8932C267.828 24.1113 268.935 24.9432 269.516 26.3949C270.097 27.8523 269.639 29.6023 268.152 31.6507C267.482 32.5114 265.627 34.3475 262.587 37.159C259.547 39.9763 255.904 43.528 251.657 47.8084C247.422 52.0773 243.147 56.9086 238.828 62.2906C238.23 63.0595 237.18 64.4423 235.676 66.4448C234.184 68.453 232.525 70.6908 230.692 73.1695C228.871 75.6483 227.172 78.127 225.596 80.6057C224.015 83.0845 222.808 85.2074 221.975 86.9632C221.137 88.7075 221.014 89.7977 221.595 90.2223C222.009 90.5608 222.825 90.1075 224.032 88.8682C225.238 87.6288 226.652 86.0566 228.278 84.1402C229.899 82.2123 231.519 80.25 233.128 78.2417C234.749 76.2393 236.107 74.6327 237.196 73.422C240.102 70.2719 242.678 67.5866 244.93 65.3661C247.176 63.1341 249.232 61.7054 251.099 61.0742C252.976 60.4316 254.747 60.8791 256.418 62.4054C257.58 63.5243 257.972 64.9645 257.603 66.7202C257.228 68.4645 256.396 70.4096 255.099 72.5498C253.814 74.6786 252.339 76.8532 250.674 79.068C249.003 81.2885 247.461 83.423 246.047 85.4714C244.628 87.5255 243.611 89.3215 242.985 90.8649C242.371 92.3969 242.438 93.5502 243.186 94.3306C244.27 95.3576 246.081 95.5126 248.618 94.7896C251.149 94.0551 254.099 92.4486 257.469 89.9698C260.832 87.4911 264.314 84.2894 267.907 80.3533L268.89 80.8582C265.895 84.364 262.732 87.6977 259.413 90.8649C256.088 94.0207 252.825 96.6658 249.623 98.8061C246.416 100.952 243.505 102.272 240.884 102.777C238.258 103.293 236.196 102.696 234.693 100.986Z" fill="#E9C140"/>
<path d="M269.276 100.987C266.443 99.0133 264.856 96.5116 264.515 93.482C264.191 90.4525 264.727 87.2336 266.147 83.8196C267.56 80.3941 269.555 77.1408 272.137 74.0653C274.802 70.8234 277.775 68.0922 281.055 65.8717C284.346 63.6569 287.525 62.2684 290.599 61.7175C293.683 61.1552 296.142 61.6831 297.974 63.3012C299.226 64.42 299.746 66.0496 299.539 68.1898C299.327 70.3185 298.494 72.5964 297.036 75.0292C295.572 77.4621 293.594 79.7744 291.09 81.9605C288.598 84.1351 285.614 85.7819 282.128 86.895C280.546 87.4 279.272 87.3311 278.306 86.6885C277.35 86.0458 276.769 85.1737 276.562 84.072C276.35 82.9589 276.54 81.9548 277.121 81.0654C277.713 80.1646 278.758 79.7113 280.25 79.7113C284.24 79.7113 287.469 79.0916 289.928 77.8522C292.387 76.6129 294.219 75.0751 295.426 73.239C296.633 71.4029 297.237 69.6357 297.237 67.9373C297.237 66.2274 296.773 64.9422 295.851 64.0815C294.778 62.9684 293.359 62.7044 291.604 63.3012C289.861 63.8979 287.989 65.034 285.994 66.6979C283.994 68.3676 282.083 70.3128 280.25 72.5276C278.507 74.5817 277.032 76.8309 275.825 79.2752C274.618 81.708 273.93 84.0835 273.768 86.3901C273.601 88.6852 274.137 90.7738 275.378 92.6558C277.132 95.0427 279.49 96.1157 282.44 95.869C285.391 95.6108 288.732 94.2394 292.476 91.7607C296.231 89.282 300.142 85.9483 304.21 81.754L304.97 82.5343C302.88 85.3516 300.344 88.2147 297.349 91.1181C294.354 94.0271 291.169 96.5288 287.805 98.6231C284.435 100.706 281.127 102.043 277.881 102.64C274.629 103.248 271.762 102.697 269.276 100.987Z" fill="#E9C140"/>
</g>
</svg>
